G04 #@! TF.GenerationSoftware,KiCad,Pcbnew,(5.1.6-0-10_14)*
G04 #@! TF.CreationDate,2023-11-11T16:14:15-08:00*
G04 #@! TF.ProjectId,RaspberryPiProtoHat,52617370-6265-4727-9279-506950726f74,rev?*
G04 #@! TF.SameCoordinates,Original*
G04 #@! TF.FileFunction,Copper,L1,Top*
G04 #@! TF.FilePolarity,Positive*
%FSLAX46Y46*%
G04 Gerber Fmt 4.6, Leading zero omitted, Abs format (unit mm)*
G04 Created by KiCad (PCBNEW (5.1.6-0-10_14)) date 2023-11-11 16:14:15*
%MOMM*%
%LPD*%
G01*
G04 APERTURE LIST*
G04 #@! TA.AperFunction,ComponentPad*
%ADD10C,1.700000*%
G04 #@! TD*
G04 #@! TA.AperFunction,ComponentPad*
%ADD11O,1.700000X1.700000*%
G04 #@! TD*
G04 #@! TA.AperFunction,SMDPad,CuDef*
%ADD12R,1.550000X1.300000*%
G04 #@! TD*
G04 #@! TA.AperFunction,SMDPad,CuDef*
%ADD13R,1.300000X0.600000*%
G04 #@! TD*
G04 #@! TA.AperFunction,ComponentPad*
%ADD14R,1.700000X1.700000*%
G04 #@! TD*
G04 #@! TA.AperFunction,Conductor*
%ADD15C,0.200000*%
G04 #@! TD*
G04 #@! TA.AperFunction,Conductor*
%ADD16C,0.254000*%
G04 #@! TD*
G04 APERTURE END LIST*
D10*
X257912000Y-147460000D03*
X257912000Y-144920000D03*
X262992000Y-142380000D03*
X260452000Y-142380000D03*
X257912000Y-142380000D03*
D11*
X262230000Y-107455000D03*
X259690000Y-107455000D03*
X257150000Y-107455000D03*
X254610000Y-107455000D03*
X252070000Y-107455000D03*
X249530000Y-107455000D03*
X246990000Y-107455000D03*
X244450000Y-107455000D03*
D10*
X241910000Y-107455000D03*
D11*
X234290000Y-107455000D03*
X231750000Y-107455000D03*
X229210000Y-107455000D03*
X226670000Y-107455000D03*
X224130000Y-107455000D03*
X221590000Y-107455000D03*
X219050000Y-107455000D03*
X216510000Y-107455000D03*
D10*
X213970000Y-107455000D03*
D11*
X262230000Y-109995000D03*
X259690000Y-109995000D03*
X257150000Y-109995000D03*
X254610000Y-109995000D03*
X252070000Y-109995000D03*
X249530000Y-109995000D03*
X246990000Y-109995000D03*
X244450000Y-109995000D03*
X241910000Y-109995000D03*
X239370000Y-109995000D03*
X236830000Y-109995000D03*
X234290000Y-109995000D03*
X231750000Y-109995000D03*
X229210000Y-109995000D03*
X226670000Y-109995000D03*
X224130000Y-109995000D03*
X221590000Y-109995000D03*
X219050000Y-109995000D03*
X216510000Y-109995000D03*
X213970000Y-109995000D03*
D10*
X211430000Y-109995000D03*
D11*
X262230000Y-103010000D03*
X259690000Y-103010000D03*
X257150000Y-103010000D03*
X254610000Y-103010000D03*
X252070000Y-103010000D03*
X249530000Y-103010000D03*
X246990000Y-103010000D03*
X244450000Y-103010000D03*
X241910000Y-103010000D03*
X239370000Y-103010000D03*
X236830000Y-103010000D03*
X234290000Y-103010000D03*
X231750000Y-103010000D03*
X229210000Y-103010000D03*
X226670000Y-103010000D03*
X224130000Y-103010000D03*
X221590000Y-103010000D03*
X219050000Y-103010000D03*
X216510000Y-103010000D03*
X213970000Y-103010000D03*
X211430000Y-103010000D03*
X208890000Y-103010000D03*
X206350000Y-103010000D03*
D10*
X203810000Y-103010000D03*
X255245000Y-147460000D03*
X252705000Y-147460000D03*
X250165000Y-147460000D03*
X247625000Y-147460000D03*
X255245000Y-144920000D03*
X252705000Y-144920000D03*
X250165000Y-144920000D03*
X247625000Y-144920000D03*
X255245000Y-142380000D03*
X252705000Y-142380000D03*
X250165000Y-142380000D03*
X247625000Y-142380000D03*
X262865000Y-139840000D03*
X260325000Y-139840000D03*
X257785000Y-139840000D03*
X255245000Y-139840000D03*
X252705000Y-139840000D03*
X250165000Y-139840000D03*
X247625000Y-139840000D03*
X262865000Y-137300000D03*
X260325000Y-137300000D03*
X257785000Y-137300000D03*
X255245000Y-137300000D03*
X252705000Y-137300000D03*
X250165000Y-137300000D03*
X247625000Y-137300000D03*
X262865000Y-134760000D03*
X260325000Y-134760000D03*
X257785000Y-134760000D03*
X255245000Y-134760000D03*
X252705000Y-134760000D03*
X250165000Y-134760000D03*
X247625000Y-134760000D03*
X262865000Y-132220000D03*
X260325000Y-132220000D03*
X257785000Y-132220000D03*
X255245000Y-132220000D03*
X252705000Y-132220000D03*
X250165000Y-132220000D03*
X247625000Y-132220000D03*
X262865000Y-129680000D03*
X260325000Y-129680000D03*
X257785000Y-129680000D03*
X255245000Y-129680000D03*
X252705000Y-129680000D03*
X250165000Y-129680000D03*
X247625000Y-129680000D03*
X262865000Y-127140000D03*
X260325000Y-127140000D03*
X257785000Y-127140000D03*
X255245000Y-127140000D03*
X252705000Y-127140000D03*
X250165000Y-127140000D03*
X247625000Y-127140000D03*
X245085000Y-127140000D03*
X242545000Y-127140000D03*
X240005000Y-127140000D03*
X262865000Y-124600000D03*
X260325000Y-124600000D03*
X257785000Y-124600000D03*
X255245000Y-124600000D03*
X252705000Y-124600000D03*
X250165000Y-124600000D03*
X247625000Y-124600000D03*
X245085000Y-124600000D03*
X242545000Y-124600000D03*
X240005000Y-124600000D03*
X262865000Y-122060000D03*
X260325000Y-122060000D03*
X257785000Y-122060000D03*
X255245000Y-122060000D03*
X252705000Y-122060000D03*
X250165000Y-122060000D03*
X247625000Y-122060000D03*
X245085000Y-122060000D03*
X242545000Y-122060000D03*
X240005000Y-122060000D03*
X262865000Y-119520000D03*
X260325000Y-119520000D03*
X257785000Y-119520000D03*
X255245000Y-119520000D03*
X252705000Y-119520000D03*
X250165000Y-119520000D03*
X247625000Y-119520000D03*
X245085000Y-119520000D03*
X242545000Y-119520000D03*
X240005000Y-119520000D03*
X262865000Y-116980000D03*
X260325000Y-116980000D03*
X257785000Y-116980000D03*
X255245000Y-116980000D03*
X252705000Y-116980000D03*
X250165000Y-116980000D03*
X247625000Y-116980000D03*
X245085000Y-116980000D03*
X242545000Y-116980000D03*
X240005000Y-116980000D03*
X262865000Y-114440000D03*
X260325000Y-114440000D03*
X257785000Y-114440000D03*
X255245000Y-114440000D03*
X252705000Y-114440000D03*
X250165000Y-114440000D03*
X247625000Y-114440000D03*
X245085000Y-114440000D03*
X242545000Y-114440000D03*
X240005000Y-114440000D03*
D12*
X233490000Y-148440000D03*
X233490000Y-143940000D03*
X241440000Y-143940000D03*
X241440000Y-148440000D03*
G04 #@! TA.AperFunction,SMDPad,CuDef*
G36*
G01*
X222610000Y-148720000D02*
X222610000Y-147470000D01*
G75*
G02*
X222860000Y-147220000I250000J0D01*
G01*
X223610000Y-147220000D01*
G75*
G02*
X223860000Y-147470000I0J-250000D01*
G01*
X223860000Y-148720000D01*
G75*
G02*
X223610000Y-148970000I-250000J0D01*
G01*
X222860000Y-148970000D01*
G75*
G02*
X222610000Y-148720000I0J250000D01*
G01*
G37*
G04 #@! TD.AperFunction*
G04 #@! TA.AperFunction,SMDPad,CuDef*
G36*
G01*
X225410000Y-148720000D02*
X225410000Y-147470000D01*
G75*
G02*
X225660000Y-147220000I250000J0D01*
G01*
X226410000Y-147220000D01*
G75*
G02*
X226660000Y-147470000I0J-250000D01*
G01*
X226660000Y-148720000D01*
G75*
G02*
X226410000Y-148970000I-250000J0D01*
G01*
X225660000Y-148970000D01*
G75*
G02*
X225410000Y-148720000I0J250000D01*
G01*
G37*
G04 #@! TD.AperFunction*
D13*
X212700000Y-148095000D03*
X210600000Y-149045000D03*
X210600000Y-147145000D03*
G04 #@! TA.AperFunction,SMDPad,CuDef*
G36*
G01*
X216895000Y-148720000D02*
X216895000Y-147470000D01*
G75*
G02*
X217145000Y-147220000I250000J0D01*
G01*
X217895000Y-147220000D01*
G75*
G02*
X218145000Y-147470000I0J-250000D01*
G01*
X218145000Y-148720000D01*
G75*
G02*
X217895000Y-148970000I-250000J0D01*
G01*
X217145000Y-148970000D01*
G75*
G02*
X216895000Y-148720000I0J250000D01*
G01*
G37*
G04 #@! TD.AperFunction*
G04 #@! TA.AperFunction,SMDPad,CuDef*
G36*
G01*
X219695000Y-148720000D02*
X219695000Y-147470000D01*
G75*
G02*
X219945000Y-147220000I250000J0D01*
G01*
X220695000Y-147220000D01*
G75*
G02*
X220945000Y-147470000I0J-250000D01*
G01*
X220945000Y-148720000D01*
G75*
G02*
X220695000Y-148970000I-250000J0D01*
G01*
X219945000Y-148970000D01*
G75*
G02*
X219695000Y-148720000I0J250000D01*
G01*
G37*
G04 #@! TD.AperFunction*
D11*
X240640000Y-136665000D03*
D14*
X240640000Y-134125000D03*
D11*
X201905000Y-136030000D03*
D14*
X201905000Y-133490000D03*
D11*
X256630000Y-96230000D03*
X256630000Y-98770000D03*
X254090000Y-96230000D03*
X254090000Y-98770000D03*
X251550000Y-96230000D03*
X251550000Y-98770000D03*
X249010000Y-96230000D03*
X249010000Y-98770000D03*
X246470000Y-96230000D03*
X246470000Y-98770000D03*
X243930000Y-96230000D03*
X243930000Y-98770000D03*
X241390000Y-96230000D03*
X241390000Y-98770000D03*
X238850000Y-96230000D03*
X238850000Y-98770000D03*
X236310000Y-96230000D03*
X236310000Y-98770000D03*
X233770000Y-96230000D03*
X233770000Y-98770000D03*
X231230000Y-96230000D03*
X231230000Y-98770000D03*
X228690000Y-96230000D03*
X228690000Y-98770000D03*
X226150000Y-96230000D03*
X226150000Y-98770000D03*
X223610000Y-96230000D03*
X223610000Y-98770000D03*
X221070000Y-96230000D03*
X221070000Y-98770000D03*
X218530000Y-96230000D03*
X218530000Y-98770000D03*
X215990000Y-96230000D03*
X215990000Y-98770000D03*
X213450000Y-96230000D03*
X213450000Y-98770000D03*
X210910000Y-96230000D03*
X210910000Y-98770000D03*
X208370000Y-96230000D03*
D14*
X208370000Y-98770000D03*
D15*
X205360367Y-131084633D02*
X205360367Y-107100367D01*
X202955000Y-133490000D02*
X205360367Y-131084633D01*
X201905000Y-133490000D02*
X202955000Y-133490000D01*
X205360367Y-107100367D02*
X202659999Y-104399999D01*
X202659999Y-101940001D02*
X208370000Y-96230000D01*
X202659999Y-104399999D02*
X202659999Y-101940001D01*
X233490000Y-148440000D02*
X241440000Y-148440000D01*
X241440000Y-148440000D02*
X241440000Y-147676000D01*
X241440000Y-147676000D02*
X243180000Y-145936000D01*
X243180000Y-139205000D02*
X240640000Y-136665000D01*
X243180000Y-145936000D02*
X243180000Y-139205000D01*
X211430000Y-109995000D02*
X213970000Y-109995000D01*
X233490000Y-148440000D02*
X230952000Y-148440000D01*
X230952000Y-148440000D02*
X228702000Y-146190000D01*
X228702000Y-146190000D02*
X214224000Y-146190000D01*
X212700000Y-147714000D02*
X212700000Y-148095000D01*
X214224000Y-146190000D02*
X212700000Y-147714000D01*
X241910000Y-100790000D02*
X243930000Y-98770000D01*
X241910000Y-103010000D02*
X241910000Y-100790000D01*
X244450000Y-100790000D02*
X246470000Y-98770000D01*
X244450000Y-103010000D02*
X244450000Y-100790000D01*
X203810000Y-103010000D02*
X206350000Y-100470000D01*
X209210000Y-100470000D02*
X210910000Y-98770000D01*
X206350000Y-100470000D02*
X209210000Y-100470000D01*
X211349990Y-100870010D02*
X213450000Y-98770000D01*
X233490000Y-143940000D02*
X241440000Y-143940000D01*
X241440000Y-143940000D02*
X241440000Y-143688000D01*
X241440000Y-143688000D02*
X238608000Y-140856000D01*
X240640000Y-134125000D02*
X239243000Y-134125000D01*
X238608000Y-134760000D02*
X238608000Y-140856000D01*
X239243000Y-134125000D02*
X238608000Y-134760000D01*
X207713698Y-143940000D02*
X206160387Y-142386689D01*
X233490000Y-143940000D02*
X207713698Y-143940000D01*
X211349990Y-100870010D02*
X208997990Y-100870010D01*
X207500001Y-102367999D02*
X207500001Y-104399999D01*
X208997990Y-100870010D02*
X207500001Y-102367999D01*
X206160387Y-105739613D02*
X206160387Y-109170387D01*
X207500001Y-104399999D02*
X206160387Y-105739613D01*
X206160387Y-109170387D02*
X206160387Y-108845311D01*
X206160387Y-142386689D02*
X206160387Y-109170387D01*
X213970000Y-100790000D02*
X215990000Y-98770000D01*
X213970000Y-103010000D02*
X213970000Y-100790000D01*
X214839999Y-99092001D02*
X214839999Y-97380001D01*
X212661980Y-101270020D02*
X214839999Y-99092001D01*
X214839999Y-97380001D02*
X215990000Y-96230000D01*
X210629980Y-101270020D02*
X212661980Y-101270020D01*
X208890000Y-103010000D02*
X210629980Y-101270020D01*
X211430000Y-103010000D02*
X211487698Y-103010000D01*
X243649990Y-148195012D02*
X242455001Y-149390001D01*
X227330001Y-149390001D02*
X226035000Y-148095000D01*
X243649990Y-133014358D02*
X243649990Y-148195012D01*
X238354000Y-127718368D02*
X243649990Y-133014358D01*
X242455001Y-149390001D02*
X227330001Y-149390001D01*
X238354000Y-114491002D02*
X238354000Y-127718368D01*
X235508998Y-111646000D02*
X238354000Y-114491002D01*
X221538998Y-111646000D02*
X235508998Y-111646000D01*
X220220001Y-110327003D02*
X221538998Y-111646000D01*
X220220001Y-99619999D02*
X220220001Y-110327003D01*
X221070000Y-98770000D02*
X220220001Y-99619999D01*
X224760001Y-97619999D02*
X226150000Y-96230000D01*
X224760001Y-99839999D02*
X224760001Y-97619999D01*
X221590000Y-103010000D02*
X224760001Y-99839999D01*
X227300001Y-99839999D02*
X227300001Y-97619999D01*
X227300001Y-97619999D02*
X228690000Y-96230000D01*
X224130000Y-103010000D02*
X227300001Y-99839999D01*
X230079999Y-98076001D02*
X230775999Y-97380001D01*
X232619999Y-97380001D02*
X233770000Y-96230000D01*
X230079999Y-99600001D02*
X230079999Y-98076001D01*
X230775999Y-97380001D02*
X232619999Y-97380001D01*
X226670000Y-103010000D02*
X230079999Y-99600001D01*
X219680001Y-97619999D02*
X221070000Y-96230000D01*
X217977999Y-97619999D02*
X219680001Y-97619999D01*
X217379999Y-98217999D02*
X217977999Y-97619999D01*
X217379999Y-102140001D02*
X217379999Y-98217999D01*
X216510000Y-103010000D02*
X217379999Y-102140001D01*
X231230000Y-100990000D02*
X231230000Y-98770000D01*
X229210000Y-103010000D02*
X231230000Y-100990000D01*
X231750000Y-100790000D02*
X233770000Y-98770000D01*
X231750000Y-103010000D02*
X231750000Y-100790000D01*
X234290000Y-100790000D02*
X236310000Y-98770000D01*
X234290000Y-103010000D02*
X234290000Y-100790000D01*
X237679999Y-97599999D02*
X236310000Y-96230000D01*
X237679999Y-102160001D02*
X237679999Y-97599999D01*
X236830000Y-103010000D02*
X237679999Y-102160001D01*
X240219999Y-97599999D02*
X238850000Y-96230000D01*
X240219999Y-102160001D02*
X240219999Y-97599999D01*
X239370000Y-103010000D02*
X240219999Y-102160001D01*
X247859999Y-97619999D02*
X246470000Y-96230000D01*
X247859999Y-102140001D02*
X247859999Y-97619999D01*
X246990000Y-103010000D02*
X247859999Y-102140001D01*
X249530000Y-99290000D02*
X249010000Y-98770000D01*
X249530000Y-103010000D02*
X249530000Y-99290000D01*
X251550000Y-99950000D02*
X251550000Y-98770000D01*
X254610000Y-103010000D02*
X251550000Y-99950000D01*
X250160001Y-97619999D02*
X251550000Y-96230000D01*
X250160001Y-101100001D02*
X250160001Y-97619999D01*
X252070000Y-103010000D02*
X250160001Y-101100001D01*
X255999999Y-101859999D02*
X254983999Y-101859999D01*
X257150000Y-103010000D02*
X255999999Y-101859999D01*
X252939999Y-99815999D02*
X252939999Y-97380001D01*
X252939999Y-97380001D02*
X254090000Y-96230000D01*
X254983999Y-101859999D02*
X252939999Y-99815999D01*
X259690000Y-99290000D02*
X256630000Y-96230000D01*
X259690000Y-103010000D02*
X259690000Y-99290000D01*
X201905000Y-140350000D02*
X201905000Y-136030000D01*
X210600000Y-149045000D02*
X201905000Y-140350000D01*
X223235000Y-148095000D02*
X220320000Y-148095000D01*
X217520000Y-148095000D02*
X216891000Y-148095000D01*
X217520000Y-148095000D02*
X216631000Y-148984000D01*
X210600000Y-147485002D02*
X210600000Y-147145000D01*
X212098998Y-148984000D02*
X210600000Y-147485002D01*
X216631000Y-148984000D02*
X212098998Y-148984000D01*
D16*
G36*
X217896525Y-103956632D02*
G01*
X218103368Y-104163475D01*
X218346589Y-104325990D01*
X218616842Y-104437932D01*
X218903740Y-104495000D01*
X219196260Y-104495000D01*
X219483158Y-104437932D01*
X219485001Y-104437168D01*
X219485002Y-106027832D01*
X219483158Y-106027068D01*
X219196260Y-105970000D01*
X218903740Y-105970000D01*
X218616842Y-106027068D01*
X218346589Y-106139010D01*
X218103368Y-106301525D01*
X217896525Y-106508368D01*
X217780000Y-106682760D01*
X217663475Y-106508368D01*
X217456632Y-106301525D01*
X217213411Y-106139010D01*
X216943158Y-106027068D01*
X216656260Y-105970000D01*
X216363740Y-105970000D01*
X216076842Y-106027068D01*
X215806589Y-106139010D01*
X215563368Y-106301525D01*
X215356525Y-106508368D01*
X215240000Y-106682760D01*
X215123475Y-106508368D01*
X214916632Y-106301525D01*
X214673411Y-106139010D01*
X214403158Y-106027068D01*
X214116260Y-105970000D01*
X213823740Y-105970000D01*
X213536842Y-106027068D01*
X213266589Y-106139010D01*
X213023368Y-106301525D01*
X212816525Y-106508368D01*
X212654010Y-106751589D01*
X212542068Y-107021842D01*
X212485000Y-107308740D01*
X212485000Y-107601260D01*
X212542068Y-107888158D01*
X212654010Y-108158411D01*
X212816525Y-108401632D01*
X213023368Y-108608475D01*
X213199406Y-108726100D01*
X212969731Y-108897412D01*
X212774822Y-109113645D01*
X212708280Y-109225355D01*
X212707472Y-109223843D01*
X212458397Y-109146208D01*
X211609605Y-109995000D01*
X212458397Y-110843792D01*
X212707472Y-110766157D01*
X212708231Y-110764564D01*
X212774822Y-110876355D01*
X212969731Y-111092588D01*
X213203080Y-111266641D01*
X213465901Y-111391825D01*
X213613110Y-111436476D01*
X213843000Y-111315155D01*
X213843000Y-110122000D01*
X214097000Y-110122000D01*
X214097000Y-111315155D01*
X214326890Y-111436476D01*
X214474099Y-111391825D01*
X214736920Y-111266641D01*
X214970269Y-111092588D01*
X215165178Y-110876355D01*
X215240000Y-110750745D01*
X215314822Y-110876355D01*
X215509731Y-111092588D01*
X215743080Y-111266641D01*
X216005901Y-111391825D01*
X216153110Y-111436476D01*
X216383000Y-111315155D01*
X216383000Y-110122000D01*
X216637000Y-110122000D01*
X216637000Y-111315155D01*
X216866890Y-111436476D01*
X217014099Y-111391825D01*
X217276920Y-111266641D01*
X217510269Y-111092588D01*
X217705178Y-110876355D01*
X217780000Y-110750745D01*
X217854822Y-110876355D01*
X218049731Y-111092588D01*
X218283080Y-111266641D01*
X218545901Y-111391825D01*
X218693110Y-111436476D01*
X218923000Y-111315155D01*
X218923000Y-110122000D01*
X216637000Y-110122000D01*
X216383000Y-110122000D01*
X214097000Y-110122000D01*
X213843000Y-110122000D01*
X213823000Y-110122000D01*
X213823000Y-109868000D01*
X213843000Y-109868000D01*
X213843000Y-109848000D01*
X214097000Y-109848000D01*
X214097000Y-109868000D01*
X216383000Y-109868000D01*
X216383000Y-109848000D01*
X216637000Y-109848000D01*
X216637000Y-109868000D01*
X218923000Y-109868000D01*
X218923000Y-109848000D01*
X219177000Y-109848000D01*
X219177000Y-109868000D01*
X219197000Y-109868000D01*
X219197000Y-110122000D01*
X219177000Y-110122000D01*
X219177000Y-111315155D01*
X219406890Y-111436476D01*
X219554099Y-111391825D01*
X219816920Y-111266641D01*
X219990627Y-111137075D01*
X220559330Y-111705779D01*
X219027754Y-111984883D01*
X217475242Y-112436797D01*
X215977424Y-113045946D01*
X214550179Y-113805874D01*
X213208635Y-114708525D01*
X212899865Y-114966112D01*
X212817110Y-114550075D01*
X212648631Y-114143331D01*
X212404038Y-113777271D01*
X212092729Y-113465962D01*
X211726669Y-113221369D01*
X211319925Y-113052890D01*
X210888128Y-112967000D01*
X210447872Y-112967000D01*
X210016075Y-113052890D01*
X209609331Y-113221369D01*
X209243271Y-113465962D01*
X208931962Y-113777271D01*
X208687369Y-114143331D01*
X208518890Y-114550075D01*
X208433000Y-114981872D01*
X208433000Y-115422128D01*
X208518890Y-115853925D01*
X208687369Y-116260669D01*
X208931962Y-116626729D01*
X209243271Y-116938038D01*
X209609331Y-117182631D01*
X210016075Y-117351110D01*
X210419714Y-117431399D01*
X209834980Y-118170192D01*
X208967170Y-119534533D01*
X208244243Y-120980871D01*
X207673861Y-122493877D01*
X207262071Y-124057510D01*
X207013238Y-125655196D01*
X206930000Y-127270000D01*
X207013238Y-128884804D01*
X207262071Y-130482490D01*
X207673861Y-132046123D01*
X208244243Y-133559129D01*
X208967170Y-135005467D01*
X209834980Y-136369808D01*
X210415611Y-137103417D01*
X210016075Y-137182890D01*
X209609331Y-137351369D01*
X209243271Y-137595962D01*
X208931962Y-137907271D01*
X208687369Y-138273331D01*
X208518890Y-138680075D01*
X208433000Y-139111872D01*
X208433000Y-139552128D01*
X208518890Y-139983925D01*
X208687369Y-140390669D01*
X208931962Y-140756729D01*
X209243271Y-141068038D01*
X209609331Y-141312631D01*
X210016075Y-141481110D01*
X210447872Y-141567000D01*
X210888128Y-141567000D01*
X211319925Y-141481110D01*
X211726669Y-141312631D01*
X212092729Y-141068038D01*
X212404038Y-140756729D01*
X212648631Y-140390669D01*
X212817110Y-139983925D01*
X212898841Y-139573034D01*
X213208635Y-139831475D01*
X214550179Y-140734126D01*
X215977424Y-141494054D01*
X217475242Y-142103203D01*
X219027754Y-142555117D01*
X220618504Y-142845005D01*
X222230629Y-142969793D01*
X223847041Y-142928160D01*
X225450604Y-142720547D01*
X227024322Y-142349154D01*
X228551512Y-141817918D01*
X230015985Y-141132471D01*
X231402218Y-140300077D01*
X232320680Y-139610846D01*
X232394890Y-139983925D01*
X232563369Y-140390669D01*
X232807962Y-140756729D01*
X233119271Y-141068038D01*
X233485331Y-141312631D01*
X233892075Y-141481110D01*
X234323872Y-141567000D01*
X234764128Y-141567000D01*
X235195925Y-141481110D01*
X235602669Y-141312631D01*
X235968729Y-141068038D01*
X236280038Y-140756729D01*
X236524631Y-140390669D01*
X236693110Y-139983925D01*
X236779000Y-139552128D01*
X236779000Y-139111872D01*
X236693110Y-138680075D01*
X236524631Y-138273331D01*
X236280038Y-137907271D01*
X235968729Y-137595962D01*
X235602669Y-137351369D01*
X235195925Y-137182890D01*
X234861909Y-137116450D01*
X234949602Y-137016672D01*
X235886495Y-135698814D01*
X236682920Y-134291608D01*
X237330433Y-132809972D01*
X237822170Y-131269610D01*
X238152920Y-129686852D01*
X238258795Y-128662609D01*
X242914990Y-133318805D01*
X242914991Y-147890564D01*
X242851690Y-147953865D01*
X242853072Y-147790000D01*
X242840812Y-147665518D01*
X242804502Y-147545820D01*
X242745537Y-147435506D01*
X242666185Y-147338815D01*
X242569494Y-147259463D01*
X242459180Y-147200498D01*
X242339482Y-147164188D01*
X242215000Y-147151928D01*
X241725750Y-147155000D01*
X241567000Y-147313750D01*
X241567000Y-148313000D01*
X241587000Y-148313000D01*
X241587000Y-148567000D01*
X241567000Y-148567000D01*
X241567000Y-148587000D01*
X241313000Y-148587000D01*
X241313000Y-148567000D01*
X240188750Y-148567000D01*
X240100749Y-148655001D01*
X234829251Y-148655001D01*
X234741250Y-148567000D01*
X233617000Y-148567000D01*
X233617000Y-148587000D01*
X233363000Y-148587000D01*
X233363000Y-148567000D01*
X232238750Y-148567000D01*
X232150749Y-148655001D01*
X227634448Y-148655001D01*
X227298072Y-148318625D01*
X227298072Y-147790000D01*
X232076928Y-147790000D01*
X232080000Y-148154250D01*
X232238750Y-148313000D01*
X233363000Y-148313000D01*
X233363000Y-147313750D01*
X233617000Y-147313750D01*
X233617000Y-148313000D01*
X234741250Y-148313000D01*
X234900000Y-148154250D01*
X234903072Y-147790000D01*
X240026928Y-147790000D01*
X240030000Y-148154250D01*
X240188750Y-148313000D01*
X241313000Y-148313000D01*
X241313000Y-147313750D01*
X241154250Y-147155000D01*
X240665000Y-147151928D01*
X240540518Y-147164188D01*
X240420820Y-147200498D01*
X240310506Y-147259463D01*
X240213815Y-147338815D01*
X240134463Y-147435506D01*
X240075498Y-147545820D01*
X240039188Y-147665518D01*
X240026928Y-147790000D01*
X234903072Y-147790000D01*
X234890812Y-147665518D01*
X234854502Y-147545820D01*
X234795537Y-147435506D01*
X234716185Y-147338815D01*
X234619494Y-147259463D01*
X234509180Y-147200498D01*
X234389482Y-147164188D01*
X234265000Y-147151928D01*
X233775750Y-147155000D01*
X233617000Y-147313750D01*
X233363000Y-147313750D01*
X233204250Y-147155000D01*
X232715000Y-147151928D01*
X232590518Y-147164188D01*
X232470820Y-147200498D01*
X232360506Y-147259463D01*
X232263815Y-147338815D01*
X232184463Y-147435506D01*
X232125498Y-147545820D01*
X232089188Y-147665518D01*
X232076928Y-147790000D01*
X227298072Y-147790000D01*
X227298072Y-147470000D01*
X227281008Y-147296746D01*
X227230472Y-147130150D01*
X227148405Y-146976614D01*
X227037962Y-146842038D01*
X226903386Y-146731595D01*
X226749850Y-146649528D01*
X226583254Y-146598992D01*
X226410000Y-146581928D01*
X225660000Y-146581928D01*
X225486746Y-146598992D01*
X225320150Y-146649528D01*
X225166614Y-146731595D01*
X225032038Y-146842038D01*
X224921595Y-146976614D01*
X224839528Y-147130150D01*
X224788992Y-147296746D01*
X224771928Y-147470000D01*
X224771928Y-148720000D01*
X224788992Y-148893254D01*
X224839528Y-149059850D01*
X224866868Y-149111000D01*
X224403132Y-149111000D01*
X224430472Y-149059850D01*
X224481008Y-148893254D01*
X224498072Y-148720000D01*
X224498072Y-147470000D01*
X224481008Y-147296746D01*
X224430472Y-147130150D01*
X224348405Y-146976614D01*
X224237962Y-146842038D01*
X224103386Y-146731595D01*
X223949850Y-146649528D01*
X223783254Y-146598992D01*
X223610000Y-146581928D01*
X222860000Y-146581928D01*
X222686746Y-146598992D01*
X222520150Y-146649528D01*
X222366614Y-146731595D01*
X222232038Y-146842038D01*
X222121595Y-146976614D01*
X222039528Y-147130150D01*
X221988992Y-147296746D01*
X221982762Y-147360000D01*
X221572238Y-147360000D01*
X221566008Y-147296746D01*
X221515472Y-147130150D01*
X221433405Y-146976614D01*
X221322962Y-146842038D01*
X221188386Y-146731595D01*
X221034850Y-146649528D01*
X220868254Y-146598992D01*
X220695000Y-146581928D01*
X219945000Y-146581928D01*
X219771746Y-146598992D01*
X219605150Y-146649528D01*
X219451614Y-146731595D01*
X219317038Y-146842038D01*
X219206595Y-146976614D01*
X219124528Y-147130150D01*
X219073992Y-147296746D01*
X219056928Y-147470000D01*
X219056928Y-148720000D01*
X219073992Y-148893254D01*
X219124528Y-149059850D01*
X219151868Y-149111000D01*
X218688132Y-149111000D01*
X218715472Y-149059850D01*
X218766008Y-148893254D01*
X218783072Y-148720000D01*
X218783072Y-147470000D01*
X218766008Y-147296746D01*
X218715472Y-147130150D01*
X218633405Y-146976614D01*
X218522962Y-146842038D01*
X218388386Y-146731595D01*
X218234850Y-146649528D01*
X218068254Y-146598992D01*
X217895000Y-146581928D01*
X217145000Y-146581928D01*
X216971746Y-146598992D01*
X216805150Y-146649528D01*
X216651614Y-146731595D01*
X216517038Y-146842038D01*
X216406595Y-146976614D01*
X216324528Y-147130150D01*
X216273992Y-147296746D01*
X216256928Y-147470000D01*
X216256928Y-147722069D01*
X216208663Y-147812367D01*
X216166635Y-147950915D01*
X216152444Y-148095000D01*
X216166635Y-148239085D01*
X216169643Y-148249000D01*
X213853250Y-148249000D01*
X213826250Y-148222000D01*
X212827000Y-148222000D01*
X212827000Y-148242000D01*
X212573000Y-148242000D01*
X212573000Y-148222000D01*
X212553000Y-148222000D01*
X212553000Y-147968000D01*
X212573000Y-147968000D01*
X212573000Y-147318750D01*
X212827000Y-147318750D01*
X212827000Y-147968000D01*
X213826250Y-147968000D01*
X213985000Y-147809250D01*
X213988072Y-147795000D01*
X213975812Y-147670518D01*
X213939502Y-147550820D01*
X213880537Y-147440506D01*
X213801185Y-147343815D01*
X213704494Y-147264463D01*
X213594180Y-147205498D01*
X213474482Y-147169188D01*
X213350000Y-147156928D01*
X212985750Y-147160000D01*
X212827000Y-147318750D01*
X212573000Y-147318750D01*
X212414250Y-147160000D01*
X212050000Y-147156928D01*
X211925518Y-147169188D01*
X211888072Y-147180547D01*
X211888072Y-146845000D01*
X211875812Y-146720518D01*
X211839502Y-146600820D01*
X211780537Y-146490506D01*
X211701185Y-146393815D01*
X211604494Y-146314463D01*
X211494180Y-146255498D01*
X211374482Y-146219188D01*
X211250000Y-146206928D01*
X209950000Y-146206928D01*
X209825518Y-146219188D01*
X209705820Y-146255498D01*
X209595506Y-146314463D01*
X209498815Y-146393815D01*
X209419463Y-146490506D01*
X209360498Y-146600820D01*
X209324188Y-146720518D01*
X209323361Y-146728914D01*
X202640000Y-140045554D01*
X202640000Y-137324883D01*
X202851632Y-137183475D01*
X203058475Y-136976632D01*
X203220990Y-136733411D01*
X203332932Y-136463158D01*
X203390000Y-136176260D01*
X203390000Y-135883740D01*
X203332932Y-135596842D01*
X203220990Y-135326589D01*
X203058475Y-135083368D01*
X202926620Y-134951513D01*
X202999180Y-134929502D01*
X203109494Y-134870537D01*
X203206185Y-134791185D01*
X203285537Y-134694494D01*
X203344502Y-134584180D01*
X203380812Y-134464482D01*
X203393072Y-134340000D01*
X203393072Y-134081311D01*
X203477238Y-134012238D01*
X203500259Y-133984188D01*
X205425387Y-132059059D01*
X205425387Y-142350584D01*
X205421831Y-142386689D01*
X205436022Y-142530773D01*
X205478050Y-142669321D01*
X205546300Y-142797008D01*
X205638149Y-142908926D01*
X205666195Y-142931943D01*
X207168444Y-144434193D01*
X207191460Y-144462238D01*
X207303378Y-144554087D01*
X207431065Y-144622337D01*
X207569613Y-144664365D01*
X207677593Y-144675000D01*
X207677602Y-144675000D01*
X207713697Y-144678555D01*
X207749792Y-144675000D01*
X232085299Y-144675000D01*
X232089188Y-144714482D01*
X232125498Y-144834180D01*
X232184463Y-144944494D01*
X232263815Y-145041185D01*
X232360506Y-145120537D01*
X232470820Y-145179502D01*
X232590518Y-145215812D01*
X232715000Y-145228072D01*
X234265000Y-145228072D01*
X234389482Y-145215812D01*
X234509180Y-145179502D01*
X234619494Y-145120537D01*
X234716185Y-145041185D01*
X234795537Y-144944494D01*
X234854502Y-144834180D01*
X234890812Y-144714482D01*
X234894701Y-144675000D01*
X240035299Y-144675000D01*
X240039188Y-144714482D01*
X240075498Y-144834180D01*
X240134463Y-144944494D01*
X240213815Y-145041185D01*
X240310506Y-145120537D01*
X240420820Y-145179502D01*
X240540518Y-145215812D01*
X240665000Y-145228072D01*
X242215000Y-145228072D01*
X242339482Y-145215812D01*
X242459180Y-145179502D01*
X242569494Y-145120537D01*
X242666185Y-145041185D01*
X242745537Y-144944494D01*
X242804502Y-144834180D01*
X242840812Y-144714482D01*
X242853072Y-144590000D01*
X242853072Y-143290000D01*
X242840812Y-143165518D01*
X242804502Y-143045820D01*
X242745537Y-142935506D01*
X242666185Y-142838815D01*
X242569494Y-142759463D01*
X242459180Y-142700498D01*
X242339482Y-142664188D01*
X242215000Y-142651928D01*
X241443375Y-142651928D01*
X239343000Y-140551554D01*
X239343000Y-137378679D01*
X239368359Y-137431920D01*
X239542412Y-137665269D01*
X239758645Y-137860178D01*
X240008748Y-138009157D01*
X240283109Y-138106481D01*
X240513000Y-137985814D01*
X240513000Y-136792000D01*
X240767000Y-136792000D01*
X240767000Y-137985814D01*
X240996891Y-138106481D01*
X241271252Y-138009157D01*
X241521355Y-137860178D01*
X241737588Y-137665269D01*
X241911641Y-137431920D01*
X242036825Y-137169099D01*
X242081476Y-137021890D01*
X241960155Y-136792000D01*
X240767000Y-136792000D01*
X240513000Y-136792000D01*
X240493000Y-136792000D01*
X240493000Y-136538000D01*
X240513000Y-136538000D01*
X240513000Y-136518000D01*
X240767000Y-136518000D01*
X240767000Y-136538000D01*
X241960155Y-136538000D01*
X242081476Y-136308110D01*
X242036825Y-136160901D01*
X241911641Y-135898080D01*
X241737588Y-135664731D01*
X241653534Y-135588966D01*
X241734180Y-135564502D01*
X241844494Y-135505537D01*
X241941185Y-135426185D01*
X242020537Y-135329494D01*
X242079502Y-135219180D01*
X242115812Y-135099482D01*
X242128072Y-134975000D01*
X242128072Y-133275000D01*
X242115812Y-133150518D01*
X242079502Y-133030820D01*
X242020537Y-132920506D01*
X241941185Y-132823815D01*
X241844494Y-132744463D01*
X241734180Y-132685498D01*
X241614482Y-132649188D01*
X241490000Y-132636928D01*
X239790000Y-132636928D01*
X239665518Y-132649188D01*
X239545820Y-132685498D01*
X239435506Y-132744463D01*
X239338815Y-132823815D01*
X239259463Y-132920506D01*
X239200498Y-133030820D01*
X239164188Y-133150518D01*
X239151928Y-133275000D01*
X239151928Y-133395414D01*
X239098915Y-133400635D01*
X238960366Y-133442663D01*
X238832680Y-133510913D01*
X238720762Y-133602762D01*
X238697746Y-133630807D01*
X238113808Y-134214746D01*
X238085762Y-134237763D01*
X237993913Y-134349681D01*
X237925663Y-134477368D01*
X237905147Y-134545000D01*
X237883635Y-134615915D01*
X237869444Y-134760000D01*
X237873000Y-134796105D01*
X237873001Y-140819885D01*
X237869444Y-140856000D01*
X237883635Y-141000085D01*
X237910473Y-141088556D01*
X237925664Y-141138633D01*
X237993914Y-141266320D01*
X238085763Y-141378238D01*
X238113808Y-141401254D01*
X239917553Y-143205000D01*
X234894701Y-143205000D01*
X234890812Y-143165518D01*
X234854502Y-143045820D01*
X234795537Y-142935506D01*
X234716185Y-142838815D01*
X234619494Y-142759463D01*
X234509180Y-142700498D01*
X234389482Y-142664188D01*
X234265000Y-142651928D01*
X232715000Y-142651928D01*
X232590518Y-142664188D01*
X232470820Y-142700498D01*
X232360506Y-142759463D01*
X232263815Y-142838815D01*
X232184463Y-142935506D01*
X232125498Y-143045820D01*
X232089188Y-143165518D01*
X232085299Y-143205000D01*
X208018145Y-143205000D01*
X206895387Y-142082243D01*
X206895387Y-111023397D01*
X210581208Y-111023397D01*
X210658843Y-111272472D01*
X210922883Y-111398371D01*
X211206411Y-111470339D01*
X211498531Y-111485611D01*
X211788019Y-111443599D01*
X212063747Y-111345919D01*
X212201157Y-111272472D01*
X212278792Y-111023397D01*
X211430000Y-110174605D01*
X210581208Y-111023397D01*
X206895387Y-111023397D01*
X206895387Y-110063531D01*
X209939389Y-110063531D01*
X209981401Y-110353019D01*
X210079081Y-110628747D01*
X210152528Y-110766157D01*
X210401603Y-110843792D01*
X211250395Y-109995000D01*
X210401603Y-109146208D01*
X210152528Y-109223843D01*
X210026629Y-109487883D01*
X209954661Y-109771411D01*
X209939389Y-110063531D01*
X206895387Y-110063531D01*
X206895387Y-108966603D01*
X210581208Y-108966603D01*
X211430000Y-109815395D01*
X212278792Y-108966603D01*
X212201157Y-108717528D01*
X211937117Y-108591629D01*
X211653589Y-108519661D01*
X211361469Y-108504389D01*
X211071981Y-108546401D01*
X210796253Y-108644081D01*
X210658843Y-108717528D01*
X210581208Y-108966603D01*
X206895387Y-108966603D01*
X206895387Y-106044059D01*
X207994194Y-104945253D01*
X208022239Y-104922237D01*
X208114088Y-104810319D01*
X208182338Y-104682632D01*
X208224366Y-104544084D01*
X208235001Y-104436104D01*
X208235001Y-104436095D01*
X208238556Y-104400000D01*
X208235001Y-104363905D01*
X208235001Y-104346043D01*
X208456842Y-104437932D01*
X208743740Y-104495000D01*
X209036260Y-104495000D01*
X209323158Y-104437932D01*
X209593411Y-104325990D01*
X209836632Y-104163475D01*
X210043475Y-103956632D01*
X210160000Y-103782240D01*
X210276525Y-103956632D01*
X210483368Y-104163475D01*
X210726589Y-104325990D01*
X210996842Y-104437932D01*
X211283740Y-104495000D01*
X211576260Y-104495000D01*
X211863158Y-104437932D01*
X212133411Y-104325990D01*
X212376632Y-104163475D01*
X212583475Y-103956632D01*
X212700000Y-103782240D01*
X212816525Y-103956632D01*
X213023368Y-104163475D01*
X213266589Y-104325990D01*
X213536842Y-104437932D01*
X213823740Y-104495000D01*
X214116260Y-104495000D01*
X214403158Y-104437932D01*
X214673411Y-104325990D01*
X214916632Y-104163475D01*
X215123475Y-103956632D01*
X215240000Y-103782240D01*
X215356525Y-103956632D01*
X215563368Y-104163475D01*
X215806589Y-104325990D01*
X216076842Y-104437932D01*
X216363740Y-104495000D01*
X216656260Y-104495000D01*
X216943158Y-104437932D01*
X217213411Y-104325990D01*
X217456632Y-104163475D01*
X217663475Y-103956632D01*
X217780000Y-103782240D01*
X217896525Y-103956632D01*
G37*
X217896525Y-103956632D02*
X218103368Y-104163475D01*
X218346589Y-104325990D01*
X218616842Y-104437932D01*
X218903740Y-104495000D01*
X219196260Y-104495000D01*
X219483158Y-104437932D01*
X219485001Y-104437168D01*
X219485002Y-106027832D01*
X219483158Y-106027068D01*
X219196260Y-105970000D01*
X218903740Y-105970000D01*
X218616842Y-106027068D01*
X218346589Y-106139010D01*
X218103368Y-106301525D01*
X217896525Y-106508368D01*
X217780000Y-106682760D01*
X217663475Y-106508368D01*
X217456632Y-106301525D01*
X217213411Y-106139010D01*
X216943158Y-106027068D01*
X216656260Y-105970000D01*
X216363740Y-105970000D01*
X216076842Y-106027068D01*
X215806589Y-106139010D01*
X215563368Y-106301525D01*
X215356525Y-106508368D01*
X215240000Y-106682760D01*
X215123475Y-106508368D01*
X214916632Y-106301525D01*
X214673411Y-106139010D01*
X214403158Y-106027068D01*
X214116260Y-105970000D01*
X213823740Y-105970000D01*
X213536842Y-106027068D01*
X213266589Y-106139010D01*
X213023368Y-106301525D01*
X212816525Y-106508368D01*
X212654010Y-106751589D01*
X212542068Y-107021842D01*
X212485000Y-107308740D01*
X212485000Y-107601260D01*
X212542068Y-107888158D01*
X212654010Y-108158411D01*
X212816525Y-108401632D01*
X213023368Y-108608475D01*
X213199406Y-108726100D01*
X212969731Y-108897412D01*
X212774822Y-109113645D01*
X212708280Y-109225355D01*
X212707472Y-109223843D01*
X212458397Y-109146208D01*
X211609605Y-109995000D01*
X212458397Y-110843792D01*
X212707472Y-110766157D01*
X212708231Y-110764564D01*
X212774822Y-110876355D01*
X212969731Y-111092588D01*
X213203080Y-111266641D01*
X213465901Y-111391825D01*
X213613110Y-111436476D01*
X213843000Y-111315155D01*
X213843000Y-110122000D01*
X214097000Y-110122000D01*
X214097000Y-111315155D01*
X214326890Y-111436476D01*
X214474099Y-111391825D01*
X214736920Y-111266641D01*
X214970269Y-111092588D01*
X215165178Y-110876355D01*
X215240000Y-110750745D01*
X215314822Y-110876355D01*
X215509731Y-111092588D01*
X215743080Y-111266641D01*
X216005901Y-111391825D01*
X216153110Y-111436476D01*
X216383000Y-111315155D01*
X216383000Y-110122000D01*
X216637000Y-110122000D01*
X216637000Y-111315155D01*
X216866890Y-111436476D01*
X217014099Y-111391825D01*
X217276920Y-111266641D01*
X217510269Y-111092588D01*
X217705178Y-110876355D01*
X217780000Y-110750745D01*
X217854822Y-110876355D01*
X218049731Y-111092588D01*
X218283080Y-111266641D01*
X218545901Y-111391825D01*
X218693110Y-111436476D01*
X218923000Y-111315155D01*
X218923000Y-110122000D01*
X216637000Y-110122000D01*
X216383000Y-110122000D01*
X214097000Y-110122000D01*
X213843000Y-110122000D01*
X213823000Y-110122000D01*
X213823000Y-109868000D01*
X213843000Y-109868000D01*
X213843000Y-109848000D01*
X214097000Y-109848000D01*
X214097000Y-109868000D01*
X216383000Y-109868000D01*
X216383000Y-109848000D01*
X216637000Y-109848000D01*
X216637000Y-109868000D01*
X218923000Y-109868000D01*
X218923000Y-109848000D01*
X219177000Y-109848000D01*
X219177000Y-109868000D01*
X219197000Y-109868000D01*
X219197000Y-110122000D01*
X219177000Y-110122000D01*
X219177000Y-111315155D01*
X219406890Y-111436476D01*
X219554099Y-111391825D01*
X219816920Y-111266641D01*
X219990627Y-111137075D01*
X220559330Y-111705779D01*
X219027754Y-111984883D01*
X217475242Y-112436797D01*
X215977424Y-113045946D01*
X214550179Y-113805874D01*
X213208635Y-114708525D01*
X212899865Y-114966112D01*
X212817110Y-114550075D01*
X212648631Y-114143331D01*
X212404038Y-113777271D01*
X212092729Y-113465962D01*
X211726669Y-113221369D01*
X211319925Y-113052890D01*
X210888128Y-112967000D01*
X210447872Y-112967000D01*
X210016075Y-113052890D01*
X209609331Y-113221369D01*
X209243271Y-113465962D01*
X208931962Y-113777271D01*
X208687369Y-114143331D01*
X208518890Y-114550075D01*
X208433000Y-114981872D01*
X208433000Y-115422128D01*
X208518890Y-115853925D01*
X208687369Y-116260669D01*
X208931962Y-116626729D01*
X209243271Y-116938038D01*
X209609331Y-117182631D01*
X210016075Y-117351110D01*
X210419714Y-117431399D01*
X209834980Y-118170192D01*
X208967170Y-119534533D01*
X208244243Y-120980871D01*
X207673861Y-122493877D01*
X207262071Y-124057510D01*
X207013238Y-125655196D01*
X206930000Y-127270000D01*
X207013238Y-128884804D01*
X207262071Y-130482490D01*
X207673861Y-132046123D01*
X208244243Y-133559129D01*
X208967170Y-135005467D01*
X209834980Y-136369808D01*
X210415611Y-137103417D01*
X210016075Y-137182890D01*
X209609331Y-137351369D01*
X209243271Y-137595962D01*
X208931962Y-137907271D01*
X208687369Y-138273331D01*
X208518890Y-138680075D01*
X208433000Y-139111872D01*
X208433000Y-139552128D01*
X208518890Y-139983925D01*
X208687369Y-140390669D01*
X208931962Y-140756729D01*
X209243271Y-141068038D01*
X209609331Y-141312631D01*
X210016075Y-141481110D01*
X210447872Y-141567000D01*
X210888128Y-141567000D01*
X211319925Y-141481110D01*
X211726669Y-141312631D01*
X212092729Y-141068038D01*
X212404038Y-140756729D01*
X212648631Y-140390669D01*
X212817110Y-139983925D01*
X212898841Y-139573034D01*
X213208635Y-139831475D01*
X214550179Y-140734126D01*
X215977424Y-141494054D01*
X217475242Y-142103203D01*
X219027754Y-142555117D01*
X220618504Y-142845005D01*
X222230629Y-142969793D01*
X223847041Y-142928160D01*
X225450604Y-142720547D01*
X227024322Y-142349154D01*
X228551512Y-141817918D01*
X230015985Y-141132471D01*
X231402218Y-140300077D01*
X232320680Y-139610846D01*
X232394890Y-139983925D01*
X232563369Y-140390669D01*
X232807962Y-140756729D01*
X233119271Y-141068038D01*
X233485331Y-141312631D01*
X233892075Y-141481110D01*
X234323872Y-141567000D01*
X234764128Y-141567000D01*
X235195925Y-141481110D01*
X235602669Y-141312631D01*
X235968729Y-141068038D01*
X236280038Y-140756729D01*
X236524631Y-140390669D01*
X236693110Y-139983925D01*
X236779000Y-139552128D01*
X236779000Y-139111872D01*
X236693110Y-138680075D01*
X236524631Y-138273331D01*
X236280038Y-137907271D01*
X235968729Y-137595962D01*
X235602669Y-137351369D01*
X235195925Y-137182890D01*
X234861909Y-137116450D01*
X234949602Y-137016672D01*
X235886495Y-135698814D01*
X236682920Y-134291608D01*
X237330433Y-132809972D01*
X237822170Y-131269610D01*
X238152920Y-129686852D01*
X238258795Y-128662609D01*
X242914990Y-133318805D01*
X242914991Y-147890564D01*
X242851690Y-147953865D01*
X242853072Y-147790000D01*
X242840812Y-147665518D01*
X242804502Y-147545820D01*
X242745537Y-147435506D01*
X242666185Y-147338815D01*
X242569494Y-147259463D01*
X242459180Y-147200498D01*
X242339482Y-147164188D01*
X242215000Y-147151928D01*
X241725750Y-147155000D01*
X241567000Y-147313750D01*
X241567000Y-148313000D01*
X241587000Y-148313000D01*
X241587000Y-148567000D01*
X241567000Y-148567000D01*
X241567000Y-148587000D01*
X241313000Y-148587000D01*
X241313000Y-148567000D01*
X240188750Y-148567000D01*
X240100749Y-148655001D01*
X234829251Y-148655001D01*
X234741250Y-148567000D01*
X233617000Y-148567000D01*
X233617000Y-148587000D01*
X233363000Y-148587000D01*
X233363000Y-148567000D01*
X232238750Y-148567000D01*
X232150749Y-148655001D01*
X227634448Y-148655001D01*
X227298072Y-148318625D01*
X227298072Y-147790000D01*
X232076928Y-147790000D01*
X232080000Y-148154250D01*
X232238750Y-148313000D01*
X233363000Y-148313000D01*
X233363000Y-147313750D01*
X233617000Y-147313750D01*
X233617000Y-148313000D01*
X234741250Y-148313000D01*
X234900000Y-148154250D01*
X234903072Y-147790000D01*
X240026928Y-147790000D01*
X240030000Y-148154250D01*
X240188750Y-148313000D01*
X241313000Y-148313000D01*
X241313000Y-147313750D01*
X241154250Y-147155000D01*
X240665000Y-147151928D01*
X240540518Y-147164188D01*
X240420820Y-147200498D01*
X240310506Y-147259463D01*
X240213815Y-147338815D01*
X240134463Y-147435506D01*
X240075498Y-147545820D01*
X240039188Y-147665518D01*
X240026928Y-147790000D01*
X234903072Y-147790000D01*
X234890812Y-147665518D01*
X234854502Y-147545820D01*
X234795537Y-147435506D01*
X234716185Y-147338815D01*
X234619494Y-147259463D01*
X234509180Y-147200498D01*
X234389482Y-147164188D01*
X234265000Y-147151928D01*
X233775750Y-147155000D01*
X233617000Y-147313750D01*
X233363000Y-147313750D01*
X233204250Y-147155000D01*
X232715000Y-147151928D01*
X232590518Y-147164188D01*
X232470820Y-147200498D01*
X232360506Y-147259463D01*
X232263815Y-147338815D01*
X232184463Y-147435506D01*
X232125498Y-147545820D01*
X232089188Y-147665518D01*
X232076928Y-147790000D01*
X227298072Y-147790000D01*
X227298072Y-147470000D01*
X227281008Y-147296746D01*
X227230472Y-147130150D01*
X227148405Y-146976614D01*
X227037962Y-146842038D01*
X226903386Y-146731595D01*
X226749850Y-146649528D01*
X226583254Y-146598992D01*
X226410000Y-146581928D01*
X225660000Y-146581928D01*
X225486746Y-146598992D01*
X225320150Y-146649528D01*
X225166614Y-146731595D01*
X225032038Y-146842038D01*
X224921595Y-146976614D01*
X224839528Y-147130150D01*
X224788992Y-147296746D01*
X224771928Y-147470000D01*
X224771928Y-148720000D01*
X224788992Y-148893254D01*
X224839528Y-149059850D01*
X224866868Y-149111000D01*
X224403132Y-149111000D01*
X224430472Y-149059850D01*
X224481008Y-148893254D01*
X224498072Y-148720000D01*
X224498072Y-147470000D01*
X224481008Y-147296746D01*
X224430472Y-147130150D01*
X224348405Y-146976614D01*
X224237962Y-146842038D01*
X224103386Y-146731595D01*
X223949850Y-146649528D01*
X223783254Y-146598992D01*
X223610000Y-146581928D01*
X222860000Y-146581928D01*
X222686746Y-146598992D01*
X222520150Y-146649528D01*
X222366614Y-146731595D01*
X222232038Y-146842038D01*
X222121595Y-146976614D01*
X222039528Y-147130150D01*
X221988992Y-147296746D01*
X221982762Y-147360000D01*
X221572238Y-147360000D01*
X221566008Y-147296746D01*
X221515472Y-147130150D01*
X221433405Y-146976614D01*
X221322962Y-146842038D01*
X221188386Y-146731595D01*
X221034850Y-146649528D01*
X220868254Y-146598992D01*
X220695000Y-146581928D01*
X219945000Y-146581928D01*
X219771746Y-146598992D01*
X219605150Y-146649528D01*
X219451614Y-146731595D01*
X219317038Y-146842038D01*
X219206595Y-146976614D01*
X219124528Y-147130150D01*
X219073992Y-147296746D01*
X219056928Y-147470000D01*
X219056928Y-148720000D01*
X219073992Y-148893254D01*
X219124528Y-149059850D01*
X219151868Y-149111000D01*
X218688132Y-149111000D01*
X218715472Y-149059850D01*
X218766008Y-148893254D01*
X218783072Y-148720000D01*
X218783072Y-147470000D01*
X218766008Y-147296746D01*
X218715472Y-147130150D01*
X218633405Y-146976614D01*
X218522962Y-146842038D01*
X218388386Y-146731595D01*
X218234850Y-146649528D01*
X218068254Y-146598992D01*
X217895000Y-146581928D01*
X217145000Y-146581928D01*
X216971746Y-146598992D01*
X216805150Y-146649528D01*
X216651614Y-146731595D01*
X216517038Y-146842038D01*
X216406595Y-146976614D01*
X216324528Y-147130150D01*
X216273992Y-147296746D01*
X216256928Y-147470000D01*
X216256928Y-147722069D01*
X216208663Y-147812367D01*
X216166635Y-147950915D01*
X216152444Y-148095000D01*
X216166635Y-148239085D01*
X216169643Y-148249000D01*
X213853250Y-148249000D01*
X213826250Y-148222000D01*
X212827000Y-148222000D01*
X212827000Y-148242000D01*
X212573000Y-148242000D01*
X212573000Y-148222000D01*
X212553000Y-148222000D01*
X212553000Y-147968000D01*
X212573000Y-147968000D01*
X212573000Y-147318750D01*
X212827000Y-147318750D01*
X212827000Y-147968000D01*
X213826250Y-147968000D01*
X213985000Y-147809250D01*
X213988072Y-147795000D01*
X213975812Y-147670518D01*
X213939502Y-147550820D01*
X213880537Y-147440506D01*
X213801185Y-147343815D01*
X213704494Y-147264463D01*
X213594180Y-147205498D01*
X213474482Y-147169188D01*
X213350000Y-147156928D01*
X212985750Y-147160000D01*
X212827000Y-147318750D01*
X212573000Y-147318750D01*
X212414250Y-147160000D01*
X212050000Y-147156928D01*
X211925518Y-147169188D01*
X211888072Y-147180547D01*
X211888072Y-146845000D01*
X211875812Y-146720518D01*
X211839502Y-146600820D01*
X211780537Y-146490506D01*
X211701185Y-146393815D01*
X211604494Y-146314463D01*
X211494180Y-146255498D01*
X211374482Y-146219188D01*
X211250000Y-146206928D01*
X209950000Y-146206928D01*
X209825518Y-146219188D01*
X209705820Y-146255498D01*
X209595506Y-146314463D01*
X209498815Y-146393815D01*
X209419463Y-146490506D01*
X209360498Y-146600820D01*
X209324188Y-146720518D01*
X209323361Y-146728914D01*
X202640000Y-140045554D01*
X202640000Y-137324883D01*
X202851632Y-137183475D01*
X203058475Y-136976632D01*
X203220990Y-136733411D01*
X203332932Y-136463158D01*
X203390000Y-136176260D01*
X203390000Y-135883740D01*
X203332932Y-135596842D01*
X203220990Y-135326589D01*
X203058475Y-135083368D01*
X202926620Y-134951513D01*
X202999180Y-134929502D01*
X203109494Y-134870537D01*
X203206185Y-134791185D01*
X203285537Y-134694494D01*
X203344502Y-134584180D01*
X203380812Y-134464482D01*
X203393072Y-134340000D01*
X203393072Y-134081311D01*
X203477238Y-134012238D01*
X203500259Y-133984188D01*
X205425387Y-132059059D01*
X205425387Y-142350584D01*
X205421831Y-142386689D01*
X205436022Y-142530773D01*
X205478050Y-142669321D01*
X205546300Y-142797008D01*
X205638149Y-142908926D01*
X205666195Y-142931943D01*
X207168444Y-144434193D01*
X207191460Y-144462238D01*
X207303378Y-144554087D01*
X207431065Y-144622337D01*
X207569613Y-144664365D01*
X207677593Y-144675000D01*
X207677602Y-144675000D01*
X207713697Y-144678555D01*
X207749792Y-144675000D01*
X232085299Y-144675000D01*
X232089188Y-144714482D01*
X232125498Y-144834180D01*
X232184463Y-144944494D01*
X232263815Y-145041185D01*
X232360506Y-145120537D01*
X232470820Y-145179502D01*
X232590518Y-145215812D01*
X232715000Y-145228072D01*
X234265000Y-145228072D01*
X234389482Y-145215812D01*
X234509180Y-145179502D01*
X234619494Y-145120537D01*
X234716185Y-145041185D01*
X234795537Y-144944494D01*
X234854502Y-144834180D01*
X234890812Y-144714482D01*
X234894701Y-144675000D01*
X240035299Y-144675000D01*
X240039188Y-144714482D01*
X240075498Y-144834180D01*
X240134463Y-144944494D01*
X240213815Y-145041185D01*
X240310506Y-145120537D01*
X240420820Y-145179502D01*
X240540518Y-145215812D01*
X240665000Y-145228072D01*
X242215000Y-145228072D01*
X242339482Y-145215812D01*
X242459180Y-145179502D01*
X242569494Y-145120537D01*
X242666185Y-145041185D01*
X242745537Y-144944494D01*
X242804502Y-144834180D01*
X242840812Y-144714482D01*
X242853072Y-144590000D01*
X242853072Y-143290000D01*
X242840812Y-143165518D01*
X242804502Y-143045820D01*
X242745537Y-142935506D01*
X242666185Y-142838815D01*
X242569494Y-142759463D01*
X242459180Y-142700498D01*
X242339482Y-142664188D01*
X242215000Y-142651928D01*
X241443375Y-142651928D01*
X239343000Y-140551554D01*
X239343000Y-137378679D01*
X239368359Y-137431920D01*
X239542412Y-137665269D01*
X239758645Y-137860178D01*
X240008748Y-138009157D01*
X240283109Y-138106481D01*
X240513000Y-137985814D01*
X240513000Y-136792000D01*
X240767000Y-136792000D01*
X240767000Y-137985814D01*
X240996891Y-138106481D01*
X241271252Y-138009157D01*
X241521355Y-137860178D01*
X241737588Y-137665269D01*
X241911641Y-137431920D01*
X242036825Y-137169099D01*
X242081476Y-137021890D01*
X241960155Y-136792000D01*
X240767000Y-136792000D01*
X240513000Y-136792000D01*
X240493000Y-136792000D01*
X240493000Y-136538000D01*
X240513000Y-136538000D01*
X240513000Y-136518000D01*
X240767000Y-136518000D01*
X240767000Y-136538000D01*
X241960155Y-136538000D01*
X242081476Y-136308110D01*
X242036825Y-136160901D01*
X241911641Y-135898080D01*
X241737588Y-135664731D01*
X241653534Y-135588966D01*
X241734180Y-135564502D01*
X241844494Y-135505537D01*
X241941185Y-135426185D01*
X242020537Y-135329494D01*
X242079502Y-135219180D01*
X242115812Y-135099482D01*
X242128072Y-134975000D01*
X242128072Y-133275000D01*
X242115812Y-133150518D01*
X242079502Y-133030820D01*
X242020537Y-132920506D01*
X241941185Y-132823815D01*
X241844494Y-132744463D01*
X241734180Y-132685498D01*
X241614482Y-132649188D01*
X241490000Y-132636928D01*
X239790000Y-132636928D01*
X239665518Y-132649188D01*
X239545820Y-132685498D01*
X239435506Y-132744463D01*
X239338815Y-132823815D01*
X239259463Y-132920506D01*
X239200498Y-133030820D01*
X239164188Y-133150518D01*
X239151928Y-133275000D01*
X239151928Y-133395414D01*
X239098915Y-133400635D01*
X238960366Y-133442663D01*
X238832680Y-133510913D01*
X238720762Y-133602762D01*
X238697746Y-133630807D01*
X238113808Y-134214746D01*
X238085762Y-134237763D01*
X237993913Y-134349681D01*
X237925663Y-134477368D01*
X237905147Y-134545000D01*
X237883635Y-134615915D01*
X237869444Y-134760000D01*
X237873000Y-134796105D01*
X237873001Y-140819885D01*
X237869444Y-140856000D01*
X237883635Y-141000085D01*
X237910473Y-141088556D01*
X237925664Y-141138633D01*
X237993914Y-141266320D01*
X238085763Y-141378238D01*
X238113808Y-141401254D01*
X239917553Y-143205000D01*
X234894701Y-143205000D01*
X234890812Y-143165518D01*
X234854502Y-143045820D01*
X234795537Y-142935506D01*
X234716185Y-142838815D01*
X234619494Y-142759463D01*
X234509180Y-142700498D01*
X234389482Y-142664188D01*
X234265000Y-142651928D01*
X232715000Y-142651928D01*
X232590518Y-142664188D01*
X232470820Y-142700498D01*
X232360506Y-142759463D01*
X232263815Y-142838815D01*
X232184463Y-142935506D01*
X232125498Y-143045820D01*
X232089188Y-143165518D01*
X232085299Y-143205000D01*
X208018145Y-143205000D01*
X206895387Y-142082243D01*
X206895387Y-111023397D01*
X210581208Y-111023397D01*
X210658843Y-111272472D01*
X210922883Y-111398371D01*
X211206411Y-111470339D01*
X211498531Y-111485611D01*
X211788019Y-111443599D01*
X212063747Y-111345919D01*
X212201157Y-111272472D01*
X212278792Y-111023397D01*
X211430000Y-110174605D01*
X210581208Y-111023397D01*
X206895387Y-111023397D01*
X206895387Y-110063531D01*
X209939389Y-110063531D01*
X209981401Y-110353019D01*
X210079081Y-110628747D01*
X210152528Y-110766157D01*
X210401603Y-110843792D01*
X211250395Y-109995000D01*
X210401603Y-109146208D01*
X210152528Y-109223843D01*
X210026629Y-109487883D01*
X209954661Y-109771411D01*
X209939389Y-110063531D01*
X206895387Y-110063531D01*
X206895387Y-108966603D01*
X210581208Y-108966603D01*
X211430000Y-109815395D01*
X212278792Y-108966603D01*
X212201157Y-108717528D01*
X211937117Y-108591629D01*
X211653589Y-108519661D01*
X211361469Y-108504389D01*
X211071981Y-108546401D01*
X210796253Y-108644081D01*
X210658843Y-108717528D01*
X210581208Y-108966603D01*
X206895387Y-108966603D01*
X206895387Y-106044059D01*
X207994194Y-104945253D01*
X208022239Y-104922237D01*
X208114088Y-104810319D01*
X208182338Y-104682632D01*
X208224366Y-104544084D01*
X208235001Y-104436104D01*
X208235001Y-104436095D01*
X208238556Y-104400000D01*
X208235001Y-104363905D01*
X208235001Y-104346043D01*
X208456842Y-104437932D01*
X208743740Y-104495000D01*
X209036260Y-104495000D01*
X209323158Y-104437932D01*
X209593411Y-104325990D01*
X209836632Y-104163475D01*
X210043475Y-103956632D01*
X210160000Y-103782240D01*
X210276525Y-103956632D01*
X210483368Y-104163475D01*
X210726589Y-104325990D01*
X210996842Y-104437932D01*
X211283740Y-104495000D01*
X211576260Y-104495000D01*
X211863158Y-104437932D01*
X212133411Y-104325990D01*
X212376632Y-104163475D01*
X212583475Y-103956632D01*
X212700000Y-103782240D01*
X212816525Y-103956632D01*
X213023368Y-104163475D01*
X213266589Y-104325990D01*
X213536842Y-104437932D01*
X213823740Y-104495000D01*
X214116260Y-104495000D01*
X214403158Y-104437932D01*
X214673411Y-104325990D01*
X214916632Y-104163475D01*
X215123475Y-103956632D01*
X215240000Y-103782240D01*
X215356525Y-103956632D01*
X215563368Y-104163475D01*
X215806589Y-104325990D01*
X216076842Y-104437932D01*
X216363740Y-104495000D01*
X216656260Y-104495000D01*
X216943158Y-104437932D01*
X217213411Y-104325990D01*
X217456632Y-104163475D01*
X217663475Y-103956632D01*
X217780000Y-103782240D01*
X217896525Y-103956632D01*
G36*
X263279285Y-95074524D02*
G01*
X263628914Y-95359675D01*
X263881000Y-95664395D01*
X263881000Y-113355893D01*
X263811632Y-113286525D01*
X263568411Y-113124010D01*
X263298158Y-113012068D01*
X263011260Y-112955000D01*
X262718740Y-112955000D01*
X262431842Y-113012068D01*
X262161589Y-113124010D01*
X261918368Y-113286525D01*
X261711525Y-113493368D01*
X261595000Y-113667760D01*
X261478475Y-113493368D01*
X261271632Y-113286525D01*
X261028411Y-113124010D01*
X260758158Y-113012068D01*
X260471260Y-112955000D01*
X260178740Y-112955000D01*
X259891842Y-113012068D01*
X259621589Y-113124010D01*
X259378368Y-113286525D01*
X259171525Y-113493368D01*
X259055000Y-113667760D01*
X258938475Y-113493368D01*
X258731632Y-113286525D01*
X258488411Y-113124010D01*
X258218158Y-113012068D01*
X257931260Y-112955000D01*
X257638740Y-112955000D01*
X257351842Y-113012068D01*
X257081589Y-113124010D01*
X256838368Y-113286525D01*
X256631525Y-113493368D01*
X256515000Y-113667760D01*
X256398475Y-113493368D01*
X256191632Y-113286525D01*
X255948411Y-113124010D01*
X255678158Y-113012068D01*
X255391260Y-112955000D01*
X255098740Y-112955000D01*
X254811842Y-113012068D01*
X254541589Y-113124010D01*
X254298368Y-113286525D01*
X254091525Y-113493368D01*
X253975000Y-113667760D01*
X253858475Y-113493368D01*
X253651632Y-113286525D01*
X253408411Y-113124010D01*
X253138158Y-113012068D01*
X252851260Y-112955000D01*
X252558740Y-112955000D01*
X252271842Y-113012068D01*
X252001589Y-113124010D01*
X251758368Y-113286525D01*
X251551525Y-113493368D01*
X251435000Y-113667760D01*
X251318475Y-113493368D01*
X251111632Y-113286525D01*
X250868411Y-113124010D01*
X250598158Y-113012068D01*
X250311260Y-112955000D01*
X250018740Y-112955000D01*
X249731842Y-113012068D01*
X249461589Y-113124010D01*
X249218368Y-113286525D01*
X249011525Y-113493368D01*
X248895000Y-113667760D01*
X248778475Y-113493368D01*
X248571632Y-113286525D01*
X248328411Y-113124010D01*
X248058158Y-113012068D01*
X247771260Y-112955000D01*
X247478740Y-112955000D01*
X247191842Y-113012068D01*
X246921589Y-113124010D01*
X246678368Y-113286525D01*
X246471525Y-113493368D01*
X246355000Y-113667760D01*
X246238475Y-113493368D01*
X246031632Y-113286525D01*
X245788411Y-113124010D01*
X245518158Y-113012068D01*
X245231260Y-112955000D01*
X244938740Y-112955000D01*
X244651842Y-113012068D01*
X244381589Y-113124010D01*
X244138368Y-113286525D01*
X243931525Y-113493368D01*
X243815000Y-113667760D01*
X243698475Y-113493368D01*
X243491632Y-113286525D01*
X243248411Y-113124010D01*
X242978158Y-113012068D01*
X242691260Y-112955000D01*
X242398740Y-112955000D01*
X242111842Y-113012068D01*
X241841589Y-113124010D01*
X241598368Y-113286525D01*
X241391525Y-113493368D01*
X241275000Y-113667760D01*
X241158475Y-113493368D01*
X240951632Y-113286525D01*
X240708411Y-113124010D01*
X240438158Y-113012068D01*
X240151260Y-112955000D01*
X239858740Y-112955000D01*
X239571842Y-113012068D01*
X239301589Y-113124010D01*
X239058368Y-113286525D01*
X238851525Y-113493368D01*
X238689010Y-113736589D01*
X238674372Y-113771927D01*
X236265499Y-111363055D01*
X236325901Y-111391825D01*
X236473110Y-111436476D01*
X236703000Y-111315155D01*
X236703000Y-110122000D01*
X236957000Y-110122000D01*
X236957000Y-111315155D01*
X237186890Y-111436476D01*
X237334099Y-111391825D01*
X237596920Y-111266641D01*
X237830269Y-111092588D01*
X238025178Y-110876355D01*
X238100000Y-110750745D01*
X238174822Y-110876355D01*
X238369731Y-111092588D01*
X238603080Y-111266641D01*
X238865901Y-111391825D01*
X239013110Y-111436476D01*
X239243000Y-111315155D01*
X239243000Y-110122000D01*
X239497000Y-110122000D01*
X239497000Y-111315155D01*
X239726890Y-111436476D01*
X239874099Y-111391825D01*
X240136920Y-111266641D01*
X240370269Y-111092588D01*
X240565178Y-110876355D01*
X240640000Y-110750745D01*
X240714822Y-110876355D01*
X240909731Y-111092588D01*
X241143080Y-111266641D01*
X241405901Y-111391825D01*
X241553110Y-111436476D01*
X241783000Y-111315155D01*
X241783000Y-110122000D01*
X242037000Y-110122000D01*
X242037000Y-111315155D01*
X242266890Y-111436476D01*
X242414099Y-111391825D01*
X242676920Y-111266641D01*
X242910269Y-111092588D01*
X243105178Y-110876355D01*
X243180000Y-110750745D01*
X243254822Y-110876355D01*
X243449731Y-111092588D01*
X243683080Y-111266641D01*
X243945901Y-111391825D01*
X244093110Y-111436476D01*
X244323000Y-111315155D01*
X244323000Y-110122000D01*
X244577000Y-110122000D01*
X244577000Y-111315155D01*
X244806890Y-111436476D01*
X244954099Y-111391825D01*
X245216920Y-111266641D01*
X245450269Y-111092588D01*
X245645178Y-110876355D01*
X245720000Y-110750745D01*
X245794822Y-110876355D01*
X245989731Y-111092588D01*
X246223080Y-111266641D01*
X246485901Y-111391825D01*
X246633110Y-111436476D01*
X246863000Y-111315155D01*
X246863000Y-110122000D01*
X247117000Y-110122000D01*
X247117000Y-111315155D01*
X247346890Y-111436476D01*
X247494099Y-111391825D01*
X247756920Y-111266641D01*
X247990269Y-111092588D01*
X248185178Y-110876355D01*
X248260000Y-110750745D01*
X248334822Y-110876355D01*
X248529731Y-111092588D01*
X248763080Y-111266641D01*
X249025901Y-111391825D01*
X249173110Y-111436476D01*
X249403000Y-111315155D01*
X249403000Y-110122000D01*
X249657000Y-110122000D01*
X249657000Y-111315155D01*
X249886890Y-111436476D01*
X250034099Y-111391825D01*
X250296920Y-111266641D01*
X250530269Y-111092588D01*
X250725178Y-110876355D01*
X250800000Y-110750745D01*
X250874822Y-110876355D01*
X251069731Y-111092588D01*
X251303080Y-111266641D01*
X251565901Y-111391825D01*
X251713110Y-111436476D01*
X251943000Y-111315155D01*
X251943000Y-110122000D01*
X252197000Y-110122000D01*
X252197000Y-111315155D01*
X252426890Y-111436476D01*
X252574099Y-111391825D01*
X252836920Y-111266641D01*
X253070269Y-111092588D01*
X253265178Y-110876355D01*
X253340000Y-110750745D01*
X253414822Y-110876355D01*
X253609731Y-111092588D01*
X253843080Y-111266641D01*
X254105901Y-111391825D01*
X254253110Y-111436476D01*
X254483000Y-111315155D01*
X254483000Y-110122000D01*
X254737000Y-110122000D01*
X254737000Y-111315155D01*
X254966890Y-111436476D01*
X255114099Y-111391825D01*
X255376920Y-111266641D01*
X255610269Y-111092588D01*
X255805178Y-110876355D01*
X255880000Y-110750745D01*
X255954822Y-110876355D01*
X256149731Y-111092588D01*
X256383080Y-111266641D01*
X256645901Y-111391825D01*
X256793110Y-111436476D01*
X257023000Y-111315155D01*
X257023000Y-110122000D01*
X257277000Y-110122000D01*
X257277000Y-111315155D01*
X257506890Y-111436476D01*
X257654099Y-111391825D01*
X257916920Y-111266641D01*
X258150269Y-111092588D01*
X258345178Y-110876355D01*
X258420000Y-110750745D01*
X258494822Y-110876355D01*
X258689731Y-111092588D01*
X258923080Y-111266641D01*
X259185901Y-111391825D01*
X259333110Y-111436476D01*
X259563000Y-111315155D01*
X259563000Y-110122000D01*
X259817000Y-110122000D01*
X259817000Y-111315155D01*
X260046890Y-111436476D01*
X260194099Y-111391825D01*
X260456920Y-111266641D01*
X260690269Y-111092588D01*
X260885178Y-110876355D01*
X260960000Y-110750745D01*
X261034822Y-110876355D01*
X261229731Y-111092588D01*
X261463080Y-111266641D01*
X261725901Y-111391825D01*
X261873110Y-111436476D01*
X262103000Y-111315155D01*
X262103000Y-110122000D01*
X262357000Y-110122000D01*
X262357000Y-111315155D01*
X262586890Y-111436476D01*
X262734099Y-111391825D01*
X262996920Y-111266641D01*
X263230269Y-111092588D01*
X263425178Y-110876355D01*
X263574157Y-110626252D01*
X263671481Y-110351891D01*
X263550814Y-110122000D01*
X262357000Y-110122000D01*
X262103000Y-110122000D01*
X259817000Y-110122000D01*
X259563000Y-110122000D01*
X257277000Y-110122000D01*
X257023000Y-110122000D01*
X254737000Y-110122000D01*
X254483000Y-110122000D01*
X252197000Y-110122000D01*
X251943000Y-110122000D01*
X249657000Y-110122000D01*
X249403000Y-110122000D01*
X247117000Y-110122000D01*
X246863000Y-110122000D01*
X244577000Y-110122000D01*
X244323000Y-110122000D01*
X242037000Y-110122000D01*
X241783000Y-110122000D01*
X239497000Y-110122000D01*
X239243000Y-110122000D01*
X236957000Y-110122000D01*
X236703000Y-110122000D01*
X234417000Y-110122000D01*
X234417000Y-110142000D01*
X234163000Y-110142000D01*
X234163000Y-110122000D01*
X231877000Y-110122000D01*
X231877000Y-110142000D01*
X231623000Y-110142000D01*
X231623000Y-110122000D01*
X229337000Y-110122000D01*
X229337000Y-110142000D01*
X229083000Y-110142000D01*
X229083000Y-110122000D01*
X226797000Y-110122000D01*
X226797000Y-110142000D01*
X226543000Y-110142000D01*
X226543000Y-110122000D01*
X224257000Y-110122000D01*
X224257000Y-110142000D01*
X224003000Y-110142000D01*
X224003000Y-110122000D01*
X221717000Y-110122000D01*
X221717000Y-110142000D01*
X221463000Y-110142000D01*
X221463000Y-110122000D01*
X221443000Y-110122000D01*
X221443000Y-109868000D01*
X221463000Y-109868000D01*
X221463000Y-109848000D01*
X221717000Y-109848000D01*
X221717000Y-109868000D01*
X224003000Y-109868000D01*
X224003000Y-109848000D01*
X224257000Y-109848000D01*
X224257000Y-109868000D01*
X226543000Y-109868000D01*
X226543000Y-109848000D01*
X226797000Y-109848000D01*
X226797000Y-109868000D01*
X229083000Y-109868000D01*
X229083000Y-109848000D01*
X229337000Y-109848000D01*
X229337000Y-109868000D01*
X231623000Y-109868000D01*
X231623000Y-109848000D01*
X231877000Y-109848000D01*
X231877000Y-109868000D01*
X234163000Y-109868000D01*
X234163000Y-109848000D01*
X234417000Y-109848000D01*
X234417000Y-109868000D01*
X236703000Y-109868000D01*
X236703000Y-108674845D01*
X236957000Y-108674845D01*
X236957000Y-109868000D01*
X239243000Y-109868000D01*
X239243000Y-108674845D01*
X239497000Y-108674845D01*
X239497000Y-109868000D01*
X241783000Y-109868000D01*
X241783000Y-109848000D01*
X242037000Y-109848000D01*
X242037000Y-109868000D01*
X244323000Y-109868000D01*
X244323000Y-109848000D01*
X244577000Y-109848000D01*
X244577000Y-109868000D01*
X246863000Y-109868000D01*
X246863000Y-109848000D01*
X247117000Y-109848000D01*
X247117000Y-109868000D01*
X249403000Y-109868000D01*
X249403000Y-109848000D01*
X249657000Y-109848000D01*
X249657000Y-109868000D01*
X251943000Y-109868000D01*
X251943000Y-109848000D01*
X252197000Y-109848000D01*
X252197000Y-109868000D01*
X254483000Y-109868000D01*
X254483000Y-109848000D01*
X254737000Y-109848000D01*
X254737000Y-109868000D01*
X257023000Y-109868000D01*
X257023000Y-109848000D01*
X257277000Y-109848000D01*
X257277000Y-109868000D01*
X259563000Y-109868000D01*
X259563000Y-109848000D01*
X259817000Y-109848000D01*
X259817000Y-109868000D01*
X262103000Y-109868000D01*
X262103000Y-109848000D01*
X262357000Y-109848000D01*
X262357000Y-109868000D01*
X263550814Y-109868000D01*
X263671481Y-109638109D01*
X263574157Y-109363748D01*
X263425178Y-109113645D01*
X263230269Y-108897412D01*
X263000594Y-108726100D01*
X263176632Y-108608475D01*
X263383475Y-108401632D01*
X263545990Y-108158411D01*
X263657932Y-107888158D01*
X263715000Y-107601260D01*
X263715000Y-107308740D01*
X263657932Y-107021842D01*
X263545990Y-106751589D01*
X263383475Y-106508368D01*
X263176632Y-106301525D01*
X262933411Y-106139010D01*
X262663158Y-106027068D01*
X262376260Y-105970000D01*
X262083740Y-105970000D01*
X261796842Y-106027068D01*
X261526589Y-106139010D01*
X261283368Y-106301525D01*
X261076525Y-106508368D01*
X260960000Y-106682760D01*
X260843475Y-106508368D01*
X260636632Y-106301525D01*
X260393411Y-106139010D01*
X260123158Y-106027068D01*
X259836260Y-105970000D01*
X259543740Y-105970000D01*
X259256842Y-106027068D01*
X258986589Y-106139010D01*
X258743368Y-106301525D01*
X258536525Y-106508368D01*
X258420000Y-106682760D01*
X258303475Y-106508368D01*
X258096632Y-106301525D01*
X257853411Y-106139010D01*
X257583158Y-106027068D01*
X257296260Y-105970000D01*
X257003740Y-105970000D01*
X256716842Y-106027068D01*
X256446589Y-106139010D01*
X256203368Y-106301525D01*
X255996525Y-106508368D01*
X255880000Y-106682760D01*
X255763475Y-106508368D01*
X255556632Y-106301525D01*
X255313411Y-106139010D01*
X255043158Y-106027068D01*
X254756260Y-105970000D01*
X254463740Y-105970000D01*
X254176842Y-106027068D01*
X253906589Y-106139010D01*
X253663368Y-106301525D01*
X253456525Y-106508368D01*
X253340000Y-106682760D01*
X253223475Y-106508368D01*
X253016632Y-106301525D01*
X252773411Y-106139010D01*
X252503158Y-106027068D01*
X252216260Y-105970000D01*
X251923740Y-105970000D01*
X251636842Y-106027068D01*
X251366589Y-106139010D01*
X251123368Y-106301525D01*
X250916525Y-106508368D01*
X250800000Y-106682760D01*
X250683475Y-106508368D01*
X250476632Y-106301525D01*
X250233411Y-106139010D01*
X249963158Y-106027068D01*
X249676260Y-105970000D01*
X249383740Y-105970000D01*
X249096842Y-106027068D01*
X248826589Y-106139010D01*
X248583368Y-106301525D01*
X248376525Y-106508368D01*
X248260000Y-106682760D01*
X248143475Y-106508368D01*
X247936632Y-106301525D01*
X247693411Y-106139010D01*
X247423158Y-106027068D01*
X247136260Y-105970000D01*
X246843740Y-105970000D01*
X246556842Y-106027068D01*
X246286589Y-106139010D01*
X246043368Y-106301525D01*
X245836525Y-106508368D01*
X245720000Y-106682760D01*
X245603475Y-106508368D01*
X245396632Y-106301525D01*
X245153411Y-106139010D01*
X244883158Y-106027068D01*
X244596260Y-105970000D01*
X244303740Y-105970000D01*
X244016842Y-106027068D01*
X243746589Y-106139010D01*
X243503368Y-106301525D01*
X243296525Y-106508368D01*
X243180000Y-106682760D01*
X243063475Y-106508368D01*
X242856632Y-106301525D01*
X242613411Y-106139010D01*
X242343158Y-106027068D01*
X242056260Y-105970000D01*
X241763740Y-105970000D01*
X241476842Y-106027068D01*
X241206589Y-106139010D01*
X240963368Y-106301525D01*
X240756525Y-106508368D01*
X240594010Y-106751589D01*
X240482068Y-107021842D01*
X240425000Y-107308740D01*
X240425000Y-107601260D01*
X240482068Y-107888158D01*
X240594010Y-108158411D01*
X240756525Y-108401632D01*
X240963368Y-108608475D01*
X241139406Y-108726100D01*
X240909731Y-108897412D01*
X240714822Y-109113645D01*
X240640000Y-109239255D01*
X240565178Y-109113645D01*
X240370269Y-108897412D01*
X240136920Y-108723359D01*
X239874099Y-108598175D01*
X239726890Y-108553524D01*
X239497000Y-108674845D01*
X239243000Y-108674845D01*
X239013110Y-108553524D01*
X238865901Y-108598175D01*
X238603080Y-108723359D01*
X238369731Y-108897412D01*
X238174822Y-109113645D01*
X238100000Y-109239255D01*
X238025178Y-109113645D01*
X237830269Y-108897412D01*
X237596920Y-108723359D01*
X237334099Y-108598175D01*
X237186890Y-108553524D01*
X236957000Y-108674845D01*
X236703000Y-108674845D01*
X236473110Y-108553524D01*
X236325901Y-108598175D01*
X236063080Y-108723359D01*
X235829731Y-108897412D01*
X235634822Y-109113645D01*
X235560000Y-109239255D01*
X235485178Y-109113645D01*
X235290269Y-108897412D01*
X235060594Y-108726100D01*
X235236632Y-108608475D01*
X235443475Y-108401632D01*
X235605990Y-108158411D01*
X235717932Y-107888158D01*
X235775000Y-107601260D01*
X235775000Y-107308740D01*
X235717932Y-107021842D01*
X235605990Y-106751589D01*
X235443475Y-106508368D01*
X235236632Y-106301525D01*
X234993411Y-106139010D01*
X234723158Y-106027068D01*
X234436260Y-105970000D01*
X234143740Y-105970000D01*
X233856842Y-106027068D01*
X233586589Y-106139010D01*
X233343368Y-106301525D01*
X233136525Y-106508368D01*
X233020000Y-106682760D01*
X232903475Y-106508368D01*
X232696632Y-106301525D01*
X232453411Y-106139010D01*
X232183158Y-106027068D01*
X231896260Y-105970000D01*
X231603740Y-105970000D01*
X231316842Y-106027068D01*
X231046589Y-106139010D01*
X230803368Y-106301525D01*
X230596525Y-106508368D01*
X230480000Y-106682760D01*
X230363475Y-106508368D01*
X230156632Y-106301525D01*
X229913411Y-106139010D01*
X229643158Y-106027068D01*
X229356260Y-105970000D01*
X229063740Y-105970000D01*
X228776842Y-106027068D01*
X228506589Y-106139010D01*
X228263368Y-106301525D01*
X228056525Y-106508368D01*
X227940000Y-106682760D01*
X227823475Y-106508368D01*
X227616632Y-106301525D01*
X227373411Y-106139010D01*
X227103158Y-106027068D01*
X226816260Y-105970000D01*
X226523740Y-105970000D01*
X226236842Y-106027068D01*
X225966589Y-106139010D01*
X225723368Y-106301525D01*
X225516525Y-106508368D01*
X225400000Y-106682760D01*
X225283475Y-106508368D01*
X225076632Y-106301525D01*
X224833411Y-106139010D01*
X224563158Y-106027068D01*
X224276260Y-105970000D01*
X223983740Y-105970000D01*
X223696842Y-106027068D01*
X223426589Y-106139010D01*
X223183368Y-106301525D01*
X222976525Y-106508368D01*
X222860000Y-106682760D01*
X222743475Y-106508368D01*
X222536632Y-106301525D01*
X222293411Y-106139010D01*
X222023158Y-106027068D01*
X221736260Y-105970000D01*
X221443740Y-105970000D01*
X221156842Y-106027068D01*
X220955001Y-106110673D01*
X220955001Y-104354327D01*
X221156842Y-104437932D01*
X221443740Y-104495000D01*
X221736260Y-104495000D01*
X222023158Y-104437932D01*
X222293411Y-104325990D01*
X222536632Y-104163475D01*
X222743475Y-103956632D01*
X222860000Y-103782240D01*
X222976525Y-103956632D01*
X223183368Y-104163475D01*
X223426589Y-104325990D01*
X223696842Y-104437932D01*
X223983740Y-104495000D01*
X224276260Y-104495000D01*
X224563158Y-104437932D01*
X224833411Y-104325990D01*
X225076632Y-104163475D01*
X225283475Y-103956632D01*
X225400000Y-103782240D01*
X225516525Y-103956632D01*
X225723368Y-104163475D01*
X225966589Y-104325990D01*
X226236842Y-104437932D01*
X226523740Y-104495000D01*
X226816260Y-104495000D01*
X227103158Y-104437932D01*
X227373411Y-104325990D01*
X227616632Y-104163475D01*
X227823475Y-103956632D01*
X227940000Y-103782240D01*
X228056525Y-103956632D01*
X228263368Y-104163475D01*
X228506589Y-104325990D01*
X228776842Y-104437932D01*
X229063740Y-104495000D01*
X229356260Y-104495000D01*
X229643158Y-104437932D01*
X229913411Y-104325990D01*
X230156632Y-104163475D01*
X230363475Y-103956632D01*
X230480000Y-103782240D01*
X230596525Y-103956632D01*
X230803368Y-104163475D01*
X231046589Y-104325990D01*
X231316842Y-104437932D01*
X231603740Y-104495000D01*
X231896260Y-104495000D01*
X232183158Y-104437932D01*
X232453411Y-104325990D01*
X232696632Y-104163475D01*
X232903475Y-103956632D01*
X233020000Y-103782240D01*
X233136525Y-103956632D01*
X233343368Y-104163475D01*
X233586589Y-104325990D01*
X233856842Y-104437932D01*
X234143740Y-104495000D01*
X234436260Y-104495000D01*
X234723158Y-104437932D01*
X234993411Y-104325990D01*
X235236632Y-104163475D01*
X235443475Y-103956632D01*
X235560000Y-103782240D01*
X235676525Y-103956632D01*
X235883368Y-104163475D01*
X236126589Y-104325990D01*
X236396842Y-104437932D01*
X236683740Y-104495000D01*
X236976260Y-104495000D01*
X237263158Y-104437932D01*
X237533411Y-104325990D01*
X237776632Y-104163475D01*
X237983475Y-103956632D01*
X238100000Y-103782240D01*
X238216525Y-103956632D01*
X238423368Y-104163475D01*
X238666589Y-104325990D01*
X238936842Y-104437932D01*
X239223740Y-104495000D01*
X239516260Y-104495000D01*
X239803158Y-104437932D01*
X240073411Y-104325990D01*
X240316632Y-104163475D01*
X240523475Y-103956632D01*
X240640000Y-103782240D01*
X240756525Y-103956632D01*
X240963368Y-104163475D01*
X241206589Y-104325990D01*
X241476842Y-104437932D01*
X241763740Y-104495000D01*
X242056260Y-104495000D01*
X242343158Y-104437932D01*
X242613411Y-104325990D01*
X242856632Y-104163475D01*
X243063475Y-103956632D01*
X243180000Y-103782240D01*
X243296525Y-103956632D01*
X243503368Y-104163475D01*
X243746589Y-104325990D01*
X244016842Y-104437932D01*
X244303740Y-104495000D01*
X244596260Y-104495000D01*
X244883158Y-104437932D01*
X245153411Y-104325990D01*
X245396632Y-104163475D01*
X245603475Y-103956632D01*
X245720000Y-103782240D01*
X245836525Y-103956632D01*
X246043368Y-104163475D01*
X246286589Y-104325990D01*
X246556842Y-104437932D01*
X246843740Y-104495000D01*
X247136260Y-104495000D01*
X247423158Y-104437932D01*
X247693411Y-104325990D01*
X247936632Y-104163475D01*
X248143475Y-103956632D01*
X248260000Y-103782240D01*
X248376525Y-103956632D01*
X248583368Y-104163475D01*
X248826589Y-104325990D01*
X249096842Y-104437932D01*
X249383740Y-104495000D01*
X249676260Y-104495000D01*
X249963158Y-104437932D01*
X250233411Y-104325990D01*
X250476632Y-104163475D01*
X250683475Y-103956632D01*
X250800000Y-103782240D01*
X250916525Y-103956632D01*
X251123368Y-104163475D01*
X251366589Y-104325990D01*
X251636842Y-104437932D01*
X251923740Y-104495000D01*
X252216260Y-104495000D01*
X252503158Y-104437932D01*
X252773411Y-104325990D01*
X253016632Y-104163475D01*
X253223475Y-103956632D01*
X253340000Y-103782240D01*
X253456525Y-103956632D01*
X253663368Y-104163475D01*
X253906589Y-104325990D01*
X254176842Y-104437932D01*
X254463740Y-104495000D01*
X254756260Y-104495000D01*
X255043158Y-104437932D01*
X255313411Y-104325990D01*
X255556632Y-104163475D01*
X255763475Y-103956632D01*
X255880000Y-103782240D01*
X255996525Y-103956632D01*
X256203368Y-104163475D01*
X256446589Y-104325990D01*
X256716842Y-104437932D01*
X257003740Y-104495000D01*
X257296260Y-104495000D01*
X257583158Y-104437932D01*
X257853411Y-104325990D01*
X258096632Y-104163475D01*
X258303475Y-103956632D01*
X258420000Y-103782240D01*
X258536525Y-103956632D01*
X258743368Y-104163475D01*
X258986589Y-104325990D01*
X259256842Y-104437932D01*
X259543740Y-104495000D01*
X259836260Y-104495000D01*
X260123158Y-104437932D01*
X260393411Y-104325990D01*
X260636632Y-104163475D01*
X260843475Y-103956632D01*
X260960000Y-103782240D01*
X261076525Y-103956632D01*
X261283368Y-104163475D01*
X261526589Y-104325990D01*
X261796842Y-104437932D01*
X262083740Y-104495000D01*
X262376260Y-104495000D01*
X262663158Y-104437932D01*
X262933411Y-104325990D01*
X263176632Y-104163475D01*
X263383475Y-103956632D01*
X263545990Y-103713411D01*
X263657932Y-103443158D01*
X263715000Y-103156260D01*
X263715000Y-102863740D01*
X263657932Y-102576842D01*
X263545990Y-102306589D01*
X263383475Y-102063368D01*
X263176632Y-101856525D01*
X262933411Y-101694010D01*
X262663158Y-101582068D01*
X262376260Y-101525000D01*
X262083740Y-101525000D01*
X261796842Y-101582068D01*
X261526589Y-101694010D01*
X261283368Y-101856525D01*
X261076525Y-102063368D01*
X260960000Y-102237760D01*
X260843475Y-102063368D01*
X260636632Y-101856525D01*
X260425000Y-101715117D01*
X260425000Y-99469719D01*
X260441331Y-99480631D01*
X260848075Y-99649110D01*
X261279872Y-99735000D01*
X261720128Y-99735000D01*
X262151925Y-99649110D01*
X262558669Y-99480631D01*
X262924729Y-99236038D01*
X263236038Y-98924729D01*
X263480631Y-98558669D01*
X263649110Y-98151925D01*
X263735000Y-97720128D01*
X263735000Y-97279872D01*
X263649110Y-96848075D01*
X263480631Y-96441331D01*
X263236038Y-96075271D01*
X262924729Y-95763962D01*
X262558669Y-95519369D01*
X262151925Y-95350890D01*
X261720128Y-95265000D01*
X261279872Y-95265000D01*
X260848075Y-95350890D01*
X260441331Y-95519369D01*
X260075271Y-95763962D01*
X259763962Y-96075271D01*
X259519369Y-96441331D01*
X259350890Y-96848075D01*
X259265000Y-97279872D01*
X259265000Y-97720128D01*
X259291177Y-97851731D01*
X258065344Y-96625897D01*
X258115000Y-96376260D01*
X258115000Y-96083740D01*
X258057932Y-95796842D01*
X257945990Y-95526589D01*
X257783475Y-95283368D01*
X257576632Y-95076525D01*
X257475574Y-95009000D01*
X263156053Y-95009000D01*
X263279285Y-95074524D01*
G37*
X263279285Y-95074524D02*
X263628914Y-95359675D01*
X263881000Y-95664395D01*
X263881000Y-113355893D01*
X263811632Y-113286525D01*
X263568411Y-113124010D01*
X263298158Y-113012068D01*
X263011260Y-112955000D01*
X262718740Y-112955000D01*
X262431842Y-113012068D01*
X262161589Y-113124010D01*
X261918368Y-113286525D01*
X261711525Y-113493368D01*
X261595000Y-113667760D01*
X261478475Y-113493368D01*
X261271632Y-113286525D01*
X261028411Y-113124010D01*
X260758158Y-113012068D01*
X260471260Y-112955000D01*
X260178740Y-112955000D01*
X259891842Y-113012068D01*
X259621589Y-113124010D01*
X259378368Y-113286525D01*
X259171525Y-113493368D01*
X259055000Y-113667760D01*
X258938475Y-113493368D01*
X258731632Y-113286525D01*
X258488411Y-113124010D01*
X258218158Y-113012068D01*
X257931260Y-112955000D01*
X257638740Y-112955000D01*
X257351842Y-113012068D01*
X257081589Y-113124010D01*
X256838368Y-113286525D01*
X256631525Y-113493368D01*
X256515000Y-113667760D01*
X256398475Y-113493368D01*
X256191632Y-113286525D01*
X255948411Y-113124010D01*
X255678158Y-113012068D01*
X255391260Y-112955000D01*
X255098740Y-112955000D01*
X254811842Y-113012068D01*
X254541589Y-113124010D01*
X254298368Y-113286525D01*
X254091525Y-113493368D01*
X253975000Y-113667760D01*
X253858475Y-113493368D01*
X253651632Y-113286525D01*
X253408411Y-113124010D01*
X253138158Y-113012068D01*
X252851260Y-112955000D01*
X252558740Y-112955000D01*
X252271842Y-113012068D01*
X252001589Y-113124010D01*
X251758368Y-113286525D01*
X251551525Y-113493368D01*
X251435000Y-113667760D01*
X251318475Y-113493368D01*
X251111632Y-113286525D01*
X250868411Y-113124010D01*
X250598158Y-113012068D01*
X250311260Y-112955000D01*
X250018740Y-112955000D01*
X249731842Y-113012068D01*
X249461589Y-113124010D01*
X249218368Y-113286525D01*
X249011525Y-113493368D01*
X248895000Y-113667760D01*
X248778475Y-113493368D01*
X248571632Y-113286525D01*
X248328411Y-113124010D01*
X248058158Y-113012068D01*
X247771260Y-112955000D01*
X247478740Y-112955000D01*
X247191842Y-113012068D01*
X246921589Y-113124010D01*
X246678368Y-113286525D01*
X246471525Y-113493368D01*
X246355000Y-113667760D01*
X246238475Y-113493368D01*
X246031632Y-113286525D01*
X245788411Y-113124010D01*
X245518158Y-113012068D01*
X245231260Y-112955000D01*
X244938740Y-112955000D01*
X244651842Y-113012068D01*
X244381589Y-113124010D01*
X244138368Y-113286525D01*
X243931525Y-113493368D01*
X243815000Y-113667760D01*
X243698475Y-113493368D01*
X243491632Y-113286525D01*
X243248411Y-113124010D01*
X242978158Y-113012068D01*
X242691260Y-112955000D01*
X242398740Y-112955000D01*
X242111842Y-113012068D01*
X241841589Y-113124010D01*
X241598368Y-113286525D01*
X241391525Y-113493368D01*
X241275000Y-113667760D01*
X241158475Y-113493368D01*
X240951632Y-113286525D01*
X240708411Y-113124010D01*
X240438158Y-113012068D01*
X240151260Y-112955000D01*
X239858740Y-112955000D01*
X239571842Y-113012068D01*
X239301589Y-113124010D01*
X239058368Y-113286525D01*
X238851525Y-113493368D01*
X238689010Y-113736589D01*
X238674372Y-113771927D01*
X236265499Y-111363055D01*
X236325901Y-111391825D01*
X236473110Y-111436476D01*
X236703000Y-111315155D01*
X236703000Y-110122000D01*
X236957000Y-110122000D01*
X236957000Y-111315155D01*
X237186890Y-111436476D01*
X237334099Y-111391825D01*
X237596920Y-111266641D01*
X237830269Y-111092588D01*
X238025178Y-110876355D01*
X238100000Y-110750745D01*
X238174822Y-110876355D01*
X238369731Y-111092588D01*
X238603080Y-111266641D01*
X238865901Y-111391825D01*
X239013110Y-111436476D01*
X239243000Y-111315155D01*
X239243000Y-110122000D01*
X239497000Y-110122000D01*
X239497000Y-111315155D01*
X239726890Y-111436476D01*
X239874099Y-111391825D01*
X240136920Y-111266641D01*
X240370269Y-111092588D01*
X240565178Y-110876355D01*
X240640000Y-110750745D01*
X240714822Y-110876355D01*
X240909731Y-111092588D01*
X241143080Y-111266641D01*
X241405901Y-111391825D01*
X241553110Y-111436476D01*
X241783000Y-111315155D01*
X241783000Y-110122000D01*
X242037000Y-110122000D01*
X242037000Y-111315155D01*
X242266890Y-111436476D01*
X242414099Y-111391825D01*
X242676920Y-111266641D01*
X242910269Y-111092588D01*
X243105178Y-110876355D01*
X243180000Y-110750745D01*
X243254822Y-110876355D01*
X243449731Y-111092588D01*
X243683080Y-111266641D01*
X243945901Y-111391825D01*
X244093110Y-111436476D01*
X244323000Y-111315155D01*
X244323000Y-110122000D01*
X244577000Y-110122000D01*
X244577000Y-111315155D01*
X244806890Y-111436476D01*
X244954099Y-111391825D01*
X245216920Y-111266641D01*
X245450269Y-111092588D01*
X245645178Y-110876355D01*
X245720000Y-110750745D01*
X245794822Y-110876355D01*
X245989731Y-111092588D01*
X246223080Y-111266641D01*
X246485901Y-111391825D01*
X246633110Y-111436476D01*
X246863000Y-111315155D01*
X246863000Y-110122000D01*
X247117000Y-110122000D01*
X247117000Y-111315155D01*
X247346890Y-111436476D01*
X247494099Y-111391825D01*
X247756920Y-111266641D01*
X247990269Y-111092588D01*
X248185178Y-110876355D01*
X248260000Y-110750745D01*
X248334822Y-110876355D01*
X248529731Y-111092588D01*
X248763080Y-111266641D01*
X249025901Y-111391825D01*
X249173110Y-111436476D01*
X249403000Y-111315155D01*
X249403000Y-110122000D01*
X249657000Y-110122000D01*
X249657000Y-111315155D01*
X249886890Y-111436476D01*
X250034099Y-111391825D01*
X250296920Y-111266641D01*
X250530269Y-111092588D01*
X250725178Y-110876355D01*
X250800000Y-110750745D01*
X250874822Y-110876355D01*
X251069731Y-111092588D01*
X251303080Y-111266641D01*
X251565901Y-111391825D01*
X251713110Y-111436476D01*
X251943000Y-111315155D01*
X251943000Y-110122000D01*
X252197000Y-110122000D01*
X252197000Y-111315155D01*
X252426890Y-111436476D01*
X252574099Y-111391825D01*
X252836920Y-111266641D01*
X253070269Y-111092588D01*
X253265178Y-110876355D01*
X253340000Y-110750745D01*
X253414822Y-110876355D01*
X253609731Y-111092588D01*
X253843080Y-111266641D01*
X254105901Y-111391825D01*
X254253110Y-111436476D01*
X254483000Y-111315155D01*
X254483000Y-110122000D01*
X254737000Y-110122000D01*
X254737000Y-111315155D01*
X254966890Y-111436476D01*
X255114099Y-111391825D01*
X255376920Y-111266641D01*
X255610269Y-111092588D01*
X255805178Y-110876355D01*
X255880000Y-110750745D01*
X255954822Y-110876355D01*
X256149731Y-111092588D01*
X256383080Y-111266641D01*
X256645901Y-111391825D01*
X256793110Y-111436476D01*
X257023000Y-111315155D01*
X257023000Y-110122000D01*
X257277000Y-110122000D01*
X257277000Y-111315155D01*
X257506890Y-111436476D01*
X257654099Y-111391825D01*
X257916920Y-111266641D01*
X258150269Y-111092588D01*
X258345178Y-110876355D01*
X258420000Y-110750745D01*
X258494822Y-110876355D01*
X258689731Y-111092588D01*
X258923080Y-111266641D01*
X259185901Y-111391825D01*
X259333110Y-111436476D01*
X259563000Y-111315155D01*
X259563000Y-110122000D01*
X259817000Y-110122000D01*
X259817000Y-111315155D01*
X260046890Y-111436476D01*
X260194099Y-111391825D01*
X260456920Y-111266641D01*
X260690269Y-111092588D01*
X260885178Y-110876355D01*
X260960000Y-110750745D01*
X261034822Y-110876355D01*
X261229731Y-111092588D01*
X261463080Y-111266641D01*
X261725901Y-111391825D01*
X261873110Y-111436476D01*
X262103000Y-111315155D01*
X262103000Y-110122000D01*
X262357000Y-110122000D01*
X262357000Y-111315155D01*
X262586890Y-111436476D01*
X262734099Y-111391825D01*
X262996920Y-111266641D01*
X263230269Y-111092588D01*
X263425178Y-110876355D01*
X263574157Y-110626252D01*
X263671481Y-110351891D01*
X263550814Y-110122000D01*
X262357000Y-110122000D01*
X262103000Y-110122000D01*
X259817000Y-110122000D01*
X259563000Y-110122000D01*
X257277000Y-110122000D01*
X257023000Y-110122000D01*
X254737000Y-110122000D01*
X254483000Y-110122000D01*
X252197000Y-110122000D01*
X251943000Y-110122000D01*
X249657000Y-110122000D01*
X249403000Y-110122000D01*
X247117000Y-110122000D01*
X246863000Y-110122000D01*
X244577000Y-110122000D01*
X244323000Y-110122000D01*
X242037000Y-110122000D01*
X241783000Y-110122000D01*
X239497000Y-110122000D01*
X239243000Y-110122000D01*
X236957000Y-110122000D01*
X236703000Y-110122000D01*
X234417000Y-110122000D01*
X234417000Y-110142000D01*
X234163000Y-110142000D01*
X234163000Y-110122000D01*
X231877000Y-110122000D01*
X231877000Y-110142000D01*
X231623000Y-110142000D01*
X231623000Y-110122000D01*
X229337000Y-110122000D01*
X229337000Y-110142000D01*
X229083000Y-110142000D01*
X229083000Y-110122000D01*
X226797000Y-110122000D01*
X226797000Y-110142000D01*
X226543000Y-110142000D01*
X226543000Y-110122000D01*
X224257000Y-110122000D01*
X224257000Y-110142000D01*
X224003000Y-110142000D01*
X224003000Y-110122000D01*
X221717000Y-110122000D01*
X221717000Y-110142000D01*
X221463000Y-110142000D01*
X221463000Y-110122000D01*
X221443000Y-110122000D01*
X221443000Y-109868000D01*
X221463000Y-109868000D01*
X221463000Y-109848000D01*
X221717000Y-109848000D01*
X221717000Y-109868000D01*
X224003000Y-109868000D01*
X224003000Y-109848000D01*
X224257000Y-109848000D01*
X224257000Y-109868000D01*
X226543000Y-109868000D01*
X226543000Y-109848000D01*
X226797000Y-109848000D01*
X226797000Y-109868000D01*
X229083000Y-109868000D01*
X229083000Y-109848000D01*
X229337000Y-109848000D01*
X229337000Y-109868000D01*
X231623000Y-109868000D01*
X231623000Y-109848000D01*
X231877000Y-109848000D01*
X231877000Y-109868000D01*
X234163000Y-109868000D01*
X234163000Y-109848000D01*
X234417000Y-109848000D01*
X234417000Y-109868000D01*
X236703000Y-109868000D01*
X236703000Y-108674845D01*
X236957000Y-108674845D01*
X236957000Y-109868000D01*
X239243000Y-109868000D01*
X239243000Y-108674845D01*
X239497000Y-108674845D01*
X239497000Y-109868000D01*
X241783000Y-109868000D01*
X241783000Y-109848000D01*
X242037000Y-109848000D01*
X242037000Y-109868000D01*
X244323000Y-109868000D01*
X244323000Y-109848000D01*
X244577000Y-109848000D01*
X244577000Y-109868000D01*
X246863000Y-109868000D01*
X246863000Y-109848000D01*
X247117000Y-109848000D01*
X247117000Y-109868000D01*
X249403000Y-109868000D01*
X249403000Y-109848000D01*
X249657000Y-109848000D01*
X249657000Y-109868000D01*
X251943000Y-109868000D01*
X251943000Y-109848000D01*
X252197000Y-109848000D01*
X252197000Y-109868000D01*
X254483000Y-109868000D01*
X254483000Y-109848000D01*
X254737000Y-109848000D01*
X254737000Y-109868000D01*
X257023000Y-109868000D01*
X257023000Y-109848000D01*
X257277000Y-109848000D01*
X257277000Y-109868000D01*
X259563000Y-109868000D01*
X259563000Y-109848000D01*
X259817000Y-109848000D01*
X259817000Y-109868000D01*
X262103000Y-109868000D01*
X262103000Y-109848000D01*
X262357000Y-109848000D01*
X262357000Y-109868000D01*
X263550814Y-109868000D01*
X263671481Y-109638109D01*
X263574157Y-109363748D01*
X263425178Y-109113645D01*
X263230269Y-108897412D01*
X263000594Y-108726100D01*
X263176632Y-108608475D01*
X263383475Y-108401632D01*
X263545990Y-108158411D01*
X263657932Y-107888158D01*
X263715000Y-107601260D01*
X263715000Y-107308740D01*
X263657932Y-107021842D01*
X263545990Y-106751589D01*
X263383475Y-106508368D01*
X263176632Y-106301525D01*
X262933411Y-106139010D01*
X262663158Y-106027068D01*
X262376260Y-105970000D01*
X262083740Y-105970000D01*
X261796842Y-106027068D01*
X261526589Y-106139010D01*
X261283368Y-106301525D01*
X261076525Y-106508368D01*
X260960000Y-106682760D01*
X260843475Y-106508368D01*
X260636632Y-106301525D01*
X260393411Y-106139010D01*
X260123158Y-106027068D01*
X259836260Y-105970000D01*
X259543740Y-105970000D01*
X259256842Y-106027068D01*
X258986589Y-106139010D01*
X258743368Y-106301525D01*
X258536525Y-106508368D01*
X258420000Y-106682760D01*
X258303475Y-106508368D01*
X258096632Y-106301525D01*
X257853411Y-106139010D01*
X257583158Y-106027068D01*
X257296260Y-105970000D01*
X257003740Y-105970000D01*
X256716842Y-106027068D01*
X256446589Y-106139010D01*
X256203368Y-106301525D01*
X255996525Y-106508368D01*
X255880000Y-106682760D01*
X255763475Y-106508368D01*
X255556632Y-106301525D01*
X255313411Y-106139010D01*
X255043158Y-106027068D01*
X254756260Y-105970000D01*
X254463740Y-105970000D01*
X254176842Y-106027068D01*
X253906589Y-106139010D01*
X253663368Y-106301525D01*
X253456525Y-106508368D01*
X253340000Y-106682760D01*
X253223475Y-106508368D01*
X253016632Y-106301525D01*
X252773411Y-106139010D01*
X252503158Y-106027068D01*
X252216260Y-105970000D01*
X251923740Y-105970000D01*
X251636842Y-106027068D01*
X251366589Y-106139010D01*
X251123368Y-106301525D01*
X250916525Y-106508368D01*
X250800000Y-106682760D01*
X250683475Y-106508368D01*
X250476632Y-106301525D01*
X250233411Y-106139010D01*
X249963158Y-106027068D01*
X249676260Y-105970000D01*
X249383740Y-105970000D01*
X249096842Y-106027068D01*
X248826589Y-106139010D01*
X248583368Y-106301525D01*
X248376525Y-106508368D01*
X248260000Y-106682760D01*
X248143475Y-106508368D01*
X247936632Y-106301525D01*
X247693411Y-106139010D01*
X247423158Y-106027068D01*
X247136260Y-105970000D01*
X246843740Y-105970000D01*
X246556842Y-106027068D01*
X246286589Y-106139010D01*
X246043368Y-106301525D01*
X245836525Y-106508368D01*
X245720000Y-106682760D01*
X245603475Y-106508368D01*
X245396632Y-106301525D01*
X245153411Y-106139010D01*
X244883158Y-106027068D01*
X244596260Y-105970000D01*
X244303740Y-105970000D01*
X244016842Y-106027068D01*
X243746589Y-106139010D01*
X243503368Y-106301525D01*
X243296525Y-106508368D01*
X243180000Y-106682760D01*
X243063475Y-106508368D01*
X242856632Y-106301525D01*
X242613411Y-106139010D01*
X242343158Y-106027068D01*
X242056260Y-105970000D01*
X241763740Y-105970000D01*
X241476842Y-106027068D01*
X241206589Y-106139010D01*
X240963368Y-106301525D01*
X240756525Y-106508368D01*
X240594010Y-106751589D01*
X240482068Y-107021842D01*
X240425000Y-107308740D01*
X240425000Y-107601260D01*
X240482068Y-107888158D01*
X240594010Y-108158411D01*
X240756525Y-108401632D01*
X240963368Y-108608475D01*
X241139406Y-108726100D01*
X240909731Y-108897412D01*
X240714822Y-109113645D01*
X240640000Y-109239255D01*
X240565178Y-109113645D01*
X240370269Y-108897412D01*
X240136920Y-108723359D01*
X239874099Y-108598175D01*
X239726890Y-108553524D01*
X239497000Y-108674845D01*
X239243000Y-108674845D01*
X239013110Y-108553524D01*
X238865901Y-108598175D01*
X238603080Y-108723359D01*
X238369731Y-108897412D01*
X238174822Y-109113645D01*
X238100000Y-109239255D01*
X238025178Y-109113645D01*
X237830269Y-108897412D01*
X237596920Y-108723359D01*
X237334099Y-108598175D01*
X237186890Y-108553524D01*
X236957000Y-108674845D01*
X236703000Y-108674845D01*
X236473110Y-108553524D01*
X236325901Y-108598175D01*
X236063080Y-108723359D01*
X235829731Y-108897412D01*
X235634822Y-109113645D01*
X235560000Y-109239255D01*
X235485178Y-109113645D01*
X235290269Y-108897412D01*
X235060594Y-108726100D01*
X235236632Y-108608475D01*
X235443475Y-108401632D01*
X235605990Y-108158411D01*
X235717932Y-107888158D01*
X235775000Y-107601260D01*
X235775000Y-107308740D01*
X235717932Y-107021842D01*
X235605990Y-106751589D01*
X235443475Y-106508368D01*
X235236632Y-106301525D01*
X234993411Y-106139010D01*
X234723158Y-106027068D01*
X234436260Y-105970000D01*
X234143740Y-105970000D01*
X233856842Y-106027068D01*
X233586589Y-106139010D01*
X233343368Y-106301525D01*
X233136525Y-106508368D01*
X233020000Y-106682760D01*
X232903475Y-106508368D01*
X232696632Y-106301525D01*
X232453411Y-106139010D01*
X232183158Y-106027068D01*
X231896260Y-105970000D01*
X231603740Y-105970000D01*
X231316842Y-106027068D01*
X231046589Y-106139010D01*
X230803368Y-106301525D01*
X230596525Y-106508368D01*
X230480000Y-106682760D01*
X230363475Y-106508368D01*
X230156632Y-106301525D01*
X229913411Y-106139010D01*
X229643158Y-106027068D01*
X229356260Y-105970000D01*
X229063740Y-105970000D01*
X228776842Y-106027068D01*
X228506589Y-106139010D01*
X228263368Y-106301525D01*
X228056525Y-106508368D01*
X227940000Y-106682760D01*
X227823475Y-106508368D01*
X227616632Y-106301525D01*
X227373411Y-106139010D01*
X227103158Y-106027068D01*
X226816260Y-105970000D01*
X226523740Y-105970000D01*
X226236842Y-106027068D01*
X225966589Y-106139010D01*
X225723368Y-106301525D01*
X225516525Y-106508368D01*
X225400000Y-106682760D01*
X225283475Y-106508368D01*
X225076632Y-106301525D01*
X224833411Y-106139010D01*
X224563158Y-106027068D01*
X224276260Y-105970000D01*
X223983740Y-105970000D01*
X223696842Y-106027068D01*
X223426589Y-106139010D01*
X223183368Y-106301525D01*
X222976525Y-106508368D01*
X222860000Y-106682760D01*
X222743475Y-106508368D01*
X222536632Y-106301525D01*
X222293411Y-106139010D01*
X222023158Y-106027068D01*
X221736260Y-105970000D01*
X221443740Y-105970000D01*
X221156842Y-106027068D01*
X220955001Y-106110673D01*
X220955001Y-104354327D01*
X221156842Y-104437932D01*
X221443740Y-104495000D01*
X221736260Y-104495000D01*
X222023158Y-104437932D01*
X222293411Y-104325990D01*
X222536632Y-104163475D01*
X222743475Y-103956632D01*
X222860000Y-103782240D01*
X222976525Y-103956632D01*
X223183368Y-104163475D01*
X223426589Y-104325990D01*
X223696842Y-104437932D01*
X223983740Y-104495000D01*
X224276260Y-104495000D01*
X224563158Y-104437932D01*
X224833411Y-104325990D01*
X225076632Y-104163475D01*
X225283475Y-103956632D01*
X225400000Y-103782240D01*
X225516525Y-103956632D01*
X225723368Y-104163475D01*
X225966589Y-104325990D01*
X226236842Y-104437932D01*
X226523740Y-104495000D01*
X226816260Y-104495000D01*
X227103158Y-104437932D01*
X227373411Y-104325990D01*
X227616632Y-104163475D01*
X227823475Y-103956632D01*
X227940000Y-103782240D01*
X228056525Y-103956632D01*
X228263368Y-104163475D01*
X228506589Y-104325990D01*
X228776842Y-104437932D01*
X229063740Y-104495000D01*
X229356260Y-104495000D01*
X229643158Y-104437932D01*
X229913411Y-104325990D01*
X230156632Y-104163475D01*
X230363475Y-103956632D01*
X230480000Y-103782240D01*
X230596525Y-103956632D01*
X230803368Y-104163475D01*
X231046589Y-104325990D01*
X231316842Y-104437932D01*
X231603740Y-104495000D01*
X231896260Y-104495000D01*
X232183158Y-104437932D01*
X232453411Y-104325990D01*
X232696632Y-104163475D01*
X232903475Y-103956632D01*
X233020000Y-103782240D01*
X233136525Y-103956632D01*
X233343368Y-104163475D01*
X233586589Y-104325990D01*
X233856842Y-104437932D01*
X234143740Y-104495000D01*
X234436260Y-104495000D01*
X234723158Y-104437932D01*
X234993411Y-104325990D01*
X235236632Y-104163475D01*
X235443475Y-103956632D01*
X235560000Y-103782240D01*
X235676525Y-103956632D01*
X235883368Y-104163475D01*
X236126589Y-104325990D01*
X236396842Y-104437932D01*
X236683740Y-104495000D01*
X236976260Y-104495000D01*
X237263158Y-104437932D01*
X237533411Y-104325990D01*
X237776632Y-104163475D01*
X237983475Y-103956632D01*
X238100000Y-103782240D01*
X238216525Y-103956632D01*
X238423368Y-104163475D01*
X238666589Y-104325990D01*
X238936842Y-104437932D01*
X239223740Y-104495000D01*
X239516260Y-104495000D01*
X239803158Y-104437932D01*
X240073411Y-104325990D01*
X240316632Y-104163475D01*
X240523475Y-103956632D01*
X240640000Y-103782240D01*
X240756525Y-103956632D01*
X240963368Y-104163475D01*
X241206589Y-104325990D01*
X241476842Y-104437932D01*
X241763740Y-104495000D01*
X242056260Y-104495000D01*
X242343158Y-104437932D01*
X242613411Y-104325990D01*
X242856632Y-104163475D01*
X243063475Y-103956632D01*
X243180000Y-103782240D01*
X243296525Y-103956632D01*
X243503368Y-104163475D01*
X243746589Y-104325990D01*
X244016842Y-104437932D01*
X244303740Y-104495000D01*
X244596260Y-104495000D01*
X244883158Y-104437932D01*
X245153411Y-104325990D01*
X245396632Y-104163475D01*
X245603475Y-103956632D01*
X245720000Y-103782240D01*
X245836525Y-103956632D01*
X246043368Y-104163475D01*
X246286589Y-104325990D01*
X246556842Y-104437932D01*
X246843740Y-104495000D01*
X247136260Y-104495000D01*
X247423158Y-104437932D01*
X247693411Y-104325990D01*
X247936632Y-104163475D01*
X248143475Y-103956632D01*
X248260000Y-103782240D01*
X248376525Y-103956632D01*
X248583368Y-104163475D01*
X248826589Y-104325990D01*
X249096842Y-104437932D01*
X249383740Y-104495000D01*
X249676260Y-104495000D01*
X249963158Y-104437932D01*
X250233411Y-104325990D01*
X250476632Y-104163475D01*
X250683475Y-103956632D01*
X250800000Y-103782240D01*
X250916525Y-103956632D01*
X251123368Y-104163475D01*
X251366589Y-104325990D01*
X251636842Y-104437932D01*
X251923740Y-104495000D01*
X252216260Y-104495000D01*
X252503158Y-104437932D01*
X252773411Y-104325990D01*
X253016632Y-104163475D01*
X253223475Y-103956632D01*
X253340000Y-103782240D01*
X253456525Y-103956632D01*
X253663368Y-104163475D01*
X253906589Y-104325990D01*
X254176842Y-104437932D01*
X254463740Y-104495000D01*
X254756260Y-104495000D01*
X255043158Y-104437932D01*
X255313411Y-104325990D01*
X255556632Y-104163475D01*
X255763475Y-103956632D01*
X255880000Y-103782240D01*
X255996525Y-103956632D01*
X256203368Y-104163475D01*
X256446589Y-104325990D01*
X256716842Y-104437932D01*
X257003740Y-104495000D01*
X257296260Y-104495000D01*
X257583158Y-104437932D01*
X257853411Y-104325990D01*
X258096632Y-104163475D01*
X258303475Y-103956632D01*
X258420000Y-103782240D01*
X258536525Y-103956632D01*
X258743368Y-104163475D01*
X258986589Y-104325990D01*
X259256842Y-104437932D01*
X259543740Y-104495000D01*
X259836260Y-104495000D01*
X260123158Y-104437932D01*
X260393411Y-104325990D01*
X260636632Y-104163475D01*
X260843475Y-103956632D01*
X260960000Y-103782240D01*
X261076525Y-103956632D01*
X261283368Y-104163475D01*
X261526589Y-104325990D01*
X261796842Y-104437932D01*
X262083740Y-104495000D01*
X262376260Y-104495000D01*
X262663158Y-104437932D01*
X262933411Y-104325990D01*
X263176632Y-104163475D01*
X263383475Y-103956632D01*
X263545990Y-103713411D01*
X263657932Y-103443158D01*
X263715000Y-103156260D01*
X263715000Y-102863740D01*
X263657932Y-102576842D01*
X263545990Y-102306589D01*
X263383475Y-102063368D01*
X263176632Y-101856525D01*
X262933411Y-101694010D01*
X262663158Y-101582068D01*
X262376260Y-101525000D01*
X262083740Y-101525000D01*
X261796842Y-101582068D01*
X261526589Y-101694010D01*
X261283368Y-101856525D01*
X261076525Y-102063368D01*
X260960000Y-102237760D01*
X260843475Y-102063368D01*
X260636632Y-101856525D01*
X260425000Y-101715117D01*
X260425000Y-99469719D01*
X260441331Y-99480631D01*
X260848075Y-99649110D01*
X261279872Y-99735000D01*
X261720128Y-99735000D01*
X262151925Y-99649110D01*
X262558669Y-99480631D01*
X262924729Y-99236038D01*
X263236038Y-98924729D01*
X263480631Y-98558669D01*
X263649110Y-98151925D01*
X263735000Y-97720128D01*
X263735000Y-97279872D01*
X263649110Y-96848075D01*
X263480631Y-96441331D01*
X263236038Y-96075271D01*
X262924729Y-95763962D01*
X262558669Y-95519369D01*
X262151925Y-95350890D01*
X261720128Y-95265000D01*
X261279872Y-95265000D01*
X260848075Y-95350890D01*
X260441331Y-95519369D01*
X260075271Y-95763962D01*
X259763962Y-96075271D01*
X259519369Y-96441331D01*
X259350890Y-96848075D01*
X259265000Y-97279872D01*
X259265000Y-97720128D01*
X259291177Y-97851731D01*
X258065344Y-96625897D01*
X258115000Y-96376260D01*
X258115000Y-96083740D01*
X258057932Y-95796842D01*
X257945990Y-95526589D01*
X257783475Y-95283368D01*
X257576632Y-95076525D01*
X257475574Y-95009000D01*
X263156053Y-95009000D01*
X263279285Y-95074524D01*
G36*
X213577000Y-96103000D02*
G01*
X213597000Y-96103000D01*
X213597000Y-96357000D01*
X213577000Y-96357000D01*
X213577000Y-96377000D01*
X213323000Y-96377000D01*
X213323000Y-96357000D01*
X213303000Y-96357000D01*
X213303000Y-96103000D01*
X213323000Y-96103000D01*
X213323000Y-96083000D01*
X213577000Y-96083000D01*
X213577000Y-96103000D01*
G37*
X213577000Y-96103000D02*
X213597000Y-96103000D01*
X213597000Y-96357000D01*
X213577000Y-96357000D01*
X213577000Y-96377000D01*
X213323000Y-96377000D01*
X213323000Y-96357000D01*
X213303000Y-96357000D01*
X213303000Y-96103000D01*
X213323000Y-96103000D01*
X213323000Y-96083000D01*
X213577000Y-96083000D01*
X213577000Y-96103000D01*
M02*
