G04 #@! TF.GenerationSoftware,KiCad,Pcbnew,(5.1.6-0-10_14)*
G04 #@! TF.CreationDate,2022-10-13T19:28:45-07:00*
G04 #@! TF.ProjectId,RaspberryPiProtoHat,52617370-6265-4727-9279-506950726f74,rev?*
G04 #@! TF.SameCoordinates,Original*
G04 #@! TF.FileFunction,Legend,Bot*
G04 #@! TF.FilePolarity,Positive*
%FSLAX46Y46*%
G04 Gerber Fmt 4.6, Leading zero omitted, Abs format (unit mm)*
G04 Created by KiCad (PCBNEW (5.1.6-0-10_14)) date 2022-10-13 19:28:45*
%MOMM*%
%LPD*%
G01*
G04 APERTURE LIST*
%ADD10C,0.075000*%
%ADD11C,0.010000*%
%ADD12C,0.120000*%
%ADD13C,0.150000*%
G04 APERTURE END LIST*
D10*
X228573619Y-148515714D02*
X228383142Y-149182380D01*
X228192666Y-148706190D01*
X228002190Y-149182380D01*
X227811714Y-148515714D01*
X227526000Y-148515714D02*
X227335523Y-149182380D01*
X227145047Y-148706190D01*
X226954571Y-149182380D01*
X226764095Y-148515714D01*
X226478380Y-148515714D02*
X226287904Y-149182380D01*
X226097428Y-148706190D01*
X225906952Y-149182380D01*
X225716476Y-148515714D01*
X225335523Y-149087142D02*
X225287904Y-149134761D01*
X225335523Y-149182380D01*
X225383142Y-149134761D01*
X225335523Y-149087142D01*
X225335523Y-149182380D01*
X224859333Y-149182380D02*
X224859333Y-148182380D01*
X224859333Y-148563333D02*
X224764095Y-148515714D01*
X224573619Y-148515714D01*
X224478380Y-148563333D01*
X224430761Y-148610952D01*
X224383142Y-148706190D01*
X224383142Y-148991904D01*
X224430761Y-149087142D01*
X224478380Y-149134761D01*
X224573619Y-149182380D01*
X224764095Y-149182380D01*
X224859333Y-149134761D01*
X223526000Y-149182380D02*
X223526000Y-148658571D01*
X223573619Y-148563333D01*
X223668857Y-148515714D01*
X223859333Y-148515714D01*
X223954571Y-148563333D01*
X223526000Y-149134761D02*
X223621238Y-149182380D01*
X223859333Y-149182380D01*
X223954571Y-149134761D01*
X224002190Y-149039523D01*
X224002190Y-148944285D01*
X223954571Y-148849047D01*
X223859333Y-148801428D01*
X223621238Y-148801428D01*
X223526000Y-148753809D01*
X223049809Y-149182380D02*
X223049809Y-148515714D01*
X223049809Y-148706190D02*
X223002190Y-148610952D01*
X222954571Y-148563333D01*
X222859333Y-148515714D01*
X222764095Y-148515714D01*
X222049809Y-149134761D02*
X222145047Y-149182380D01*
X222335523Y-149182380D01*
X222430761Y-149134761D01*
X222478380Y-149039523D01*
X222478380Y-148658571D01*
X222430761Y-148563333D01*
X222335523Y-148515714D01*
X222145047Y-148515714D01*
X222049809Y-148563333D01*
X222002190Y-148658571D01*
X222002190Y-148753809D01*
X222478380Y-148849047D01*
X221573619Y-148515714D02*
X221573619Y-149182380D01*
X221573619Y-148610952D02*
X221526000Y-148563333D01*
X221430761Y-148515714D01*
X221287904Y-148515714D01*
X221192666Y-148563333D01*
X221145047Y-148658571D01*
X221145047Y-149182380D01*
X220240285Y-149182380D02*
X220240285Y-148658571D01*
X220287904Y-148563333D01*
X220383142Y-148515714D01*
X220573619Y-148515714D01*
X220668857Y-148563333D01*
X220240285Y-149134761D02*
X220335523Y-149182380D01*
X220573619Y-149182380D01*
X220668857Y-149134761D01*
X220716476Y-149039523D01*
X220716476Y-148944285D01*
X220668857Y-148849047D01*
X220573619Y-148801428D01*
X220335523Y-148801428D01*
X220240285Y-148753809D01*
X219764095Y-149182380D02*
X219764095Y-148182380D01*
X219668857Y-148801428D02*
X219383142Y-149182380D01*
X219383142Y-148515714D02*
X219764095Y-148896666D01*
X218573619Y-149134761D02*
X218668857Y-149182380D01*
X218859333Y-149182380D01*
X218954571Y-149134761D01*
X219002190Y-149039523D01*
X219002190Y-148658571D01*
X218954571Y-148563333D01*
X218859333Y-148515714D01*
X218668857Y-148515714D01*
X218573619Y-148563333D01*
X218526000Y-148658571D01*
X218526000Y-148753809D01*
X219002190Y-148849047D01*
X217668857Y-149182380D02*
X217668857Y-148182380D01*
X217668857Y-149134761D02*
X217764095Y-149182380D01*
X217954571Y-149182380D01*
X218049809Y-149134761D01*
X218097428Y-149087142D01*
X218145047Y-148991904D01*
X218145047Y-148706190D01*
X218097428Y-148610952D01*
X218049809Y-148563333D01*
X217954571Y-148515714D01*
X217764095Y-148515714D01*
X217668857Y-148563333D01*
X216811714Y-149134761D02*
X216906952Y-149182380D01*
X217097428Y-149182380D01*
X217192666Y-149134761D01*
X217240285Y-149039523D01*
X217240285Y-148658571D01*
X217192666Y-148563333D01*
X217097428Y-148515714D01*
X216906952Y-148515714D01*
X216811714Y-148563333D01*
X216764095Y-148658571D01*
X216764095Y-148753809D01*
X217240285Y-148849047D01*
X216335523Y-149182380D02*
X216335523Y-148515714D01*
X216335523Y-148610952D02*
X216287904Y-148563333D01*
X216192666Y-148515714D01*
X216049809Y-148515714D01*
X215954571Y-148563333D01*
X215906952Y-148658571D01*
X215906952Y-149182380D01*
X215906952Y-148658571D02*
X215859333Y-148563333D01*
X215764095Y-148515714D01*
X215621238Y-148515714D01*
X215526000Y-148563333D01*
X215478380Y-148658571D01*
X215478380Y-149182380D01*
X215002190Y-149182380D02*
X215002190Y-148182380D01*
X215002190Y-148563333D02*
X214906952Y-148515714D01*
X214716476Y-148515714D01*
X214621238Y-148563333D01*
X214573619Y-148610952D01*
X214526000Y-148706190D01*
X214526000Y-148991904D01*
X214573619Y-149087142D01*
X214621238Y-149134761D01*
X214716476Y-149182380D01*
X214906952Y-149182380D01*
X215002190Y-149134761D01*
X213716476Y-149134761D02*
X213811714Y-149182380D01*
X214002190Y-149182380D01*
X214097428Y-149134761D01*
X214145047Y-149039523D01*
X214145047Y-148658571D01*
X214097428Y-148563333D01*
X214002190Y-148515714D01*
X213811714Y-148515714D01*
X213716476Y-148563333D01*
X213668857Y-148658571D01*
X213668857Y-148753809D01*
X214145047Y-148849047D01*
X212811714Y-149182380D02*
X212811714Y-148182380D01*
X212811714Y-149134761D02*
X212906952Y-149182380D01*
X213097428Y-149182380D01*
X213192666Y-149134761D01*
X213240285Y-149087142D01*
X213287904Y-148991904D01*
X213287904Y-148706190D01*
X213240285Y-148610952D01*
X213192666Y-148563333D01*
X213097428Y-148515714D01*
X212906952Y-148515714D01*
X212811714Y-148563333D01*
X211906952Y-149182380D02*
X211906952Y-148182380D01*
X211906952Y-149134761D02*
X212002190Y-149182380D01*
X212192666Y-149182380D01*
X212287904Y-149134761D01*
X212335523Y-149087142D01*
X212383142Y-148991904D01*
X212383142Y-148706190D01*
X212335523Y-148610952D01*
X212287904Y-148563333D01*
X212192666Y-148515714D01*
X212002190Y-148515714D01*
X211906952Y-148563333D01*
X211049809Y-149134761D02*
X211145047Y-149182380D01*
X211335523Y-149182380D01*
X211430761Y-149134761D01*
X211478380Y-149039523D01*
X211478380Y-148658571D01*
X211430761Y-148563333D01*
X211335523Y-148515714D01*
X211145047Y-148515714D01*
X211049809Y-148563333D01*
X211002190Y-148658571D01*
X211002190Y-148753809D01*
X211478380Y-148849047D01*
X210145047Y-149182380D02*
X210145047Y-148182380D01*
X210145047Y-149134761D02*
X210240285Y-149182380D01*
X210430761Y-149182380D01*
X210526000Y-149134761D01*
X210573619Y-149087142D01*
X210621238Y-148991904D01*
X210621238Y-148706190D01*
X210573619Y-148610952D01*
X210526000Y-148563333D01*
X210430761Y-148515714D01*
X210240285Y-148515714D01*
X210145047Y-148563333D01*
X209668857Y-149087142D02*
X209621238Y-149134761D01*
X209668857Y-149182380D01*
X209716476Y-149134761D01*
X209668857Y-149087142D01*
X209668857Y-149182380D01*
X208764095Y-149134761D02*
X208859333Y-149182380D01*
X209049809Y-149182380D01*
X209145047Y-149134761D01*
X209192666Y-149087142D01*
X209240285Y-148991904D01*
X209240285Y-148706190D01*
X209192666Y-148610952D01*
X209145047Y-148563333D01*
X209049809Y-148515714D01*
X208859333Y-148515714D01*
X208764095Y-148563333D01*
X208192666Y-149182380D02*
X208287904Y-149134761D01*
X208335523Y-149087142D01*
X208383142Y-148991904D01*
X208383142Y-148706190D01*
X208335523Y-148610952D01*
X208287904Y-148563333D01*
X208192666Y-148515714D01*
X208049809Y-148515714D01*
X207954571Y-148563333D01*
X207906952Y-148610952D01*
X207859333Y-148706190D01*
X207859333Y-148991904D01*
X207906952Y-149087142D01*
X207954571Y-149134761D01*
X208049809Y-149182380D01*
X208192666Y-149182380D01*
X207430761Y-149182380D02*
X207430761Y-148515714D01*
X207430761Y-148610952D02*
X207383142Y-148563333D01*
X207287904Y-148515714D01*
X207145047Y-148515714D01*
X207049809Y-148563333D01*
X207002190Y-148658571D01*
X207002190Y-149182380D01*
X207002190Y-148658571D02*
X206954571Y-148563333D01*
X206859333Y-148515714D01*
X206716476Y-148515714D01*
X206621238Y-148563333D01*
X206573619Y-148658571D01*
X206573619Y-149182380D01*
D11*
G36*
X235846296Y-144461361D02*
G01*
X235757273Y-144506017D01*
X235694066Y-144579381D01*
X235658139Y-144679969D01*
X235650086Y-144760389D01*
X235647923Y-144871154D01*
X235909133Y-144876622D01*
X236170344Y-144882090D01*
X236157774Y-144944939D01*
X236137490Y-145001449D01*
X236108790Y-145044201D01*
X236054605Y-145074662D01*
X235976379Y-145089035D01*
X235886138Y-145086276D01*
X235810242Y-145070080D01*
X235718561Y-145041734D01*
X235697896Y-145101013D01*
X235681374Y-145155826D01*
X235684489Y-145187527D01*
X235712278Y-145209253D01*
X235744988Y-145223843D01*
X235797640Y-145237074D01*
X235873937Y-145246161D01*
X235960016Y-145250589D01*
X236042019Y-145249841D01*
X236106086Y-145243402D01*
X236126615Y-145238056D01*
X236213072Y-145186157D01*
X236278666Y-145107975D01*
X236322104Y-145011051D01*
X236342098Y-144902923D01*
X236337355Y-144791131D01*
X236318390Y-144724616D01*
X236135496Y-144724616D01*
X235974748Y-144724616D01*
X235901032Y-144722845D01*
X235845114Y-144718129D01*
X235816111Y-144711365D01*
X235814000Y-144708812D01*
X235824437Y-144682150D01*
X235841408Y-144655525D01*
X235886372Y-144624026D01*
X235949144Y-144615801D01*
X236016788Y-144630003D01*
X236076371Y-144665781D01*
X236082210Y-144671329D01*
X236135496Y-144724616D01*
X236318390Y-144724616D01*
X236306584Y-144683215D01*
X236248496Y-144586714D01*
X236239880Y-144576545D01*
X236158741Y-144502010D01*
X236070587Y-144460663D01*
X235963390Y-144446939D01*
X235959669Y-144446895D01*
X235846296Y-144461361D01*
G37*
X235846296Y-144461361D02*
X235757273Y-144506017D01*
X235694066Y-144579381D01*
X235658139Y-144679969D01*
X235650086Y-144760389D01*
X235647923Y-144871154D01*
X235909133Y-144876622D01*
X236170344Y-144882090D01*
X236157774Y-144944939D01*
X236137490Y-145001449D01*
X236108790Y-145044201D01*
X236054605Y-145074662D01*
X235976379Y-145089035D01*
X235886138Y-145086276D01*
X235810242Y-145070080D01*
X235718561Y-145041734D01*
X235697896Y-145101013D01*
X235681374Y-145155826D01*
X235684489Y-145187527D01*
X235712278Y-145209253D01*
X235744988Y-145223843D01*
X235797640Y-145237074D01*
X235873937Y-145246161D01*
X235960016Y-145250589D01*
X236042019Y-145249841D01*
X236106086Y-145243402D01*
X236126615Y-145238056D01*
X236213072Y-145186157D01*
X236278666Y-145107975D01*
X236322104Y-145011051D01*
X236342098Y-144902923D01*
X236337355Y-144791131D01*
X236318390Y-144724616D01*
X236135496Y-144724616D01*
X235974748Y-144724616D01*
X235901032Y-144722845D01*
X235845114Y-144718129D01*
X235816111Y-144711365D01*
X235814000Y-144708812D01*
X235824437Y-144682150D01*
X235841408Y-144655525D01*
X235886372Y-144624026D01*
X235949144Y-144615801D01*
X236016788Y-144630003D01*
X236076371Y-144665781D01*
X236082210Y-144671329D01*
X236135496Y-144724616D01*
X236318390Y-144724616D01*
X236306584Y-144683215D01*
X236248496Y-144586714D01*
X236239880Y-144576545D01*
X236158741Y-144502010D01*
X236070587Y-144460663D01*
X235963390Y-144446939D01*
X235959669Y-144446895D01*
X235846296Y-144461361D01*
G36*
X236665301Y-144450043D02*
G01*
X236654457Y-144481082D01*
X236654154Y-144491020D01*
X236652200Y-144514292D01*
X236639812Y-144517332D01*
X236607196Y-144499973D01*
X236590654Y-144489940D01*
X236514233Y-144460764D01*
X236427756Y-144453240D01*
X236357271Y-144467104D01*
X236337921Y-144478306D01*
X236335076Y-144497463D01*
X236348888Y-144536053D01*
X236358477Y-144558069D01*
X236382718Y-144606558D01*
X236407560Y-144627921D01*
X236447568Y-144631529D01*
X236470476Y-144630144D01*
X236545352Y-144636258D01*
X236601155Y-144666224D01*
X236654154Y-144707913D01*
X236654154Y-145252154D01*
X236830000Y-145252154D01*
X236830000Y-144456190D01*
X236758563Y-144444598D01*
X236697413Y-144439033D01*
X236665301Y-144450043D01*
G37*
X236665301Y-144450043D02*
X236654457Y-144481082D01*
X236654154Y-144491020D01*
X236652200Y-144514292D01*
X236639812Y-144517332D01*
X236607196Y-144499973D01*
X236590654Y-144489940D01*
X236514233Y-144460764D01*
X236427756Y-144453240D01*
X236357271Y-144467104D01*
X236337921Y-144478306D01*
X236335076Y-144497463D01*
X236348888Y-144536053D01*
X236358477Y-144558069D01*
X236382718Y-144606558D01*
X236407560Y-144627921D01*
X236447568Y-144631529D01*
X236470476Y-144630144D01*
X236545352Y-144636258D01*
X236601155Y-144666224D01*
X236654154Y-144707913D01*
X236654154Y-145252154D01*
X236830000Y-145252154D01*
X236830000Y-144456190D01*
X236758563Y-144444598D01*
X236697413Y-144439033D01*
X236665301Y-144450043D01*
G36*
X237073588Y-144461946D02*
G01*
X237044064Y-144470972D01*
X236997739Y-144492780D01*
X236963278Y-144518280D01*
X236938945Y-144553243D01*
X236923003Y-144603439D01*
X236913717Y-144674637D01*
X236909349Y-144772609D01*
X236908165Y-144903123D01*
X236908154Y-144922635D01*
X236908154Y-145252154D01*
X236996077Y-145252154D01*
X237048516Y-145248544D01*
X237079968Y-145239409D01*
X237084000Y-145233980D01*
X237100599Y-145225576D01*
X237145828Y-145233541D01*
X237147371Y-145233980D01*
X237205001Y-145244707D01*
X237279057Y-145251233D01*
X237314951Y-145252154D01*
X237382180Y-145248723D01*
X237427501Y-145234450D01*
X237467775Y-145203365D01*
X237476272Y-145195042D01*
X237523203Y-145123323D01*
X237534418Y-145046125D01*
X237357538Y-145046125D01*
X237348381Y-145086384D01*
X237333115Y-145103406D01*
X237300406Y-145107399D01*
X237244895Y-145106020D01*
X237182278Y-145100592D01*
X237128252Y-145092436D01*
X237099776Y-145083752D01*
X237089106Y-145059466D01*
X237084061Y-145013167D01*
X237084000Y-145007259D01*
X237086551Y-144962732D01*
X237101858Y-144947233D01*
X237141406Y-144950735D01*
X237147500Y-144951809D01*
X237241889Y-144970150D01*
X237303744Y-144986950D01*
X237339364Y-145005037D01*
X237355047Y-145027241D01*
X237357538Y-145046125D01*
X237534418Y-145046125D01*
X237534886Y-145042905D01*
X237511061Y-144962498D01*
X237484417Y-144923419D01*
X237448076Y-144889592D01*
X237398711Y-144863132D01*
X237328935Y-144841438D01*
X237231360Y-144821910D01*
X237167038Y-144811727D01*
X237115121Y-144801947D01*
X237091158Y-144785704D01*
X237084348Y-144751535D01*
X237084000Y-144723586D01*
X237098375Y-144658078D01*
X237140212Y-144618940D01*
X237207580Y-144606792D01*
X237298544Y-144622255D01*
X237347769Y-144638807D01*
X237414494Y-144662271D01*
X237455441Y-144668399D01*
X237480683Y-144655407D01*
X237500290Y-144621512D01*
X237504883Y-144610991D01*
X237532573Y-144546213D01*
X237440171Y-144504690D01*
X237353622Y-144475977D01*
X237254318Y-144458486D01*
X237156296Y-144453411D01*
X237073588Y-144461946D01*
G37*
X237073588Y-144461946D02*
X237044064Y-144470972D01*
X236997739Y-144492780D01*
X236963278Y-144518280D01*
X236938945Y-144553243D01*
X236923003Y-144603439D01*
X236913717Y-144674637D01*
X236909349Y-144772609D01*
X236908165Y-144903123D01*
X236908154Y-144922635D01*
X236908154Y-145252154D01*
X236996077Y-145252154D01*
X237048516Y-145248544D01*
X237079968Y-145239409D01*
X237084000Y-145233980D01*
X237100599Y-145225576D01*
X237145828Y-145233541D01*
X237147371Y-145233980D01*
X237205001Y-145244707D01*
X237279057Y-145251233D01*
X237314951Y-145252154D01*
X237382180Y-145248723D01*
X237427501Y-145234450D01*
X237467775Y-145203365D01*
X237476272Y-145195042D01*
X237523203Y-145123323D01*
X237534418Y-145046125D01*
X237357538Y-145046125D01*
X237348381Y-145086384D01*
X237333115Y-145103406D01*
X237300406Y-145107399D01*
X237244895Y-145106020D01*
X237182278Y-145100592D01*
X237128252Y-145092436D01*
X237099776Y-145083752D01*
X237089106Y-145059466D01*
X237084061Y-145013167D01*
X237084000Y-145007259D01*
X237086551Y-144962732D01*
X237101858Y-144947233D01*
X237141406Y-144950735D01*
X237147500Y-144951809D01*
X237241889Y-144970150D01*
X237303744Y-144986950D01*
X237339364Y-145005037D01*
X237355047Y-145027241D01*
X237357538Y-145046125D01*
X237534418Y-145046125D01*
X237534886Y-145042905D01*
X237511061Y-144962498D01*
X237484417Y-144923419D01*
X237448076Y-144889592D01*
X237398711Y-144863132D01*
X237328935Y-144841438D01*
X237231360Y-144821910D01*
X237167038Y-144811727D01*
X237115121Y-144801947D01*
X237091158Y-144785704D01*
X237084348Y-144751535D01*
X237084000Y-144723586D01*
X237098375Y-144658078D01*
X237140212Y-144618940D01*
X237207580Y-144606792D01*
X237298544Y-144622255D01*
X237347769Y-144638807D01*
X237414494Y-144662271D01*
X237455441Y-144668399D01*
X237480683Y-144655407D01*
X237500290Y-144621512D01*
X237504883Y-144610991D01*
X237532573Y-144546213D01*
X237440171Y-144504690D01*
X237353622Y-144475977D01*
X237254318Y-144458486D01*
X237156296Y-144453411D01*
X237073588Y-144461946D01*
G36*
X238117940Y-144079846D02*
G01*
X238060923Y-144079846D01*
X238060923Y-144465187D01*
X237986866Y-144445420D01*
X237878947Y-144435240D01*
X237778454Y-144460843D01*
X237692440Y-144518935D01*
X237627956Y-144606224D01*
X237623642Y-144614995D01*
X237595357Y-144711336D01*
X237589894Y-144822463D01*
X237605304Y-144936592D01*
X237639642Y-145041938D01*
X237690960Y-145126715D01*
X237711805Y-145148645D01*
X237795237Y-145202520D01*
X237901162Y-145237933D01*
X238016522Y-145252645D01*
X238128257Y-145244415D01*
X238183038Y-145229445D01*
X238236769Y-145209821D01*
X238236769Y-145095846D01*
X238062126Y-145095846D01*
X238004181Y-145095846D01*
X237942111Y-145089066D01*
X237896127Y-145076795D01*
X237839844Y-145036165D01*
X237797758Y-144969046D01*
X237772095Y-144886148D01*
X237765080Y-144798178D01*
X237778938Y-144715845D01*
X237809085Y-144657920D01*
X237838651Y-144626596D01*
X237871993Y-144612249D01*
X237923835Y-144610033D01*
X237950739Y-144611323D01*
X238051154Y-144617154D01*
X238062126Y-145095846D01*
X238236769Y-145095846D01*
X238236769Y-144656693D01*
X238236816Y-144491441D01*
X238236388Y-144361127D01*
X238234633Y-144261612D01*
X238230699Y-144188760D01*
X238223734Y-144138431D01*
X238212884Y-144106490D01*
X238197298Y-144088797D01*
X238176123Y-144081215D01*
X238148507Y-144079606D01*
X238117940Y-144079846D01*
G37*
X238117940Y-144079846D02*
X238060923Y-144079846D01*
X238060923Y-144465187D01*
X237986866Y-144445420D01*
X237878947Y-144435240D01*
X237778454Y-144460843D01*
X237692440Y-144518935D01*
X237627956Y-144606224D01*
X237623642Y-144614995D01*
X237595357Y-144711336D01*
X237589894Y-144822463D01*
X237605304Y-144936592D01*
X237639642Y-145041938D01*
X237690960Y-145126715D01*
X237711805Y-145148645D01*
X237795237Y-145202520D01*
X237901162Y-145237933D01*
X238016522Y-145252645D01*
X238128257Y-145244415D01*
X238183038Y-145229445D01*
X238236769Y-145209821D01*
X238236769Y-145095846D01*
X238062126Y-145095846D01*
X238004181Y-145095846D01*
X237942111Y-145089066D01*
X237896127Y-145076795D01*
X237839844Y-145036165D01*
X237797758Y-144969046D01*
X237772095Y-144886148D01*
X237765080Y-144798178D01*
X237778938Y-144715845D01*
X237809085Y-144657920D01*
X237838651Y-144626596D01*
X237871993Y-144612249D01*
X237923835Y-144610033D01*
X237950739Y-144611323D01*
X238051154Y-144617154D01*
X238062126Y-145095846D01*
X238236769Y-145095846D01*
X238236769Y-144656693D01*
X238236816Y-144491441D01*
X238236388Y-144361127D01*
X238234633Y-144261612D01*
X238230699Y-144188760D01*
X238223734Y-144138431D01*
X238212884Y-144106490D01*
X238197298Y-144088797D01*
X238176123Y-144081215D01*
X238148507Y-144079606D01*
X238117940Y-144079846D01*
G36*
X234680769Y-146714301D02*
G01*
X234779423Y-146735458D01*
X234872929Y-146749388D01*
X234975432Y-146754947D01*
X235074215Y-146752322D01*
X235156559Y-146741705D01*
X235198538Y-146729213D01*
X235277937Y-146674219D01*
X235336189Y-146593586D01*
X235372449Y-146495061D01*
X235382783Y-146411416D01*
X235208145Y-146411416D01*
X235189875Y-146488002D01*
X235150843Y-146549172D01*
X235103640Y-146580934D01*
X235047612Y-146593994D01*
X234977143Y-146598825D01*
X234912745Y-146594713D01*
X234887521Y-146588448D01*
X234872417Y-146564026D01*
X234861642Y-146510505D01*
X234855197Y-146437621D01*
X234853082Y-146355112D01*
X234855297Y-146272715D01*
X234861841Y-146200167D01*
X234872715Y-146147204D01*
X234887521Y-146123706D01*
X234966267Y-146112657D01*
X235058894Y-146131378D01*
X235082638Y-146140451D01*
X235142900Y-146183932D01*
X235184206Y-146249904D01*
X235206105Y-146328891D01*
X235208145Y-146411416D01*
X235382783Y-146411416D01*
X235385875Y-146386394D01*
X235375620Y-146275333D01*
X235340842Y-146169626D01*
X235280697Y-146077022D01*
X235270771Y-146066141D01*
X235194054Y-146000526D01*
X235110488Y-145963493D01*
X235007489Y-145950027D01*
X234978731Y-145949742D01*
X234856615Y-145950639D01*
X234856615Y-145779333D01*
X234855302Y-145690664D01*
X234848473Y-145633943D01*
X234831796Y-145602061D01*
X234800939Y-145587906D01*
X234751569Y-145584368D01*
X234737787Y-145584308D01*
X234680769Y-145584308D01*
X234680769Y-146714301D01*
G37*
X234680769Y-146714301D02*
X234779423Y-146735458D01*
X234872929Y-146749388D01*
X234975432Y-146754947D01*
X235074215Y-146752322D01*
X235156559Y-146741705D01*
X235198538Y-146729213D01*
X235277937Y-146674219D01*
X235336189Y-146593586D01*
X235372449Y-146495061D01*
X235382783Y-146411416D01*
X235208145Y-146411416D01*
X235189875Y-146488002D01*
X235150843Y-146549172D01*
X235103640Y-146580934D01*
X235047612Y-146593994D01*
X234977143Y-146598825D01*
X234912745Y-146594713D01*
X234887521Y-146588448D01*
X234872417Y-146564026D01*
X234861642Y-146510505D01*
X234855197Y-146437621D01*
X234853082Y-146355112D01*
X234855297Y-146272715D01*
X234861841Y-146200167D01*
X234872715Y-146147204D01*
X234887521Y-146123706D01*
X234966267Y-146112657D01*
X235058894Y-146131378D01*
X235082638Y-146140451D01*
X235142900Y-146183932D01*
X235184206Y-146249904D01*
X235206105Y-146328891D01*
X235208145Y-146411416D01*
X235382783Y-146411416D01*
X235385875Y-146386394D01*
X235375620Y-146275333D01*
X235340842Y-146169626D01*
X235280697Y-146077022D01*
X235270771Y-146066141D01*
X235194054Y-146000526D01*
X235110488Y-145963493D01*
X235007489Y-145950027D01*
X234978731Y-145949742D01*
X234856615Y-145950639D01*
X234856615Y-145779333D01*
X234855302Y-145690664D01*
X234848473Y-145633943D01*
X234831796Y-145602061D01*
X234800939Y-145587906D01*
X234751569Y-145584368D01*
X234737787Y-145584308D01*
X234680769Y-145584308D01*
X234680769Y-146714301D01*
G36*
X235662290Y-145962625D02*
G01*
X235601777Y-145986359D01*
X235530864Y-146050152D01*
X235483523Y-146140679D01*
X235462935Y-146251339D01*
X235462308Y-146275699D01*
X235462308Y-146385385D01*
X235970308Y-146385385D01*
X235970308Y-146432633D01*
X235960364Y-146502366D01*
X235925865Y-146549427D01*
X235890756Y-146571723D01*
X235807136Y-146595703D01*
X235706345Y-146594406D01*
X235609594Y-146571023D01*
X235561641Y-146554942D01*
X235533288Y-146547350D01*
X235530219Y-146547457D01*
X235524054Y-146566845D01*
X235511148Y-146610135D01*
X235506800Y-146624981D01*
X235495098Y-146674114D01*
X235500018Y-146700984D01*
X235524656Y-146719988D01*
X235527560Y-146721593D01*
X235565676Y-146732747D01*
X235631129Y-146742669D01*
X235712181Y-146749754D01*
X235745615Y-146751407D01*
X235834370Y-146753509D01*
X235895438Y-146750600D01*
X235940062Y-146741054D01*
X235979484Y-146723242D01*
X235992610Y-146715667D01*
X236073022Y-146647769D01*
X236124371Y-146556370D01*
X236147700Y-146439305D01*
X236149438Y-146389426D01*
X236136954Y-146250387D01*
X236122918Y-146209390D01*
X235926134Y-146209390D01*
X235898646Y-146222346D01*
X235835086Y-146228306D01*
X235784692Y-146229077D01*
X235705664Y-146227246D01*
X235659441Y-146220999D01*
X235639889Y-146209212D01*
X235638154Y-146202162D01*
X235654984Y-146161736D01*
X235698472Y-146135351D01*
X235758120Y-146124960D01*
X235823425Y-146132514D01*
X235879850Y-146157235D01*
X235919288Y-146188124D01*
X235926134Y-146209390D01*
X236122918Y-146209390D01*
X236098906Y-146139255D01*
X236033824Y-146053171D01*
X235944938Y-145991641D01*
X235855477Y-145961317D01*
X235756171Y-145951567D01*
X235662290Y-145962625D01*
G37*
X235662290Y-145962625D02*
X235601777Y-145986359D01*
X235530864Y-146050152D01*
X235483523Y-146140679D01*
X235462935Y-146251339D01*
X235462308Y-146275699D01*
X235462308Y-146385385D01*
X235970308Y-146385385D01*
X235970308Y-146432633D01*
X235960364Y-146502366D01*
X235925865Y-146549427D01*
X235890756Y-146571723D01*
X235807136Y-146595703D01*
X235706345Y-146594406D01*
X235609594Y-146571023D01*
X235561641Y-146554942D01*
X235533288Y-146547350D01*
X235530219Y-146547457D01*
X235524054Y-146566845D01*
X235511148Y-146610135D01*
X235506800Y-146624981D01*
X235495098Y-146674114D01*
X235500018Y-146700984D01*
X235524656Y-146719988D01*
X235527560Y-146721593D01*
X235565676Y-146732747D01*
X235631129Y-146742669D01*
X235712181Y-146749754D01*
X235745615Y-146751407D01*
X235834370Y-146753509D01*
X235895438Y-146750600D01*
X235940062Y-146741054D01*
X235979484Y-146723242D01*
X235992610Y-146715667D01*
X236073022Y-146647769D01*
X236124371Y-146556370D01*
X236147700Y-146439305D01*
X236149438Y-146389426D01*
X236136954Y-146250387D01*
X236122918Y-146209390D01*
X235926134Y-146209390D01*
X235898646Y-146222346D01*
X235835086Y-146228306D01*
X235784692Y-146229077D01*
X235705664Y-146227246D01*
X235659441Y-146220999D01*
X235639889Y-146209212D01*
X235638154Y-146202162D01*
X235654984Y-146161736D01*
X235698472Y-146135351D01*
X235758120Y-146124960D01*
X235823425Y-146132514D01*
X235879850Y-146157235D01*
X235919288Y-146188124D01*
X235926134Y-146209390D01*
X236122918Y-146209390D01*
X236098906Y-146139255D01*
X236033824Y-146053171D01*
X235944938Y-145991641D01*
X235855477Y-145961317D01*
X235756171Y-145951567D01*
X235662290Y-145962625D01*
G36*
X237073588Y-145966407D02*
G01*
X237044064Y-145975433D01*
X236997739Y-145997241D01*
X236963278Y-146022742D01*
X236938945Y-146057705D01*
X236923003Y-146107901D01*
X236913717Y-146179099D01*
X236909349Y-146277070D01*
X236908165Y-146407585D01*
X236908154Y-146427097D01*
X236908154Y-146756616D01*
X236996077Y-146756616D01*
X237048516Y-146753005D01*
X237079968Y-146743871D01*
X237084000Y-146738441D01*
X237100599Y-146730037D01*
X237145828Y-146738002D01*
X237147371Y-146738441D01*
X237205001Y-146749169D01*
X237279057Y-146755695D01*
X237314951Y-146756616D01*
X237382180Y-146753185D01*
X237427501Y-146738912D01*
X237467775Y-146707826D01*
X237476272Y-146699503D01*
X237523203Y-146627784D01*
X237534418Y-146550587D01*
X237357538Y-146550587D01*
X237348381Y-146590846D01*
X237333115Y-146607868D01*
X237300406Y-146611861D01*
X237244895Y-146610482D01*
X237182278Y-146605053D01*
X237128252Y-146596897D01*
X237099776Y-146588214D01*
X237089106Y-146563928D01*
X237084061Y-146517628D01*
X237084000Y-146511720D01*
X237086551Y-146467193D01*
X237101858Y-146451695D01*
X237141406Y-146455197D01*
X237147500Y-146456271D01*
X237241889Y-146474611D01*
X237303744Y-146491411D01*
X237339364Y-146509499D01*
X237355047Y-146531703D01*
X237357538Y-146550587D01*
X237534418Y-146550587D01*
X237534886Y-146547367D01*
X237511061Y-146466959D01*
X237484417Y-146427881D01*
X237448076Y-146394054D01*
X237398711Y-146367593D01*
X237328935Y-146345899D01*
X237231360Y-146326372D01*
X237167038Y-146316189D01*
X237115121Y-146306408D01*
X237091158Y-146290166D01*
X237084348Y-146255997D01*
X237084000Y-146228047D01*
X237098375Y-146162540D01*
X237140212Y-146123401D01*
X237207580Y-146111253D01*
X237298544Y-146126717D01*
X237347769Y-146143269D01*
X237414494Y-146166733D01*
X237455441Y-146172860D01*
X237480683Y-146159868D01*
X237500290Y-146125974D01*
X237504883Y-146115453D01*
X237532573Y-146050675D01*
X237440171Y-146009152D01*
X237353622Y-145980439D01*
X237254318Y-145962947D01*
X237156296Y-145957872D01*
X237073588Y-145966407D01*
G37*
X237073588Y-145966407D02*
X237044064Y-145975433D01*
X236997739Y-145997241D01*
X236963278Y-146022742D01*
X236938945Y-146057705D01*
X236923003Y-146107901D01*
X236913717Y-146179099D01*
X236909349Y-146277070D01*
X236908165Y-146407585D01*
X236908154Y-146427097D01*
X236908154Y-146756616D01*
X236996077Y-146756616D01*
X237048516Y-146753005D01*
X237079968Y-146743871D01*
X237084000Y-146738441D01*
X237100599Y-146730037D01*
X237145828Y-146738002D01*
X237147371Y-146738441D01*
X237205001Y-146749169D01*
X237279057Y-146755695D01*
X237314951Y-146756616D01*
X237382180Y-146753185D01*
X237427501Y-146738912D01*
X237467775Y-146707826D01*
X237476272Y-146699503D01*
X237523203Y-146627784D01*
X237534418Y-146550587D01*
X237357538Y-146550587D01*
X237348381Y-146590846D01*
X237333115Y-146607868D01*
X237300406Y-146611861D01*
X237244895Y-146610482D01*
X237182278Y-146605053D01*
X237128252Y-146596897D01*
X237099776Y-146588214D01*
X237089106Y-146563928D01*
X237084061Y-146517628D01*
X237084000Y-146511720D01*
X237086551Y-146467193D01*
X237101858Y-146451695D01*
X237141406Y-146455197D01*
X237147500Y-146456271D01*
X237241889Y-146474611D01*
X237303744Y-146491411D01*
X237339364Y-146509499D01*
X237355047Y-146531703D01*
X237357538Y-146550587D01*
X237534418Y-146550587D01*
X237534886Y-146547367D01*
X237511061Y-146466959D01*
X237484417Y-146427881D01*
X237448076Y-146394054D01*
X237398711Y-146367593D01*
X237328935Y-146345899D01*
X237231360Y-146326372D01*
X237167038Y-146316189D01*
X237115121Y-146306408D01*
X237091158Y-146290166D01*
X237084348Y-146255997D01*
X237084000Y-146228047D01*
X237098375Y-146162540D01*
X237140212Y-146123401D01*
X237207580Y-146111253D01*
X237298544Y-146126717D01*
X237347769Y-146143269D01*
X237414494Y-146166733D01*
X237455441Y-146172860D01*
X237480683Y-146159868D01*
X237500290Y-146125974D01*
X237504883Y-146115453D01*
X237532573Y-146050675D01*
X237440171Y-146009152D01*
X237353622Y-145980439D01*
X237254318Y-145962947D01*
X237156296Y-145957872D01*
X237073588Y-145966407D01*
G36*
X238070852Y-145962487D02*
G01*
X238069568Y-145964127D01*
X238039519Y-145980890D01*
X238020721Y-145973969D01*
X237975364Y-145960480D01*
X237907183Y-145956232D01*
X237831167Y-145960607D01*
X237762306Y-145972985D01*
X237726260Y-145986144D01*
X237686656Y-146012228D01*
X237657064Y-146047544D01*
X237636131Y-146097595D01*
X237622507Y-146167884D01*
X237614840Y-146263914D01*
X237611777Y-146391186D01*
X237611538Y-146453142D01*
X237611538Y-146756616D01*
X237787385Y-146756616D01*
X237787385Y-146463989D01*
X237787561Y-146351452D01*
X237788749Y-146271513D01*
X237791932Y-146217693D01*
X237798099Y-146183512D01*
X237808233Y-146162491D01*
X237823322Y-146148150D01*
X237836841Y-146138957D01*
X237881065Y-146118704D01*
X237932837Y-146117632D01*
X237968726Y-146123920D01*
X238051154Y-146141288D01*
X238056535Y-146448952D01*
X238061915Y-146756616D01*
X238236769Y-146756616D01*
X238236769Y-145960652D01*
X238163500Y-145948553D01*
X238103898Y-145945587D01*
X238070852Y-145962487D01*
G37*
X238070852Y-145962487D02*
X238069568Y-145964127D01*
X238039519Y-145980890D01*
X238020721Y-145973969D01*
X237975364Y-145960480D01*
X237907183Y-145956232D01*
X237831167Y-145960607D01*
X237762306Y-145972985D01*
X237726260Y-145986144D01*
X237686656Y-146012228D01*
X237657064Y-146047544D01*
X237636131Y-146097595D01*
X237622507Y-146167884D01*
X237614840Y-146263914D01*
X237611777Y-146391186D01*
X237611538Y-146453142D01*
X237611538Y-146756616D01*
X237787385Y-146756616D01*
X237787385Y-146463989D01*
X237787561Y-146351452D01*
X237788749Y-146271513D01*
X237791932Y-146217693D01*
X237798099Y-146183512D01*
X237808233Y-146162491D01*
X237823322Y-146148150D01*
X237836841Y-146138957D01*
X237881065Y-146118704D01*
X237932837Y-146117632D01*
X237968726Y-146123920D01*
X238051154Y-146141288D01*
X238056535Y-146448952D01*
X238061915Y-146756616D01*
X238236769Y-146756616D01*
X238236769Y-145960652D01*
X238163500Y-145948553D01*
X238103898Y-145945587D01*
X238070852Y-145962487D01*
G36*
X236681801Y-145585492D02*
G01*
X236670112Y-145592200D01*
X236662266Y-145610291D01*
X236657478Y-145645357D01*
X236654963Y-145702990D01*
X236653938Y-145788781D01*
X236653629Y-145901808D01*
X236653104Y-146219308D01*
X236531514Y-146086023D01*
X236409923Y-145952737D01*
X236307908Y-145959023D01*
X236205893Y-145965308D01*
X236372135Y-146149096D01*
X236538376Y-146332884D01*
X236492460Y-146383557D01*
X236421842Y-146462277D01*
X236352590Y-146540853D01*
X236289518Y-146613666D01*
X236237438Y-146675096D01*
X236201163Y-146719525D01*
X236185504Y-146741333D01*
X236185231Y-146742285D01*
X236202806Y-146749512D01*
X236247762Y-146756439D01*
X236283305Y-146759615D01*
X236381379Y-146766385D01*
X236644385Y-146444895D01*
X236650059Y-146600755D01*
X236655734Y-146756616D01*
X236830000Y-146756616D01*
X236830000Y-145608404D01*
X236786038Y-145596623D01*
X236729453Y-145586662D01*
X236698115Y-145584575D01*
X236681801Y-145585492D01*
G37*
X236681801Y-145585492D02*
X236670112Y-145592200D01*
X236662266Y-145610291D01*
X236657478Y-145645357D01*
X236654963Y-145702990D01*
X236653938Y-145788781D01*
X236653629Y-145901808D01*
X236653104Y-146219308D01*
X236531514Y-146086023D01*
X236409923Y-145952737D01*
X236307908Y-145959023D01*
X236205893Y-145965308D01*
X236372135Y-146149096D01*
X236538376Y-146332884D01*
X236492460Y-146383557D01*
X236421842Y-146462277D01*
X236352590Y-146540853D01*
X236289518Y-146613666D01*
X236237438Y-146675096D01*
X236201163Y-146719525D01*
X236185504Y-146741333D01*
X236185231Y-146742285D01*
X236202806Y-146749512D01*
X236247762Y-146756439D01*
X236283305Y-146759615D01*
X236381379Y-146766385D01*
X236644385Y-146444895D01*
X236650059Y-146600755D01*
X236655734Y-146756616D01*
X236830000Y-146756616D01*
X236830000Y-145608404D01*
X236786038Y-145596623D01*
X236729453Y-145586662D01*
X236698115Y-145584575D01*
X236681801Y-145585492D01*
G36*
X231847692Y-148218762D02*
G01*
X231946346Y-148239920D01*
X232059669Y-148256857D01*
X232173618Y-148261110D01*
X232276679Y-148253082D01*
X232357337Y-148233176D01*
X232375536Y-148224900D01*
X232458365Y-148159788D01*
X232515214Y-148068977D01*
X232544335Y-147957421D01*
X232544054Y-147856353D01*
X232371117Y-147856353D01*
X232369021Y-147948140D01*
X232339510Y-148023604D01*
X232283980Y-148076012D01*
X232277153Y-148079673D01*
X232216560Y-148097670D01*
X232141178Y-148104297D01*
X232072752Y-148098263D01*
X232054444Y-148092910D01*
X232040686Y-148081493D01*
X232031600Y-148055419D01*
X232026309Y-148008090D01*
X232023935Y-147932908D01*
X232023538Y-147860539D01*
X232024273Y-147759325D01*
X232028406Y-147690812D01*
X232038834Y-147648626D01*
X232058454Y-147626396D01*
X232090161Y-147617748D01*
X232134530Y-147616308D01*
X232222282Y-147634014D01*
X232295718Y-147682542D01*
X232344404Y-147754978D01*
X232371117Y-147856353D01*
X232544054Y-147856353D01*
X232543980Y-147830076D01*
X232534715Y-147773522D01*
X232491759Y-147653222D01*
X232420689Y-147558373D01*
X232325237Y-147491978D01*
X232209133Y-147457043D01*
X232135885Y-147452348D01*
X232023538Y-147453795D01*
X232023538Y-147283142D01*
X232022212Y-147194648D01*
X232015332Y-147138091D01*
X231998543Y-147106349D01*
X231967493Y-147092300D01*
X231917826Y-147088823D01*
X231904710Y-147088770D01*
X231847692Y-147088770D01*
X231847692Y-148218762D01*
G37*
X231847692Y-148218762D02*
X231946346Y-148239920D01*
X232059669Y-148256857D01*
X232173618Y-148261110D01*
X232276679Y-148253082D01*
X232357337Y-148233176D01*
X232375536Y-148224900D01*
X232458365Y-148159788D01*
X232515214Y-148068977D01*
X232544335Y-147957421D01*
X232544054Y-147856353D01*
X232371117Y-147856353D01*
X232369021Y-147948140D01*
X232339510Y-148023604D01*
X232283980Y-148076012D01*
X232277153Y-148079673D01*
X232216560Y-148097670D01*
X232141178Y-148104297D01*
X232072752Y-148098263D01*
X232054444Y-148092910D01*
X232040686Y-148081493D01*
X232031600Y-148055419D01*
X232026309Y-148008090D01*
X232023935Y-147932908D01*
X232023538Y-147860539D01*
X232024273Y-147759325D01*
X232028406Y-147690812D01*
X232038834Y-147648626D01*
X232058454Y-147626396D01*
X232090161Y-147617748D01*
X232134530Y-147616308D01*
X232222282Y-147634014D01*
X232295718Y-147682542D01*
X232344404Y-147754978D01*
X232371117Y-147856353D01*
X232544054Y-147856353D01*
X232543980Y-147830076D01*
X232534715Y-147773522D01*
X232491759Y-147653222D01*
X232420689Y-147558373D01*
X232325237Y-147491978D01*
X232209133Y-147457043D01*
X232135885Y-147452348D01*
X232023538Y-147453795D01*
X232023538Y-147283142D01*
X232022212Y-147194648D01*
X232015332Y-147138091D01*
X231998543Y-147106349D01*
X231967493Y-147092300D01*
X231917826Y-147088823D01*
X231904710Y-147088770D01*
X231847692Y-147088770D01*
X231847692Y-148218762D01*
G36*
X232858271Y-147459020D02*
G01*
X232761721Y-147493412D01*
X232692639Y-147548805D01*
X232648933Y-147628616D01*
X232628508Y-147736261D01*
X232627160Y-147836116D01*
X232629231Y-147889846D01*
X232883231Y-147889846D01*
X232986987Y-147890200D01*
X233057885Y-147891882D01*
X233102139Y-147895826D01*
X233125968Y-147902968D01*
X233135585Y-147914239D01*
X233137231Y-147928004D01*
X233121061Y-148005364D01*
X233075167Y-148061196D01*
X233003468Y-148093847D01*
X232909886Y-148101663D01*
X232798341Y-148082991D01*
X232781338Y-148078115D01*
X232692774Y-148051461D01*
X232671611Y-148120416D01*
X232660091Y-148169596D01*
X232658932Y-148202058D01*
X232660084Y-148204962D01*
X232692693Y-148226706D01*
X232754007Y-148243358D01*
X232833911Y-148254299D01*
X232922290Y-148258914D01*
X233009030Y-148256584D01*
X233084016Y-148246691D01*
X233127461Y-148233496D01*
X233213187Y-148178663D01*
X233271567Y-148100927D01*
X233304253Y-147997164D01*
X233313077Y-147882642D01*
X233297422Y-147756241D01*
X233277111Y-147705235D01*
X233093818Y-147705235D01*
X233080568Y-147721531D01*
X233030062Y-147730672D01*
X232941579Y-147733539D01*
X232780772Y-147733539D01*
X232809818Y-147689577D01*
X232862655Y-147638271D01*
X232928771Y-147623606D01*
X233007493Y-147645723D01*
X233011444Y-147647645D01*
X233070536Y-147680900D01*
X233093818Y-147705235D01*
X233277111Y-147705235D01*
X233253542Y-147646048D01*
X233186062Y-147556372D01*
X233099610Y-147491523D01*
X232998811Y-147455810D01*
X232888291Y-147453540D01*
X232858271Y-147459020D01*
G37*
X232858271Y-147459020D02*
X232761721Y-147493412D01*
X232692639Y-147548805D01*
X232648933Y-147628616D01*
X232628508Y-147736261D01*
X232627160Y-147836116D01*
X232629231Y-147889846D01*
X232883231Y-147889846D01*
X232986987Y-147890200D01*
X233057885Y-147891882D01*
X233102139Y-147895826D01*
X233125968Y-147902968D01*
X233135585Y-147914239D01*
X233137231Y-147928004D01*
X233121061Y-148005364D01*
X233075167Y-148061196D01*
X233003468Y-148093847D01*
X232909886Y-148101663D01*
X232798341Y-148082991D01*
X232781338Y-148078115D01*
X232692774Y-148051461D01*
X232671611Y-148120416D01*
X232660091Y-148169596D01*
X232658932Y-148202058D01*
X232660084Y-148204962D01*
X232692693Y-148226706D01*
X232754007Y-148243358D01*
X232833911Y-148254299D01*
X232922290Y-148258914D01*
X233009030Y-148256584D01*
X233084016Y-148246691D01*
X233127461Y-148233496D01*
X233213187Y-148178663D01*
X233271567Y-148100927D01*
X233304253Y-147997164D01*
X233313077Y-147882642D01*
X233297422Y-147756241D01*
X233277111Y-147705235D01*
X233093818Y-147705235D01*
X233080568Y-147721531D01*
X233030062Y-147730672D01*
X232941579Y-147733539D01*
X232780772Y-147733539D01*
X232809818Y-147689577D01*
X232862655Y-147638271D01*
X232928771Y-147623606D01*
X233007493Y-147645723D01*
X233011444Y-147647645D01*
X233070536Y-147680900D01*
X233093818Y-147705235D01*
X233277111Y-147705235D01*
X233253542Y-147646048D01*
X233186062Y-147556372D01*
X233099610Y-147491523D01*
X232998811Y-147455810D01*
X232888291Y-147453540D01*
X232858271Y-147459020D01*
G36*
X233371692Y-148218762D02*
G01*
X233470346Y-148239920D01*
X233583669Y-148256857D01*
X233697618Y-148261110D01*
X233800679Y-148253082D01*
X233881337Y-148233176D01*
X233899536Y-148224900D01*
X233982365Y-148159788D01*
X234039214Y-148068977D01*
X234068335Y-147957421D01*
X234068054Y-147856353D01*
X233895117Y-147856353D01*
X233893021Y-147948140D01*
X233863510Y-148023604D01*
X233807980Y-148076012D01*
X233801153Y-148079673D01*
X233740560Y-148097670D01*
X233665178Y-148104297D01*
X233596752Y-148098263D01*
X233578444Y-148092910D01*
X233564686Y-148081493D01*
X233555600Y-148055419D01*
X233550309Y-148008090D01*
X233547935Y-147932908D01*
X233547538Y-147860539D01*
X233548273Y-147759325D01*
X233552406Y-147690812D01*
X233562834Y-147648626D01*
X233582454Y-147626396D01*
X233614161Y-147617748D01*
X233658530Y-147616308D01*
X233746282Y-147634014D01*
X233819718Y-147682542D01*
X233868404Y-147754978D01*
X233895117Y-147856353D01*
X234068054Y-147856353D01*
X234067980Y-147830076D01*
X234058715Y-147773522D01*
X234015759Y-147653222D01*
X233944689Y-147558373D01*
X233849237Y-147491978D01*
X233733133Y-147457043D01*
X233659885Y-147452348D01*
X233547538Y-147453795D01*
X233547538Y-147283142D01*
X233546212Y-147194648D01*
X233539332Y-147138091D01*
X233522543Y-147106349D01*
X233491493Y-147092300D01*
X233441826Y-147088823D01*
X233428710Y-147088770D01*
X233371692Y-147088770D01*
X233371692Y-148218762D01*
G37*
X233371692Y-148218762D02*
X233470346Y-148239920D01*
X233583669Y-148256857D01*
X233697618Y-148261110D01*
X233800679Y-148253082D01*
X233881337Y-148233176D01*
X233899536Y-148224900D01*
X233982365Y-148159788D01*
X234039214Y-148068977D01*
X234068335Y-147957421D01*
X234068054Y-147856353D01*
X233895117Y-147856353D01*
X233893021Y-147948140D01*
X233863510Y-148023604D01*
X233807980Y-148076012D01*
X233801153Y-148079673D01*
X233740560Y-148097670D01*
X233665178Y-148104297D01*
X233596752Y-148098263D01*
X233578444Y-148092910D01*
X233564686Y-148081493D01*
X233555600Y-148055419D01*
X233550309Y-148008090D01*
X233547935Y-147932908D01*
X233547538Y-147860539D01*
X233548273Y-147759325D01*
X233552406Y-147690812D01*
X233562834Y-147648626D01*
X233582454Y-147626396D01*
X233614161Y-147617748D01*
X233658530Y-147616308D01*
X233746282Y-147634014D01*
X233819718Y-147682542D01*
X233868404Y-147754978D01*
X233895117Y-147856353D01*
X234068054Y-147856353D01*
X234067980Y-147830076D01*
X234058715Y-147773522D01*
X234015759Y-147653222D01*
X233944689Y-147558373D01*
X233849237Y-147491978D01*
X233733133Y-147457043D01*
X233659885Y-147452348D01*
X233547538Y-147453795D01*
X233547538Y-147283142D01*
X233546212Y-147194648D01*
X233539332Y-147138091D01*
X233522543Y-147106349D01*
X233491493Y-147092300D01*
X233441826Y-147088823D01*
X233428710Y-147088770D01*
X233371692Y-147088770D01*
X233371692Y-148218762D01*
G36*
X234153231Y-148217361D02*
G01*
X234240037Y-148239219D01*
X234305354Y-148250460D01*
X234390394Y-148258283D01*
X234469614Y-148260892D01*
X234555003Y-148257988D01*
X234616552Y-148247386D01*
X234669241Y-148225858D01*
X234692047Y-148212952D01*
X234769481Y-148144687D01*
X234821868Y-148051154D01*
X234847033Y-147938770D01*
X234846120Y-147911800D01*
X234670201Y-147911800D01*
X234653787Y-147990387D01*
X234616898Y-148051823D01*
X234587280Y-148074889D01*
X234527358Y-148093870D01*
X234448709Y-148099966D01*
X234436538Y-148099579D01*
X234338846Y-148095000D01*
X234338846Y-147626077D01*
X234441835Y-147626934D01*
X234511038Y-147631623D01*
X234557683Y-147647806D01*
X234594650Y-147677616D01*
X234640827Y-147744965D01*
X234665946Y-147826510D01*
X234670201Y-147911800D01*
X234846120Y-147911800D01*
X234842804Y-147813949D01*
X234837408Y-147783981D01*
X234794974Y-147658435D01*
X234726670Y-147561490D01*
X234634195Y-147494568D01*
X234519247Y-147459093D01*
X234443058Y-147453487D01*
X234329077Y-147453487D01*
X234329077Y-147283177D01*
X234327591Y-147194950D01*
X234319886Y-147138606D01*
X234301090Y-147106975D01*
X234266332Y-147092884D01*
X234210741Y-147089164D01*
X234197192Y-147089036D01*
X234153231Y-147088770D01*
X234153231Y-148217361D01*
G37*
X234153231Y-148217361D02*
X234240037Y-148239219D01*
X234305354Y-148250460D01*
X234390394Y-148258283D01*
X234469614Y-148260892D01*
X234555003Y-148257988D01*
X234616552Y-148247386D01*
X234669241Y-148225858D01*
X234692047Y-148212952D01*
X234769481Y-148144687D01*
X234821868Y-148051154D01*
X234847033Y-147938770D01*
X234846120Y-147911800D01*
X234670201Y-147911800D01*
X234653787Y-147990387D01*
X234616898Y-148051823D01*
X234587280Y-148074889D01*
X234527358Y-148093870D01*
X234448709Y-148099966D01*
X234436538Y-148099579D01*
X234338846Y-148095000D01*
X234338846Y-147626077D01*
X234441835Y-147626934D01*
X234511038Y-147631623D01*
X234557683Y-147647806D01*
X234594650Y-147677616D01*
X234640827Y-147744965D01*
X234665946Y-147826510D01*
X234670201Y-147911800D01*
X234846120Y-147911800D01*
X234842804Y-147813949D01*
X234837408Y-147783981D01*
X234794974Y-147658435D01*
X234726670Y-147561490D01*
X234634195Y-147494568D01*
X234519247Y-147459093D01*
X234443058Y-147453487D01*
X234329077Y-147453487D01*
X234329077Y-147283177D01*
X234327591Y-147194950D01*
X234319886Y-147138606D01*
X234301090Y-147106975D01*
X234266332Y-147092884D01*
X234210741Y-147089164D01*
X234197192Y-147089036D01*
X234153231Y-147088770D01*
X234153231Y-148217361D01*
G36*
X235123372Y-147470284D02*
G01*
X235034350Y-147514940D01*
X234971143Y-147588304D01*
X234935216Y-147688892D01*
X234927163Y-147769312D01*
X234925000Y-147880077D01*
X235447420Y-147891013D01*
X235434851Y-147953862D01*
X235414567Y-148010373D01*
X235385867Y-148053124D01*
X235331681Y-148083585D01*
X235253456Y-148097958D01*
X235163215Y-148095199D01*
X235087319Y-148079003D01*
X234995638Y-148050657D01*
X234974973Y-148109936D01*
X234958450Y-148164749D01*
X234961566Y-148196450D01*
X234989355Y-148218176D01*
X235022065Y-148232766D01*
X235074717Y-148245997D01*
X235151013Y-148255084D01*
X235237093Y-148259512D01*
X235319096Y-148258765D01*
X235383163Y-148252325D01*
X235403692Y-148246980D01*
X235490149Y-148195080D01*
X235555743Y-148116898D01*
X235599181Y-148019974D01*
X235619175Y-147911846D01*
X235614432Y-147800054D01*
X235595467Y-147733539D01*
X235412573Y-147733539D01*
X235251825Y-147733539D01*
X235178109Y-147731768D01*
X235122191Y-147727052D01*
X235093188Y-147720288D01*
X235091077Y-147717735D01*
X235101514Y-147691074D01*
X235118485Y-147664448D01*
X235163449Y-147632949D01*
X235226220Y-147624724D01*
X235293865Y-147638926D01*
X235353447Y-147674704D01*
X235359287Y-147680252D01*
X235412573Y-147733539D01*
X235595467Y-147733539D01*
X235583661Y-147692138D01*
X235525573Y-147595637D01*
X235516957Y-147585468D01*
X235435818Y-147510933D01*
X235347664Y-147469586D01*
X235240467Y-147455862D01*
X235236746Y-147455818D01*
X235123372Y-147470284D01*
G37*
X235123372Y-147470284D02*
X235034350Y-147514940D01*
X234971143Y-147588304D01*
X234935216Y-147688892D01*
X234927163Y-147769312D01*
X234925000Y-147880077D01*
X235447420Y-147891013D01*
X235434851Y-147953862D01*
X235414567Y-148010373D01*
X235385867Y-148053124D01*
X235331681Y-148083585D01*
X235253456Y-148097958D01*
X235163215Y-148095199D01*
X235087319Y-148079003D01*
X234995638Y-148050657D01*
X234974973Y-148109936D01*
X234958450Y-148164749D01*
X234961566Y-148196450D01*
X234989355Y-148218176D01*
X235022065Y-148232766D01*
X235074717Y-148245997D01*
X235151013Y-148255084D01*
X235237093Y-148259512D01*
X235319096Y-148258765D01*
X235383163Y-148252325D01*
X235403692Y-148246980D01*
X235490149Y-148195080D01*
X235555743Y-148116898D01*
X235599181Y-148019974D01*
X235619175Y-147911846D01*
X235614432Y-147800054D01*
X235595467Y-147733539D01*
X235412573Y-147733539D01*
X235251825Y-147733539D01*
X235178109Y-147731768D01*
X235122191Y-147727052D01*
X235093188Y-147720288D01*
X235091077Y-147717735D01*
X235101514Y-147691074D01*
X235118485Y-147664448D01*
X235163449Y-147632949D01*
X235226220Y-147624724D01*
X235293865Y-147638926D01*
X235353447Y-147674704D01*
X235359287Y-147680252D01*
X235412573Y-147733539D01*
X235595467Y-147733539D01*
X235583661Y-147692138D01*
X235525573Y-147595637D01*
X235516957Y-147585468D01*
X235435818Y-147510933D01*
X235347664Y-147469586D01*
X235240467Y-147455862D01*
X235236746Y-147455818D01*
X235123372Y-147470284D01*
G36*
X236222710Y-147088770D02*
G01*
X236165692Y-147088770D01*
X236165692Y-147474110D01*
X236091635Y-147454343D01*
X235983717Y-147444163D01*
X235883224Y-147469766D01*
X235797209Y-147527858D01*
X235732726Y-147615147D01*
X235728411Y-147623918D01*
X235700126Y-147720259D01*
X235694663Y-147831386D01*
X235710073Y-147945515D01*
X235744411Y-148050861D01*
X235795729Y-148135638D01*
X235816574Y-148157568D01*
X235900007Y-148211444D01*
X236005932Y-148246857D01*
X236121291Y-148261568D01*
X236233027Y-148253338D01*
X236287808Y-148238368D01*
X236341538Y-148218744D01*
X236341538Y-148104770D01*
X236166895Y-148104770D01*
X236108950Y-148104770D01*
X236046880Y-148097989D01*
X236000896Y-148085718D01*
X235944613Y-148045088D01*
X235902527Y-147977969D01*
X235876864Y-147895071D01*
X235869849Y-147807101D01*
X235883707Y-147724769D01*
X235913855Y-147666843D01*
X235943420Y-147635519D01*
X235976762Y-147621172D01*
X236028604Y-147618956D01*
X236055508Y-147620246D01*
X236155923Y-147626077D01*
X236161409Y-147865423D01*
X236166895Y-148104770D01*
X236341538Y-148104770D01*
X236341538Y-147665616D01*
X236341585Y-147500365D01*
X236341157Y-147370050D01*
X236339403Y-147270536D01*
X236335469Y-147197683D01*
X236328503Y-147147354D01*
X236317653Y-147115413D01*
X236302067Y-147097720D01*
X236280892Y-147090138D01*
X236253276Y-147088529D01*
X236222710Y-147088770D01*
G37*
X236222710Y-147088770D02*
X236165692Y-147088770D01*
X236165692Y-147474110D01*
X236091635Y-147454343D01*
X235983717Y-147444163D01*
X235883224Y-147469766D01*
X235797209Y-147527858D01*
X235732726Y-147615147D01*
X235728411Y-147623918D01*
X235700126Y-147720259D01*
X235694663Y-147831386D01*
X235710073Y-147945515D01*
X235744411Y-148050861D01*
X235795729Y-148135638D01*
X235816574Y-148157568D01*
X235900007Y-148211444D01*
X236005932Y-148246857D01*
X236121291Y-148261568D01*
X236233027Y-148253338D01*
X236287808Y-148238368D01*
X236341538Y-148218744D01*
X236341538Y-148104770D01*
X236166895Y-148104770D01*
X236108950Y-148104770D01*
X236046880Y-148097989D01*
X236000896Y-148085718D01*
X235944613Y-148045088D01*
X235902527Y-147977969D01*
X235876864Y-147895071D01*
X235869849Y-147807101D01*
X235883707Y-147724769D01*
X235913855Y-147666843D01*
X235943420Y-147635519D01*
X235976762Y-147621172D01*
X236028604Y-147618956D01*
X236055508Y-147620246D01*
X236155923Y-147626077D01*
X236161409Y-147865423D01*
X236166895Y-148104770D01*
X236341538Y-148104770D01*
X236341538Y-147665616D01*
X236341585Y-147500365D01*
X236341157Y-147370050D01*
X236339403Y-147270536D01*
X236335469Y-147197683D01*
X236328503Y-147147354D01*
X236317653Y-147115413D01*
X236302067Y-147097720D01*
X236280892Y-147090138D01*
X236253276Y-147088529D01*
X236222710Y-147088770D01*
G36*
X237319842Y-147455944D02*
G01*
X237318461Y-147468015D01*
X237311907Y-147489574D01*
X237285866Y-147482936D01*
X237280669Y-147480226D01*
X237225021Y-147464802D01*
X237149380Y-147460906D01*
X237070920Y-147467996D01*
X237006814Y-147485531D01*
X236999359Y-147489101D01*
X236954949Y-147507142D01*
X236917695Y-147502753D01*
X236887983Y-147488981D01*
X236818128Y-147467846D01*
X236730273Y-147461045D01*
X236642765Y-147468566D01*
X236576216Y-147489196D01*
X236535705Y-147512476D01*
X236505730Y-147538396D01*
X236484718Y-147572913D01*
X236471091Y-147621982D01*
X236463276Y-147691562D01*
X236459695Y-147787607D01*
X236458776Y-147916074D01*
X236458769Y-147933271D01*
X236458769Y-148261077D01*
X236634615Y-148261077D01*
X236634615Y-147654547D01*
X236683904Y-147632090D01*
X236753346Y-147619590D01*
X236806019Y-147627624D01*
X236878846Y-147645616D01*
X236884227Y-147953346D01*
X236889608Y-148261077D01*
X237064461Y-148261077D01*
X237064461Y-147654547D01*
X237113750Y-147632090D01*
X237183193Y-147619590D01*
X237235866Y-147627624D01*
X237308692Y-147645616D01*
X237314073Y-147953346D01*
X237319454Y-148261077D01*
X237494308Y-148261077D01*
X237494308Y-147860539D01*
X237493876Y-147722071D01*
X237492384Y-147618232D01*
X237489533Y-147544579D01*
X237485025Y-147496671D01*
X237478562Y-147470066D01*
X237469846Y-147460323D01*
X237467442Y-147460000D01*
X237429914Y-147456327D01*
X237379519Y-147447789D01*
X237336360Y-147443303D01*
X237319842Y-147455944D01*
G37*
X237319842Y-147455944D02*
X237318461Y-147468015D01*
X237311907Y-147489574D01*
X237285866Y-147482936D01*
X237280669Y-147480226D01*
X237225021Y-147464802D01*
X237149380Y-147460906D01*
X237070920Y-147467996D01*
X237006814Y-147485531D01*
X236999359Y-147489101D01*
X236954949Y-147507142D01*
X236917695Y-147502753D01*
X236887983Y-147488981D01*
X236818128Y-147467846D01*
X236730273Y-147461045D01*
X236642765Y-147468566D01*
X236576216Y-147489196D01*
X236535705Y-147512476D01*
X236505730Y-147538396D01*
X236484718Y-147572913D01*
X236471091Y-147621982D01*
X236463276Y-147691562D01*
X236459695Y-147787607D01*
X236458776Y-147916074D01*
X236458769Y-147933271D01*
X236458769Y-148261077D01*
X236634615Y-148261077D01*
X236634615Y-147654547D01*
X236683904Y-147632090D01*
X236753346Y-147619590D01*
X236806019Y-147627624D01*
X236878846Y-147645616D01*
X236884227Y-147953346D01*
X236889608Y-148261077D01*
X237064461Y-148261077D01*
X237064461Y-147654547D01*
X237113750Y-147632090D01*
X237183193Y-147619590D01*
X237235866Y-147627624D01*
X237308692Y-147645616D01*
X237314073Y-147953346D01*
X237319454Y-148261077D01*
X237494308Y-148261077D01*
X237494308Y-147860539D01*
X237493876Y-147722071D01*
X237492384Y-147618232D01*
X237489533Y-147544579D01*
X237485025Y-147496671D01*
X237478562Y-147470066D01*
X237469846Y-147460323D01*
X237467442Y-147460000D01*
X237429914Y-147456327D01*
X237379519Y-147447789D01*
X237336360Y-147443303D01*
X237319842Y-147455944D01*
G36*
X237730799Y-147478524D02*
G01*
X237648268Y-147532895D01*
X237589229Y-147613256D01*
X237558054Y-147715714D01*
X237556303Y-147813005D01*
X237562692Y-147880077D01*
X237821577Y-147885529D01*
X237928857Y-147889208D01*
X238010861Y-147894961D01*
X238062939Y-147902337D01*
X238080461Y-147910580D01*
X238067858Y-147964974D01*
X238036716Y-148023469D01*
X237997036Y-148069849D01*
X237972673Y-148085355D01*
X237884861Y-148102379D01*
X237782991Y-148096809D01*
X237704124Y-148076830D01*
X237654498Y-148061128D01*
X237627773Y-148064820D01*
X237612810Y-148094749D01*
X237602444Y-148139281D01*
X237596710Y-148182289D01*
X237609584Y-148207267D01*
X237649642Y-148228505D01*
X237658135Y-148232089D01*
X237742529Y-148254262D01*
X237844439Y-148262076D01*
X237948976Y-148256060D01*
X238041252Y-148236742D01*
X238088503Y-148216794D01*
X238166527Y-148154191D01*
X238217125Y-148069385D01*
X238241974Y-147958772D01*
X238245238Y-147880077D01*
X238228868Y-147743487D01*
X238224894Y-147733539D01*
X238050266Y-147733539D01*
X237889517Y-147733539D01*
X237815801Y-147731768D01*
X237759884Y-147727052D01*
X237730880Y-147720288D01*
X237728769Y-147717735D01*
X237739206Y-147691074D01*
X237756177Y-147664448D01*
X237801141Y-147632949D01*
X237863913Y-147624724D01*
X237931557Y-147638926D01*
X237991140Y-147674704D01*
X237996979Y-147680252D01*
X238050266Y-147733539D01*
X238224894Y-147733539D01*
X238183652Y-147630300D01*
X238111224Y-147542814D01*
X238013216Y-147483323D01*
X237948851Y-147463335D01*
X237832451Y-147454040D01*
X237730799Y-147478524D01*
G37*
X237730799Y-147478524D02*
X237648268Y-147532895D01*
X237589229Y-147613256D01*
X237558054Y-147715714D01*
X237556303Y-147813005D01*
X237562692Y-147880077D01*
X237821577Y-147885529D01*
X237928857Y-147889208D01*
X238010861Y-147894961D01*
X238062939Y-147902337D01*
X238080461Y-147910580D01*
X238067858Y-147964974D01*
X238036716Y-148023469D01*
X237997036Y-148069849D01*
X237972673Y-148085355D01*
X237884861Y-148102379D01*
X237782991Y-148096809D01*
X237704124Y-148076830D01*
X237654498Y-148061128D01*
X237627773Y-148064820D01*
X237612810Y-148094749D01*
X237602444Y-148139281D01*
X237596710Y-148182289D01*
X237609584Y-148207267D01*
X237649642Y-148228505D01*
X237658135Y-148232089D01*
X237742529Y-148254262D01*
X237844439Y-148262076D01*
X237948976Y-148256060D01*
X238041252Y-148236742D01*
X238088503Y-148216794D01*
X238166527Y-148154191D01*
X238217125Y-148069385D01*
X238241974Y-147958772D01*
X238245238Y-147880077D01*
X238228868Y-147743487D01*
X238224894Y-147733539D01*
X238050266Y-147733539D01*
X237889517Y-147733539D01*
X237815801Y-147731768D01*
X237759884Y-147727052D01*
X237730880Y-147720288D01*
X237728769Y-147717735D01*
X237739206Y-147691074D01*
X237756177Y-147664448D01*
X237801141Y-147632949D01*
X237863913Y-147624724D01*
X237931557Y-147638926D01*
X237991140Y-147674704D01*
X237996979Y-147680252D01*
X238050266Y-147733539D01*
X238224894Y-147733539D01*
X238183652Y-147630300D01*
X238111224Y-147542814D01*
X238013216Y-147483323D01*
X237948851Y-147463335D01*
X237832451Y-147454040D01*
X237730799Y-147478524D01*
G36*
X234491390Y-143416011D02*
G01*
X234182647Y-143416276D01*
X233879077Y-143416717D01*
X233583282Y-143417333D01*
X233297863Y-143418125D01*
X233025422Y-143419093D01*
X232768560Y-143420235D01*
X232529878Y-143421553D01*
X232311978Y-143423047D01*
X232117462Y-143424715D01*
X231948931Y-143426559D01*
X231808986Y-143428579D01*
X231700229Y-143430773D01*
X231625261Y-143433142D01*
X231586684Y-143435687D01*
X231586071Y-143435772D01*
X231413849Y-143479412D01*
X231258756Y-143555956D01*
X231124676Y-143661681D01*
X231015495Y-143792862D01*
X230935098Y-143945775D01*
X230889731Y-144103327D01*
X230886229Y-144142870D01*
X230883163Y-144220806D01*
X230880538Y-144336452D01*
X230878359Y-144489125D01*
X230876630Y-144678143D01*
X230875355Y-144902824D01*
X230874540Y-145162486D01*
X230874189Y-145456446D01*
X230874307Y-145784021D01*
X230874897Y-146144530D01*
X230875220Y-146279798D01*
X230880538Y-148349000D01*
X230926589Y-148463177D01*
X231001640Y-148603826D01*
X231105685Y-148733888D01*
X231228676Y-148841047D01*
X231242775Y-148850803D01*
X231266762Y-148867604D01*
X231287855Y-148882937D01*
X231307850Y-148896868D01*
X231328542Y-148909463D01*
X231351727Y-148920788D01*
X231379199Y-148930909D01*
X231412755Y-148939893D01*
X231454189Y-148947806D01*
X231505297Y-148954714D01*
X231567874Y-148960683D01*
X231643715Y-148965780D01*
X231734617Y-148970070D01*
X231842374Y-148973621D01*
X231968781Y-148976497D01*
X232115635Y-148978766D01*
X232284729Y-148980493D01*
X232477860Y-148981745D01*
X232696824Y-148982588D01*
X232943414Y-148983089D01*
X233219428Y-148983312D01*
X233526659Y-148983326D01*
X233866904Y-148983195D01*
X234241957Y-148982986D01*
X234653615Y-148982766D01*
X234818820Y-148982693D01*
X235249873Y-148982471D01*
X235643457Y-148982158D01*
X236001181Y-148981741D01*
X236324652Y-148981206D01*
X236615480Y-148980541D01*
X236875270Y-148979733D01*
X237105633Y-148978768D01*
X237308177Y-148977633D01*
X237484508Y-148976315D01*
X237636236Y-148974802D01*
X237764968Y-148973079D01*
X237872314Y-148971134D01*
X237959880Y-148968953D01*
X238029275Y-148966524D01*
X238082107Y-148963833D01*
X238119985Y-148960867D01*
X238144516Y-148957614D01*
X238153660Y-148955468D01*
X238301025Y-148889757D01*
X238434363Y-148792000D01*
X238548338Y-148668252D01*
X238637616Y-148524565D01*
X238696860Y-148366991D01*
X238705728Y-148329174D01*
X238709506Y-148290364D01*
X238712781Y-148212689D01*
X238715553Y-148096127D01*
X238717822Y-147940654D01*
X238719590Y-147746247D01*
X238720855Y-147512883D01*
X238721618Y-147240541D01*
X238721880Y-146929195D01*
X238721639Y-146578825D01*
X238720898Y-146189407D01*
X238720777Y-146140866D01*
X238717719Y-144938096D01*
X238527629Y-144938096D01*
X238527557Y-145140853D01*
X238527241Y-145373825D01*
X238526719Y-145639295D01*
X238526026Y-145939543D01*
X238525301Y-146235602D01*
X238520077Y-148349000D01*
X238472737Y-148445186D01*
X238390527Y-148571171D01*
X238281953Y-148674625D01*
X238154225Y-148749911D01*
X238034668Y-148787806D01*
X238002660Y-148790275D01*
X237934185Y-148792566D01*
X237831796Y-148794682D01*
X237698050Y-148796623D01*
X237535501Y-148798389D01*
X237346703Y-148799981D01*
X237134211Y-148801400D01*
X236900581Y-148802646D01*
X236648366Y-148803720D01*
X236380122Y-148804622D01*
X236098404Y-148805354D01*
X235805765Y-148805916D01*
X235504762Y-148806308D01*
X235197948Y-148806531D01*
X234887878Y-148806586D01*
X234577107Y-148806473D01*
X234268191Y-148806193D01*
X233963683Y-148805747D01*
X233666138Y-148805135D01*
X233378111Y-148804357D01*
X233102158Y-148803416D01*
X232840832Y-148802310D01*
X232596688Y-148801042D01*
X232372282Y-148799610D01*
X232170168Y-148798017D01*
X231992900Y-148796263D01*
X231843034Y-148794347D01*
X231723124Y-148792272D01*
X231635725Y-148790037D01*
X231583391Y-148787643D01*
X231570231Y-148786208D01*
X231419141Y-148736522D01*
X231291979Y-148656145D01*
X231187553Y-148544170D01*
X231129363Y-148450355D01*
X231075923Y-148349000D01*
X231075923Y-144070077D01*
X231129363Y-143968723D01*
X231221289Y-143834472D01*
X231340040Y-143728109D01*
X231437385Y-143671676D01*
X231544846Y-143620693D01*
X238051154Y-143620693D01*
X238162920Y-143673077D01*
X238284832Y-143748049D01*
X238388870Y-143847000D01*
X238466369Y-143960906D01*
X238489917Y-144013669D01*
X238496311Y-144031264D01*
X238501990Y-144049412D01*
X238506990Y-144070394D01*
X238511347Y-144096492D01*
X238515098Y-144129988D01*
X238518278Y-144173164D01*
X238520925Y-144228302D01*
X238523074Y-144297683D01*
X238524762Y-144383588D01*
X238526025Y-144488301D01*
X238526900Y-144614102D01*
X238527422Y-144763273D01*
X238527629Y-144938096D01*
X238717719Y-144938096D01*
X238715461Y-144050539D01*
X238652910Y-143918488D01*
X238558468Y-143761386D01*
X238438306Y-143631243D01*
X238296052Y-143530794D01*
X238135340Y-143462774D01*
X238012077Y-143435675D01*
X237974357Y-143433126D01*
X237900187Y-143430753D01*
X237792169Y-143428557D01*
X237652903Y-143426536D01*
X237484993Y-143424691D01*
X237291038Y-143423023D01*
X237073641Y-143421530D01*
X236835403Y-143420214D01*
X236578925Y-143419073D01*
X236306809Y-143418108D01*
X236021656Y-143417319D01*
X235726068Y-143416706D01*
X235422646Y-143416269D01*
X235113991Y-143416007D01*
X234802705Y-143415921D01*
X234491390Y-143416011D01*
G37*
X234491390Y-143416011D02*
X234182647Y-143416276D01*
X233879077Y-143416717D01*
X233583282Y-143417333D01*
X233297863Y-143418125D01*
X233025422Y-143419093D01*
X232768560Y-143420235D01*
X232529878Y-143421553D01*
X232311978Y-143423047D01*
X232117462Y-143424715D01*
X231948931Y-143426559D01*
X231808986Y-143428579D01*
X231700229Y-143430773D01*
X231625261Y-143433142D01*
X231586684Y-143435687D01*
X231586071Y-143435772D01*
X231413849Y-143479412D01*
X231258756Y-143555956D01*
X231124676Y-143661681D01*
X231015495Y-143792862D01*
X230935098Y-143945775D01*
X230889731Y-144103327D01*
X230886229Y-144142870D01*
X230883163Y-144220806D01*
X230880538Y-144336452D01*
X230878359Y-144489125D01*
X230876630Y-144678143D01*
X230875355Y-144902824D01*
X230874540Y-145162486D01*
X230874189Y-145456446D01*
X230874307Y-145784021D01*
X230874897Y-146144530D01*
X230875220Y-146279798D01*
X230880538Y-148349000D01*
X230926589Y-148463177D01*
X231001640Y-148603826D01*
X231105685Y-148733888D01*
X231228676Y-148841047D01*
X231242775Y-148850803D01*
X231266762Y-148867604D01*
X231287855Y-148882937D01*
X231307850Y-148896868D01*
X231328542Y-148909463D01*
X231351727Y-148920788D01*
X231379199Y-148930909D01*
X231412755Y-148939893D01*
X231454189Y-148947806D01*
X231505297Y-148954714D01*
X231567874Y-148960683D01*
X231643715Y-148965780D01*
X231734617Y-148970070D01*
X231842374Y-148973621D01*
X231968781Y-148976497D01*
X232115635Y-148978766D01*
X232284729Y-148980493D01*
X232477860Y-148981745D01*
X232696824Y-148982588D01*
X232943414Y-148983089D01*
X233219428Y-148983312D01*
X233526659Y-148983326D01*
X233866904Y-148983195D01*
X234241957Y-148982986D01*
X234653615Y-148982766D01*
X234818820Y-148982693D01*
X235249873Y-148982471D01*
X235643457Y-148982158D01*
X236001181Y-148981741D01*
X236324652Y-148981206D01*
X236615480Y-148980541D01*
X236875270Y-148979733D01*
X237105633Y-148978768D01*
X237308177Y-148977633D01*
X237484508Y-148976315D01*
X237636236Y-148974802D01*
X237764968Y-148973079D01*
X237872314Y-148971134D01*
X237959880Y-148968953D01*
X238029275Y-148966524D01*
X238082107Y-148963833D01*
X238119985Y-148960867D01*
X238144516Y-148957614D01*
X238153660Y-148955468D01*
X238301025Y-148889757D01*
X238434363Y-148792000D01*
X238548338Y-148668252D01*
X238637616Y-148524565D01*
X238696860Y-148366991D01*
X238705728Y-148329174D01*
X238709506Y-148290364D01*
X238712781Y-148212689D01*
X238715553Y-148096127D01*
X238717822Y-147940654D01*
X238719590Y-147746247D01*
X238720855Y-147512883D01*
X238721618Y-147240541D01*
X238721880Y-146929195D01*
X238721639Y-146578825D01*
X238720898Y-146189407D01*
X238720777Y-146140866D01*
X238717719Y-144938096D01*
X238527629Y-144938096D01*
X238527557Y-145140853D01*
X238527241Y-145373825D01*
X238526719Y-145639295D01*
X238526026Y-145939543D01*
X238525301Y-146235602D01*
X238520077Y-148349000D01*
X238472737Y-148445186D01*
X238390527Y-148571171D01*
X238281953Y-148674625D01*
X238154225Y-148749911D01*
X238034668Y-148787806D01*
X238002660Y-148790275D01*
X237934185Y-148792566D01*
X237831796Y-148794682D01*
X237698050Y-148796623D01*
X237535501Y-148798389D01*
X237346703Y-148799981D01*
X237134211Y-148801400D01*
X236900581Y-148802646D01*
X236648366Y-148803720D01*
X236380122Y-148804622D01*
X236098404Y-148805354D01*
X235805765Y-148805916D01*
X235504762Y-148806308D01*
X235197948Y-148806531D01*
X234887878Y-148806586D01*
X234577107Y-148806473D01*
X234268191Y-148806193D01*
X233963683Y-148805747D01*
X233666138Y-148805135D01*
X233378111Y-148804357D01*
X233102158Y-148803416D01*
X232840832Y-148802310D01*
X232596688Y-148801042D01*
X232372282Y-148799610D01*
X232170168Y-148798017D01*
X231992900Y-148796263D01*
X231843034Y-148794347D01*
X231723124Y-148792272D01*
X231635725Y-148790037D01*
X231583391Y-148787643D01*
X231570231Y-148786208D01*
X231419141Y-148736522D01*
X231291979Y-148656145D01*
X231187553Y-148544170D01*
X231129363Y-148450355D01*
X231075923Y-148349000D01*
X231075923Y-144070077D01*
X231129363Y-143968723D01*
X231221289Y-143834472D01*
X231340040Y-143728109D01*
X231437385Y-143671676D01*
X231544846Y-143620693D01*
X238051154Y-143620693D01*
X238162920Y-143673077D01*
X238284832Y-143748049D01*
X238388870Y-143847000D01*
X238466369Y-143960906D01*
X238489917Y-144013669D01*
X238496311Y-144031264D01*
X238501990Y-144049412D01*
X238506990Y-144070394D01*
X238511347Y-144096492D01*
X238515098Y-144129988D01*
X238518278Y-144173164D01*
X238520925Y-144228302D01*
X238523074Y-144297683D01*
X238524762Y-144383588D01*
X238526025Y-144488301D01*
X238526900Y-144614102D01*
X238527422Y-144763273D01*
X238527629Y-144938096D01*
X238717719Y-144938096D01*
X238715461Y-144050539D01*
X238652910Y-143918488D01*
X238558468Y-143761386D01*
X238438306Y-143631243D01*
X238296052Y-143530794D01*
X238135340Y-143462774D01*
X238012077Y-143435675D01*
X237974357Y-143433126D01*
X237900187Y-143430753D01*
X237792169Y-143428557D01*
X237652903Y-143426536D01*
X237484993Y-143424691D01*
X237291038Y-143423023D01*
X237073641Y-143421530D01*
X236835403Y-143420214D01*
X236578925Y-143419073D01*
X236306809Y-143418108D01*
X236021656Y-143417319D01*
X235726068Y-143416706D01*
X235422646Y-143416269D01*
X235113991Y-143416007D01*
X234802705Y-143415921D01*
X234491390Y-143416011D01*
G36*
X230245538Y-149882770D02*
G01*
X239350461Y-149882770D01*
X239350461Y-142594923D01*
X239272308Y-142594923D01*
X239272308Y-149804616D01*
X230304154Y-149804616D01*
X230304154Y-142594923D01*
X239272308Y-142594923D01*
X239350461Y-142594923D01*
X239350461Y-142516770D01*
X230245538Y-142516770D01*
X230245538Y-149882770D01*
G37*
X230245538Y-149882770D02*
X239350461Y-149882770D01*
X239350461Y-142594923D01*
X239272308Y-142594923D01*
X239272308Y-149804616D01*
X230304154Y-149804616D01*
X230304154Y-142594923D01*
X239272308Y-142594923D01*
X239350461Y-142594923D01*
X239350461Y-142516770D01*
X230245538Y-142516770D01*
X230245538Y-149882770D01*
D12*
X201395000Y-110792779D02*
X201395000Y-110467221D01*
X202415000Y-110792779D02*
X202415000Y-110467221D01*
X201395000Y-106982779D02*
X201395000Y-106657221D01*
X202415000Y-106982779D02*
X202415000Y-106657221D01*
X207040000Y-98770000D02*
X207040000Y-100100000D01*
X207040000Y-100100000D02*
X208370000Y-100100000D01*
X207040000Y-97500000D02*
X209640000Y-97500000D01*
X209640000Y-97500000D02*
X209640000Y-100100000D01*
X209640000Y-100100000D02*
X257960000Y-100100000D01*
X257960000Y-94900000D02*
X257960000Y-100100000D01*
X207040000Y-94900000D02*
X257960000Y-94900000D01*
X207040000Y-94900000D02*
X207040000Y-97500000D01*
D13*
X202977857Y-110796666D02*
X202930238Y-110844285D01*
X202882619Y-110987142D01*
X202882619Y-111082380D01*
X202930238Y-111225238D01*
X203025476Y-111320476D01*
X203120714Y-111368095D01*
X203311190Y-111415714D01*
X203454047Y-111415714D01*
X203644523Y-111368095D01*
X203739761Y-111320476D01*
X203835000Y-111225238D01*
X203882619Y-111082380D01*
X203882619Y-110987142D01*
X203835000Y-110844285D01*
X203787380Y-110796666D01*
X203787380Y-110415714D02*
X203835000Y-110368095D01*
X203882619Y-110272857D01*
X203882619Y-110034761D01*
X203835000Y-109939523D01*
X203787380Y-109891904D01*
X203692142Y-109844285D01*
X203596904Y-109844285D01*
X203454047Y-109891904D01*
X202882619Y-110463333D01*
X202882619Y-109844285D01*
X202977857Y-106986666D02*
X202930238Y-107034285D01*
X202882619Y-107177142D01*
X202882619Y-107272380D01*
X202930238Y-107415238D01*
X203025476Y-107510476D01*
X203120714Y-107558095D01*
X203311190Y-107605714D01*
X203454047Y-107605714D01*
X203644523Y-107558095D01*
X203739761Y-107510476D01*
X203835000Y-107415238D01*
X203882619Y-107272380D01*
X203882619Y-107177142D01*
X203835000Y-107034285D01*
X203787380Y-106986666D01*
X202882619Y-106034285D02*
X202882619Y-106605714D01*
X202882619Y-106320000D02*
X203882619Y-106320000D01*
X203739761Y-106415238D01*
X203644523Y-106510476D01*
X203596904Y-106605714D01*
M02*
