M48
INCH,TZ
T1C0.0394
%
G90
G05
T1
X97490Y-55055
X101490Y-49055
X103490Y-50055
X97490Y-54055
X94490Y-49055
X102490Y-53055
X97490Y-53055
X98490Y-52055
X97490Y-48055
X101490Y-47055
X99490Y-55055
X103490Y-49055
X99490Y-54055
X96490Y-49055
X100490Y-58055
X101490Y-46055
X99490Y-53055
X103490Y-47055
X97490Y-57055
X101490Y-55055
X94490Y-46055
X83240Y-43305
X84240Y-43305
X85240Y-43305
X86240Y-43305
X87240Y-43305
X88240Y-43305
X89240Y-43305
X90240Y-43305
X91240Y-43305
X92240Y-43305
X93240Y-43305
X94240Y-43305
X95240Y-43305
X96240Y-43305
X97240Y-43305
X98240Y-43305
X99240Y-43305
X100240Y-43305
X101240Y-43305
X102240Y-43305
X103240Y-43305
X103490Y-46055
X103490Y-55055
X100490Y-45055
X102540Y-56055
X99490Y-51055
X95490Y-47055
X94740Y-52805
X94740Y-53805
X101540Y-57055
X100490Y-48055
X99490Y-52055
X96490Y-50055
X101490Y-51055
X79490Y-52555
X79490Y-53555
X102490Y-54055
X99490Y-49055
X97490Y-49055
X80240Y-40555
X81240Y-40555
X82240Y-40555
X83240Y-40555
X84240Y-40555
X85240Y-40555
X86240Y-40555
X87240Y-40555
X88240Y-40555
X89240Y-40555
X90240Y-40555
X91240Y-40555
X92240Y-40555
X93240Y-40555
X94240Y-40555
X95240Y-40555
X96240Y-40555
X97240Y-40555
X98240Y-40555
X99240Y-40555
X100240Y-40555
X101240Y-40555
X102240Y-40555
X103240Y-40555
X102490Y-48055
X96490Y-48055
X100490Y-57055
X100490Y-56055
X100490Y-53055
X98490Y-50055
X97490Y-46055
X95490Y-46055
X82035Y-37886
X82035Y-38886
X83035Y-37886
X83035Y-38886
X84035Y-37886
X84035Y-38886
X85035Y-37886
X85035Y-38886
X86035Y-37886
X86035Y-38886
X87035Y-37886
X87035Y-38886
X88035Y-37886
X88035Y-38886
X89035Y-37886
X89035Y-38886
X90035Y-37886
X90035Y-38886
X91035Y-37886
X91035Y-38886
X92035Y-37886
X92035Y-38886
X93035Y-37886
X93035Y-38886
X94035Y-37886
X94035Y-38886
X95035Y-37886
X95035Y-38886
X96035Y-37886
X96035Y-38886
X97035Y-37886
X97035Y-38886
X98035Y-37886
X98035Y-38886
X99035Y-37886
X99035Y-38886
X100035Y-37886
X100035Y-38886
X101035Y-37886
X101035Y-38886
X98490Y-58055
X99490Y-56055
X100490Y-50055
X99490Y-46055
X102490Y-45055
X96490Y-45055
X101490Y-52055
X98490Y-47055
X96490Y-47055
X102490Y-50055
X103490Y-53055
X101540Y-58055
X98490Y-45055
X103490Y-52055
X97490Y-52055
X100490Y-47055
X98490Y-55055
X102490Y-51055
X102490Y-49055
X103490Y-54055
X100490Y-49055
X97490Y-51055
X98490Y-54055
X95490Y-49055
X103490Y-48055
X98490Y-53055
X98490Y-48055
X102490Y-47055
X100490Y-55055
X94490Y-50055
X100490Y-54055
X102490Y-46055
X99490Y-58055
X100490Y-46055
X94490Y-48055
X98490Y-57055
X102490Y-55055
X101540Y-56055
X103490Y-45055
X84240Y-42305
X85240Y-42305
X86240Y-42305
X87240Y-42305
X88240Y-42305
X89240Y-42305
X90240Y-42305
X91240Y-42305
X92240Y-42305
X94490Y-47055
X97490Y-56055
X103540Y-56055
X100490Y-52055
X99490Y-45055
X100490Y-51055
X94490Y-45055
X98490Y-51055
X98490Y-49055
X101490Y-53055
X101490Y-48055
X97490Y-50055
X99490Y-48055
X96490Y-46055
X95490Y-50055
X101490Y-54055
X97490Y-58055
X99490Y-50055
X95490Y-48055
X98490Y-46055
X99490Y-57055
X95240Y-42305
X96240Y-42305
X97240Y-42305
X98240Y-42305
X99240Y-42305
X100240Y-42305
X101240Y-42305
X102240Y-42305
X103240Y-42305
X101490Y-45055
X95490Y-45055
X97490Y-47055
X101490Y-50055
X98490Y-56055
X97490Y-45055
X102490Y-52055
X103490Y-51055
X99490Y-47055
T0
M30
