G04 #@! TF.GenerationSoftware,KiCad,Pcbnew,(5.1.6-0-10_14)*
G04 #@! TF.CreationDate,2023-11-11T16:14:15-08:00*
G04 #@! TF.ProjectId,RaspberryPiProtoHat,52617370-6265-4727-9279-506950726f74,rev?*
G04 #@! TF.SameCoordinates,Original*
G04 #@! TF.FileFunction,Legend,Top*
G04 #@! TF.FilePolarity,Positive*
%FSLAX46Y46*%
G04 Gerber Fmt 4.6, Leading zero omitted, Abs format (unit mm)*
G04 Created by KiCad (PCBNEW (5.1.6-0-10_14)) date 2023-11-11 16:14:15*
%MOMM*%
%LPD*%
G01*
G04 APERTURE LIST*
%ADD10C,0.062500*%
%ADD11C,0.150000*%
%ADD12C,0.120000*%
%ADD13C,0.100000*%
G04 APERTURE END LIST*
D10*
X239036857Y-138788285D02*
X239203523Y-138788285D01*
X239274952Y-139050190D02*
X239036857Y-139050190D01*
X239036857Y-138550190D01*
X239274952Y-138550190D01*
X239441619Y-139050190D02*
X239703523Y-138716857D01*
X239441619Y-138716857D02*
X239703523Y-139050190D01*
X239822571Y-138716857D02*
X240013047Y-138716857D01*
X239894000Y-138550190D02*
X239894000Y-138978761D01*
X239917809Y-139026380D01*
X239965428Y-139050190D01*
X240013047Y-139050190D01*
X240727333Y-138788285D02*
X240798761Y-138812095D01*
X240822571Y-138835904D01*
X240846380Y-138883523D01*
X240846380Y-138954952D01*
X240822571Y-139002571D01*
X240798761Y-139026380D01*
X240751142Y-139050190D01*
X240560666Y-139050190D01*
X240560666Y-138550190D01*
X240727333Y-138550190D01*
X240774952Y-138574000D01*
X240798761Y-138597809D01*
X240822571Y-138645428D01*
X240822571Y-138693047D01*
X240798761Y-138740666D01*
X240774952Y-138764476D01*
X240727333Y-138788285D01*
X240560666Y-138788285D01*
X241274952Y-138716857D02*
X241274952Y-139050190D01*
X241060666Y-138716857D02*
X241060666Y-138978761D01*
X241084476Y-139026380D01*
X241132095Y-139050190D01*
X241203523Y-139050190D01*
X241251142Y-139026380D01*
X241274952Y-139002571D01*
X241441619Y-138716857D02*
X241632095Y-138716857D01*
X241513047Y-138550190D02*
X241513047Y-138978761D01*
X241536857Y-139026380D01*
X241584476Y-139050190D01*
X241632095Y-139050190D01*
X241727333Y-138716857D02*
X241917809Y-138716857D01*
X241798761Y-138550190D02*
X241798761Y-138978761D01*
X241822571Y-139026380D01*
X241870190Y-139050190D01*
X241917809Y-139050190D01*
X242155904Y-139050190D02*
X242108285Y-139026380D01*
X242084476Y-139002571D01*
X242060666Y-138954952D01*
X242060666Y-138812095D01*
X242084476Y-138764476D01*
X242108285Y-138740666D01*
X242155904Y-138716857D01*
X242227333Y-138716857D01*
X242274952Y-138740666D01*
X242298761Y-138764476D01*
X242322571Y-138812095D01*
X242322571Y-138954952D01*
X242298761Y-139002571D01*
X242274952Y-139026380D01*
X242227333Y-139050190D01*
X242155904Y-139050190D01*
X242536857Y-138716857D02*
X242536857Y-139050190D01*
X242536857Y-138764476D02*
X242560666Y-138740666D01*
X242608285Y-138716857D01*
X242679714Y-138716857D01*
X242727333Y-138740666D01*
X242751142Y-138788285D01*
X242751142Y-139050190D01*
X203714761Y-133216190D02*
X203476666Y-133216190D01*
X203452857Y-133454285D01*
X203476666Y-133430476D01*
X203524285Y-133406666D01*
X203643333Y-133406666D01*
X203690952Y-133430476D01*
X203714761Y-133454285D01*
X203738571Y-133501904D01*
X203738571Y-133620952D01*
X203714761Y-133668571D01*
X203690952Y-133692380D01*
X203643333Y-133716190D01*
X203524285Y-133716190D01*
X203476666Y-133692380D01*
X203452857Y-133668571D01*
X203881428Y-133216190D02*
X204048095Y-133716190D01*
X204214761Y-133216190D01*
X203683047Y-136034000D02*
X203635428Y-136010190D01*
X203564000Y-136010190D01*
X203492571Y-136034000D01*
X203444952Y-136081619D01*
X203421142Y-136129238D01*
X203397333Y-136224476D01*
X203397333Y-136295904D01*
X203421142Y-136391142D01*
X203444952Y-136438761D01*
X203492571Y-136486380D01*
X203564000Y-136510190D01*
X203611619Y-136510190D01*
X203683047Y-136486380D01*
X203706857Y-136462571D01*
X203706857Y-136295904D01*
X203611619Y-136295904D01*
X203921142Y-136510190D02*
X203921142Y-136010190D01*
X204206857Y-136510190D01*
X204206857Y-136010190D01*
X204444952Y-136510190D02*
X204444952Y-136010190D01*
X204564000Y-136010190D01*
X204635428Y-136034000D01*
X204683047Y-136081619D01*
X204706857Y-136129238D01*
X204730666Y-136224476D01*
X204730666Y-136295904D01*
X204706857Y-136391142D01*
X204683047Y-136438761D01*
X204635428Y-136486380D01*
X204564000Y-136510190D01*
X204444952Y-136510190D01*
X200718571Y-138026285D02*
X200551904Y-138026285D01*
X200551904Y-138288190D02*
X200551904Y-137788190D01*
X200790000Y-137788190D01*
X201194761Y-138288190D02*
X201194761Y-138026285D01*
X201170952Y-137978666D01*
X201123333Y-137954857D01*
X201028095Y-137954857D01*
X200980476Y-137978666D01*
X201194761Y-138264380D02*
X201147142Y-138288190D01*
X201028095Y-138288190D01*
X200980476Y-138264380D01*
X200956666Y-138216761D01*
X200956666Y-138169142D01*
X200980476Y-138121523D01*
X201028095Y-138097714D01*
X201147142Y-138097714D01*
X201194761Y-138073904D01*
X201432857Y-137954857D02*
X201432857Y-138288190D01*
X201432857Y-138002476D02*
X201456666Y-137978666D01*
X201504285Y-137954857D01*
X201575714Y-137954857D01*
X201623333Y-137978666D01*
X201647142Y-138026285D01*
X201647142Y-138288190D01*
X202266190Y-138026285D02*
X202432857Y-138026285D01*
X202504285Y-138288190D02*
X202266190Y-138288190D01*
X202266190Y-137788190D01*
X202504285Y-137788190D01*
X202718571Y-137954857D02*
X202718571Y-138288190D01*
X202718571Y-138002476D02*
X202742380Y-137978666D01*
X202790000Y-137954857D01*
X202861428Y-137954857D01*
X202909047Y-137978666D01*
X202932857Y-138026285D01*
X202932857Y-138288190D01*
X203385238Y-138288190D02*
X203385238Y-138026285D01*
X203361428Y-137978666D01*
X203313809Y-137954857D01*
X203218571Y-137954857D01*
X203170952Y-137978666D01*
X203385238Y-138264380D02*
X203337619Y-138288190D01*
X203218571Y-138288190D01*
X203170952Y-138264380D01*
X203147142Y-138216761D01*
X203147142Y-138169142D01*
X203170952Y-138121523D01*
X203218571Y-138097714D01*
X203337619Y-138097714D01*
X203385238Y-138073904D01*
X203623333Y-138288190D02*
X203623333Y-137788190D01*
X203623333Y-137978666D02*
X203670952Y-137954857D01*
X203766190Y-137954857D01*
X203813809Y-137978666D01*
X203837619Y-138002476D01*
X203861428Y-138050095D01*
X203861428Y-138192952D01*
X203837619Y-138240571D01*
X203813809Y-138264380D01*
X203766190Y-138288190D01*
X203670952Y-138288190D01*
X203623333Y-138264380D01*
X204147142Y-138288190D02*
X204099523Y-138264380D01*
X204075714Y-138216761D01*
X204075714Y-137788190D01*
X204528095Y-138264380D02*
X204480476Y-138288190D01*
X204385238Y-138288190D01*
X204337619Y-138264380D01*
X204313809Y-138216761D01*
X204313809Y-138026285D01*
X204337619Y-137978666D01*
X204385238Y-137954857D01*
X204480476Y-137954857D01*
X204528095Y-137978666D01*
X204551904Y-138026285D01*
X204551904Y-138073904D01*
X204313809Y-138121523D01*
X261599047Y-104426857D02*
X261956190Y-104426857D01*
X261741904Y-104212571D02*
X261599047Y-104855428D01*
X261908571Y-104641142D02*
X261551428Y-104641142D01*
X261765714Y-104855428D02*
X261908571Y-104212571D01*
X262099047Y-104307809D02*
X262122857Y-104284000D01*
X262170476Y-104260190D01*
X262289523Y-104260190D01*
X262337142Y-104284000D01*
X262360952Y-104307809D01*
X262384761Y-104355428D01*
X262384761Y-104403047D01*
X262360952Y-104474476D01*
X262075238Y-104760190D01*
X262384761Y-104760190D01*
X262813333Y-104260190D02*
X262718095Y-104260190D01*
X262670476Y-104284000D01*
X262646666Y-104307809D01*
X262599047Y-104379238D01*
X262575238Y-104474476D01*
X262575238Y-104664952D01*
X262599047Y-104712571D01*
X262622857Y-104736380D01*
X262670476Y-104760190D01*
X262765714Y-104760190D01*
X262813333Y-104736380D01*
X262837142Y-104712571D01*
X262860952Y-104664952D01*
X262860952Y-104545904D01*
X262837142Y-104498285D01*
X262813333Y-104474476D01*
X262765714Y-104450666D01*
X262670476Y-104450666D01*
X262622857Y-104474476D01*
X262599047Y-104498285D01*
X262575238Y-104545904D01*
X259059047Y-104426857D02*
X259416190Y-104426857D01*
X259201904Y-104212571D02*
X259059047Y-104855428D01*
X259368571Y-104641142D02*
X259011428Y-104641142D01*
X259225714Y-104855428D02*
X259368571Y-104212571D01*
X259559047Y-104307809D02*
X259582857Y-104284000D01*
X259630476Y-104260190D01*
X259749523Y-104260190D01*
X259797142Y-104284000D01*
X259820952Y-104307809D01*
X259844761Y-104355428D01*
X259844761Y-104403047D01*
X259820952Y-104474476D01*
X259535238Y-104760190D01*
X259844761Y-104760190D01*
X260320952Y-104760190D02*
X260035238Y-104760190D01*
X260178095Y-104760190D02*
X260178095Y-104260190D01*
X260130476Y-104331619D01*
X260082857Y-104379238D01*
X260035238Y-104403047D01*
X256519047Y-104426857D02*
X256876190Y-104426857D01*
X256661904Y-104212571D02*
X256519047Y-104855428D01*
X256828571Y-104641142D02*
X256471428Y-104641142D01*
X256685714Y-104855428D02*
X256828571Y-104212571D01*
X257019047Y-104307809D02*
X257042857Y-104284000D01*
X257090476Y-104260190D01*
X257209523Y-104260190D01*
X257257142Y-104284000D01*
X257280952Y-104307809D01*
X257304761Y-104355428D01*
X257304761Y-104403047D01*
X257280952Y-104474476D01*
X256995238Y-104760190D01*
X257304761Y-104760190D01*
X257614285Y-104260190D02*
X257661904Y-104260190D01*
X257709523Y-104284000D01*
X257733333Y-104307809D01*
X257757142Y-104355428D01*
X257780952Y-104450666D01*
X257780952Y-104569714D01*
X257757142Y-104664952D01*
X257733333Y-104712571D01*
X257709523Y-104736380D01*
X257661904Y-104760190D01*
X257614285Y-104760190D01*
X257566666Y-104736380D01*
X257542857Y-104712571D01*
X257519047Y-104664952D01*
X257495238Y-104569714D01*
X257495238Y-104450666D01*
X257519047Y-104355428D01*
X257542857Y-104307809D01*
X257566666Y-104284000D01*
X257614285Y-104260190D01*
X253979047Y-104426857D02*
X254336190Y-104426857D01*
X254121904Y-104212571D02*
X253979047Y-104855428D01*
X254288571Y-104641142D02*
X253931428Y-104641142D01*
X254145714Y-104855428D02*
X254288571Y-104212571D01*
X254764761Y-104760190D02*
X254479047Y-104760190D01*
X254621904Y-104760190D02*
X254621904Y-104260190D01*
X254574285Y-104331619D01*
X254526666Y-104379238D01*
X254479047Y-104403047D01*
X255002857Y-104760190D02*
X255098095Y-104760190D01*
X255145714Y-104736380D01*
X255169523Y-104712571D01*
X255217142Y-104641142D01*
X255240952Y-104545904D01*
X255240952Y-104355428D01*
X255217142Y-104307809D01*
X255193333Y-104284000D01*
X255145714Y-104260190D01*
X255050476Y-104260190D01*
X255002857Y-104284000D01*
X254979047Y-104307809D01*
X254955238Y-104355428D01*
X254955238Y-104474476D01*
X254979047Y-104522095D01*
X255002857Y-104545904D01*
X255050476Y-104569714D01*
X255145714Y-104569714D01*
X255193333Y-104545904D01*
X255217142Y-104522095D01*
X255240952Y-104474476D01*
X251439047Y-104426857D02*
X251796190Y-104426857D01*
X251581904Y-104212571D02*
X251439047Y-104855428D01*
X251748571Y-104641142D02*
X251391428Y-104641142D01*
X251605714Y-104855428D02*
X251748571Y-104212571D01*
X252224761Y-104760190D02*
X251939047Y-104760190D01*
X252081904Y-104760190D02*
X252081904Y-104260190D01*
X252034285Y-104331619D01*
X251986666Y-104379238D01*
X251939047Y-104403047D01*
X252653333Y-104260190D02*
X252558095Y-104260190D01*
X252510476Y-104284000D01*
X252486666Y-104307809D01*
X252439047Y-104379238D01*
X252415238Y-104474476D01*
X252415238Y-104664952D01*
X252439047Y-104712571D01*
X252462857Y-104736380D01*
X252510476Y-104760190D01*
X252605714Y-104760190D01*
X252653333Y-104736380D01*
X252677142Y-104712571D01*
X252700952Y-104664952D01*
X252700952Y-104545904D01*
X252677142Y-104498285D01*
X252653333Y-104474476D01*
X252605714Y-104450666D01*
X252510476Y-104450666D01*
X252462857Y-104474476D01*
X252439047Y-104498285D01*
X252415238Y-104545904D01*
X248899047Y-104426857D02*
X249256190Y-104426857D01*
X249041904Y-104212571D02*
X248899047Y-104855428D01*
X249208571Y-104641142D02*
X248851428Y-104641142D01*
X249065714Y-104855428D02*
X249208571Y-104212571D01*
X249684761Y-104760190D02*
X249399047Y-104760190D01*
X249541904Y-104760190D02*
X249541904Y-104260190D01*
X249494285Y-104331619D01*
X249446666Y-104379238D01*
X249399047Y-104403047D01*
X249851428Y-104260190D02*
X250160952Y-104260190D01*
X249994285Y-104450666D01*
X250065714Y-104450666D01*
X250113333Y-104474476D01*
X250137142Y-104498285D01*
X250160952Y-104545904D01*
X250160952Y-104664952D01*
X250137142Y-104712571D01*
X250113333Y-104736380D01*
X250065714Y-104760190D01*
X249922857Y-104760190D01*
X249875238Y-104736380D01*
X249851428Y-104712571D01*
X246359047Y-104426857D02*
X246716190Y-104426857D01*
X246501904Y-104212571D02*
X246359047Y-104855428D01*
X246668571Y-104641142D02*
X246311428Y-104641142D01*
X246525714Y-104855428D02*
X246668571Y-104212571D01*
X247144761Y-104760190D02*
X246859047Y-104760190D01*
X247001904Y-104760190D02*
X247001904Y-104260190D01*
X246954285Y-104331619D01*
X246906666Y-104379238D01*
X246859047Y-104403047D01*
X247335238Y-104307809D02*
X247359047Y-104284000D01*
X247406666Y-104260190D01*
X247525714Y-104260190D01*
X247573333Y-104284000D01*
X247597142Y-104307809D01*
X247620952Y-104355428D01*
X247620952Y-104403047D01*
X247597142Y-104474476D01*
X247311428Y-104760190D01*
X247620952Y-104760190D01*
X244057142Y-104426857D02*
X244414285Y-104426857D01*
X244200000Y-104212571D02*
X244057142Y-104855428D01*
X244366666Y-104641142D02*
X244009523Y-104641142D01*
X244223809Y-104855428D02*
X244366666Y-104212571D01*
X244795238Y-104260190D02*
X244700000Y-104260190D01*
X244652380Y-104284000D01*
X244628571Y-104307809D01*
X244580952Y-104379238D01*
X244557142Y-104474476D01*
X244557142Y-104664952D01*
X244580952Y-104712571D01*
X244604761Y-104736380D01*
X244652380Y-104760190D01*
X244747619Y-104760190D01*
X244795238Y-104736380D01*
X244819047Y-104712571D01*
X244842857Y-104664952D01*
X244842857Y-104545904D01*
X244819047Y-104498285D01*
X244795238Y-104474476D01*
X244747619Y-104450666D01*
X244652380Y-104450666D01*
X244604761Y-104474476D01*
X244580952Y-104498285D01*
X244557142Y-104545904D01*
X241517142Y-104426857D02*
X241874285Y-104426857D01*
X241660000Y-104212571D02*
X241517142Y-104855428D01*
X241826666Y-104641142D02*
X241469523Y-104641142D01*
X241683809Y-104855428D02*
X241826666Y-104212571D01*
X242279047Y-104260190D02*
X242040952Y-104260190D01*
X242017142Y-104498285D01*
X242040952Y-104474476D01*
X242088571Y-104450666D01*
X242207619Y-104450666D01*
X242255238Y-104474476D01*
X242279047Y-104498285D01*
X242302857Y-104545904D01*
X242302857Y-104664952D01*
X242279047Y-104712571D01*
X242255238Y-104736380D01*
X242207619Y-104760190D01*
X242088571Y-104760190D01*
X242040952Y-104736380D01*
X242017142Y-104712571D01*
X239060476Y-104712571D02*
X239036666Y-104736380D01*
X238965238Y-104760190D01*
X238917619Y-104760190D01*
X238846190Y-104736380D01*
X238798571Y-104688761D01*
X238774761Y-104641142D01*
X238750952Y-104545904D01*
X238750952Y-104474476D01*
X238774761Y-104379238D01*
X238798571Y-104331619D01*
X238846190Y-104284000D01*
X238917619Y-104260190D01*
X238965238Y-104260190D01*
X239036666Y-104284000D01*
X239060476Y-104307809D01*
X239274761Y-104498285D02*
X239441428Y-104498285D01*
X239512857Y-104760190D02*
X239274761Y-104760190D01*
X239274761Y-104260190D01*
X239512857Y-104260190D01*
X239989047Y-104760190D02*
X239703333Y-104760190D01*
X239846190Y-104760190D02*
X239846190Y-104260190D01*
X239798571Y-104331619D01*
X239750952Y-104379238D01*
X239703333Y-104403047D01*
X236520476Y-104712571D02*
X236496666Y-104736380D01*
X236425238Y-104760190D01*
X236377619Y-104760190D01*
X236306190Y-104736380D01*
X236258571Y-104688761D01*
X236234761Y-104641142D01*
X236210952Y-104545904D01*
X236210952Y-104474476D01*
X236234761Y-104379238D01*
X236258571Y-104331619D01*
X236306190Y-104284000D01*
X236377619Y-104260190D01*
X236425238Y-104260190D01*
X236496666Y-104284000D01*
X236520476Y-104307809D01*
X236734761Y-104498285D02*
X236901428Y-104498285D01*
X236972857Y-104760190D02*
X236734761Y-104760190D01*
X236734761Y-104260190D01*
X236972857Y-104260190D01*
X237282380Y-104260190D02*
X237330000Y-104260190D01*
X237377619Y-104284000D01*
X237401428Y-104307809D01*
X237425238Y-104355428D01*
X237449047Y-104450666D01*
X237449047Y-104569714D01*
X237425238Y-104664952D01*
X237401428Y-104712571D01*
X237377619Y-104736380D01*
X237330000Y-104760190D01*
X237282380Y-104760190D01*
X237234761Y-104736380D01*
X237210952Y-104712571D01*
X237187142Y-104664952D01*
X237163333Y-104569714D01*
X237163333Y-104450666D01*
X237187142Y-104355428D01*
X237210952Y-104307809D01*
X237234761Y-104284000D01*
X237282380Y-104260190D01*
X233992380Y-104712571D02*
X233968571Y-104736380D01*
X233897142Y-104760190D01*
X233849523Y-104760190D01*
X233778095Y-104736380D01*
X233730476Y-104688761D01*
X233706666Y-104641142D01*
X233682857Y-104545904D01*
X233682857Y-104474476D01*
X233706666Y-104379238D01*
X233730476Y-104331619D01*
X233778095Y-104284000D01*
X233849523Y-104260190D01*
X233897142Y-104260190D01*
X233968571Y-104284000D01*
X233992380Y-104307809D01*
X234444761Y-104760190D02*
X234206666Y-104760190D01*
X234206666Y-104260190D01*
X234611428Y-104760190D02*
X234611428Y-104260190D01*
X234897142Y-104760190D02*
X234682857Y-104474476D01*
X234897142Y-104260190D02*
X234611428Y-104545904D01*
X230964285Y-104760190D02*
X230964285Y-104260190D01*
X231130952Y-104617333D01*
X231297619Y-104260190D01*
X231297619Y-104760190D01*
X231535714Y-104760190D02*
X231535714Y-104260190D01*
X231750000Y-104736380D02*
X231821428Y-104760190D01*
X231940476Y-104760190D01*
X231988095Y-104736380D01*
X232011904Y-104712571D01*
X232035714Y-104664952D01*
X232035714Y-104617333D01*
X232011904Y-104569714D01*
X231988095Y-104545904D01*
X231940476Y-104522095D01*
X231845238Y-104498285D01*
X231797619Y-104474476D01*
X231773809Y-104450666D01*
X231750000Y-104403047D01*
X231750000Y-104355428D01*
X231773809Y-104307809D01*
X231797619Y-104284000D01*
X231845238Y-104260190D01*
X231964285Y-104260190D01*
X232035714Y-104284000D01*
X232345238Y-104260190D02*
X232440476Y-104260190D01*
X232488095Y-104284000D01*
X232535714Y-104331619D01*
X232559523Y-104426857D01*
X232559523Y-104593523D01*
X232535714Y-104688761D01*
X232488095Y-104736380D01*
X232440476Y-104760190D01*
X232345238Y-104760190D01*
X232297619Y-104736380D01*
X232250000Y-104688761D01*
X232226190Y-104593523D01*
X232226190Y-104426857D01*
X232250000Y-104331619D01*
X232297619Y-104284000D01*
X232345238Y-104260190D01*
X228424285Y-104760190D02*
X228424285Y-104260190D01*
X228590952Y-104617333D01*
X228757619Y-104260190D01*
X228757619Y-104760190D01*
X229090952Y-104260190D02*
X229186190Y-104260190D01*
X229233809Y-104284000D01*
X229281428Y-104331619D01*
X229305238Y-104426857D01*
X229305238Y-104593523D01*
X229281428Y-104688761D01*
X229233809Y-104736380D01*
X229186190Y-104760190D01*
X229090952Y-104760190D01*
X229043333Y-104736380D01*
X228995714Y-104688761D01*
X228971904Y-104593523D01*
X228971904Y-104426857D01*
X228995714Y-104331619D01*
X229043333Y-104284000D01*
X229090952Y-104260190D01*
X229495714Y-104736380D02*
X229567142Y-104760190D01*
X229686190Y-104760190D01*
X229733809Y-104736380D01*
X229757619Y-104712571D01*
X229781428Y-104664952D01*
X229781428Y-104617333D01*
X229757619Y-104569714D01*
X229733809Y-104545904D01*
X229686190Y-104522095D01*
X229590952Y-104498285D01*
X229543333Y-104474476D01*
X229519523Y-104450666D01*
X229495714Y-104403047D01*
X229495714Y-104355428D01*
X229519523Y-104307809D01*
X229543333Y-104284000D01*
X229590952Y-104260190D01*
X229710000Y-104260190D01*
X229781428Y-104284000D01*
X229995714Y-104760190D02*
X229995714Y-104260190D01*
X226039047Y-104426857D02*
X226396190Y-104426857D01*
X226181904Y-104212571D02*
X226039047Y-104855428D01*
X226348571Y-104641142D02*
X225991428Y-104641142D01*
X226205714Y-104855428D02*
X226348571Y-104212571D01*
X226539047Y-104307809D02*
X226562857Y-104284000D01*
X226610476Y-104260190D01*
X226729523Y-104260190D01*
X226777142Y-104284000D01*
X226800952Y-104307809D01*
X226824761Y-104355428D01*
X226824761Y-104403047D01*
X226800952Y-104474476D01*
X226515238Y-104760190D01*
X226824761Y-104760190D01*
X227277142Y-104260190D02*
X227039047Y-104260190D01*
X227015238Y-104498285D01*
X227039047Y-104474476D01*
X227086666Y-104450666D01*
X227205714Y-104450666D01*
X227253333Y-104474476D01*
X227277142Y-104498285D01*
X227300952Y-104545904D01*
X227300952Y-104664952D01*
X227277142Y-104712571D01*
X227253333Y-104736380D01*
X227205714Y-104760190D01*
X227086666Y-104760190D01*
X227039047Y-104736380D01*
X227015238Y-104712571D01*
X223499047Y-104426857D02*
X223856190Y-104426857D01*
X223641904Y-104212571D02*
X223499047Y-104855428D01*
X223808571Y-104641142D02*
X223451428Y-104641142D01*
X223665714Y-104855428D02*
X223808571Y-104212571D01*
X223999047Y-104307809D02*
X224022857Y-104284000D01*
X224070476Y-104260190D01*
X224189523Y-104260190D01*
X224237142Y-104284000D01*
X224260952Y-104307809D01*
X224284761Y-104355428D01*
X224284761Y-104403047D01*
X224260952Y-104474476D01*
X223975238Y-104760190D01*
X224284761Y-104760190D01*
X224713333Y-104426857D02*
X224713333Y-104760190D01*
X224594285Y-104236380D02*
X224475238Y-104593523D01*
X224784761Y-104593523D01*
X220959047Y-104426857D02*
X221316190Y-104426857D01*
X221101904Y-104212571D02*
X220959047Y-104855428D01*
X221268571Y-104641142D02*
X220911428Y-104641142D01*
X221125714Y-104855428D02*
X221268571Y-104212571D01*
X221459047Y-104307809D02*
X221482857Y-104284000D01*
X221530476Y-104260190D01*
X221649523Y-104260190D01*
X221697142Y-104284000D01*
X221720952Y-104307809D01*
X221744761Y-104355428D01*
X221744761Y-104403047D01*
X221720952Y-104474476D01*
X221435238Y-104760190D01*
X221744761Y-104760190D01*
X221911428Y-104260190D02*
X222220952Y-104260190D01*
X222054285Y-104450666D01*
X222125714Y-104450666D01*
X222173333Y-104474476D01*
X222197142Y-104498285D01*
X222220952Y-104545904D01*
X222220952Y-104664952D01*
X222197142Y-104712571D01*
X222173333Y-104736380D01*
X222125714Y-104760190D01*
X221982857Y-104760190D01*
X221935238Y-104736380D01*
X221911428Y-104712571D01*
X218419047Y-104426857D02*
X218776190Y-104426857D01*
X218561904Y-104212571D02*
X218419047Y-104855428D01*
X218728571Y-104641142D02*
X218371428Y-104641142D01*
X218585714Y-104855428D02*
X218728571Y-104212571D01*
X218919047Y-104307809D02*
X218942857Y-104284000D01*
X218990476Y-104260190D01*
X219109523Y-104260190D01*
X219157142Y-104284000D01*
X219180952Y-104307809D01*
X219204761Y-104355428D01*
X219204761Y-104403047D01*
X219180952Y-104474476D01*
X218895238Y-104760190D01*
X219204761Y-104760190D01*
X219395238Y-104307809D02*
X219419047Y-104284000D01*
X219466666Y-104260190D01*
X219585714Y-104260190D01*
X219633333Y-104284000D01*
X219657142Y-104307809D01*
X219680952Y-104355428D01*
X219680952Y-104403047D01*
X219657142Y-104474476D01*
X219371428Y-104760190D01*
X219680952Y-104760190D01*
X215879047Y-104426857D02*
X216236190Y-104426857D01*
X216021904Y-104212571D02*
X215879047Y-104855428D01*
X216188571Y-104641142D02*
X215831428Y-104641142D01*
X216045714Y-104855428D02*
X216188571Y-104212571D01*
X216664761Y-104760190D02*
X216379047Y-104760190D01*
X216521904Y-104760190D02*
X216521904Y-104260190D01*
X216474285Y-104331619D01*
X216426666Y-104379238D01*
X216379047Y-104403047D01*
X216950476Y-104474476D02*
X216902857Y-104450666D01*
X216879047Y-104426857D01*
X216855238Y-104379238D01*
X216855238Y-104355428D01*
X216879047Y-104307809D01*
X216902857Y-104284000D01*
X216950476Y-104260190D01*
X217045714Y-104260190D01*
X217093333Y-104284000D01*
X217117142Y-104307809D01*
X217140952Y-104355428D01*
X217140952Y-104379238D01*
X217117142Y-104426857D01*
X217093333Y-104450666D01*
X217045714Y-104474476D01*
X216950476Y-104474476D01*
X216902857Y-104498285D01*
X216879047Y-104522095D01*
X216855238Y-104569714D01*
X216855238Y-104664952D01*
X216879047Y-104712571D01*
X216902857Y-104736380D01*
X216950476Y-104760190D01*
X217045714Y-104760190D01*
X217093333Y-104736380D01*
X217117142Y-104712571D01*
X217140952Y-104664952D01*
X217140952Y-104569714D01*
X217117142Y-104522095D01*
X217093333Y-104498285D01*
X217045714Y-104474476D01*
X213577142Y-104426857D02*
X213934285Y-104426857D01*
X213720000Y-104212571D02*
X213577142Y-104855428D01*
X213886666Y-104641142D02*
X213529523Y-104641142D01*
X213743809Y-104855428D02*
X213886666Y-104212571D01*
X214315238Y-104426857D02*
X214315238Y-104760190D01*
X214196190Y-104236380D02*
X214077142Y-104593523D01*
X214386666Y-104593523D01*
X211096666Y-104760190D02*
X210930000Y-104522095D01*
X210810952Y-104760190D02*
X210810952Y-104260190D01*
X211001428Y-104260190D01*
X211049047Y-104284000D01*
X211072857Y-104307809D01*
X211096666Y-104355428D01*
X211096666Y-104426857D01*
X211072857Y-104474476D01*
X211049047Y-104498285D01*
X211001428Y-104522095D01*
X210810952Y-104522095D01*
X211263333Y-104260190D02*
X211596666Y-104760190D01*
X211596666Y-104260190D02*
X211263333Y-104760190D01*
X211787142Y-104760190D02*
X211787142Y-104260190D01*
X211906190Y-104260190D01*
X211977619Y-104284000D01*
X212025238Y-104331619D01*
X212049047Y-104379238D01*
X212072857Y-104474476D01*
X212072857Y-104545904D01*
X212049047Y-104641142D01*
X212025238Y-104688761D01*
X211977619Y-104736380D01*
X211906190Y-104760190D01*
X211787142Y-104760190D01*
X208259047Y-104260190D02*
X208544761Y-104260190D01*
X208401904Y-104760190D02*
X208401904Y-104260190D01*
X208663809Y-104260190D02*
X208997142Y-104760190D01*
X208997142Y-104260190D02*
X208663809Y-104760190D01*
X209187619Y-104760190D02*
X209187619Y-104260190D01*
X209306666Y-104260190D01*
X209378095Y-104284000D01*
X209425714Y-104331619D01*
X209449523Y-104379238D01*
X209473333Y-104474476D01*
X209473333Y-104545904D01*
X209449523Y-104641142D01*
X209425714Y-104688761D01*
X209378095Y-104736380D01*
X209306666Y-104760190D01*
X209187619Y-104760190D01*
X205719047Y-104426857D02*
X206076190Y-104426857D01*
X205861904Y-104212571D02*
X205719047Y-104855428D01*
X206028571Y-104641142D02*
X205671428Y-104641142D01*
X205885714Y-104855428D02*
X206028571Y-104212571D01*
X206219047Y-104307809D02*
X206242857Y-104284000D01*
X206290476Y-104260190D01*
X206409523Y-104260190D01*
X206457142Y-104284000D01*
X206480952Y-104307809D01*
X206504761Y-104355428D01*
X206504761Y-104403047D01*
X206480952Y-104474476D01*
X206195238Y-104760190D01*
X206504761Y-104760190D01*
X206671428Y-104260190D02*
X207004761Y-104260190D01*
X206790476Y-104760190D01*
X203202857Y-104736380D02*
X203274285Y-104760190D01*
X203393333Y-104760190D01*
X203440952Y-104736380D01*
X203464761Y-104712571D01*
X203488571Y-104664952D01*
X203488571Y-104617333D01*
X203464761Y-104569714D01*
X203440952Y-104545904D01*
X203393333Y-104522095D01*
X203298095Y-104498285D01*
X203250476Y-104474476D01*
X203226666Y-104450666D01*
X203202857Y-104403047D01*
X203202857Y-104355428D01*
X203226666Y-104307809D01*
X203250476Y-104284000D01*
X203298095Y-104260190D01*
X203417142Y-104260190D01*
X203488571Y-104284000D01*
X203702857Y-104760190D02*
X203702857Y-104260190D01*
X203821904Y-104260190D01*
X203893333Y-104284000D01*
X203940952Y-104331619D01*
X203964761Y-104379238D01*
X203988571Y-104474476D01*
X203988571Y-104545904D01*
X203964761Y-104641142D01*
X203940952Y-104688761D01*
X203893333Y-104736380D01*
X203821904Y-104760190D01*
X203702857Y-104760190D01*
X204179047Y-104617333D02*
X204417142Y-104617333D01*
X204131428Y-104760190D02*
X204298095Y-104260190D01*
X204464761Y-104760190D01*
D11*
X237877904Y-106780380D02*
X238496952Y-106780380D01*
X238163619Y-107161333D01*
X238306476Y-107161333D01*
X238401714Y-107208952D01*
X238449333Y-107256571D01*
X238496952Y-107351809D01*
X238496952Y-107589904D01*
X238449333Y-107685142D01*
X238401714Y-107732761D01*
X238306476Y-107780380D01*
X238020761Y-107780380D01*
X237925523Y-107732761D01*
X237877904Y-107685142D01*
X238782666Y-106780380D02*
X239116000Y-107780380D01*
X239449333Y-106780380D01*
X239687428Y-106780380D02*
X240306476Y-106780380D01*
X239973142Y-107161333D01*
X240116000Y-107161333D01*
X240211238Y-107208952D01*
X240258857Y-107256571D01*
X240306476Y-107351809D01*
X240306476Y-107589904D01*
X240258857Y-107685142D01*
X240211238Y-107732761D01*
X240116000Y-107780380D01*
X239830285Y-107780380D01*
X239735047Y-107732761D01*
X239687428Y-107685142D01*
X210985523Y-106780380D02*
X210509333Y-106780380D01*
X210461714Y-107256571D01*
X210509333Y-107208952D01*
X210604571Y-107161333D01*
X210842666Y-107161333D01*
X210937904Y-107208952D01*
X210985523Y-107256571D01*
X211033142Y-107351809D01*
X211033142Y-107589904D01*
X210985523Y-107685142D01*
X210937904Y-107732761D01*
X210842666Y-107780380D01*
X210604571Y-107780380D01*
X210509333Y-107732761D01*
X210461714Y-107685142D01*
X211318857Y-106780380D02*
X211652190Y-107780380D01*
X211985523Y-106780380D01*
X207366095Y-109876000D02*
X207270857Y-109828380D01*
X207128000Y-109828380D01*
X206985142Y-109876000D01*
X206889904Y-109971238D01*
X206842285Y-110066476D01*
X206794666Y-110256952D01*
X206794666Y-110399809D01*
X206842285Y-110590285D01*
X206889904Y-110685523D01*
X206985142Y-110780761D01*
X207128000Y-110828380D01*
X207223238Y-110828380D01*
X207366095Y-110780761D01*
X207413714Y-110733142D01*
X207413714Y-110399809D01*
X207223238Y-110399809D01*
X207842285Y-110828380D02*
X207842285Y-109828380D01*
X208413714Y-110828380D01*
X208413714Y-109828380D01*
X208889904Y-110828380D02*
X208889904Y-109828380D01*
X209128000Y-109828380D01*
X209270857Y-109876000D01*
X209366095Y-109971238D01*
X209413714Y-110066476D01*
X209461333Y-110256952D01*
X209461333Y-110399809D01*
X209413714Y-110590285D01*
X209366095Y-110685523D01*
X209270857Y-110780761D01*
X209128000Y-110828380D01*
X208889904Y-110828380D01*
X237635000Y-142270000D02*
X237635000Y-112270000D01*
X207635000Y-142270000D02*
X237625000Y-142270000D01*
X207635000Y-142270000D02*
X207635000Y-112270000D01*
X237635000Y-112270000D02*
X207635000Y-112270000D01*
D12*
X240695000Y-142960000D02*
X240695000Y-142990000D01*
X240695000Y-149420000D02*
X240695000Y-149390000D01*
X234235000Y-149420000D02*
X234235000Y-149390000D01*
X234235000Y-142990000D02*
X234235000Y-142960000D01*
X240695000Y-144890000D02*
X240695000Y-147490000D01*
X234235000Y-142960000D02*
X240695000Y-142960000D01*
X234235000Y-144890000D02*
X234235000Y-147490000D01*
X234235000Y-149420000D02*
X240695000Y-149420000D01*
X224032936Y-147185000D02*
X225237064Y-147185000D01*
X224032936Y-149005000D02*
X225237064Y-149005000D01*
D13*
X211475000Y-146445000D02*
X211200000Y-146445000D01*
X211200000Y-146445000D02*
X210825000Y-146720000D01*
X210825000Y-146720000D02*
X210825000Y-146770000D01*
X210825000Y-146770000D02*
X210050000Y-146770000D01*
X211300000Y-149745000D02*
X210825000Y-149745000D01*
X210825000Y-149745000D02*
X210825000Y-149395000D01*
X212475000Y-149520000D02*
X212475000Y-149395000D01*
X212475000Y-149445000D02*
X212475000Y-149745000D01*
X212475000Y-149745000D02*
X212025000Y-149745000D01*
X212100000Y-146445000D02*
X212475000Y-146445000D01*
X212475000Y-146445000D02*
X212475000Y-146745000D01*
D12*
X220520000Y-146960000D02*
X216635000Y-146960000D01*
X216635000Y-146960000D02*
X216635000Y-149230000D01*
X216635000Y-149230000D02*
X220520000Y-149230000D01*
X239310000Y-132795000D02*
X240640000Y-132795000D01*
X239310000Y-134125000D02*
X239310000Y-132795000D01*
X239310000Y-135395000D02*
X241970000Y-135395000D01*
X241970000Y-135395000D02*
X241970000Y-137995000D01*
X239310000Y-135395000D02*
X239310000Y-137995000D01*
X239310000Y-137995000D02*
X241970000Y-137995000D01*
X200575000Y-132160000D02*
X201905000Y-132160000D01*
X200575000Y-133490000D02*
X200575000Y-132160000D01*
X200575000Y-134760000D02*
X203235000Y-134760000D01*
X203235000Y-134760000D02*
X203235000Y-137360000D01*
X200575000Y-134760000D02*
X200575000Y-137360000D01*
X200575000Y-137360000D02*
X203235000Y-137360000D01*
D11*
X229146666Y-148880761D02*
X229289523Y-148928380D01*
X229527619Y-148928380D01*
X229622857Y-148880761D01*
X229670476Y-148833142D01*
X229718095Y-148737904D01*
X229718095Y-148642666D01*
X229670476Y-148547428D01*
X229622857Y-148499809D01*
X229527619Y-148452190D01*
X229337142Y-148404571D01*
X229241904Y-148356952D01*
X229194285Y-148309333D01*
X229146666Y-148214095D01*
X229146666Y-148118857D01*
X229194285Y-148023619D01*
X229241904Y-147976000D01*
X229337142Y-147928380D01*
X229575238Y-147928380D01*
X229718095Y-147976000D01*
X230051428Y-147928380D02*
X230289523Y-148928380D01*
X230480000Y-148214095D01*
X230670476Y-148928380D01*
X230908571Y-147928380D01*
X231813333Y-148928380D02*
X231241904Y-148928380D01*
X231527619Y-148928380D02*
X231527619Y-147928380D01*
X231432380Y-148071238D01*
X231337142Y-148166476D01*
X231241904Y-148214095D01*
X224468333Y-146727380D02*
X224135000Y-146251190D01*
X223896904Y-146727380D02*
X223896904Y-145727380D01*
X224277857Y-145727380D01*
X224373095Y-145775000D01*
X224420714Y-145822619D01*
X224468333Y-145917857D01*
X224468333Y-146060714D01*
X224420714Y-146155952D01*
X224373095Y-146203571D01*
X224277857Y-146251190D01*
X223896904Y-146251190D01*
X225420714Y-146727380D02*
X224849285Y-146727380D01*
X225135000Y-146727380D02*
X225135000Y-145727380D01*
X225039761Y-145870238D01*
X224944523Y-145965476D01*
X224849285Y-146013095D01*
X209556761Y-145975619D02*
X209461523Y-145928000D01*
X209366285Y-145832761D01*
X209223428Y-145689904D01*
X209128190Y-145642285D01*
X209032952Y-145642285D01*
X209080571Y-145880380D02*
X208985333Y-145832761D01*
X208890095Y-145737523D01*
X208842476Y-145547047D01*
X208842476Y-145213714D01*
X208890095Y-145023238D01*
X208985333Y-144928000D01*
X209080571Y-144880380D01*
X209271047Y-144880380D01*
X209366285Y-144928000D01*
X209461523Y-145023238D01*
X209509142Y-145213714D01*
X209509142Y-145547047D01*
X209461523Y-145737523D01*
X209366285Y-145832761D01*
X209271047Y-145880380D01*
X209080571Y-145880380D01*
X210461523Y-145880380D02*
X209890095Y-145880380D01*
X210175809Y-145880380D02*
X210175809Y-144880380D01*
X210080571Y-145023238D01*
X209985333Y-145118476D01*
X209890095Y-145166095D01*
X217800952Y-146727380D02*
X217324761Y-146727380D01*
X217324761Y-145727380D01*
X218134285Y-146203571D02*
X218467619Y-146203571D01*
X218610476Y-146727380D02*
X218134285Y-146727380D01*
X218134285Y-145727380D01*
X218610476Y-145727380D01*
X219039047Y-146727380D02*
X219039047Y-145727380D01*
X219277142Y-145727380D01*
X219420000Y-145775000D01*
X219515238Y-145870238D01*
X219562857Y-145965476D01*
X219610476Y-146155952D01*
X219610476Y-146298809D01*
X219562857Y-146489285D01*
X219515238Y-146584523D01*
X219420000Y-146679761D01*
X219277142Y-146727380D01*
X219039047Y-146727380D01*
X220562857Y-146727380D02*
X219991428Y-146727380D01*
X220277142Y-146727380D02*
X220277142Y-145727380D01*
X220181904Y-145870238D01*
X220086666Y-145965476D01*
X219991428Y-146013095D01*
M02*
