G04 #@! TF.GenerationSoftware,KiCad,Pcbnew,(5.1.6-0-10_14)*
G04 #@! TF.CreationDate,2023-11-11T16:14:15-08:00*
G04 #@! TF.ProjectId,RaspberryPiProtoHat,52617370-6265-4727-9279-506950726f74,rev?*
G04 #@! TF.SameCoordinates,Original*
G04 #@! TF.FileFunction,Copper,L2,Bot*
G04 #@! TF.FilePolarity,Positive*
%FSLAX46Y46*%
G04 Gerber Fmt 4.6, Leading zero omitted, Abs format (unit mm)*
G04 Created by KiCad (PCBNEW (5.1.6-0-10_14)) date 2023-11-11 16:14:15*
%MOMM*%
%LPD*%
G01*
G04 APERTURE LIST*
G04 #@! TA.AperFunction,ComponentPad*
%ADD10C,1.700000*%
G04 #@! TD*
G04 #@! TA.AperFunction,ComponentPad*
%ADD11O,1.700000X1.700000*%
G04 #@! TD*
G04 #@! TA.AperFunction,ComponentPad*
%ADD12R,1.700000X1.700000*%
G04 #@! TD*
G04 #@! TA.AperFunction,Conductor*
%ADD13C,0.200000*%
G04 #@! TD*
G04 #@! TA.AperFunction,Conductor*
%ADD14C,0.254000*%
G04 #@! TD*
G04 APERTURE END LIST*
G04 #@! TA.AperFunction,SMDPad,CuDef*
G36*
G01*
X207229000Y-109731000D02*
X205979000Y-109731000D01*
G75*
G02*
X205729000Y-109481000I0J250000D01*
G01*
X205729000Y-108731000D01*
G75*
G02*
X205979000Y-108481000I250000J0D01*
G01*
X207229000Y-108481000D01*
G75*
G02*
X207479000Y-108731000I0J-250000D01*
G01*
X207479000Y-109481000D01*
G75*
G02*
X207229000Y-109731000I-250000J0D01*
G01*
G37*
G04 #@! TD.AperFunction*
G04 #@! TA.AperFunction,SMDPad,CuDef*
G36*
G01*
X207229000Y-112531000D02*
X205979000Y-112531000D01*
G75*
G02*
X205729000Y-112281000I0J250000D01*
G01*
X205729000Y-111531000D01*
G75*
G02*
X205979000Y-111281000I250000J0D01*
G01*
X207229000Y-111281000D01*
G75*
G02*
X207479000Y-111531000I0J-250000D01*
G01*
X207479000Y-112281000D01*
G75*
G02*
X207229000Y-112531000I-250000J0D01*
G01*
G37*
G04 #@! TD.AperFunction*
G04 #@! TA.AperFunction,SMDPad,CuDef*
G36*
G01*
X203419000Y-108077000D02*
X202169000Y-108077000D01*
G75*
G02*
X201919000Y-107827000I0J250000D01*
G01*
X201919000Y-107077000D01*
G75*
G02*
X202169000Y-106827000I250000J0D01*
G01*
X203419000Y-106827000D01*
G75*
G02*
X203669000Y-107077000I0J-250000D01*
G01*
X203669000Y-107827000D01*
G75*
G02*
X203419000Y-108077000I-250000J0D01*
G01*
G37*
G04 #@! TD.AperFunction*
G04 #@! TA.AperFunction,SMDPad,CuDef*
G36*
G01*
X203419000Y-110877000D02*
X202169000Y-110877000D01*
G75*
G02*
X201919000Y-110627000I0J250000D01*
G01*
X201919000Y-109877000D01*
G75*
G02*
X202169000Y-109627000I250000J0D01*
G01*
X203419000Y-109627000D01*
G75*
G02*
X203669000Y-109877000I0J-250000D01*
G01*
X203669000Y-110627000D01*
G75*
G02*
X203419000Y-110877000I-250000J0D01*
G01*
G37*
G04 #@! TD.AperFunction*
D10*
X257912000Y-147460000D03*
X257912000Y-144920000D03*
X262992000Y-142380000D03*
X260452000Y-142380000D03*
X257912000Y-142380000D03*
D11*
X262230000Y-107455000D03*
X259690000Y-107455000D03*
X257150000Y-107455000D03*
X254610000Y-107455000D03*
X252070000Y-107455000D03*
X249530000Y-107455000D03*
X246990000Y-107455000D03*
X244450000Y-107455000D03*
D10*
X241910000Y-107455000D03*
D11*
X234290000Y-107455000D03*
X231750000Y-107455000D03*
X229210000Y-107455000D03*
X226670000Y-107455000D03*
X224130000Y-107455000D03*
X221590000Y-107455000D03*
X219050000Y-107455000D03*
X216510000Y-107455000D03*
D10*
X213970000Y-107455000D03*
D11*
X262230000Y-109995000D03*
X259690000Y-109995000D03*
X257150000Y-109995000D03*
X254610000Y-109995000D03*
X252070000Y-109995000D03*
X249530000Y-109995000D03*
X246990000Y-109995000D03*
X244450000Y-109995000D03*
X241910000Y-109995000D03*
X239370000Y-109995000D03*
X236830000Y-109995000D03*
X234290000Y-109995000D03*
X231750000Y-109995000D03*
X229210000Y-109995000D03*
X226670000Y-109995000D03*
X224130000Y-109995000D03*
X221590000Y-109995000D03*
X219050000Y-109995000D03*
X216510000Y-109995000D03*
X213970000Y-109995000D03*
D10*
X211430000Y-109995000D03*
D11*
X262230000Y-103010000D03*
X259690000Y-103010000D03*
X257150000Y-103010000D03*
X254610000Y-103010000D03*
X252070000Y-103010000D03*
X249530000Y-103010000D03*
X246990000Y-103010000D03*
X244450000Y-103010000D03*
X241910000Y-103010000D03*
X239370000Y-103010000D03*
X236830000Y-103010000D03*
X234290000Y-103010000D03*
X231750000Y-103010000D03*
X229210000Y-103010000D03*
X226670000Y-103010000D03*
X224130000Y-103010000D03*
X221590000Y-103010000D03*
X219050000Y-103010000D03*
X216510000Y-103010000D03*
X213970000Y-103010000D03*
X211430000Y-103010000D03*
X208890000Y-103010000D03*
X206350000Y-103010000D03*
D10*
X203810000Y-103010000D03*
X255245000Y-147460000D03*
X252705000Y-147460000D03*
X250165000Y-147460000D03*
X247625000Y-147460000D03*
X255245000Y-144920000D03*
X252705000Y-144920000D03*
X250165000Y-144920000D03*
X247625000Y-144920000D03*
X255245000Y-142380000D03*
X252705000Y-142380000D03*
X250165000Y-142380000D03*
X247625000Y-142380000D03*
X262865000Y-139840000D03*
X260325000Y-139840000D03*
X257785000Y-139840000D03*
X255245000Y-139840000D03*
X252705000Y-139840000D03*
X250165000Y-139840000D03*
X247625000Y-139840000D03*
X262865000Y-137300000D03*
X260325000Y-137300000D03*
X257785000Y-137300000D03*
X255245000Y-137300000D03*
X252705000Y-137300000D03*
X250165000Y-137300000D03*
X247625000Y-137300000D03*
X262865000Y-134760000D03*
X260325000Y-134760000D03*
X257785000Y-134760000D03*
X255245000Y-134760000D03*
X252705000Y-134760000D03*
X250165000Y-134760000D03*
X247625000Y-134760000D03*
X262865000Y-132220000D03*
X260325000Y-132220000D03*
X257785000Y-132220000D03*
X255245000Y-132220000D03*
X252705000Y-132220000D03*
X250165000Y-132220000D03*
X247625000Y-132220000D03*
X262865000Y-129680000D03*
X260325000Y-129680000D03*
X257785000Y-129680000D03*
X255245000Y-129680000D03*
X252705000Y-129680000D03*
X250165000Y-129680000D03*
X247625000Y-129680000D03*
X262865000Y-127140000D03*
X260325000Y-127140000D03*
X257785000Y-127140000D03*
X255245000Y-127140000D03*
X252705000Y-127140000D03*
X250165000Y-127140000D03*
X247625000Y-127140000D03*
X245085000Y-127140000D03*
X242545000Y-127140000D03*
X240005000Y-127140000D03*
X262865000Y-124600000D03*
X260325000Y-124600000D03*
X257785000Y-124600000D03*
X255245000Y-124600000D03*
X252705000Y-124600000D03*
X250165000Y-124600000D03*
X247625000Y-124600000D03*
X245085000Y-124600000D03*
X242545000Y-124600000D03*
X240005000Y-124600000D03*
X262865000Y-122060000D03*
X260325000Y-122060000D03*
X257785000Y-122060000D03*
X255245000Y-122060000D03*
X252705000Y-122060000D03*
X250165000Y-122060000D03*
X247625000Y-122060000D03*
X245085000Y-122060000D03*
X242545000Y-122060000D03*
X240005000Y-122060000D03*
X262865000Y-119520000D03*
X260325000Y-119520000D03*
X257785000Y-119520000D03*
X255245000Y-119520000D03*
X252705000Y-119520000D03*
X250165000Y-119520000D03*
X247625000Y-119520000D03*
X245085000Y-119520000D03*
X242545000Y-119520000D03*
X240005000Y-119520000D03*
X262865000Y-116980000D03*
X260325000Y-116980000D03*
X257785000Y-116980000D03*
X255245000Y-116980000D03*
X252705000Y-116980000D03*
X250165000Y-116980000D03*
X247625000Y-116980000D03*
X245085000Y-116980000D03*
X242545000Y-116980000D03*
X240005000Y-116980000D03*
X262865000Y-114440000D03*
X260325000Y-114440000D03*
X257785000Y-114440000D03*
X255245000Y-114440000D03*
X252705000Y-114440000D03*
X250165000Y-114440000D03*
X247625000Y-114440000D03*
X245085000Y-114440000D03*
X242545000Y-114440000D03*
X240005000Y-114440000D03*
D11*
X240640000Y-136665000D03*
D12*
X240640000Y-134125000D03*
D11*
X201905000Y-136030000D03*
D12*
X201905000Y-133490000D03*
D11*
X256630000Y-96230000D03*
X256630000Y-98770000D03*
X254090000Y-96230000D03*
X254090000Y-98770000D03*
X251550000Y-96230000D03*
X251550000Y-98770000D03*
X249010000Y-96230000D03*
X249010000Y-98770000D03*
X246470000Y-96230000D03*
X246470000Y-98770000D03*
X243930000Y-96230000D03*
X243930000Y-98770000D03*
X241390000Y-96230000D03*
X241390000Y-98770000D03*
X238850000Y-96230000D03*
X238850000Y-98770000D03*
X236310000Y-96230000D03*
X236310000Y-98770000D03*
X233770000Y-96230000D03*
X233770000Y-98770000D03*
X231230000Y-96230000D03*
X231230000Y-98770000D03*
X228690000Y-96230000D03*
X228690000Y-98770000D03*
X226150000Y-96230000D03*
X226150000Y-98770000D03*
X223610000Y-96230000D03*
X223610000Y-98770000D03*
X221070000Y-96230000D03*
X221070000Y-98770000D03*
X218530000Y-96230000D03*
X218530000Y-98770000D03*
X215990000Y-96230000D03*
X215990000Y-98770000D03*
X213450000Y-96230000D03*
X213450000Y-98770000D03*
X210910000Y-96230000D03*
X210910000Y-98770000D03*
X208370000Y-96230000D03*
D12*
X208370000Y-98770000D03*
D13*
X259690000Y-107455000D02*
X262230000Y-107455000D01*
X259690000Y-107455000D02*
X257150000Y-107455000D01*
X257150000Y-107455000D02*
X254610000Y-107455000D01*
X254610000Y-107455000D02*
X252070000Y-107455000D01*
X252070000Y-107455000D02*
X249530000Y-107455000D01*
X249530000Y-107455000D02*
X246990000Y-107455000D01*
X246990000Y-107455000D02*
X243815000Y-107455000D01*
X244450000Y-107455000D02*
X241910000Y-107455000D01*
X230360001Y-100440001D02*
X228690000Y-98770000D01*
X230360001Y-103562001D02*
X230360001Y-100440001D01*
X233102999Y-106304999D02*
X230360001Y-103562001D01*
X240759999Y-106304999D02*
X233102999Y-106304999D01*
X241910000Y-107455000D02*
X240759999Y-106304999D01*
X213657997Y-108605001D02*
X240759999Y-108605001D01*
X240759999Y-108605001D02*
X241910000Y-107455000D01*
X206604000Y-111906000D02*
X211221002Y-111906000D01*
X212580001Y-109682997D02*
X213657997Y-108605001D01*
X212580001Y-110547001D02*
X212580001Y-109682997D01*
X211221002Y-111906000D02*
X212580001Y-110547001D01*
X234290000Y-107455000D02*
X231750000Y-107455000D01*
X231750000Y-107455000D02*
X229210000Y-107455000D01*
X229210000Y-107455000D02*
X226670000Y-107455000D01*
X226670000Y-107455000D02*
X224130000Y-107455000D01*
X224130000Y-107455000D02*
X221590000Y-107455000D01*
X221590000Y-107455000D02*
X219050000Y-107455000D01*
X219050000Y-107455000D02*
X216510000Y-107455000D01*
X216510000Y-107455000D02*
X213970000Y-107455000D01*
X202659999Y-101940001D02*
X208370000Y-96230000D01*
X209759999Y-97619999D02*
X209759999Y-100323999D01*
X208370000Y-96230000D02*
X209759999Y-97619999D01*
X209759999Y-100323999D02*
X206496001Y-100323999D01*
X205199999Y-101620001D02*
X205199999Y-105669999D01*
X206496001Y-100323999D02*
X205199999Y-101620001D01*
X206985000Y-107455000D02*
X213970000Y-107455000D01*
X205199999Y-105669999D02*
X206985000Y-107455000D01*
X202794000Y-110252000D02*
X202918000Y-110252000D01*
X202918000Y-110252000D02*
X204572000Y-108598000D01*
X204572000Y-108598000D02*
X204572000Y-106566000D01*
X202659999Y-104653999D02*
X202659999Y-101940001D01*
X204572000Y-106566000D02*
X202659999Y-104653999D01*
X211277500Y-109842500D02*
X211430000Y-109995000D01*
X219050000Y-109995000D02*
X221590000Y-109995000D01*
X221590000Y-109995000D02*
X224130000Y-109995000D01*
X224130000Y-109995000D02*
X226670000Y-109995000D01*
X226670000Y-109995000D02*
X229210000Y-109995000D01*
X229210000Y-109995000D02*
X231750000Y-109995000D01*
X231750000Y-109995000D02*
X234290000Y-109995000D01*
X239370000Y-109995000D02*
X241910000Y-109995000D01*
X241910000Y-109995000D02*
X244450000Y-109995000D01*
X244450000Y-109995000D02*
X246990000Y-109995000D01*
X246990000Y-109995000D02*
X249530000Y-109995000D01*
X249530000Y-109995000D02*
X252070000Y-109995000D01*
X252070000Y-109995000D02*
X254610000Y-109995000D01*
X254610000Y-109995000D02*
X257150000Y-109995000D01*
X257150000Y-109995000D02*
X259690000Y-109995000D01*
X259690000Y-109995000D02*
X262230000Y-109995000D01*
X216510000Y-109995000D02*
X219050000Y-109995000D01*
X213970000Y-109995000D02*
X216510000Y-109995000D01*
X237592000Y-110757000D02*
X236830000Y-109995000D01*
X236830000Y-109995000D02*
X239370000Y-109995000D01*
X234290000Y-109995000D02*
X236830000Y-109995000D01*
X240640000Y-136665000D02*
X238608000Y-134633000D01*
X238608000Y-111773000D02*
X236830000Y-109995000D01*
X238608000Y-134633000D02*
X238608000Y-111773000D01*
X210541000Y-109106000D02*
X211430000Y-109995000D01*
X206604000Y-109106000D02*
X210541000Y-109106000D01*
X202794000Y-107452000D02*
X202670000Y-107452000D01*
X201270000Y-108852000D02*
X201270000Y-111646000D01*
X203556000Y-112154000D02*
X206604000Y-109106000D01*
X201778000Y-112154000D02*
X203556000Y-112154000D01*
X201270000Y-111646000D02*
X201778000Y-112154000D01*
X202670000Y-107452000D02*
X201270000Y-108852000D01*
X201016000Y-105674000D02*
X202794000Y-107452000D01*
X201016000Y-102426002D02*
X201016000Y-105674000D01*
X201956002Y-101486000D02*
X201016000Y-102426002D01*
X202326002Y-101486000D02*
X201956002Y-101486000D01*
X207219999Y-96592003D02*
X202326002Y-101486000D01*
X207219999Y-95677999D02*
X207219999Y-96592003D01*
X207817999Y-95079999D02*
X207219999Y-95677999D01*
X212299999Y-95079999D02*
X207817999Y-95079999D01*
X213450000Y-96230000D02*
X212299999Y-95079999D01*
X257179999Y-101859999D02*
X254090000Y-98770000D01*
X261079999Y-101859999D02*
X257179999Y-101859999D01*
X262230000Y-103010000D02*
X261079999Y-101859999D01*
X217140001Y-97619999D02*
X218530000Y-96230000D01*
X215437999Y-97619999D02*
X217140001Y-97619999D01*
X214600001Y-98457997D02*
X215437999Y-97619999D01*
X214600001Y-99839999D02*
X214600001Y-98457997D01*
X211430000Y-103010000D02*
X214600001Y-99839999D01*
X206350000Y-103010000D02*
X208128000Y-104788000D01*
X217899999Y-103322003D02*
X217899999Y-101874001D01*
X216434002Y-104788000D02*
X217899999Y-103322003D01*
X208128000Y-104788000D02*
X216434002Y-104788000D01*
X217899999Y-101874001D02*
X219050000Y-100724000D01*
X221656000Y-100724000D02*
X223610000Y-98770000D01*
X219050000Y-100724000D02*
X221656000Y-100724000D01*
X220200001Y-101859999D02*
X223060001Y-101859999D01*
X223060001Y-101859999D02*
X226150000Y-98770000D01*
X219050000Y-103010000D02*
X220200001Y-101859999D01*
X208370000Y-98770000D02*
X207739999Y-99400001D01*
D14*
G36*
X207423368Y-95076525D02*
G01*
X207216525Y-95283368D01*
X207054010Y-95526589D01*
X206942068Y-95796842D01*
X206885000Y-96083740D01*
X206885000Y-96376260D01*
X206934656Y-96625897D01*
X205708822Y-97851731D01*
X205735000Y-97720128D01*
X205735000Y-97279872D01*
X205649110Y-96848075D01*
X205480631Y-96441331D01*
X205236038Y-96075271D01*
X204924729Y-95763962D01*
X204558669Y-95519369D01*
X204151925Y-95350890D01*
X203720128Y-95265000D01*
X203279872Y-95265000D01*
X202848075Y-95350890D01*
X202441331Y-95519369D01*
X202075271Y-95763962D01*
X201763962Y-96075271D01*
X201519369Y-96441331D01*
X201350890Y-96848075D01*
X201265000Y-97279872D01*
X201265000Y-97720128D01*
X201350890Y-98151925D01*
X201519369Y-98558669D01*
X201763962Y-98924729D01*
X202075271Y-99236038D01*
X202441331Y-99480631D01*
X202848075Y-99649110D01*
X203279872Y-99735000D01*
X203720128Y-99735000D01*
X203851731Y-99708822D01*
X202165807Y-101394747D01*
X202137762Y-101417763D01*
X202045913Y-101529681D01*
X202020425Y-101577366D01*
X201977663Y-101657368D01*
X201935634Y-101795916D01*
X201921443Y-101940001D01*
X201925000Y-101976116D01*
X201924999Y-104617894D01*
X201921443Y-104653999D01*
X201924999Y-104690103D01*
X201935634Y-104798083D01*
X201977662Y-104936631D01*
X202045912Y-105064318D01*
X202137761Y-105176236D01*
X202165807Y-105199253D01*
X203158145Y-106191591D01*
X203079750Y-106192000D01*
X202921000Y-106350750D01*
X202921000Y-107325000D01*
X202941000Y-107325000D01*
X202941000Y-107579000D01*
X202921000Y-107579000D01*
X202921000Y-108553250D01*
X203079750Y-108712000D01*
X203416796Y-108713757D01*
X203141626Y-108988928D01*
X202169000Y-108988928D01*
X201995746Y-109005992D01*
X201829150Y-109056528D01*
X201675614Y-109138595D01*
X201541038Y-109249038D01*
X201430595Y-109383614D01*
X201348528Y-109537150D01*
X201297992Y-109703746D01*
X201280928Y-109877000D01*
X201280928Y-110627000D01*
X201297992Y-110800254D01*
X201348528Y-110966850D01*
X201430595Y-111120386D01*
X201541038Y-111254962D01*
X201675614Y-111365405D01*
X201829150Y-111447472D01*
X201995746Y-111498008D01*
X202169000Y-111515072D01*
X203419000Y-111515072D01*
X203592254Y-111498008D01*
X203758850Y-111447472D01*
X203912386Y-111365405D01*
X204046962Y-111254962D01*
X204157405Y-111120386D01*
X204239472Y-110966850D01*
X204290008Y-110800254D01*
X204307072Y-110627000D01*
X204307072Y-109902375D01*
X205066197Y-109143250D01*
X205094000Y-109120433D01*
X205094000Y-109233002D01*
X205252748Y-109233002D01*
X205094000Y-109391750D01*
X205090928Y-109731000D01*
X205103188Y-109855482D01*
X205139498Y-109975180D01*
X205198463Y-110085494D01*
X205277815Y-110182185D01*
X205374506Y-110261537D01*
X205484820Y-110320502D01*
X205604518Y-110356812D01*
X205729000Y-110369072D01*
X206318250Y-110366000D01*
X206477000Y-110207250D01*
X206477000Y-109233000D01*
X206731000Y-109233000D01*
X206731000Y-110207250D01*
X206889750Y-110366000D01*
X207479000Y-110369072D01*
X207603482Y-110356812D01*
X207723180Y-110320502D01*
X207833494Y-110261537D01*
X207930185Y-110182185D01*
X208009537Y-110085494D01*
X208021276Y-110063531D01*
X209939389Y-110063531D01*
X209981401Y-110353019D01*
X210079081Y-110628747D01*
X210152528Y-110766157D01*
X210401603Y-110843792D01*
X211250395Y-109995000D01*
X210401603Y-109146208D01*
X210152528Y-109223843D01*
X210026629Y-109487883D01*
X209954661Y-109771411D01*
X209939389Y-110063531D01*
X208021276Y-110063531D01*
X208068502Y-109975180D01*
X208104812Y-109855482D01*
X208117072Y-109731000D01*
X208114000Y-109391750D01*
X207955250Y-109233000D01*
X206731000Y-109233000D01*
X206477000Y-109233000D01*
X206457000Y-109233000D01*
X206457000Y-108979000D01*
X206477000Y-108979000D01*
X206477000Y-108959000D01*
X206731000Y-108959000D01*
X206731000Y-108979000D01*
X207955250Y-108979000D01*
X208114000Y-108820250D01*
X208117072Y-108481000D01*
X208104812Y-108356518D01*
X208068502Y-108236820D01*
X208043476Y-108190000D01*
X212675117Y-108190000D01*
X212816525Y-108401632D01*
X212819222Y-108404329D01*
X212273601Y-108949950D01*
X212201157Y-108717528D01*
X211937117Y-108591629D01*
X211653589Y-108519661D01*
X211361469Y-108504389D01*
X211071981Y-108546401D01*
X210796253Y-108644081D01*
X210658843Y-108717528D01*
X210581208Y-108966603D01*
X211430000Y-109815395D01*
X211444143Y-109801253D01*
X211623748Y-109980858D01*
X211609605Y-109995000D01*
X211623748Y-110009143D01*
X211444143Y-110188748D01*
X211430000Y-110174605D01*
X210581208Y-111023397D01*
X210627215Y-111171000D01*
X208038702Y-111171000D01*
X207967405Y-111037614D01*
X207856962Y-110903038D01*
X207722386Y-110792595D01*
X207568850Y-110710528D01*
X207402254Y-110659992D01*
X207229000Y-110642928D01*
X205979000Y-110642928D01*
X205805746Y-110659992D01*
X205639150Y-110710528D01*
X205485614Y-110792595D01*
X205351038Y-110903038D01*
X205240595Y-111037614D01*
X205158528Y-111191150D01*
X205107992Y-111357746D01*
X205090928Y-111531000D01*
X205090928Y-112281000D01*
X205107992Y-112454254D01*
X205158528Y-112620850D01*
X205240595Y-112774386D01*
X205351038Y-112908962D01*
X205485614Y-113019405D01*
X205639150Y-113101472D01*
X205805746Y-113152008D01*
X205979000Y-113169072D01*
X207229000Y-113169072D01*
X207402254Y-113152008D01*
X207568850Y-113101472D01*
X207722386Y-113019405D01*
X207856962Y-112908962D01*
X207967405Y-112774386D01*
X208038702Y-112641000D01*
X211184897Y-112641000D01*
X211221002Y-112644556D01*
X211257107Y-112641000D01*
X211365087Y-112630365D01*
X211503635Y-112588337D01*
X211631322Y-112520087D01*
X211743240Y-112428238D01*
X211766260Y-112400188D01*
X213029374Y-111137075D01*
X213203080Y-111266641D01*
X213465901Y-111391825D01*
X213613110Y-111436476D01*
X213843000Y-111315155D01*
X213843000Y-110122000D01*
X214097000Y-110122000D01*
X214097000Y-111315155D01*
X214326890Y-111436476D01*
X214474099Y-111391825D01*
X214736920Y-111266641D01*
X214970269Y-111092588D01*
X215165178Y-110876355D01*
X215240000Y-110750745D01*
X215314822Y-110876355D01*
X215509731Y-111092588D01*
X215743080Y-111266641D01*
X216005901Y-111391825D01*
X216153110Y-111436476D01*
X216383000Y-111315155D01*
X216383000Y-110122000D01*
X216637000Y-110122000D01*
X216637000Y-111315155D01*
X216866890Y-111436476D01*
X217014099Y-111391825D01*
X217276920Y-111266641D01*
X217510269Y-111092588D01*
X217705178Y-110876355D01*
X217780000Y-110750745D01*
X217854822Y-110876355D01*
X218049731Y-111092588D01*
X218283080Y-111266641D01*
X218545901Y-111391825D01*
X218693110Y-111436476D01*
X218923000Y-111315155D01*
X218923000Y-110122000D01*
X219177000Y-110122000D01*
X219177000Y-111315155D01*
X219406890Y-111436476D01*
X219554099Y-111391825D01*
X219816920Y-111266641D01*
X220050269Y-111092588D01*
X220245178Y-110876355D01*
X220320000Y-110750745D01*
X220394822Y-110876355D01*
X220589731Y-111092588D01*
X220823080Y-111266641D01*
X221085901Y-111391825D01*
X221233110Y-111436476D01*
X221463000Y-111315155D01*
X221463000Y-110122000D01*
X221717000Y-110122000D01*
X221717000Y-111315155D01*
X221946890Y-111436476D01*
X222094099Y-111391825D01*
X222356920Y-111266641D01*
X222590269Y-111092588D01*
X222785178Y-110876355D01*
X222860000Y-110750745D01*
X222934822Y-110876355D01*
X223129731Y-111092588D01*
X223363080Y-111266641D01*
X223625901Y-111391825D01*
X223773110Y-111436476D01*
X224003000Y-111315155D01*
X224003000Y-110122000D01*
X224257000Y-110122000D01*
X224257000Y-111315155D01*
X224486890Y-111436476D01*
X224634099Y-111391825D01*
X224896920Y-111266641D01*
X225130269Y-111092588D01*
X225325178Y-110876355D01*
X225400000Y-110750745D01*
X225474822Y-110876355D01*
X225669731Y-111092588D01*
X225903080Y-111266641D01*
X226165901Y-111391825D01*
X226313110Y-111436476D01*
X226543000Y-111315155D01*
X226543000Y-110122000D01*
X226797000Y-110122000D01*
X226797000Y-111315155D01*
X227026890Y-111436476D01*
X227174099Y-111391825D01*
X227436920Y-111266641D01*
X227670269Y-111092588D01*
X227865178Y-110876355D01*
X227940000Y-110750745D01*
X228014822Y-110876355D01*
X228209731Y-111092588D01*
X228443080Y-111266641D01*
X228705901Y-111391825D01*
X228853110Y-111436476D01*
X229083000Y-111315155D01*
X229083000Y-110122000D01*
X229337000Y-110122000D01*
X229337000Y-111315155D01*
X229566890Y-111436476D01*
X229714099Y-111391825D01*
X229976920Y-111266641D01*
X230210269Y-111092588D01*
X230405178Y-110876355D01*
X230480000Y-110750745D01*
X230554822Y-110876355D01*
X230749731Y-111092588D01*
X230983080Y-111266641D01*
X231245901Y-111391825D01*
X231393110Y-111436476D01*
X231623000Y-111315155D01*
X231623000Y-110122000D01*
X231877000Y-110122000D01*
X231877000Y-111315155D01*
X232106890Y-111436476D01*
X232254099Y-111391825D01*
X232516920Y-111266641D01*
X232750269Y-111092588D01*
X232945178Y-110876355D01*
X233020000Y-110750745D01*
X233094822Y-110876355D01*
X233289731Y-111092588D01*
X233523080Y-111266641D01*
X233785901Y-111391825D01*
X233933110Y-111436476D01*
X234163000Y-111315155D01*
X234163000Y-110122000D01*
X234417000Y-110122000D01*
X234417000Y-111315155D01*
X234646890Y-111436476D01*
X234794099Y-111391825D01*
X235056920Y-111266641D01*
X235290269Y-111092588D01*
X235485178Y-110876355D01*
X235560000Y-110750745D01*
X235634822Y-110876355D01*
X235829731Y-111092588D01*
X236063080Y-111266641D01*
X236325901Y-111391825D01*
X236473110Y-111436476D01*
X236703000Y-111315155D01*
X236703000Y-110122000D01*
X236957000Y-110122000D01*
X236957000Y-111315155D01*
X237186890Y-111436476D01*
X237334099Y-111391825D01*
X237596920Y-111266641D01*
X237830269Y-111092588D01*
X238025178Y-110876355D01*
X238100000Y-110750745D01*
X238174822Y-110876355D01*
X238369731Y-111092588D01*
X238603080Y-111266641D01*
X238865901Y-111391825D01*
X239013110Y-111436476D01*
X239243000Y-111315155D01*
X239243000Y-110122000D01*
X239497000Y-110122000D01*
X239497000Y-111315155D01*
X239726890Y-111436476D01*
X239874099Y-111391825D01*
X240136920Y-111266641D01*
X240370269Y-111092588D01*
X240565178Y-110876355D01*
X240640000Y-110750745D01*
X240714822Y-110876355D01*
X240909731Y-111092588D01*
X241143080Y-111266641D01*
X241405901Y-111391825D01*
X241553110Y-111436476D01*
X241783000Y-111315155D01*
X241783000Y-110122000D01*
X242037000Y-110122000D01*
X242037000Y-111315155D01*
X242266890Y-111436476D01*
X242414099Y-111391825D01*
X242676920Y-111266641D01*
X242910269Y-111092588D01*
X243105178Y-110876355D01*
X243180000Y-110750745D01*
X243254822Y-110876355D01*
X243449731Y-111092588D01*
X243683080Y-111266641D01*
X243945901Y-111391825D01*
X244093110Y-111436476D01*
X244323000Y-111315155D01*
X244323000Y-110122000D01*
X244577000Y-110122000D01*
X244577000Y-111315155D01*
X244806890Y-111436476D01*
X244954099Y-111391825D01*
X245216920Y-111266641D01*
X245450269Y-111092588D01*
X245645178Y-110876355D01*
X245720000Y-110750745D01*
X245794822Y-110876355D01*
X245989731Y-111092588D01*
X246223080Y-111266641D01*
X246485901Y-111391825D01*
X246633110Y-111436476D01*
X246863000Y-111315155D01*
X246863000Y-110122000D01*
X247117000Y-110122000D01*
X247117000Y-111315155D01*
X247346890Y-111436476D01*
X247494099Y-111391825D01*
X247756920Y-111266641D01*
X247990269Y-111092588D01*
X248185178Y-110876355D01*
X248260000Y-110750745D01*
X248334822Y-110876355D01*
X248529731Y-111092588D01*
X248763080Y-111266641D01*
X249025901Y-111391825D01*
X249173110Y-111436476D01*
X249403000Y-111315155D01*
X249403000Y-110122000D01*
X249657000Y-110122000D01*
X249657000Y-111315155D01*
X249886890Y-111436476D01*
X250034099Y-111391825D01*
X250296920Y-111266641D01*
X250530269Y-111092588D01*
X250725178Y-110876355D01*
X250800000Y-110750745D01*
X250874822Y-110876355D01*
X251069731Y-111092588D01*
X251303080Y-111266641D01*
X251565901Y-111391825D01*
X251713110Y-111436476D01*
X251943000Y-111315155D01*
X251943000Y-110122000D01*
X252197000Y-110122000D01*
X252197000Y-111315155D01*
X252426890Y-111436476D01*
X252574099Y-111391825D01*
X252836920Y-111266641D01*
X253070269Y-111092588D01*
X253265178Y-110876355D01*
X253340000Y-110750745D01*
X253414822Y-110876355D01*
X253609731Y-111092588D01*
X253843080Y-111266641D01*
X254105901Y-111391825D01*
X254253110Y-111436476D01*
X254483000Y-111315155D01*
X254483000Y-110122000D01*
X254737000Y-110122000D01*
X254737000Y-111315155D01*
X254966890Y-111436476D01*
X255114099Y-111391825D01*
X255376920Y-111266641D01*
X255610269Y-111092588D01*
X255805178Y-110876355D01*
X255880000Y-110750745D01*
X255954822Y-110876355D01*
X256149731Y-111092588D01*
X256383080Y-111266641D01*
X256645901Y-111391825D01*
X256793110Y-111436476D01*
X257023000Y-111315155D01*
X257023000Y-110122000D01*
X257277000Y-110122000D01*
X257277000Y-111315155D01*
X257506890Y-111436476D01*
X257654099Y-111391825D01*
X257916920Y-111266641D01*
X258150269Y-111092588D01*
X258345178Y-110876355D01*
X258420000Y-110750745D01*
X258494822Y-110876355D01*
X258689731Y-111092588D01*
X258923080Y-111266641D01*
X259185901Y-111391825D01*
X259333110Y-111436476D01*
X259563000Y-111315155D01*
X259563000Y-110122000D01*
X259817000Y-110122000D01*
X259817000Y-111315155D01*
X260046890Y-111436476D01*
X260194099Y-111391825D01*
X260456920Y-111266641D01*
X260690269Y-111092588D01*
X260885178Y-110876355D01*
X260960000Y-110750745D01*
X261034822Y-110876355D01*
X261229731Y-111092588D01*
X261463080Y-111266641D01*
X261725901Y-111391825D01*
X261873110Y-111436476D01*
X262103000Y-111315155D01*
X262103000Y-110122000D01*
X262357000Y-110122000D01*
X262357000Y-111315155D01*
X262586890Y-111436476D01*
X262734099Y-111391825D01*
X262996920Y-111266641D01*
X263230269Y-111092588D01*
X263425178Y-110876355D01*
X263574157Y-110626252D01*
X263671481Y-110351891D01*
X263550814Y-110122000D01*
X262357000Y-110122000D01*
X262103000Y-110122000D01*
X259817000Y-110122000D01*
X259563000Y-110122000D01*
X257277000Y-110122000D01*
X257023000Y-110122000D01*
X254737000Y-110122000D01*
X254483000Y-110122000D01*
X252197000Y-110122000D01*
X251943000Y-110122000D01*
X249657000Y-110122000D01*
X249403000Y-110122000D01*
X247117000Y-110122000D01*
X246863000Y-110122000D01*
X244577000Y-110122000D01*
X244323000Y-110122000D01*
X242037000Y-110122000D01*
X241783000Y-110122000D01*
X239497000Y-110122000D01*
X239243000Y-110122000D01*
X236957000Y-110122000D01*
X236703000Y-110122000D01*
X234417000Y-110122000D01*
X234163000Y-110122000D01*
X231877000Y-110122000D01*
X231623000Y-110122000D01*
X229337000Y-110122000D01*
X229083000Y-110122000D01*
X226797000Y-110122000D01*
X226543000Y-110122000D01*
X224257000Y-110122000D01*
X224003000Y-110122000D01*
X221717000Y-110122000D01*
X221463000Y-110122000D01*
X219177000Y-110122000D01*
X218923000Y-110122000D01*
X216637000Y-110122000D01*
X216383000Y-110122000D01*
X214097000Y-110122000D01*
X213843000Y-110122000D01*
X213823000Y-110122000D01*
X213823000Y-109868000D01*
X213843000Y-109868000D01*
X213843000Y-109848000D01*
X214097000Y-109848000D01*
X214097000Y-109868000D01*
X216383000Y-109868000D01*
X216383000Y-109848000D01*
X216637000Y-109848000D01*
X216637000Y-109868000D01*
X218923000Y-109868000D01*
X218923000Y-109848000D01*
X219177000Y-109848000D01*
X219177000Y-109868000D01*
X221463000Y-109868000D01*
X221463000Y-109848000D01*
X221717000Y-109848000D01*
X221717000Y-109868000D01*
X224003000Y-109868000D01*
X224003000Y-109848000D01*
X224257000Y-109848000D01*
X224257000Y-109868000D01*
X226543000Y-109868000D01*
X226543000Y-109848000D01*
X226797000Y-109848000D01*
X226797000Y-109868000D01*
X229083000Y-109868000D01*
X229083000Y-109848000D01*
X229337000Y-109848000D01*
X229337000Y-109868000D01*
X231623000Y-109868000D01*
X231623000Y-109848000D01*
X231877000Y-109848000D01*
X231877000Y-109868000D01*
X234163000Y-109868000D01*
X234163000Y-109848000D01*
X234417000Y-109848000D01*
X234417000Y-109868000D01*
X236703000Y-109868000D01*
X236703000Y-109848000D01*
X236957000Y-109848000D01*
X236957000Y-109868000D01*
X239243000Y-109868000D01*
X239243000Y-109848000D01*
X239497000Y-109848000D01*
X239497000Y-109868000D01*
X241783000Y-109868000D01*
X241783000Y-109848000D01*
X242037000Y-109848000D01*
X242037000Y-109868000D01*
X244323000Y-109868000D01*
X244323000Y-109848000D01*
X244577000Y-109848000D01*
X244577000Y-109868000D01*
X246863000Y-109868000D01*
X246863000Y-109848000D01*
X247117000Y-109848000D01*
X247117000Y-109868000D01*
X249403000Y-109868000D01*
X249403000Y-109848000D01*
X249657000Y-109848000D01*
X249657000Y-109868000D01*
X251943000Y-109868000D01*
X251943000Y-109848000D01*
X252197000Y-109848000D01*
X252197000Y-109868000D01*
X254483000Y-109868000D01*
X254483000Y-109848000D01*
X254737000Y-109848000D01*
X254737000Y-109868000D01*
X257023000Y-109868000D01*
X257023000Y-109848000D01*
X257277000Y-109848000D01*
X257277000Y-109868000D01*
X259563000Y-109868000D01*
X259563000Y-109848000D01*
X259817000Y-109848000D01*
X259817000Y-109868000D01*
X262103000Y-109868000D01*
X262103000Y-109848000D01*
X262357000Y-109848000D01*
X262357000Y-109868000D01*
X263550814Y-109868000D01*
X263671481Y-109638109D01*
X263574157Y-109363748D01*
X263425178Y-109113645D01*
X263230269Y-108897412D01*
X263000594Y-108726100D01*
X263176632Y-108608475D01*
X263383475Y-108401632D01*
X263545990Y-108158411D01*
X263657932Y-107888158D01*
X263715000Y-107601260D01*
X263715000Y-107308740D01*
X263657932Y-107021842D01*
X263545990Y-106751589D01*
X263383475Y-106508368D01*
X263176632Y-106301525D01*
X262933411Y-106139010D01*
X262663158Y-106027068D01*
X262376260Y-105970000D01*
X262083740Y-105970000D01*
X261796842Y-106027068D01*
X261526589Y-106139010D01*
X261283368Y-106301525D01*
X261076525Y-106508368D01*
X260960000Y-106682760D01*
X260843475Y-106508368D01*
X260636632Y-106301525D01*
X260393411Y-106139010D01*
X260123158Y-106027068D01*
X259836260Y-105970000D01*
X259543740Y-105970000D01*
X259256842Y-106027068D01*
X258986589Y-106139010D01*
X258743368Y-106301525D01*
X258536525Y-106508368D01*
X258420000Y-106682760D01*
X258303475Y-106508368D01*
X258096632Y-106301525D01*
X257853411Y-106139010D01*
X257583158Y-106027068D01*
X257296260Y-105970000D01*
X257003740Y-105970000D01*
X256716842Y-106027068D01*
X256446589Y-106139010D01*
X256203368Y-106301525D01*
X255996525Y-106508368D01*
X255880000Y-106682760D01*
X255763475Y-106508368D01*
X255556632Y-106301525D01*
X255313411Y-106139010D01*
X255043158Y-106027068D01*
X254756260Y-105970000D01*
X254463740Y-105970000D01*
X254176842Y-106027068D01*
X253906589Y-106139010D01*
X253663368Y-106301525D01*
X253456525Y-106508368D01*
X253340000Y-106682760D01*
X253223475Y-106508368D01*
X253016632Y-106301525D01*
X252773411Y-106139010D01*
X252503158Y-106027068D01*
X252216260Y-105970000D01*
X251923740Y-105970000D01*
X251636842Y-106027068D01*
X251366589Y-106139010D01*
X251123368Y-106301525D01*
X250916525Y-106508368D01*
X250800000Y-106682760D01*
X250683475Y-106508368D01*
X250476632Y-106301525D01*
X250233411Y-106139010D01*
X249963158Y-106027068D01*
X249676260Y-105970000D01*
X249383740Y-105970000D01*
X249096842Y-106027068D01*
X248826589Y-106139010D01*
X248583368Y-106301525D01*
X248376525Y-106508368D01*
X248260000Y-106682760D01*
X248143475Y-106508368D01*
X247936632Y-106301525D01*
X247693411Y-106139010D01*
X247423158Y-106027068D01*
X247136260Y-105970000D01*
X246843740Y-105970000D01*
X246556842Y-106027068D01*
X246286589Y-106139010D01*
X246043368Y-106301525D01*
X245836525Y-106508368D01*
X245720000Y-106682760D01*
X245603475Y-106508368D01*
X245396632Y-106301525D01*
X245153411Y-106139010D01*
X244883158Y-106027068D01*
X244596260Y-105970000D01*
X244303740Y-105970000D01*
X244016842Y-106027068D01*
X243746589Y-106139010D01*
X243503368Y-106301525D01*
X243296525Y-106508368D01*
X243180000Y-106682760D01*
X243063475Y-106508368D01*
X242856632Y-106301525D01*
X242613411Y-106139010D01*
X242343158Y-106027068D01*
X242056260Y-105970000D01*
X241763740Y-105970000D01*
X241514103Y-106019656D01*
X241305257Y-105810811D01*
X241282237Y-105782761D01*
X241170319Y-105690912D01*
X241042632Y-105622662D01*
X240904084Y-105580634D01*
X240796104Y-105569999D01*
X240759999Y-105566443D01*
X240723894Y-105569999D01*
X233407446Y-105569999D01*
X232248368Y-104410921D01*
X232453411Y-104325990D01*
X232696632Y-104163475D01*
X232903475Y-103956632D01*
X233020000Y-103782240D01*
X233136525Y-103956632D01*
X233343368Y-104163475D01*
X233586589Y-104325990D01*
X233856842Y-104437932D01*
X234143740Y-104495000D01*
X234436260Y-104495000D01*
X234723158Y-104437932D01*
X234993411Y-104325990D01*
X235236632Y-104163475D01*
X235443475Y-103956632D01*
X235560000Y-103782240D01*
X235676525Y-103956632D01*
X235883368Y-104163475D01*
X236126589Y-104325990D01*
X236396842Y-104437932D01*
X236683740Y-104495000D01*
X236976260Y-104495000D01*
X237263158Y-104437932D01*
X237533411Y-104325990D01*
X237776632Y-104163475D01*
X237983475Y-103956632D01*
X238100000Y-103782240D01*
X238216525Y-103956632D01*
X238423368Y-104163475D01*
X238666589Y-104325990D01*
X238936842Y-104437932D01*
X239223740Y-104495000D01*
X239516260Y-104495000D01*
X239803158Y-104437932D01*
X240073411Y-104325990D01*
X240316632Y-104163475D01*
X240523475Y-103956632D01*
X240640000Y-103782240D01*
X240756525Y-103956632D01*
X240963368Y-104163475D01*
X241206589Y-104325990D01*
X241476842Y-104437932D01*
X241763740Y-104495000D01*
X242056260Y-104495000D01*
X242343158Y-104437932D01*
X242613411Y-104325990D01*
X242856632Y-104163475D01*
X243063475Y-103956632D01*
X243180000Y-103782240D01*
X243296525Y-103956632D01*
X243503368Y-104163475D01*
X243746589Y-104325990D01*
X244016842Y-104437932D01*
X244303740Y-104495000D01*
X244596260Y-104495000D01*
X244883158Y-104437932D01*
X245153411Y-104325990D01*
X245396632Y-104163475D01*
X245603475Y-103956632D01*
X245720000Y-103782240D01*
X245836525Y-103956632D01*
X246043368Y-104163475D01*
X246286589Y-104325990D01*
X246556842Y-104437932D01*
X246843740Y-104495000D01*
X247136260Y-104495000D01*
X247423158Y-104437932D01*
X247693411Y-104325990D01*
X247936632Y-104163475D01*
X248143475Y-103956632D01*
X248260000Y-103782240D01*
X248376525Y-103956632D01*
X248583368Y-104163475D01*
X248826589Y-104325990D01*
X249096842Y-104437932D01*
X249383740Y-104495000D01*
X249676260Y-104495000D01*
X249963158Y-104437932D01*
X250233411Y-104325990D01*
X250476632Y-104163475D01*
X250683475Y-103956632D01*
X250800000Y-103782240D01*
X250916525Y-103956632D01*
X251123368Y-104163475D01*
X251366589Y-104325990D01*
X251636842Y-104437932D01*
X251923740Y-104495000D01*
X252216260Y-104495000D01*
X252503158Y-104437932D01*
X252773411Y-104325990D01*
X253016632Y-104163475D01*
X253223475Y-103956632D01*
X253340000Y-103782240D01*
X253456525Y-103956632D01*
X253663368Y-104163475D01*
X253906589Y-104325990D01*
X254176842Y-104437932D01*
X254463740Y-104495000D01*
X254756260Y-104495000D01*
X255043158Y-104437932D01*
X255313411Y-104325990D01*
X255556632Y-104163475D01*
X255763475Y-103956632D01*
X255880000Y-103782240D01*
X255996525Y-103956632D01*
X256203368Y-104163475D01*
X256446589Y-104325990D01*
X256716842Y-104437932D01*
X257003740Y-104495000D01*
X257296260Y-104495000D01*
X257583158Y-104437932D01*
X257853411Y-104325990D01*
X258096632Y-104163475D01*
X258303475Y-103956632D01*
X258420000Y-103782240D01*
X258536525Y-103956632D01*
X258743368Y-104163475D01*
X258986589Y-104325990D01*
X259256842Y-104437932D01*
X259543740Y-104495000D01*
X259836260Y-104495000D01*
X260123158Y-104437932D01*
X260393411Y-104325990D01*
X260636632Y-104163475D01*
X260843475Y-103956632D01*
X260960000Y-103782240D01*
X261076525Y-103956632D01*
X261283368Y-104163475D01*
X261526589Y-104325990D01*
X261796842Y-104437932D01*
X262083740Y-104495000D01*
X262376260Y-104495000D01*
X262663158Y-104437932D01*
X262933411Y-104325990D01*
X263176632Y-104163475D01*
X263383475Y-103956632D01*
X263545990Y-103713411D01*
X263657932Y-103443158D01*
X263715000Y-103156260D01*
X263715000Y-102863740D01*
X263657932Y-102576842D01*
X263545990Y-102306589D01*
X263383475Y-102063368D01*
X263176632Y-101856525D01*
X262933411Y-101694010D01*
X262663158Y-101582068D01*
X262376260Y-101525000D01*
X262083740Y-101525000D01*
X261834103Y-101574656D01*
X261625257Y-101365811D01*
X261602237Y-101337761D01*
X261490319Y-101245912D01*
X261362632Y-101177662D01*
X261224084Y-101135634D01*
X261116104Y-101124999D01*
X261079999Y-101121443D01*
X261043894Y-101124999D01*
X257484446Y-101124999D01*
X256614447Y-100255000D01*
X256776260Y-100255000D01*
X257063158Y-100197932D01*
X257333411Y-100085990D01*
X257576632Y-99923475D01*
X257783475Y-99716632D01*
X257945990Y-99473411D01*
X258057932Y-99203158D01*
X258115000Y-98916260D01*
X258115000Y-98623740D01*
X258057932Y-98336842D01*
X257945990Y-98066589D01*
X257783475Y-97823368D01*
X257576632Y-97616525D01*
X257402240Y-97500000D01*
X257576632Y-97383475D01*
X257680235Y-97279872D01*
X259265000Y-97279872D01*
X259265000Y-97720128D01*
X259350890Y-98151925D01*
X259519369Y-98558669D01*
X259763962Y-98924729D01*
X260075271Y-99236038D01*
X260441331Y-99480631D01*
X260848075Y-99649110D01*
X261279872Y-99735000D01*
X261720128Y-99735000D01*
X262151925Y-99649110D01*
X262558669Y-99480631D01*
X262924729Y-99236038D01*
X263236038Y-98924729D01*
X263480631Y-98558669D01*
X263649110Y-98151925D01*
X263735000Y-97720128D01*
X263735000Y-97279872D01*
X263649110Y-96848075D01*
X263480631Y-96441331D01*
X263236038Y-96075271D01*
X262924729Y-95763962D01*
X262558669Y-95519369D01*
X262151925Y-95350890D01*
X261720128Y-95265000D01*
X261279872Y-95265000D01*
X260848075Y-95350890D01*
X260441331Y-95519369D01*
X260075271Y-95763962D01*
X259763962Y-96075271D01*
X259519369Y-96441331D01*
X259350890Y-96848075D01*
X259265000Y-97279872D01*
X257680235Y-97279872D01*
X257783475Y-97176632D01*
X257945990Y-96933411D01*
X258057932Y-96663158D01*
X258115000Y-96376260D01*
X258115000Y-96083740D01*
X258057932Y-95796842D01*
X257945990Y-95526589D01*
X257783475Y-95283368D01*
X257576632Y-95076525D01*
X257475574Y-95009000D01*
X263156053Y-95009000D01*
X263279285Y-95074524D01*
X263628914Y-95359675D01*
X263881000Y-95664395D01*
X263881000Y-113355893D01*
X263811632Y-113286525D01*
X263568411Y-113124010D01*
X263298158Y-113012068D01*
X263011260Y-112955000D01*
X262718740Y-112955000D01*
X262431842Y-113012068D01*
X262161589Y-113124010D01*
X261918368Y-113286525D01*
X261711525Y-113493368D01*
X261595000Y-113667760D01*
X261478475Y-113493368D01*
X261271632Y-113286525D01*
X261028411Y-113124010D01*
X260758158Y-113012068D01*
X260471260Y-112955000D01*
X260178740Y-112955000D01*
X259891842Y-113012068D01*
X259621589Y-113124010D01*
X259378368Y-113286525D01*
X259171525Y-113493368D01*
X259055000Y-113667760D01*
X258938475Y-113493368D01*
X258731632Y-113286525D01*
X258488411Y-113124010D01*
X258218158Y-113012068D01*
X257931260Y-112955000D01*
X257638740Y-112955000D01*
X257351842Y-113012068D01*
X257081589Y-113124010D01*
X256838368Y-113286525D01*
X256631525Y-113493368D01*
X256515000Y-113667760D01*
X256398475Y-113493368D01*
X256191632Y-113286525D01*
X255948411Y-113124010D01*
X255678158Y-113012068D01*
X255391260Y-112955000D01*
X255098740Y-112955000D01*
X254811842Y-113012068D01*
X254541589Y-113124010D01*
X254298368Y-113286525D01*
X254091525Y-113493368D01*
X253975000Y-113667760D01*
X253858475Y-113493368D01*
X253651632Y-113286525D01*
X253408411Y-113124010D01*
X253138158Y-113012068D01*
X252851260Y-112955000D01*
X252558740Y-112955000D01*
X252271842Y-113012068D01*
X252001589Y-113124010D01*
X251758368Y-113286525D01*
X251551525Y-113493368D01*
X251435000Y-113667760D01*
X251318475Y-113493368D01*
X251111632Y-113286525D01*
X250868411Y-113124010D01*
X250598158Y-113012068D01*
X250311260Y-112955000D01*
X250018740Y-112955000D01*
X249731842Y-113012068D01*
X249461589Y-113124010D01*
X249218368Y-113286525D01*
X249011525Y-113493368D01*
X248895000Y-113667760D01*
X248778475Y-113493368D01*
X248571632Y-113286525D01*
X248328411Y-113124010D01*
X248058158Y-113012068D01*
X247771260Y-112955000D01*
X247478740Y-112955000D01*
X247191842Y-113012068D01*
X246921589Y-113124010D01*
X246678368Y-113286525D01*
X246471525Y-113493368D01*
X246355000Y-113667760D01*
X246238475Y-113493368D01*
X246031632Y-113286525D01*
X245788411Y-113124010D01*
X245518158Y-113012068D01*
X245231260Y-112955000D01*
X244938740Y-112955000D01*
X244651842Y-113012068D01*
X244381589Y-113124010D01*
X244138368Y-113286525D01*
X243931525Y-113493368D01*
X243815000Y-113667760D01*
X243698475Y-113493368D01*
X243491632Y-113286525D01*
X243248411Y-113124010D01*
X242978158Y-113012068D01*
X242691260Y-112955000D01*
X242398740Y-112955000D01*
X242111842Y-113012068D01*
X241841589Y-113124010D01*
X241598368Y-113286525D01*
X241391525Y-113493368D01*
X241275000Y-113667760D01*
X241158475Y-113493368D01*
X240951632Y-113286525D01*
X240708411Y-113124010D01*
X240438158Y-113012068D01*
X240151260Y-112955000D01*
X239858740Y-112955000D01*
X239571842Y-113012068D01*
X239301589Y-113124010D01*
X239058368Y-113286525D01*
X238851525Y-113493368D01*
X238689010Y-113736589D01*
X238577068Y-114006842D01*
X238520000Y-114293740D01*
X238520000Y-114586260D01*
X238577068Y-114873158D01*
X238689010Y-115143411D01*
X238851525Y-115386632D01*
X239058368Y-115593475D01*
X239232760Y-115710000D01*
X239058368Y-115826525D01*
X238851525Y-116033368D01*
X238689010Y-116276589D01*
X238577068Y-116546842D01*
X238520000Y-116833740D01*
X238520000Y-117126260D01*
X238577068Y-117413158D01*
X238689010Y-117683411D01*
X238851525Y-117926632D01*
X239058368Y-118133475D01*
X239232760Y-118250000D01*
X239058368Y-118366525D01*
X238851525Y-118573368D01*
X238689010Y-118816589D01*
X238577068Y-119086842D01*
X238520000Y-119373740D01*
X238520000Y-119666260D01*
X238577068Y-119953158D01*
X238689010Y-120223411D01*
X238851525Y-120466632D01*
X239058368Y-120673475D01*
X239232760Y-120790000D01*
X239058368Y-120906525D01*
X238851525Y-121113368D01*
X238689010Y-121356589D01*
X238577068Y-121626842D01*
X238520000Y-121913740D01*
X238520000Y-122206260D01*
X238577068Y-122493158D01*
X238689010Y-122763411D01*
X238851525Y-123006632D01*
X239058368Y-123213475D01*
X239232760Y-123330000D01*
X239058368Y-123446525D01*
X238851525Y-123653368D01*
X238689010Y-123896589D01*
X238577068Y-124166842D01*
X238520000Y-124453740D01*
X238520000Y-124746260D01*
X238577068Y-125033158D01*
X238689010Y-125303411D01*
X238851525Y-125546632D01*
X239058368Y-125753475D01*
X239232760Y-125870000D01*
X239058368Y-125986525D01*
X238851525Y-126193368D01*
X238689010Y-126436589D01*
X238577068Y-126706842D01*
X238520000Y-126993740D01*
X238520000Y-127286260D01*
X238577068Y-127573158D01*
X238689010Y-127843411D01*
X238851525Y-128086632D01*
X239058368Y-128293475D01*
X239301589Y-128455990D01*
X239571842Y-128567932D01*
X239858740Y-128625000D01*
X240151260Y-128625000D01*
X240438158Y-128567932D01*
X240708411Y-128455990D01*
X240951632Y-128293475D01*
X241158475Y-128086632D01*
X241275000Y-127912240D01*
X241391525Y-128086632D01*
X241598368Y-128293475D01*
X241841589Y-128455990D01*
X242111842Y-128567932D01*
X242398740Y-128625000D01*
X242691260Y-128625000D01*
X242978158Y-128567932D01*
X243248411Y-128455990D01*
X243491632Y-128293475D01*
X243698475Y-128086632D01*
X243815000Y-127912240D01*
X243931525Y-128086632D01*
X244138368Y-128293475D01*
X244381589Y-128455990D01*
X244651842Y-128567932D01*
X244938740Y-128625000D01*
X245231260Y-128625000D01*
X245518158Y-128567932D01*
X245788411Y-128455990D01*
X246031632Y-128293475D01*
X246238475Y-128086632D01*
X246355000Y-127912240D01*
X246471525Y-128086632D01*
X246678368Y-128293475D01*
X246852760Y-128410000D01*
X246678368Y-128526525D01*
X246471525Y-128733368D01*
X246309010Y-128976589D01*
X246197068Y-129246842D01*
X246140000Y-129533740D01*
X246140000Y-129761453D01*
X246136297Y-129757724D01*
X246128885Y-129751679D01*
X245976785Y-129629389D01*
X245924845Y-129595401D01*
X245873367Y-129560678D01*
X245864923Y-129556187D01*
X245691967Y-129465768D01*
X245634410Y-129442513D01*
X245577165Y-129418450D01*
X245568009Y-129415685D01*
X245380783Y-129360582D01*
X245319775Y-129348945D01*
X245258985Y-129336466D01*
X245249466Y-129335532D01*
X245055105Y-129317843D01*
X244992981Y-129318277D01*
X244930933Y-129317844D01*
X244921426Y-129318776D01*
X244921419Y-129318776D01*
X244921413Y-129318777D01*
X244727318Y-129339178D01*
X244666504Y-129351661D01*
X244605519Y-129363295D01*
X244596363Y-129366059D01*
X244409925Y-129423771D01*
X244352692Y-129447830D01*
X244295127Y-129471087D01*
X244286682Y-129475577D01*
X244115006Y-129568402D01*
X244063532Y-129603122D01*
X244011582Y-129637117D01*
X244004170Y-129643162D01*
X243853793Y-129767565D01*
X243810027Y-129811638D01*
X243765689Y-129855057D01*
X243759592Y-129862426D01*
X243636242Y-130013668D01*
X243601881Y-130065386D01*
X243566809Y-130116607D01*
X243562260Y-130125020D01*
X243470635Y-130297343D01*
X243446978Y-130354739D01*
X243422519Y-130411807D01*
X243419690Y-130420943D01*
X243363281Y-130607780D01*
X243351219Y-130668698D01*
X243338314Y-130729410D01*
X243337314Y-130738922D01*
X243318269Y-130933155D01*
X243318269Y-130933173D01*
X243315001Y-130966353D01*
X243315000Y-146033646D01*
X243318366Y-146067821D01*
X243318366Y-146080806D01*
X243319366Y-146090318D01*
X243341121Y-146284268D01*
X243354025Y-146344976D01*
X243366089Y-146405901D01*
X243368917Y-146415038D01*
X243427930Y-146601068D01*
X243452377Y-146658105D01*
X243476046Y-146715531D01*
X243480595Y-146723944D01*
X243574617Y-146894969D01*
X243609692Y-146946194D01*
X243644050Y-146997906D01*
X243650146Y-147005276D01*
X243775596Y-147154782D01*
X243819974Y-147198240D01*
X243863703Y-147242275D01*
X243871109Y-147248315D01*
X243871113Y-147248319D01*
X243871115Y-147248320D01*
X244023214Y-147370611D01*
X244075139Y-147404589D01*
X244126632Y-147439322D01*
X244135077Y-147443812D01*
X244308033Y-147534232D01*
X244365590Y-147557487D01*
X244422835Y-147581550D01*
X244431991Y-147584315D01*
X244619217Y-147639418D01*
X244680218Y-147651054D01*
X244741015Y-147663534D01*
X244750533Y-147664468D01*
X244944895Y-147682157D01*
X245006986Y-147681723D01*
X245069066Y-147682156D01*
X245078585Y-147681223D01*
X245272682Y-147660822D01*
X245333496Y-147648339D01*
X245394481Y-147636705D01*
X245403637Y-147633941D01*
X245590075Y-147576229D01*
X245647279Y-147552182D01*
X245704873Y-147528913D01*
X245713317Y-147524423D01*
X245884994Y-147431598D01*
X245936468Y-147396878D01*
X245988418Y-147362883D01*
X245995829Y-147356839D01*
X246146207Y-147232435D01*
X246158669Y-147219886D01*
X246140000Y-147313740D01*
X246140000Y-147606260D01*
X246197068Y-147893158D01*
X246309010Y-148163411D01*
X246471525Y-148406632D01*
X246678368Y-148613475D01*
X246921589Y-148775990D01*
X247191842Y-148887932D01*
X247478740Y-148945000D01*
X247771260Y-148945000D01*
X248058158Y-148887932D01*
X248328411Y-148775990D01*
X248571632Y-148613475D01*
X248778475Y-148406632D01*
X248895000Y-148232240D01*
X249011525Y-148406632D01*
X249218368Y-148613475D01*
X249461589Y-148775990D01*
X249731842Y-148887932D01*
X250018740Y-148945000D01*
X250311260Y-148945000D01*
X250598158Y-148887932D01*
X250868411Y-148775990D01*
X251111632Y-148613475D01*
X251318475Y-148406632D01*
X251435000Y-148232240D01*
X251551525Y-148406632D01*
X251758368Y-148613475D01*
X252001589Y-148775990D01*
X252271842Y-148887932D01*
X252558740Y-148945000D01*
X252851260Y-148945000D01*
X253138158Y-148887932D01*
X253408411Y-148775990D01*
X253651632Y-148613475D01*
X253858475Y-148406632D01*
X253975000Y-148232240D01*
X254091525Y-148406632D01*
X254298368Y-148613475D01*
X254541589Y-148775990D01*
X254811842Y-148887932D01*
X255098740Y-148945000D01*
X255391260Y-148945000D01*
X255678158Y-148887932D01*
X255948411Y-148775990D01*
X256191632Y-148613475D01*
X256398475Y-148406632D01*
X256560990Y-148163411D01*
X256578500Y-148121138D01*
X256596010Y-148163411D01*
X256758525Y-148406632D01*
X256965368Y-148613475D01*
X257208589Y-148775990D01*
X257478842Y-148887932D01*
X257765740Y-148945000D01*
X258058260Y-148945000D01*
X258345158Y-148887932D01*
X258615411Y-148775990D01*
X258858632Y-148613475D01*
X259065475Y-148406632D01*
X259227990Y-148163411D01*
X259339932Y-147893158D01*
X259397000Y-147606260D01*
X259397000Y-147313740D01*
X259377676Y-147216592D01*
X259519369Y-147558669D01*
X259763962Y-147924729D01*
X260075271Y-148236038D01*
X260441331Y-148480631D01*
X260848075Y-148649110D01*
X261279872Y-148735000D01*
X261720128Y-148735000D01*
X262151925Y-148649110D01*
X262558669Y-148480631D01*
X262924729Y-148236038D01*
X263236038Y-147924729D01*
X263480631Y-147558669D01*
X263649110Y-147151925D01*
X263735000Y-146720128D01*
X263735000Y-146279872D01*
X263649110Y-145848075D01*
X263480631Y-145441331D01*
X263236038Y-145075271D01*
X262924729Y-144763962D01*
X262558669Y-144519369D01*
X262151925Y-144350890D01*
X261720128Y-144265000D01*
X261279872Y-144265000D01*
X260848075Y-144350890D01*
X260441331Y-144519369D01*
X260075271Y-144763962D01*
X259763962Y-145075271D01*
X259519369Y-145441331D01*
X259350890Y-145848075D01*
X259265000Y-146279872D01*
X259265000Y-146720128D01*
X259313146Y-146962176D01*
X259227990Y-146756589D01*
X259065475Y-146513368D01*
X258858632Y-146306525D01*
X258684240Y-146190000D01*
X258858632Y-146073475D01*
X259065475Y-145866632D01*
X259227990Y-145623411D01*
X259339932Y-145353158D01*
X259397000Y-145066260D01*
X259397000Y-144773740D01*
X259339932Y-144486842D01*
X259227990Y-144216589D01*
X259065475Y-143973368D01*
X258858632Y-143766525D01*
X258684240Y-143650000D01*
X258858632Y-143533475D01*
X259065475Y-143326632D01*
X259182000Y-143152240D01*
X259298525Y-143326632D01*
X259505368Y-143533475D01*
X259748589Y-143695990D01*
X260018842Y-143807932D01*
X260305740Y-143865000D01*
X260598260Y-143865000D01*
X260885158Y-143807932D01*
X261155411Y-143695990D01*
X261398632Y-143533475D01*
X261605475Y-143326632D01*
X261722000Y-143152240D01*
X261838525Y-143326632D01*
X262045368Y-143533475D01*
X262288589Y-143695990D01*
X262558842Y-143807932D01*
X262845740Y-143865000D01*
X263138260Y-143865000D01*
X263425158Y-143807932D01*
X263695411Y-143695990D01*
X263881000Y-143571983D01*
X263881000Y-148333818D01*
X263640325Y-148628914D01*
X263292697Y-148916497D01*
X262932971Y-149111000D01*
X202069634Y-149111000D01*
X201720720Y-148925480D01*
X201371086Y-148640325D01*
X201143000Y-148364616D01*
X201143000Y-146279872D01*
X201265000Y-146279872D01*
X201265000Y-146720128D01*
X201350890Y-147151925D01*
X201519369Y-147558669D01*
X201763962Y-147924729D01*
X202075271Y-148236038D01*
X202441331Y-148480631D01*
X202848075Y-148649110D01*
X203279872Y-148735000D01*
X203720128Y-148735000D01*
X204151925Y-148649110D01*
X204558669Y-148480631D01*
X204924729Y-148236038D01*
X205236038Y-147924729D01*
X205480631Y-147558669D01*
X205649110Y-147151925D01*
X205735000Y-146720128D01*
X205735000Y-146279872D01*
X205649110Y-145848075D01*
X205480631Y-145441331D01*
X205236038Y-145075271D01*
X204924729Y-144763962D01*
X204558669Y-144519369D01*
X204151925Y-144350890D01*
X203720128Y-144265000D01*
X203279872Y-144265000D01*
X202848075Y-144350890D01*
X202441331Y-144519369D01*
X202075271Y-144763962D01*
X201763962Y-145075271D01*
X201519369Y-145441331D01*
X201350890Y-145848075D01*
X201265000Y-146279872D01*
X201143000Y-146279872D01*
X201143000Y-137306842D01*
X201201589Y-137345990D01*
X201471842Y-137457932D01*
X201758740Y-137515000D01*
X202051260Y-137515000D01*
X202338158Y-137457932D01*
X202608411Y-137345990D01*
X202851632Y-137183475D01*
X203058475Y-136976632D01*
X203220990Y-136733411D01*
X203332932Y-136463158D01*
X203390000Y-136176260D01*
X203390000Y-135883740D01*
X203332932Y-135596842D01*
X203220990Y-135326589D01*
X203058475Y-135083368D01*
X202926620Y-134951513D01*
X202999180Y-134929502D01*
X203109494Y-134870537D01*
X203206185Y-134791185D01*
X203285537Y-134694494D01*
X203344502Y-134584180D01*
X203380812Y-134464482D01*
X203393072Y-134340000D01*
X203393072Y-132640000D01*
X203380812Y-132515518D01*
X203344502Y-132395820D01*
X203285537Y-132285506D01*
X203206185Y-132188815D01*
X203109494Y-132109463D01*
X202999180Y-132050498D01*
X202879482Y-132014188D01*
X202755000Y-132001928D01*
X201143000Y-132001928D01*
X201143000Y-131185000D01*
X204533647Y-131185000D01*
X204562601Y-131182148D01*
X204565573Y-131182169D01*
X204575092Y-131181236D01*
X204623218Y-131176178D01*
X204634283Y-131175088D01*
X204634652Y-131174976D01*
X204672140Y-131171036D01*
X204732990Y-131158545D01*
X204793942Y-131146918D01*
X204803096Y-131144155D01*
X204803102Y-131144153D01*
X204896317Y-131115298D01*
X204953533Y-131091246D01*
X205011119Y-131067980D01*
X205019564Y-131063490D01*
X205105401Y-131017077D01*
X205156867Y-130982362D01*
X205208821Y-130948364D01*
X205216232Y-130942320D01*
X205291421Y-130880118D01*
X205335162Y-130836070D01*
X205379522Y-130792631D01*
X205385618Y-130785261D01*
X205385623Y-130785256D01*
X205385627Y-130785250D01*
X205447294Y-130709640D01*
X205481632Y-130657959D01*
X205516733Y-130606694D01*
X205521282Y-130598281D01*
X205567094Y-130512120D01*
X205590758Y-130454704D01*
X205615208Y-130397661D01*
X205618036Y-130388525D01*
X205646241Y-130295107D01*
X205658303Y-130234187D01*
X205671209Y-130173470D01*
X205672209Y-130163958D01*
X205681731Y-130066841D01*
X205681731Y-130066837D01*
X205685000Y-130033647D01*
X205685000Y-127270000D01*
X206930000Y-127270000D01*
X207013238Y-128884804D01*
X207262071Y-130482490D01*
X207673861Y-132046123D01*
X208244243Y-133559129D01*
X208967170Y-135005467D01*
X209834980Y-136369808D01*
X210415611Y-137103417D01*
X210016075Y-137182890D01*
X209609331Y-137351369D01*
X209243271Y-137595962D01*
X208931962Y-137907271D01*
X208687369Y-138273331D01*
X208518890Y-138680075D01*
X208433000Y-139111872D01*
X208433000Y-139552128D01*
X208518890Y-139983925D01*
X208687369Y-140390669D01*
X208931962Y-140756729D01*
X209243271Y-141068038D01*
X209609331Y-141312631D01*
X210016075Y-141481110D01*
X210447872Y-141567000D01*
X210888128Y-141567000D01*
X211319925Y-141481110D01*
X211726669Y-141312631D01*
X212092729Y-141068038D01*
X212404038Y-140756729D01*
X212648631Y-140390669D01*
X212817110Y-139983925D01*
X212898841Y-139573034D01*
X213208635Y-139831475D01*
X214550179Y-140734126D01*
X215977424Y-141494054D01*
X217475242Y-142103203D01*
X219027754Y-142555117D01*
X220618504Y-142845005D01*
X222230629Y-142969793D01*
X223847041Y-142928160D01*
X225450604Y-142720547D01*
X227024322Y-142349154D01*
X228551512Y-141817918D01*
X230015985Y-141132471D01*
X231402218Y-140300077D01*
X232320680Y-139610846D01*
X232394890Y-139983925D01*
X232563369Y-140390669D01*
X232807962Y-140756729D01*
X233119271Y-141068038D01*
X233485331Y-141312631D01*
X233892075Y-141481110D01*
X234323872Y-141567000D01*
X234764128Y-141567000D01*
X235195925Y-141481110D01*
X235602669Y-141312631D01*
X235968729Y-141068038D01*
X236280038Y-140756729D01*
X236524631Y-140390669D01*
X236693110Y-139983925D01*
X236779000Y-139552128D01*
X236779000Y-139111872D01*
X236693110Y-138680075D01*
X236524631Y-138273331D01*
X236280038Y-137907271D01*
X235968729Y-137595962D01*
X235602669Y-137351369D01*
X235195925Y-137182890D01*
X234861909Y-137116450D01*
X234945015Y-137021890D01*
X239198524Y-137021890D01*
X239243175Y-137169099D01*
X239368359Y-137431920D01*
X239542412Y-137665269D01*
X239758645Y-137860178D01*
X240008748Y-138009157D01*
X240283109Y-138106481D01*
X240513000Y-137985814D01*
X240513000Y-136792000D01*
X240767000Y-136792000D01*
X240767000Y-137985814D01*
X240996891Y-138106481D01*
X241271252Y-138009157D01*
X241521355Y-137860178D01*
X241737588Y-137665269D01*
X241911641Y-137431920D01*
X242036825Y-137169099D01*
X242081476Y-137021890D01*
X241960155Y-136792000D01*
X240767000Y-136792000D01*
X240513000Y-136792000D01*
X239319845Y-136792000D01*
X239198524Y-137021890D01*
X234945015Y-137021890D01*
X234949602Y-137016672D01*
X235886495Y-135698814D01*
X236682920Y-134291608D01*
X237127203Y-133275000D01*
X239151928Y-133275000D01*
X239151928Y-134975000D01*
X239164188Y-135099482D01*
X239200498Y-135219180D01*
X239259463Y-135329494D01*
X239338815Y-135426185D01*
X239435506Y-135505537D01*
X239545820Y-135564502D01*
X239626466Y-135588966D01*
X239542412Y-135664731D01*
X239368359Y-135898080D01*
X239243175Y-136160901D01*
X239198524Y-136308110D01*
X239319845Y-136538000D01*
X240513000Y-136538000D01*
X240513000Y-136518000D01*
X240767000Y-136518000D01*
X240767000Y-136538000D01*
X241960155Y-136538000D01*
X242081476Y-136308110D01*
X242036825Y-136160901D01*
X241911641Y-135898080D01*
X241737588Y-135664731D01*
X241653534Y-135588966D01*
X241734180Y-135564502D01*
X241844494Y-135505537D01*
X241941185Y-135426185D01*
X242020537Y-135329494D01*
X242079502Y-135219180D01*
X242115812Y-135099482D01*
X242128072Y-134975000D01*
X242128072Y-133275000D01*
X242115812Y-133150518D01*
X242079502Y-133030820D01*
X242020537Y-132920506D01*
X241941185Y-132823815D01*
X241844494Y-132744463D01*
X241734180Y-132685498D01*
X241614482Y-132649188D01*
X241490000Y-132636928D01*
X239790000Y-132636928D01*
X239665518Y-132649188D01*
X239545820Y-132685498D01*
X239435506Y-132744463D01*
X239338815Y-132823815D01*
X239259463Y-132920506D01*
X239200498Y-133030820D01*
X239164188Y-133150518D01*
X239151928Y-133275000D01*
X237127203Y-133275000D01*
X237330433Y-132809972D01*
X237822170Y-131269610D01*
X238152920Y-129686852D01*
X238319177Y-128078474D01*
X238319177Y-126461526D01*
X238152920Y-124853148D01*
X237822170Y-123270390D01*
X237330433Y-121730028D01*
X236682920Y-120248392D01*
X235886495Y-118841186D01*
X234949602Y-117523328D01*
X234873730Y-117437000D01*
X235018128Y-117437000D01*
X235449925Y-117351110D01*
X235856669Y-117182631D01*
X236222729Y-116938038D01*
X236534038Y-116626729D01*
X236778631Y-116260669D01*
X236947110Y-115853925D01*
X237033000Y-115422128D01*
X237033000Y-114981872D01*
X236947110Y-114550075D01*
X236778631Y-114143331D01*
X236534038Y-113777271D01*
X236222729Y-113465962D01*
X235856669Y-113221369D01*
X235449925Y-113052890D01*
X235018128Y-112967000D01*
X234577872Y-112967000D01*
X234146075Y-113052890D01*
X233739331Y-113221369D01*
X233373271Y-113465962D01*
X233061962Y-113777271D01*
X232817369Y-114143331D01*
X232648890Y-114550075D01*
X232563000Y-114981872D01*
X232563000Y-115110996D01*
X231402218Y-114239923D01*
X230015985Y-113407529D01*
X228551512Y-112722082D01*
X227024322Y-112190846D01*
X225450604Y-111819453D01*
X223847041Y-111611840D01*
X222230629Y-111570207D01*
X220618504Y-111694995D01*
X219027754Y-111984883D01*
X217475242Y-112436797D01*
X215977424Y-113045946D01*
X214550179Y-113805874D01*
X213208635Y-114708525D01*
X212899865Y-114966112D01*
X212817110Y-114550075D01*
X212648631Y-114143331D01*
X212404038Y-113777271D01*
X212092729Y-113465962D01*
X211726669Y-113221369D01*
X211319925Y-113052890D01*
X210888128Y-112967000D01*
X210447872Y-112967000D01*
X210016075Y-113052890D01*
X209609331Y-113221369D01*
X209243271Y-113465962D01*
X208931962Y-113777271D01*
X208687369Y-114143331D01*
X208518890Y-114550075D01*
X208433000Y-114981872D01*
X208433000Y-115422128D01*
X208518890Y-115853925D01*
X208687369Y-116260669D01*
X208931962Y-116626729D01*
X209243271Y-116938038D01*
X209609331Y-117182631D01*
X210016075Y-117351110D01*
X210419714Y-117431399D01*
X209834980Y-118170192D01*
X208967170Y-119534533D01*
X208244243Y-120980871D01*
X207673861Y-122493877D01*
X207262071Y-124057510D01*
X207013238Y-125655196D01*
X206930000Y-127270000D01*
X205685000Y-127270000D01*
X205685000Y-113966353D01*
X205682148Y-113937399D01*
X205682169Y-113934427D01*
X205681236Y-113924909D01*
X205676179Y-113876790D01*
X205675088Y-113865717D01*
X205674976Y-113865348D01*
X205671036Y-113827860D01*
X205658547Y-113767017D01*
X205646918Y-113706058D01*
X205644154Y-113696902D01*
X205615298Y-113603683D01*
X205591232Y-113546434D01*
X205567979Y-113488881D01*
X205563489Y-113480436D01*
X205517077Y-113394598D01*
X205482350Y-113343115D01*
X205448364Y-113291179D01*
X205442320Y-113283767D01*
X205380118Y-113208579D01*
X205336051Y-113164818D01*
X205292630Y-113120478D01*
X205285261Y-113114381D01*
X205209640Y-113052706D01*
X205157959Y-113018368D01*
X205106694Y-112983267D01*
X205098281Y-112978718D01*
X205012120Y-112932906D01*
X204954704Y-112909242D01*
X204897661Y-112884792D01*
X204888525Y-112881964D01*
X204795107Y-112853759D01*
X204734195Y-112841698D01*
X204673471Y-112828791D01*
X204663959Y-112827791D01*
X204566841Y-112818269D01*
X204566837Y-112818269D01*
X204533647Y-112815000D01*
X201143000Y-112815000D01*
X201143000Y-108077000D01*
X201280928Y-108077000D01*
X201293188Y-108201482D01*
X201329498Y-108321180D01*
X201388463Y-108431494D01*
X201467815Y-108528185D01*
X201564506Y-108607537D01*
X201674820Y-108666502D01*
X201794518Y-108702812D01*
X201919000Y-108715072D01*
X202508250Y-108712000D01*
X202667000Y-108553250D01*
X202667000Y-107579000D01*
X201442750Y-107579000D01*
X201284000Y-107737750D01*
X201280928Y-108077000D01*
X201143000Y-108077000D01*
X201143000Y-106827000D01*
X201280928Y-106827000D01*
X201284000Y-107166250D01*
X201442750Y-107325000D01*
X202667000Y-107325000D01*
X202667000Y-106350750D01*
X202508250Y-106192000D01*
X201919000Y-106188928D01*
X201794518Y-106201188D01*
X201674820Y-106237498D01*
X201564506Y-106296463D01*
X201467815Y-106375815D01*
X201388463Y-106472506D01*
X201329498Y-106582820D01*
X201293188Y-106702518D01*
X201280928Y-106827000D01*
X201143000Y-106827000D01*
X201143000Y-95636755D01*
X201359675Y-95371086D01*
X201707303Y-95083503D01*
X201845093Y-95009000D01*
X207524426Y-95009000D01*
X207423368Y-95076525D01*
G37*
X207423368Y-95076525D02*
X207216525Y-95283368D01*
X207054010Y-95526589D01*
X206942068Y-95796842D01*
X206885000Y-96083740D01*
X206885000Y-96376260D01*
X206934656Y-96625897D01*
X205708822Y-97851731D01*
X205735000Y-97720128D01*
X205735000Y-97279872D01*
X205649110Y-96848075D01*
X205480631Y-96441331D01*
X205236038Y-96075271D01*
X204924729Y-95763962D01*
X204558669Y-95519369D01*
X204151925Y-95350890D01*
X203720128Y-95265000D01*
X203279872Y-95265000D01*
X202848075Y-95350890D01*
X202441331Y-95519369D01*
X202075271Y-95763962D01*
X201763962Y-96075271D01*
X201519369Y-96441331D01*
X201350890Y-96848075D01*
X201265000Y-97279872D01*
X201265000Y-97720128D01*
X201350890Y-98151925D01*
X201519369Y-98558669D01*
X201763962Y-98924729D01*
X202075271Y-99236038D01*
X202441331Y-99480631D01*
X202848075Y-99649110D01*
X203279872Y-99735000D01*
X203720128Y-99735000D01*
X203851731Y-99708822D01*
X202165807Y-101394747D01*
X202137762Y-101417763D01*
X202045913Y-101529681D01*
X202020425Y-101577366D01*
X201977663Y-101657368D01*
X201935634Y-101795916D01*
X201921443Y-101940001D01*
X201925000Y-101976116D01*
X201924999Y-104617894D01*
X201921443Y-104653999D01*
X201924999Y-104690103D01*
X201935634Y-104798083D01*
X201977662Y-104936631D01*
X202045912Y-105064318D01*
X202137761Y-105176236D01*
X202165807Y-105199253D01*
X203158145Y-106191591D01*
X203079750Y-106192000D01*
X202921000Y-106350750D01*
X202921000Y-107325000D01*
X202941000Y-107325000D01*
X202941000Y-107579000D01*
X202921000Y-107579000D01*
X202921000Y-108553250D01*
X203079750Y-108712000D01*
X203416796Y-108713757D01*
X203141626Y-108988928D01*
X202169000Y-108988928D01*
X201995746Y-109005992D01*
X201829150Y-109056528D01*
X201675614Y-109138595D01*
X201541038Y-109249038D01*
X201430595Y-109383614D01*
X201348528Y-109537150D01*
X201297992Y-109703746D01*
X201280928Y-109877000D01*
X201280928Y-110627000D01*
X201297992Y-110800254D01*
X201348528Y-110966850D01*
X201430595Y-111120386D01*
X201541038Y-111254962D01*
X201675614Y-111365405D01*
X201829150Y-111447472D01*
X201995746Y-111498008D01*
X202169000Y-111515072D01*
X203419000Y-111515072D01*
X203592254Y-111498008D01*
X203758850Y-111447472D01*
X203912386Y-111365405D01*
X204046962Y-111254962D01*
X204157405Y-111120386D01*
X204239472Y-110966850D01*
X204290008Y-110800254D01*
X204307072Y-110627000D01*
X204307072Y-109902375D01*
X205066197Y-109143250D01*
X205094000Y-109120433D01*
X205094000Y-109233002D01*
X205252748Y-109233002D01*
X205094000Y-109391750D01*
X205090928Y-109731000D01*
X205103188Y-109855482D01*
X205139498Y-109975180D01*
X205198463Y-110085494D01*
X205277815Y-110182185D01*
X205374506Y-110261537D01*
X205484820Y-110320502D01*
X205604518Y-110356812D01*
X205729000Y-110369072D01*
X206318250Y-110366000D01*
X206477000Y-110207250D01*
X206477000Y-109233000D01*
X206731000Y-109233000D01*
X206731000Y-110207250D01*
X206889750Y-110366000D01*
X207479000Y-110369072D01*
X207603482Y-110356812D01*
X207723180Y-110320502D01*
X207833494Y-110261537D01*
X207930185Y-110182185D01*
X208009537Y-110085494D01*
X208021276Y-110063531D01*
X209939389Y-110063531D01*
X209981401Y-110353019D01*
X210079081Y-110628747D01*
X210152528Y-110766157D01*
X210401603Y-110843792D01*
X211250395Y-109995000D01*
X210401603Y-109146208D01*
X210152528Y-109223843D01*
X210026629Y-109487883D01*
X209954661Y-109771411D01*
X209939389Y-110063531D01*
X208021276Y-110063531D01*
X208068502Y-109975180D01*
X208104812Y-109855482D01*
X208117072Y-109731000D01*
X208114000Y-109391750D01*
X207955250Y-109233000D01*
X206731000Y-109233000D01*
X206477000Y-109233000D01*
X206457000Y-109233000D01*
X206457000Y-108979000D01*
X206477000Y-108979000D01*
X206477000Y-108959000D01*
X206731000Y-108959000D01*
X206731000Y-108979000D01*
X207955250Y-108979000D01*
X208114000Y-108820250D01*
X208117072Y-108481000D01*
X208104812Y-108356518D01*
X208068502Y-108236820D01*
X208043476Y-108190000D01*
X212675117Y-108190000D01*
X212816525Y-108401632D01*
X212819222Y-108404329D01*
X212273601Y-108949950D01*
X212201157Y-108717528D01*
X211937117Y-108591629D01*
X211653589Y-108519661D01*
X211361469Y-108504389D01*
X211071981Y-108546401D01*
X210796253Y-108644081D01*
X210658843Y-108717528D01*
X210581208Y-108966603D01*
X211430000Y-109815395D01*
X211444143Y-109801253D01*
X211623748Y-109980858D01*
X211609605Y-109995000D01*
X211623748Y-110009143D01*
X211444143Y-110188748D01*
X211430000Y-110174605D01*
X210581208Y-111023397D01*
X210627215Y-111171000D01*
X208038702Y-111171000D01*
X207967405Y-111037614D01*
X207856962Y-110903038D01*
X207722386Y-110792595D01*
X207568850Y-110710528D01*
X207402254Y-110659992D01*
X207229000Y-110642928D01*
X205979000Y-110642928D01*
X205805746Y-110659992D01*
X205639150Y-110710528D01*
X205485614Y-110792595D01*
X205351038Y-110903038D01*
X205240595Y-111037614D01*
X205158528Y-111191150D01*
X205107992Y-111357746D01*
X205090928Y-111531000D01*
X205090928Y-112281000D01*
X205107992Y-112454254D01*
X205158528Y-112620850D01*
X205240595Y-112774386D01*
X205351038Y-112908962D01*
X205485614Y-113019405D01*
X205639150Y-113101472D01*
X205805746Y-113152008D01*
X205979000Y-113169072D01*
X207229000Y-113169072D01*
X207402254Y-113152008D01*
X207568850Y-113101472D01*
X207722386Y-113019405D01*
X207856962Y-112908962D01*
X207967405Y-112774386D01*
X208038702Y-112641000D01*
X211184897Y-112641000D01*
X211221002Y-112644556D01*
X211257107Y-112641000D01*
X211365087Y-112630365D01*
X211503635Y-112588337D01*
X211631322Y-112520087D01*
X211743240Y-112428238D01*
X211766260Y-112400188D01*
X213029374Y-111137075D01*
X213203080Y-111266641D01*
X213465901Y-111391825D01*
X213613110Y-111436476D01*
X213843000Y-111315155D01*
X213843000Y-110122000D01*
X214097000Y-110122000D01*
X214097000Y-111315155D01*
X214326890Y-111436476D01*
X214474099Y-111391825D01*
X214736920Y-111266641D01*
X214970269Y-111092588D01*
X215165178Y-110876355D01*
X215240000Y-110750745D01*
X215314822Y-110876355D01*
X215509731Y-111092588D01*
X215743080Y-111266641D01*
X216005901Y-111391825D01*
X216153110Y-111436476D01*
X216383000Y-111315155D01*
X216383000Y-110122000D01*
X216637000Y-110122000D01*
X216637000Y-111315155D01*
X216866890Y-111436476D01*
X217014099Y-111391825D01*
X217276920Y-111266641D01*
X217510269Y-111092588D01*
X217705178Y-110876355D01*
X217780000Y-110750745D01*
X217854822Y-110876355D01*
X218049731Y-111092588D01*
X218283080Y-111266641D01*
X218545901Y-111391825D01*
X218693110Y-111436476D01*
X218923000Y-111315155D01*
X218923000Y-110122000D01*
X219177000Y-110122000D01*
X219177000Y-111315155D01*
X219406890Y-111436476D01*
X219554099Y-111391825D01*
X219816920Y-111266641D01*
X220050269Y-111092588D01*
X220245178Y-110876355D01*
X220320000Y-110750745D01*
X220394822Y-110876355D01*
X220589731Y-111092588D01*
X220823080Y-111266641D01*
X221085901Y-111391825D01*
X221233110Y-111436476D01*
X221463000Y-111315155D01*
X221463000Y-110122000D01*
X221717000Y-110122000D01*
X221717000Y-111315155D01*
X221946890Y-111436476D01*
X222094099Y-111391825D01*
X222356920Y-111266641D01*
X222590269Y-111092588D01*
X222785178Y-110876355D01*
X222860000Y-110750745D01*
X222934822Y-110876355D01*
X223129731Y-111092588D01*
X223363080Y-111266641D01*
X223625901Y-111391825D01*
X223773110Y-111436476D01*
X224003000Y-111315155D01*
X224003000Y-110122000D01*
X224257000Y-110122000D01*
X224257000Y-111315155D01*
X224486890Y-111436476D01*
X224634099Y-111391825D01*
X224896920Y-111266641D01*
X225130269Y-111092588D01*
X225325178Y-110876355D01*
X225400000Y-110750745D01*
X225474822Y-110876355D01*
X225669731Y-111092588D01*
X225903080Y-111266641D01*
X226165901Y-111391825D01*
X226313110Y-111436476D01*
X226543000Y-111315155D01*
X226543000Y-110122000D01*
X226797000Y-110122000D01*
X226797000Y-111315155D01*
X227026890Y-111436476D01*
X227174099Y-111391825D01*
X227436920Y-111266641D01*
X227670269Y-111092588D01*
X227865178Y-110876355D01*
X227940000Y-110750745D01*
X228014822Y-110876355D01*
X228209731Y-111092588D01*
X228443080Y-111266641D01*
X228705901Y-111391825D01*
X228853110Y-111436476D01*
X229083000Y-111315155D01*
X229083000Y-110122000D01*
X229337000Y-110122000D01*
X229337000Y-111315155D01*
X229566890Y-111436476D01*
X229714099Y-111391825D01*
X229976920Y-111266641D01*
X230210269Y-111092588D01*
X230405178Y-110876355D01*
X230480000Y-110750745D01*
X230554822Y-110876355D01*
X230749731Y-111092588D01*
X230983080Y-111266641D01*
X231245901Y-111391825D01*
X231393110Y-111436476D01*
X231623000Y-111315155D01*
X231623000Y-110122000D01*
X231877000Y-110122000D01*
X231877000Y-111315155D01*
X232106890Y-111436476D01*
X232254099Y-111391825D01*
X232516920Y-111266641D01*
X232750269Y-111092588D01*
X232945178Y-110876355D01*
X233020000Y-110750745D01*
X233094822Y-110876355D01*
X233289731Y-111092588D01*
X233523080Y-111266641D01*
X233785901Y-111391825D01*
X233933110Y-111436476D01*
X234163000Y-111315155D01*
X234163000Y-110122000D01*
X234417000Y-110122000D01*
X234417000Y-111315155D01*
X234646890Y-111436476D01*
X234794099Y-111391825D01*
X235056920Y-111266641D01*
X235290269Y-111092588D01*
X235485178Y-110876355D01*
X235560000Y-110750745D01*
X235634822Y-110876355D01*
X235829731Y-111092588D01*
X236063080Y-111266641D01*
X236325901Y-111391825D01*
X236473110Y-111436476D01*
X236703000Y-111315155D01*
X236703000Y-110122000D01*
X236957000Y-110122000D01*
X236957000Y-111315155D01*
X237186890Y-111436476D01*
X237334099Y-111391825D01*
X237596920Y-111266641D01*
X237830269Y-111092588D01*
X238025178Y-110876355D01*
X238100000Y-110750745D01*
X238174822Y-110876355D01*
X238369731Y-111092588D01*
X238603080Y-111266641D01*
X238865901Y-111391825D01*
X239013110Y-111436476D01*
X239243000Y-111315155D01*
X239243000Y-110122000D01*
X239497000Y-110122000D01*
X239497000Y-111315155D01*
X239726890Y-111436476D01*
X239874099Y-111391825D01*
X240136920Y-111266641D01*
X240370269Y-111092588D01*
X240565178Y-110876355D01*
X240640000Y-110750745D01*
X240714822Y-110876355D01*
X240909731Y-111092588D01*
X241143080Y-111266641D01*
X241405901Y-111391825D01*
X241553110Y-111436476D01*
X241783000Y-111315155D01*
X241783000Y-110122000D01*
X242037000Y-110122000D01*
X242037000Y-111315155D01*
X242266890Y-111436476D01*
X242414099Y-111391825D01*
X242676920Y-111266641D01*
X242910269Y-111092588D01*
X243105178Y-110876355D01*
X243180000Y-110750745D01*
X243254822Y-110876355D01*
X243449731Y-111092588D01*
X243683080Y-111266641D01*
X243945901Y-111391825D01*
X244093110Y-111436476D01*
X244323000Y-111315155D01*
X244323000Y-110122000D01*
X244577000Y-110122000D01*
X244577000Y-111315155D01*
X244806890Y-111436476D01*
X244954099Y-111391825D01*
X245216920Y-111266641D01*
X245450269Y-111092588D01*
X245645178Y-110876355D01*
X245720000Y-110750745D01*
X245794822Y-110876355D01*
X245989731Y-111092588D01*
X246223080Y-111266641D01*
X246485901Y-111391825D01*
X246633110Y-111436476D01*
X246863000Y-111315155D01*
X246863000Y-110122000D01*
X247117000Y-110122000D01*
X247117000Y-111315155D01*
X247346890Y-111436476D01*
X247494099Y-111391825D01*
X247756920Y-111266641D01*
X247990269Y-111092588D01*
X248185178Y-110876355D01*
X248260000Y-110750745D01*
X248334822Y-110876355D01*
X248529731Y-111092588D01*
X248763080Y-111266641D01*
X249025901Y-111391825D01*
X249173110Y-111436476D01*
X249403000Y-111315155D01*
X249403000Y-110122000D01*
X249657000Y-110122000D01*
X249657000Y-111315155D01*
X249886890Y-111436476D01*
X250034099Y-111391825D01*
X250296920Y-111266641D01*
X250530269Y-111092588D01*
X250725178Y-110876355D01*
X250800000Y-110750745D01*
X250874822Y-110876355D01*
X251069731Y-111092588D01*
X251303080Y-111266641D01*
X251565901Y-111391825D01*
X251713110Y-111436476D01*
X251943000Y-111315155D01*
X251943000Y-110122000D01*
X252197000Y-110122000D01*
X252197000Y-111315155D01*
X252426890Y-111436476D01*
X252574099Y-111391825D01*
X252836920Y-111266641D01*
X253070269Y-111092588D01*
X253265178Y-110876355D01*
X253340000Y-110750745D01*
X253414822Y-110876355D01*
X253609731Y-111092588D01*
X253843080Y-111266641D01*
X254105901Y-111391825D01*
X254253110Y-111436476D01*
X254483000Y-111315155D01*
X254483000Y-110122000D01*
X254737000Y-110122000D01*
X254737000Y-111315155D01*
X254966890Y-111436476D01*
X255114099Y-111391825D01*
X255376920Y-111266641D01*
X255610269Y-111092588D01*
X255805178Y-110876355D01*
X255880000Y-110750745D01*
X255954822Y-110876355D01*
X256149731Y-111092588D01*
X256383080Y-111266641D01*
X256645901Y-111391825D01*
X256793110Y-111436476D01*
X257023000Y-111315155D01*
X257023000Y-110122000D01*
X257277000Y-110122000D01*
X257277000Y-111315155D01*
X257506890Y-111436476D01*
X257654099Y-111391825D01*
X257916920Y-111266641D01*
X258150269Y-111092588D01*
X258345178Y-110876355D01*
X258420000Y-110750745D01*
X258494822Y-110876355D01*
X258689731Y-111092588D01*
X258923080Y-111266641D01*
X259185901Y-111391825D01*
X259333110Y-111436476D01*
X259563000Y-111315155D01*
X259563000Y-110122000D01*
X259817000Y-110122000D01*
X259817000Y-111315155D01*
X260046890Y-111436476D01*
X260194099Y-111391825D01*
X260456920Y-111266641D01*
X260690269Y-111092588D01*
X260885178Y-110876355D01*
X260960000Y-110750745D01*
X261034822Y-110876355D01*
X261229731Y-111092588D01*
X261463080Y-111266641D01*
X261725901Y-111391825D01*
X261873110Y-111436476D01*
X262103000Y-111315155D01*
X262103000Y-110122000D01*
X262357000Y-110122000D01*
X262357000Y-111315155D01*
X262586890Y-111436476D01*
X262734099Y-111391825D01*
X262996920Y-111266641D01*
X263230269Y-111092588D01*
X263425178Y-110876355D01*
X263574157Y-110626252D01*
X263671481Y-110351891D01*
X263550814Y-110122000D01*
X262357000Y-110122000D01*
X262103000Y-110122000D01*
X259817000Y-110122000D01*
X259563000Y-110122000D01*
X257277000Y-110122000D01*
X257023000Y-110122000D01*
X254737000Y-110122000D01*
X254483000Y-110122000D01*
X252197000Y-110122000D01*
X251943000Y-110122000D01*
X249657000Y-110122000D01*
X249403000Y-110122000D01*
X247117000Y-110122000D01*
X246863000Y-110122000D01*
X244577000Y-110122000D01*
X244323000Y-110122000D01*
X242037000Y-110122000D01*
X241783000Y-110122000D01*
X239497000Y-110122000D01*
X239243000Y-110122000D01*
X236957000Y-110122000D01*
X236703000Y-110122000D01*
X234417000Y-110122000D01*
X234163000Y-110122000D01*
X231877000Y-110122000D01*
X231623000Y-110122000D01*
X229337000Y-110122000D01*
X229083000Y-110122000D01*
X226797000Y-110122000D01*
X226543000Y-110122000D01*
X224257000Y-110122000D01*
X224003000Y-110122000D01*
X221717000Y-110122000D01*
X221463000Y-110122000D01*
X219177000Y-110122000D01*
X218923000Y-110122000D01*
X216637000Y-110122000D01*
X216383000Y-110122000D01*
X214097000Y-110122000D01*
X213843000Y-110122000D01*
X213823000Y-110122000D01*
X213823000Y-109868000D01*
X213843000Y-109868000D01*
X213843000Y-109848000D01*
X214097000Y-109848000D01*
X214097000Y-109868000D01*
X216383000Y-109868000D01*
X216383000Y-109848000D01*
X216637000Y-109848000D01*
X216637000Y-109868000D01*
X218923000Y-109868000D01*
X218923000Y-109848000D01*
X219177000Y-109848000D01*
X219177000Y-109868000D01*
X221463000Y-109868000D01*
X221463000Y-109848000D01*
X221717000Y-109848000D01*
X221717000Y-109868000D01*
X224003000Y-109868000D01*
X224003000Y-109848000D01*
X224257000Y-109848000D01*
X224257000Y-109868000D01*
X226543000Y-109868000D01*
X226543000Y-109848000D01*
X226797000Y-109848000D01*
X226797000Y-109868000D01*
X229083000Y-109868000D01*
X229083000Y-109848000D01*
X229337000Y-109848000D01*
X229337000Y-109868000D01*
X231623000Y-109868000D01*
X231623000Y-109848000D01*
X231877000Y-109848000D01*
X231877000Y-109868000D01*
X234163000Y-109868000D01*
X234163000Y-109848000D01*
X234417000Y-109848000D01*
X234417000Y-109868000D01*
X236703000Y-109868000D01*
X236703000Y-109848000D01*
X236957000Y-109848000D01*
X236957000Y-109868000D01*
X239243000Y-109868000D01*
X239243000Y-109848000D01*
X239497000Y-109848000D01*
X239497000Y-109868000D01*
X241783000Y-109868000D01*
X241783000Y-109848000D01*
X242037000Y-109848000D01*
X242037000Y-109868000D01*
X244323000Y-109868000D01*
X244323000Y-109848000D01*
X244577000Y-109848000D01*
X244577000Y-109868000D01*
X246863000Y-109868000D01*
X246863000Y-109848000D01*
X247117000Y-109848000D01*
X247117000Y-109868000D01*
X249403000Y-109868000D01*
X249403000Y-109848000D01*
X249657000Y-109848000D01*
X249657000Y-109868000D01*
X251943000Y-109868000D01*
X251943000Y-109848000D01*
X252197000Y-109848000D01*
X252197000Y-109868000D01*
X254483000Y-109868000D01*
X254483000Y-109848000D01*
X254737000Y-109848000D01*
X254737000Y-109868000D01*
X257023000Y-109868000D01*
X257023000Y-109848000D01*
X257277000Y-109848000D01*
X257277000Y-109868000D01*
X259563000Y-109868000D01*
X259563000Y-109848000D01*
X259817000Y-109848000D01*
X259817000Y-109868000D01*
X262103000Y-109868000D01*
X262103000Y-109848000D01*
X262357000Y-109848000D01*
X262357000Y-109868000D01*
X263550814Y-109868000D01*
X263671481Y-109638109D01*
X263574157Y-109363748D01*
X263425178Y-109113645D01*
X263230269Y-108897412D01*
X263000594Y-108726100D01*
X263176632Y-108608475D01*
X263383475Y-108401632D01*
X263545990Y-108158411D01*
X263657932Y-107888158D01*
X263715000Y-107601260D01*
X263715000Y-107308740D01*
X263657932Y-107021842D01*
X263545990Y-106751589D01*
X263383475Y-106508368D01*
X263176632Y-106301525D01*
X262933411Y-106139010D01*
X262663158Y-106027068D01*
X262376260Y-105970000D01*
X262083740Y-105970000D01*
X261796842Y-106027068D01*
X261526589Y-106139010D01*
X261283368Y-106301525D01*
X261076525Y-106508368D01*
X260960000Y-106682760D01*
X260843475Y-106508368D01*
X260636632Y-106301525D01*
X260393411Y-106139010D01*
X260123158Y-106027068D01*
X259836260Y-105970000D01*
X259543740Y-105970000D01*
X259256842Y-106027068D01*
X258986589Y-106139010D01*
X258743368Y-106301525D01*
X258536525Y-106508368D01*
X258420000Y-106682760D01*
X258303475Y-106508368D01*
X258096632Y-106301525D01*
X257853411Y-106139010D01*
X257583158Y-106027068D01*
X257296260Y-105970000D01*
X257003740Y-105970000D01*
X256716842Y-106027068D01*
X256446589Y-106139010D01*
X256203368Y-106301525D01*
X255996525Y-106508368D01*
X255880000Y-106682760D01*
X255763475Y-106508368D01*
X255556632Y-106301525D01*
X255313411Y-106139010D01*
X255043158Y-106027068D01*
X254756260Y-105970000D01*
X254463740Y-105970000D01*
X254176842Y-106027068D01*
X253906589Y-106139010D01*
X253663368Y-106301525D01*
X253456525Y-106508368D01*
X253340000Y-106682760D01*
X253223475Y-106508368D01*
X253016632Y-106301525D01*
X252773411Y-106139010D01*
X252503158Y-106027068D01*
X252216260Y-105970000D01*
X251923740Y-105970000D01*
X251636842Y-106027068D01*
X251366589Y-106139010D01*
X251123368Y-106301525D01*
X250916525Y-106508368D01*
X250800000Y-106682760D01*
X250683475Y-106508368D01*
X250476632Y-106301525D01*
X250233411Y-106139010D01*
X249963158Y-106027068D01*
X249676260Y-105970000D01*
X249383740Y-105970000D01*
X249096842Y-106027068D01*
X248826589Y-106139010D01*
X248583368Y-106301525D01*
X248376525Y-106508368D01*
X248260000Y-106682760D01*
X248143475Y-106508368D01*
X247936632Y-106301525D01*
X247693411Y-106139010D01*
X247423158Y-106027068D01*
X247136260Y-105970000D01*
X246843740Y-105970000D01*
X246556842Y-106027068D01*
X246286589Y-106139010D01*
X246043368Y-106301525D01*
X245836525Y-106508368D01*
X245720000Y-106682760D01*
X245603475Y-106508368D01*
X245396632Y-106301525D01*
X245153411Y-106139010D01*
X244883158Y-106027068D01*
X244596260Y-105970000D01*
X244303740Y-105970000D01*
X244016842Y-106027068D01*
X243746589Y-106139010D01*
X243503368Y-106301525D01*
X243296525Y-106508368D01*
X243180000Y-106682760D01*
X243063475Y-106508368D01*
X242856632Y-106301525D01*
X242613411Y-106139010D01*
X242343158Y-106027068D01*
X242056260Y-105970000D01*
X241763740Y-105970000D01*
X241514103Y-106019656D01*
X241305257Y-105810811D01*
X241282237Y-105782761D01*
X241170319Y-105690912D01*
X241042632Y-105622662D01*
X240904084Y-105580634D01*
X240796104Y-105569999D01*
X240759999Y-105566443D01*
X240723894Y-105569999D01*
X233407446Y-105569999D01*
X232248368Y-104410921D01*
X232453411Y-104325990D01*
X232696632Y-104163475D01*
X232903475Y-103956632D01*
X233020000Y-103782240D01*
X233136525Y-103956632D01*
X233343368Y-104163475D01*
X233586589Y-104325990D01*
X233856842Y-104437932D01*
X234143740Y-104495000D01*
X234436260Y-104495000D01*
X234723158Y-104437932D01*
X234993411Y-104325990D01*
X235236632Y-104163475D01*
X235443475Y-103956632D01*
X235560000Y-103782240D01*
X235676525Y-103956632D01*
X235883368Y-104163475D01*
X236126589Y-104325990D01*
X236396842Y-104437932D01*
X236683740Y-104495000D01*
X236976260Y-104495000D01*
X237263158Y-104437932D01*
X237533411Y-104325990D01*
X237776632Y-104163475D01*
X237983475Y-103956632D01*
X238100000Y-103782240D01*
X238216525Y-103956632D01*
X238423368Y-104163475D01*
X238666589Y-104325990D01*
X238936842Y-104437932D01*
X239223740Y-104495000D01*
X239516260Y-104495000D01*
X239803158Y-104437932D01*
X240073411Y-104325990D01*
X240316632Y-104163475D01*
X240523475Y-103956632D01*
X240640000Y-103782240D01*
X240756525Y-103956632D01*
X240963368Y-104163475D01*
X241206589Y-104325990D01*
X241476842Y-104437932D01*
X241763740Y-104495000D01*
X242056260Y-104495000D01*
X242343158Y-104437932D01*
X242613411Y-104325990D01*
X242856632Y-104163475D01*
X243063475Y-103956632D01*
X243180000Y-103782240D01*
X243296525Y-103956632D01*
X243503368Y-104163475D01*
X243746589Y-104325990D01*
X244016842Y-104437932D01*
X244303740Y-104495000D01*
X244596260Y-104495000D01*
X244883158Y-104437932D01*
X245153411Y-104325990D01*
X245396632Y-104163475D01*
X245603475Y-103956632D01*
X245720000Y-103782240D01*
X245836525Y-103956632D01*
X246043368Y-104163475D01*
X246286589Y-104325990D01*
X246556842Y-104437932D01*
X246843740Y-104495000D01*
X247136260Y-104495000D01*
X247423158Y-104437932D01*
X247693411Y-104325990D01*
X247936632Y-104163475D01*
X248143475Y-103956632D01*
X248260000Y-103782240D01*
X248376525Y-103956632D01*
X248583368Y-104163475D01*
X248826589Y-104325990D01*
X249096842Y-104437932D01*
X249383740Y-104495000D01*
X249676260Y-104495000D01*
X249963158Y-104437932D01*
X250233411Y-104325990D01*
X250476632Y-104163475D01*
X250683475Y-103956632D01*
X250800000Y-103782240D01*
X250916525Y-103956632D01*
X251123368Y-104163475D01*
X251366589Y-104325990D01*
X251636842Y-104437932D01*
X251923740Y-104495000D01*
X252216260Y-104495000D01*
X252503158Y-104437932D01*
X252773411Y-104325990D01*
X253016632Y-104163475D01*
X253223475Y-103956632D01*
X253340000Y-103782240D01*
X253456525Y-103956632D01*
X253663368Y-104163475D01*
X253906589Y-104325990D01*
X254176842Y-104437932D01*
X254463740Y-104495000D01*
X254756260Y-104495000D01*
X255043158Y-104437932D01*
X255313411Y-104325990D01*
X255556632Y-104163475D01*
X255763475Y-103956632D01*
X255880000Y-103782240D01*
X255996525Y-103956632D01*
X256203368Y-104163475D01*
X256446589Y-104325990D01*
X256716842Y-104437932D01*
X257003740Y-104495000D01*
X257296260Y-104495000D01*
X257583158Y-104437932D01*
X257853411Y-104325990D01*
X258096632Y-104163475D01*
X258303475Y-103956632D01*
X258420000Y-103782240D01*
X258536525Y-103956632D01*
X258743368Y-104163475D01*
X258986589Y-104325990D01*
X259256842Y-104437932D01*
X259543740Y-104495000D01*
X259836260Y-104495000D01*
X260123158Y-104437932D01*
X260393411Y-104325990D01*
X260636632Y-104163475D01*
X260843475Y-103956632D01*
X260960000Y-103782240D01*
X261076525Y-103956632D01*
X261283368Y-104163475D01*
X261526589Y-104325990D01*
X261796842Y-104437932D01*
X262083740Y-104495000D01*
X262376260Y-104495000D01*
X262663158Y-104437932D01*
X262933411Y-104325990D01*
X263176632Y-104163475D01*
X263383475Y-103956632D01*
X263545990Y-103713411D01*
X263657932Y-103443158D01*
X263715000Y-103156260D01*
X263715000Y-102863740D01*
X263657932Y-102576842D01*
X263545990Y-102306589D01*
X263383475Y-102063368D01*
X263176632Y-101856525D01*
X262933411Y-101694010D01*
X262663158Y-101582068D01*
X262376260Y-101525000D01*
X262083740Y-101525000D01*
X261834103Y-101574656D01*
X261625257Y-101365811D01*
X261602237Y-101337761D01*
X261490319Y-101245912D01*
X261362632Y-101177662D01*
X261224084Y-101135634D01*
X261116104Y-101124999D01*
X261079999Y-101121443D01*
X261043894Y-101124999D01*
X257484446Y-101124999D01*
X256614447Y-100255000D01*
X256776260Y-100255000D01*
X257063158Y-100197932D01*
X257333411Y-100085990D01*
X257576632Y-99923475D01*
X257783475Y-99716632D01*
X257945990Y-99473411D01*
X258057932Y-99203158D01*
X258115000Y-98916260D01*
X258115000Y-98623740D01*
X258057932Y-98336842D01*
X257945990Y-98066589D01*
X257783475Y-97823368D01*
X257576632Y-97616525D01*
X257402240Y-97500000D01*
X257576632Y-97383475D01*
X257680235Y-97279872D01*
X259265000Y-97279872D01*
X259265000Y-97720128D01*
X259350890Y-98151925D01*
X259519369Y-98558669D01*
X259763962Y-98924729D01*
X260075271Y-99236038D01*
X260441331Y-99480631D01*
X260848075Y-99649110D01*
X261279872Y-99735000D01*
X261720128Y-99735000D01*
X262151925Y-99649110D01*
X262558669Y-99480631D01*
X262924729Y-99236038D01*
X263236038Y-98924729D01*
X263480631Y-98558669D01*
X263649110Y-98151925D01*
X263735000Y-97720128D01*
X263735000Y-97279872D01*
X263649110Y-96848075D01*
X263480631Y-96441331D01*
X263236038Y-96075271D01*
X262924729Y-95763962D01*
X262558669Y-95519369D01*
X262151925Y-95350890D01*
X261720128Y-95265000D01*
X261279872Y-95265000D01*
X260848075Y-95350890D01*
X260441331Y-95519369D01*
X260075271Y-95763962D01*
X259763962Y-96075271D01*
X259519369Y-96441331D01*
X259350890Y-96848075D01*
X259265000Y-97279872D01*
X257680235Y-97279872D01*
X257783475Y-97176632D01*
X257945990Y-96933411D01*
X258057932Y-96663158D01*
X258115000Y-96376260D01*
X258115000Y-96083740D01*
X258057932Y-95796842D01*
X257945990Y-95526589D01*
X257783475Y-95283368D01*
X257576632Y-95076525D01*
X257475574Y-95009000D01*
X263156053Y-95009000D01*
X263279285Y-95074524D01*
X263628914Y-95359675D01*
X263881000Y-95664395D01*
X263881000Y-113355893D01*
X263811632Y-113286525D01*
X263568411Y-113124010D01*
X263298158Y-113012068D01*
X263011260Y-112955000D01*
X262718740Y-112955000D01*
X262431842Y-113012068D01*
X262161589Y-113124010D01*
X261918368Y-113286525D01*
X261711525Y-113493368D01*
X261595000Y-113667760D01*
X261478475Y-113493368D01*
X261271632Y-113286525D01*
X261028411Y-113124010D01*
X260758158Y-113012068D01*
X260471260Y-112955000D01*
X260178740Y-112955000D01*
X259891842Y-113012068D01*
X259621589Y-113124010D01*
X259378368Y-113286525D01*
X259171525Y-113493368D01*
X259055000Y-113667760D01*
X258938475Y-113493368D01*
X258731632Y-113286525D01*
X258488411Y-113124010D01*
X258218158Y-113012068D01*
X257931260Y-112955000D01*
X257638740Y-112955000D01*
X257351842Y-113012068D01*
X257081589Y-113124010D01*
X256838368Y-113286525D01*
X256631525Y-113493368D01*
X256515000Y-113667760D01*
X256398475Y-113493368D01*
X256191632Y-113286525D01*
X255948411Y-113124010D01*
X255678158Y-113012068D01*
X255391260Y-112955000D01*
X255098740Y-112955000D01*
X254811842Y-113012068D01*
X254541589Y-113124010D01*
X254298368Y-113286525D01*
X254091525Y-113493368D01*
X253975000Y-113667760D01*
X253858475Y-113493368D01*
X253651632Y-113286525D01*
X253408411Y-113124010D01*
X253138158Y-113012068D01*
X252851260Y-112955000D01*
X252558740Y-112955000D01*
X252271842Y-113012068D01*
X252001589Y-113124010D01*
X251758368Y-113286525D01*
X251551525Y-113493368D01*
X251435000Y-113667760D01*
X251318475Y-113493368D01*
X251111632Y-113286525D01*
X250868411Y-113124010D01*
X250598158Y-113012068D01*
X250311260Y-112955000D01*
X250018740Y-112955000D01*
X249731842Y-113012068D01*
X249461589Y-113124010D01*
X249218368Y-113286525D01*
X249011525Y-113493368D01*
X248895000Y-113667760D01*
X248778475Y-113493368D01*
X248571632Y-113286525D01*
X248328411Y-113124010D01*
X248058158Y-113012068D01*
X247771260Y-112955000D01*
X247478740Y-112955000D01*
X247191842Y-113012068D01*
X246921589Y-113124010D01*
X246678368Y-113286525D01*
X246471525Y-113493368D01*
X246355000Y-113667760D01*
X246238475Y-113493368D01*
X246031632Y-113286525D01*
X245788411Y-113124010D01*
X245518158Y-113012068D01*
X245231260Y-112955000D01*
X244938740Y-112955000D01*
X244651842Y-113012068D01*
X244381589Y-113124010D01*
X244138368Y-113286525D01*
X243931525Y-113493368D01*
X243815000Y-113667760D01*
X243698475Y-113493368D01*
X243491632Y-113286525D01*
X243248411Y-113124010D01*
X242978158Y-113012068D01*
X242691260Y-112955000D01*
X242398740Y-112955000D01*
X242111842Y-113012068D01*
X241841589Y-113124010D01*
X241598368Y-113286525D01*
X241391525Y-113493368D01*
X241275000Y-113667760D01*
X241158475Y-113493368D01*
X240951632Y-113286525D01*
X240708411Y-113124010D01*
X240438158Y-113012068D01*
X240151260Y-112955000D01*
X239858740Y-112955000D01*
X239571842Y-113012068D01*
X239301589Y-113124010D01*
X239058368Y-113286525D01*
X238851525Y-113493368D01*
X238689010Y-113736589D01*
X238577068Y-114006842D01*
X238520000Y-114293740D01*
X238520000Y-114586260D01*
X238577068Y-114873158D01*
X238689010Y-115143411D01*
X238851525Y-115386632D01*
X239058368Y-115593475D01*
X239232760Y-115710000D01*
X239058368Y-115826525D01*
X238851525Y-116033368D01*
X238689010Y-116276589D01*
X238577068Y-116546842D01*
X238520000Y-116833740D01*
X238520000Y-117126260D01*
X238577068Y-117413158D01*
X238689010Y-117683411D01*
X238851525Y-117926632D01*
X239058368Y-118133475D01*
X239232760Y-118250000D01*
X239058368Y-118366525D01*
X238851525Y-118573368D01*
X238689010Y-118816589D01*
X238577068Y-119086842D01*
X238520000Y-119373740D01*
X238520000Y-119666260D01*
X238577068Y-119953158D01*
X238689010Y-120223411D01*
X238851525Y-120466632D01*
X239058368Y-120673475D01*
X239232760Y-120790000D01*
X239058368Y-120906525D01*
X238851525Y-121113368D01*
X238689010Y-121356589D01*
X238577068Y-121626842D01*
X238520000Y-121913740D01*
X238520000Y-122206260D01*
X238577068Y-122493158D01*
X238689010Y-122763411D01*
X238851525Y-123006632D01*
X239058368Y-123213475D01*
X239232760Y-123330000D01*
X239058368Y-123446525D01*
X238851525Y-123653368D01*
X238689010Y-123896589D01*
X238577068Y-124166842D01*
X238520000Y-124453740D01*
X238520000Y-124746260D01*
X238577068Y-125033158D01*
X238689010Y-125303411D01*
X238851525Y-125546632D01*
X239058368Y-125753475D01*
X239232760Y-125870000D01*
X239058368Y-125986525D01*
X238851525Y-126193368D01*
X238689010Y-126436589D01*
X238577068Y-126706842D01*
X238520000Y-126993740D01*
X238520000Y-127286260D01*
X238577068Y-127573158D01*
X238689010Y-127843411D01*
X238851525Y-128086632D01*
X239058368Y-128293475D01*
X239301589Y-128455990D01*
X239571842Y-128567932D01*
X239858740Y-128625000D01*
X240151260Y-128625000D01*
X240438158Y-128567932D01*
X240708411Y-128455990D01*
X240951632Y-128293475D01*
X241158475Y-128086632D01*
X241275000Y-127912240D01*
X241391525Y-128086632D01*
X241598368Y-128293475D01*
X241841589Y-128455990D01*
X242111842Y-128567932D01*
X242398740Y-128625000D01*
X242691260Y-128625000D01*
X242978158Y-128567932D01*
X243248411Y-128455990D01*
X243491632Y-128293475D01*
X243698475Y-128086632D01*
X243815000Y-127912240D01*
X243931525Y-128086632D01*
X244138368Y-128293475D01*
X244381589Y-128455990D01*
X244651842Y-128567932D01*
X244938740Y-128625000D01*
X245231260Y-128625000D01*
X245518158Y-128567932D01*
X245788411Y-128455990D01*
X246031632Y-128293475D01*
X246238475Y-128086632D01*
X246355000Y-127912240D01*
X246471525Y-128086632D01*
X246678368Y-128293475D01*
X246852760Y-128410000D01*
X246678368Y-128526525D01*
X246471525Y-128733368D01*
X246309010Y-128976589D01*
X246197068Y-129246842D01*
X246140000Y-129533740D01*
X246140000Y-129761453D01*
X246136297Y-129757724D01*
X246128885Y-129751679D01*
X245976785Y-129629389D01*
X245924845Y-129595401D01*
X245873367Y-129560678D01*
X245864923Y-129556187D01*
X245691967Y-129465768D01*
X245634410Y-129442513D01*
X245577165Y-129418450D01*
X245568009Y-129415685D01*
X245380783Y-129360582D01*
X245319775Y-129348945D01*
X245258985Y-129336466D01*
X245249466Y-129335532D01*
X245055105Y-129317843D01*
X244992981Y-129318277D01*
X244930933Y-129317844D01*
X244921426Y-129318776D01*
X244921419Y-129318776D01*
X244921413Y-129318777D01*
X244727318Y-129339178D01*
X244666504Y-129351661D01*
X244605519Y-129363295D01*
X244596363Y-129366059D01*
X244409925Y-129423771D01*
X244352692Y-129447830D01*
X244295127Y-129471087D01*
X244286682Y-129475577D01*
X244115006Y-129568402D01*
X244063532Y-129603122D01*
X244011582Y-129637117D01*
X244004170Y-129643162D01*
X243853793Y-129767565D01*
X243810027Y-129811638D01*
X243765689Y-129855057D01*
X243759592Y-129862426D01*
X243636242Y-130013668D01*
X243601881Y-130065386D01*
X243566809Y-130116607D01*
X243562260Y-130125020D01*
X243470635Y-130297343D01*
X243446978Y-130354739D01*
X243422519Y-130411807D01*
X243419690Y-130420943D01*
X243363281Y-130607780D01*
X243351219Y-130668698D01*
X243338314Y-130729410D01*
X243337314Y-130738922D01*
X243318269Y-130933155D01*
X243318269Y-130933173D01*
X243315001Y-130966353D01*
X243315000Y-146033646D01*
X243318366Y-146067821D01*
X243318366Y-146080806D01*
X243319366Y-146090318D01*
X243341121Y-146284268D01*
X243354025Y-146344976D01*
X243366089Y-146405901D01*
X243368917Y-146415038D01*
X243427930Y-146601068D01*
X243452377Y-146658105D01*
X243476046Y-146715531D01*
X243480595Y-146723944D01*
X243574617Y-146894969D01*
X243609692Y-146946194D01*
X243644050Y-146997906D01*
X243650146Y-147005276D01*
X243775596Y-147154782D01*
X243819974Y-147198240D01*
X243863703Y-147242275D01*
X243871109Y-147248315D01*
X243871113Y-147248319D01*
X243871115Y-147248320D01*
X244023214Y-147370611D01*
X244075139Y-147404589D01*
X244126632Y-147439322D01*
X244135077Y-147443812D01*
X244308033Y-147534232D01*
X244365590Y-147557487D01*
X244422835Y-147581550D01*
X244431991Y-147584315D01*
X244619217Y-147639418D01*
X244680218Y-147651054D01*
X244741015Y-147663534D01*
X244750533Y-147664468D01*
X244944895Y-147682157D01*
X245006986Y-147681723D01*
X245069066Y-147682156D01*
X245078585Y-147681223D01*
X245272682Y-147660822D01*
X245333496Y-147648339D01*
X245394481Y-147636705D01*
X245403637Y-147633941D01*
X245590075Y-147576229D01*
X245647279Y-147552182D01*
X245704873Y-147528913D01*
X245713317Y-147524423D01*
X245884994Y-147431598D01*
X245936468Y-147396878D01*
X245988418Y-147362883D01*
X245995829Y-147356839D01*
X246146207Y-147232435D01*
X246158669Y-147219886D01*
X246140000Y-147313740D01*
X246140000Y-147606260D01*
X246197068Y-147893158D01*
X246309010Y-148163411D01*
X246471525Y-148406632D01*
X246678368Y-148613475D01*
X246921589Y-148775990D01*
X247191842Y-148887932D01*
X247478740Y-148945000D01*
X247771260Y-148945000D01*
X248058158Y-148887932D01*
X248328411Y-148775990D01*
X248571632Y-148613475D01*
X248778475Y-148406632D01*
X248895000Y-148232240D01*
X249011525Y-148406632D01*
X249218368Y-148613475D01*
X249461589Y-148775990D01*
X249731842Y-148887932D01*
X250018740Y-148945000D01*
X250311260Y-148945000D01*
X250598158Y-148887932D01*
X250868411Y-148775990D01*
X251111632Y-148613475D01*
X251318475Y-148406632D01*
X251435000Y-148232240D01*
X251551525Y-148406632D01*
X251758368Y-148613475D01*
X252001589Y-148775990D01*
X252271842Y-148887932D01*
X252558740Y-148945000D01*
X252851260Y-148945000D01*
X253138158Y-148887932D01*
X253408411Y-148775990D01*
X253651632Y-148613475D01*
X253858475Y-148406632D01*
X253975000Y-148232240D01*
X254091525Y-148406632D01*
X254298368Y-148613475D01*
X254541589Y-148775990D01*
X254811842Y-148887932D01*
X255098740Y-148945000D01*
X255391260Y-148945000D01*
X255678158Y-148887932D01*
X255948411Y-148775990D01*
X256191632Y-148613475D01*
X256398475Y-148406632D01*
X256560990Y-148163411D01*
X256578500Y-148121138D01*
X256596010Y-148163411D01*
X256758525Y-148406632D01*
X256965368Y-148613475D01*
X257208589Y-148775990D01*
X257478842Y-148887932D01*
X257765740Y-148945000D01*
X258058260Y-148945000D01*
X258345158Y-148887932D01*
X258615411Y-148775990D01*
X258858632Y-148613475D01*
X259065475Y-148406632D01*
X259227990Y-148163411D01*
X259339932Y-147893158D01*
X259397000Y-147606260D01*
X259397000Y-147313740D01*
X259377676Y-147216592D01*
X259519369Y-147558669D01*
X259763962Y-147924729D01*
X260075271Y-148236038D01*
X260441331Y-148480631D01*
X260848075Y-148649110D01*
X261279872Y-148735000D01*
X261720128Y-148735000D01*
X262151925Y-148649110D01*
X262558669Y-148480631D01*
X262924729Y-148236038D01*
X263236038Y-147924729D01*
X263480631Y-147558669D01*
X263649110Y-147151925D01*
X263735000Y-146720128D01*
X263735000Y-146279872D01*
X263649110Y-145848075D01*
X263480631Y-145441331D01*
X263236038Y-145075271D01*
X262924729Y-144763962D01*
X262558669Y-144519369D01*
X262151925Y-144350890D01*
X261720128Y-144265000D01*
X261279872Y-144265000D01*
X260848075Y-144350890D01*
X260441331Y-144519369D01*
X260075271Y-144763962D01*
X259763962Y-145075271D01*
X259519369Y-145441331D01*
X259350890Y-145848075D01*
X259265000Y-146279872D01*
X259265000Y-146720128D01*
X259313146Y-146962176D01*
X259227990Y-146756589D01*
X259065475Y-146513368D01*
X258858632Y-146306525D01*
X258684240Y-146190000D01*
X258858632Y-146073475D01*
X259065475Y-145866632D01*
X259227990Y-145623411D01*
X259339932Y-145353158D01*
X259397000Y-145066260D01*
X259397000Y-144773740D01*
X259339932Y-144486842D01*
X259227990Y-144216589D01*
X259065475Y-143973368D01*
X258858632Y-143766525D01*
X258684240Y-143650000D01*
X258858632Y-143533475D01*
X259065475Y-143326632D01*
X259182000Y-143152240D01*
X259298525Y-143326632D01*
X259505368Y-143533475D01*
X259748589Y-143695990D01*
X260018842Y-143807932D01*
X260305740Y-143865000D01*
X260598260Y-143865000D01*
X260885158Y-143807932D01*
X261155411Y-143695990D01*
X261398632Y-143533475D01*
X261605475Y-143326632D01*
X261722000Y-143152240D01*
X261838525Y-143326632D01*
X262045368Y-143533475D01*
X262288589Y-143695990D01*
X262558842Y-143807932D01*
X262845740Y-143865000D01*
X263138260Y-143865000D01*
X263425158Y-143807932D01*
X263695411Y-143695990D01*
X263881000Y-143571983D01*
X263881000Y-148333818D01*
X263640325Y-148628914D01*
X263292697Y-148916497D01*
X262932971Y-149111000D01*
X202069634Y-149111000D01*
X201720720Y-148925480D01*
X201371086Y-148640325D01*
X201143000Y-148364616D01*
X201143000Y-146279872D01*
X201265000Y-146279872D01*
X201265000Y-146720128D01*
X201350890Y-147151925D01*
X201519369Y-147558669D01*
X201763962Y-147924729D01*
X202075271Y-148236038D01*
X202441331Y-148480631D01*
X202848075Y-148649110D01*
X203279872Y-148735000D01*
X203720128Y-148735000D01*
X204151925Y-148649110D01*
X204558669Y-148480631D01*
X204924729Y-148236038D01*
X205236038Y-147924729D01*
X205480631Y-147558669D01*
X205649110Y-147151925D01*
X205735000Y-146720128D01*
X205735000Y-146279872D01*
X205649110Y-145848075D01*
X205480631Y-145441331D01*
X205236038Y-145075271D01*
X204924729Y-144763962D01*
X204558669Y-144519369D01*
X204151925Y-144350890D01*
X203720128Y-144265000D01*
X203279872Y-144265000D01*
X202848075Y-144350890D01*
X202441331Y-144519369D01*
X202075271Y-144763962D01*
X201763962Y-145075271D01*
X201519369Y-145441331D01*
X201350890Y-145848075D01*
X201265000Y-146279872D01*
X201143000Y-146279872D01*
X201143000Y-137306842D01*
X201201589Y-137345990D01*
X201471842Y-137457932D01*
X201758740Y-137515000D01*
X202051260Y-137515000D01*
X202338158Y-137457932D01*
X202608411Y-137345990D01*
X202851632Y-137183475D01*
X203058475Y-136976632D01*
X203220990Y-136733411D01*
X203332932Y-136463158D01*
X203390000Y-136176260D01*
X203390000Y-135883740D01*
X203332932Y-135596842D01*
X203220990Y-135326589D01*
X203058475Y-135083368D01*
X202926620Y-134951513D01*
X202999180Y-134929502D01*
X203109494Y-134870537D01*
X203206185Y-134791185D01*
X203285537Y-134694494D01*
X203344502Y-134584180D01*
X203380812Y-134464482D01*
X203393072Y-134340000D01*
X203393072Y-132640000D01*
X203380812Y-132515518D01*
X203344502Y-132395820D01*
X203285537Y-132285506D01*
X203206185Y-132188815D01*
X203109494Y-132109463D01*
X202999180Y-132050498D01*
X202879482Y-132014188D01*
X202755000Y-132001928D01*
X201143000Y-132001928D01*
X201143000Y-131185000D01*
X204533647Y-131185000D01*
X204562601Y-131182148D01*
X204565573Y-131182169D01*
X204575092Y-131181236D01*
X204623218Y-131176178D01*
X204634283Y-131175088D01*
X204634652Y-131174976D01*
X204672140Y-131171036D01*
X204732990Y-131158545D01*
X204793942Y-131146918D01*
X204803096Y-131144155D01*
X204803102Y-131144153D01*
X204896317Y-131115298D01*
X204953533Y-131091246D01*
X205011119Y-131067980D01*
X205019564Y-131063490D01*
X205105401Y-131017077D01*
X205156867Y-130982362D01*
X205208821Y-130948364D01*
X205216232Y-130942320D01*
X205291421Y-130880118D01*
X205335162Y-130836070D01*
X205379522Y-130792631D01*
X205385618Y-130785261D01*
X205385623Y-130785256D01*
X205385627Y-130785250D01*
X205447294Y-130709640D01*
X205481632Y-130657959D01*
X205516733Y-130606694D01*
X205521282Y-130598281D01*
X205567094Y-130512120D01*
X205590758Y-130454704D01*
X205615208Y-130397661D01*
X205618036Y-130388525D01*
X205646241Y-130295107D01*
X205658303Y-130234187D01*
X205671209Y-130173470D01*
X205672209Y-130163958D01*
X205681731Y-130066841D01*
X205681731Y-130066837D01*
X205685000Y-130033647D01*
X205685000Y-127270000D01*
X206930000Y-127270000D01*
X207013238Y-128884804D01*
X207262071Y-130482490D01*
X207673861Y-132046123D01*
X208244243Y-133559129D01*
X208967170Y-135005467D01*
X209834980Y-136369808D01*
X210415611Y-137103417D01*
X210016075Y-137182890D01*
X209609331Y-137351369D01*
X209243271Y-137595962D01*
X208931962Y-137907271D01*
X208687369Y-138273331D01*
X208518890Y-138680075D01*
X208433000Y-139111872D01*
X208433000Y-139552128D01*
X208518890Y-139983925D01*
X208687369Y-140390669D01*
X208931962Y-140756729D01*
X209243271Y-141068038D01*
X209609331Y-141312631D01*
X210016075Y-141481110D01*
X210447872Y-141567000D01*
X210888128Y-141567000D01*
X211319925Y-141481110D01*
X211726669Y-141312631D01*
X212092729Y-141068038D01*
X212404038Y-140756729D01*
X212648631Y-140390669D01*
X212817110Y-139983925D01*
X212898841Y-139573034D01*
X213208635Y-139831475D01*
X214550179Y-140734126D01*
X215977424Y-141494054D01*
X217475242Y-142103203D01*
X219027754Y-142555117D01*
X220618504Y-142845005D01*
X222230629Y-142969793D01*
X223847041Y-142928160D01*
X225450604Y-142720547D01*
X227024322Y-142349154D01*
X228551512Y-141817918D01*
X230015985Y-141132471D01*
X231402218Y-140300077D01*
X232320680Y-139610846D01*
X232394890Y-139983925D01*
X232563369Y-140390669D01*
X232807962Y-140756729D01*
X233119271Y-141068038D01*
X233485331Y-141312631D01*
X233892075Y-141481110D01*
X234323872Y-141567000D01*
X234764128Y-141567000D01*
X235195925Y-141481110D01*
X235602669Y-141312631D01*
X235968729Y-141068038D01*
X236280038Y-140756729D01*
X236524631Y-140390669D01*
X236693110Y-139983925D01*
X236779000Y-139552128D01*
X236779000Y-139111872D01*
X236693110Y-138680075D01*
X236524631Y-138273331D01*
X236280038Y-137907271D01*
X235968729Y-137595962D01*
X235602669Y-137351369D01*
X235195925Y-137182890D01*
X234861909Y-137116450D01*
X234945015Y-137021890D01*
X239198524Y-137021890D01*
X239243175Y-137169099D01*
X239368359Y-137431920D01*
X239542412Y-137665269D01*
X239758645Y-137860178D01*
X240008748Y-138009157D01*
X240283109Y-138106481D01*
X240513000Y-137985814D01*
X240513000Y-136792000D01*
X240767000Y-136792000D01*
X240767000Y-137985814D01*
X240996891Y-138106481D01*
X241271252Y-138009157D01*
X241521355Y-137860178D01*
X241737588Y-137665269D01*
X241911641Y-137431920D01*
X242036825Y-137169099D01*
X242081476Y-137021890D01*
X241960155Y-136792000D01*
X240767000Y-136792000D01*
X240513000Y-136792000D01*
X239319845Y-136792000D01*
X239198524Y-137021890D01*
X234945015Y-137021890D01*
X234949602Y-137016672D01*
X235886495Y-135698814D01*
X236682920Y-134291608D01*
X237127203Y-133275000D01*
X239151928Y-133275000D01*
X239151928Y-134975000D01*
X239164188Y-135099482D01*
X239200498Y-135219180D01*
X239259463Y-135329494D01*
X239338815Y-135426185D01*
X239435506Y-135505537D01*
X239545820Y-135564502D01*
X239626466Y-135588966D01*
X239542412Y-135664731D01*
X239368359Y-135898080D01*
X239243175Y-136160901D01*
X239198524Y-136308110D01*
X239319845Y-136538000D01*
X240513000Y-136538000D01*
X240513000Y-136518000D01*
X240767000Y-136518000D01*
X240767000Y-136538000D01*
X241960155Y-136538000D01*
X242081476Y-136308110D01*
X242036825Y-136160901D01*
X241911641Y-135898080D01*
X241737588Y-135664731D01*
X241653534Y-135588966D01*
X241734180Y-135564502D01*
X241844494Y-135505537D01*
X241941185Y-135426185D01*
X242020537Y-135329494D01*
X242079502Y-135219180D01*
X242115812Y-135099482D01*
X242128072Y-134975000D01*
X242128072Y-133275000D01*
X242115812Y-133150518D01*
X242079502Y-133030820D01*
X242020537Y-132920506D01*
X241941185Y-132823815D01*
X241844494Y-132744463D01*
X241734180Y-132685498D01*
X241614482Y-132649188D01*
X241490000Y-132636928D01*
X239790000Y-132636928D01*
X239665518Y-132649188D01*
X239545820Y-132685498D01*
X239435506Y-132744463D01*
X239338815Y-132823815D01*
X239259463Y-132920506D01*
X239200498Y-133030820D01*
X239164188Y-133150518D01*
X239151928Y-133275000D01*
X237127203Y-133275000D01*
X237330433Y-132809972D01*
X237822170Y-131269610D01*
X238152920Y-129686852D01*
X238319177Y-128078474D01*
X238319177Y-126461526D01*
X238152920Y-124853148D01*
X237822170Y-123270390D01*
X237330433Y-121730028D01*
X236682920Y-120248392D01*
X235886495Y-118841186D01*
X234949602Y-117523328D01*
X234873730Y-117437000D01*
X235018128Y-117437000D01*
X235449925Y-117351110D01*
X235856669Y-117182631D01*
X236222729Y-116938038D01*
X236534038Y-116626729D01*
X236778631Y-116260669D01*
X236947110Y-115853925D01*
X237033000Y-115422128D01*
X237033000Y-114981872D01*
X236947110Y-114550075D01*
X236778631Y-114143331D01*
X236534038Y-113777271D01*
X236222729Y-113465962D01*
X235856669Y-113221369D01*
X235449925Y-113052890D01*
X235018128Y-112967000D01*
X234577872Y-112967000D01*
X234146075Y-113052890D01*
X233739331Y-113221369D01*
X233373271Y-113465962D01*
X233061962Y-113777271D01*
X232817369Y-114143331D01*
X232648890Y-114550075D01*
X232563000Y-114981872D01*
X232563000Y-115110996D01*
X231402218Y-114239923D01*
X230015985Y-113407529D01*
X228551512Y-112722082D01*
X227024322Y-112190846D01*
X225450604Y-111819453D01*
X223847041Y-111611840D01*
X222230629Y-111570207D01*
X220618504Y-111694995D01*
X219027754Y-111984883D01*
X217475242Y-112436797D01*
X215977424Y-113045946D01*
X214550179Y-113805874D01*
X213208635Y-114708525D01*
X212899865Y-114966112D01*
X212817110Y-114550075D01*
X212648631Y-114143331D01*
X212404038Y-113777271D01*
X212092729Y-113465962D01*
X211726669Y-113221369D01*
X211319925Y-113052890D01*
X210888128Y-112967000D01*
X210447872Y-112967000D01*
X210016075Y-113052890D01*
X209609331Y-113221369D01*
X209243271Y-113465962D01*
X208931962Y-113777271D01*
X208687369Y-114143331D01*
X208518890Y-114550075D01*
X208433000Y-114981872D01*
X208433000Y-115422128D01*
X208518890Y-115853925D01*
X208687369Y-116260669D01*
X208931962Y-116626729D01*
X209243271Y-116938038D01*
X209609331Y-117182631D01*
X210016075Y-117351110D01*
X210419714Y-117431399D01*
X209834980Y-118170192D01*
X208967170Y-119534533D01*
X208244243Y-120980871D01*
X207673861Y-122493877D01*
X207262071Y-124057510D01*
X207013238Y-125655196D01*
X206930000Y-127270000D01*
X205685000Y-127270000D01*
X205685000Y-113966353D01*
X205682148Y-113937399D01*
X205682169Y-113934427D01*
X205681236Y-113924909D01*
X205676179Y-113876790D01*
X205675088Y-113865717D01*
X205674976Y-113865348D01*
X205671036Y-113827860D01*
X205658547Y-113767017D01*
X205646918Y-113706058D01*
X205644154Y-113696902D01*
X205615298Y-113603683D01*
X205591232Y-113546434D01*
X205567979Y-113488881D01*
X205563489Y-113480436D01*
X205517077Y-113394598D01*
X205482350Y-113343115D01*
X205448364Y-113291179D01*
X205442320Y-113283767D01*
X205380118Y-113208579D01*
X205336051Y-113164818D01*
X205292630Y-113120478D01*
X205285261Y-113114381D01*
X205209640Y-113052706D01*
X205157959Y-113018368D01*
X205106694Y-112983267D01*
X205098281Y-112978718D01*
X205012120Y-112932906D01*
X204954704Y-112909242D01*
X204897661Y-112884792D01*
X204888525Y-112881964D01*
X204795107Y-112853759D01*
X204734195Y-112841698D01*
X204673471Y-112828791D01*
X204663959Y-112827791D01*
X204566841Y-112818269D01*
X204566837Y-112818269D01*
X204533647Y-112815000D01*
X201143000Y-112815000D01*
X201143000Y-108077000D01*
X201280928Y-108077000D01*
X201293188Y-108201482D01*
X201329498Y-108321180D01*
X201388463Y-108431494D01*
X201467815Y-108528185D01*
X201564506Y-108607537D01*
X201674820Y-108666502D01*
X201794518Y-108702812D01*
X201919000Y-108715072D01*
X202508250Y-108712000D01*
X202667000Y-108553250D01*
X202667000Y-107579000D01*
X201442750Y-107579000D01*
X201284000Y-107737750D01*
X201280928Y-108077000D01*
X201143000Y-108077000D01*
X201143000Y-106827000D01*
X201280928Y-106827000D01*
X201284000Y-107166250D01*
X201442750Y-107325000D01*
X202667000Y-107325000D01*
X202667000Y-106350750D01*
X202508250Y-106192000D01*
X201919000Y-106188928D01*
X201794518Y-106201188D01*
X201674820Y-106237498D01*
X201564506Y-106296463D01*
X201467815Y-106375815D01*
X201388463Y-106472506D01*
X201329498Y-106582820D01*
X201293188Y-106702518D01*
X201280928Y-106827000D01*
X201143000Y-106827000D01*
X201143000Y-95636755D01*
X201359675Y-95371086D01*
X201707303Y-95083503D01*
X201845093Y-95009000D01*
X207524426Y-95009000D01*
X207423368Y-95076525D01*
G36*
X213577000Y-96103000D02*
G01*
X213597000Y-96103000D01*
X213597000Y-96357000D01*
X213577000Y-96357000D01*
X213577000Y-96377000D01*
X213323000Y-96377000D01*
X213323000Y-96357000D01*
X213303000Y-96357000D01*
X213303000Y-96103000D01*
X213323000Y-96103000D01*
X213323000Y-96083000D01*
X213577000Y-96083000D01*
X213577000Y-96103000D01*
G37*
X213577000Y-96103000D02*
X213597000Y-96103000D01*
X213597000Y-96357000D01*
X213577000Y-96357000D01*
X213577000Y-96377000D01*
X213323000Y-96377000D01*
X213323000Y-96357000D01*
X213303000Y-96357000D01*
X213303000Y-96103000D01*
X213323000Y-96103000D01*
X213323000Y-96083000D01*
X213577000Y-96083000D01*
X213577000Y-96103000D01*
G36*
X212449731Y-95132412D02*
G01*
X212254822Y-95348645D01*
X212185195Y-95465534D01*
X212063475Y-95283368D01*
X211856632Y-95076525D01*
X211755574Y-95009000D01*
X212615187Y-95009000D01*
X212449731Y-95132412D01*
G37*
X212449731Y-95132412D02*
X212254822Y-95348645D01*
X212185195Y-95465534D01*
X212063475Y-95283368D01*
X211856632Y-95076525D01*
X211755574Y-95009000D01*
X212615187Y-95009000D01*
X212449731Y-95132412D01*
M02*
